<svg width="72" height="72" viewBox="0 0 72 72" fill="none" xmlns="http://www.w3.org/2000/svg">
<path fill-rule="evenodd" clip-rule="evenodd" d="M47.8378 37.4995C47.8378 44.0821 42.5016 49.4184 35.9189 49.4184C29.3363 49.4184 24 44.0821 24 37.4995C24 30.9168 29.3363 25.5806 35.9189 25.5806C42.5016 25.5806 47.8378 30.9168 47.8378 37.4995ZM44.9189 37.4995C44.9189 42.47 40.8895 46.4995 35.9189 46.4995C30.9484 46.4995 26.9189 42.47 26.9189 37.4995C26.9189 32.5289 30.9484 28.4995 35.9189 28.4995C40.8895 28.4995 44.9189 32.5289 44.9189 37.4995Z" fill="#DB2F00"/>
<path fill-rule="evenodd" clip-rule="evenodd" d="M32.1449 33.7255C32.5724 33.298 33.2654 33.298 33.6929 33.7255L35.9189 35.9515L38.1449 33.7255C38.5724 33.298 39.2654 33.298 39.6929 33.7255C40.1204 34.153 40.1204 34.846 39.6929 35.2735L37.4669 37.4995L39.6929 39.7255C40.1204 40.153 40.1204 40.846 39.6929 41.2735C39.2654 41.7009 38.5724 41.7009 38.1449 41.2735L35.9189 39.0475L33.6929 41.2735C33.2654 41.7009 32.5724 41.7009 32.1449 41.2735C31.7175 40.846 31.7175 40.153 32.1449 39.7255L34.3709 37.4995L32.1449 35.2735C31.7175 34.846 31.7175 34.153 32.1449 33.7255Z" fill="#DB2F00"/>
<path fill-rule="evenodd" clip-rule="evenodd" d="M60.2782 18.1089C60.1785 18.0681 60.0738 18.0381 59.9659 18.02C55.5902 17.1721 44.8667 14.2252 36.8008 9.23739C36.741 9.19865 36.6787 9.16447 36.6146 9.13499C36.417 9.04366 36.2075 8.9998 36 9C35.7925 8.9998 35.5829 9.04365 35.3854 9.13498C35.3212 9.16447 35.259 9.19865 35.1992 9.23739C27.1331 14.2253 16.4094 17.1722 12.0338 18.02C11.9287 18.0377 11.8266 18.0667 11.7291 18.106C11.2352 18.3039 10.8879 18.7553 10.8103 19.2767C9.28635 28.425 12.7579 49.4408 35.2246 62.7787C35.2773 62.8113 35.3319 62.8405 35.3879 62.8661C35.585 62.9568 35.7936 63.0002 36 63C36.2064 63.0002 36.415 62.9568 36.6121 62.8661C36.6681 62.8405 36.7226 62.8113 36.7754 62.7787C59.2434 49.44 62.7141 28.4225 61.1894 19.2751C61.1799 19.2118 61.1664 19.1495 61.1492 19.0886C61.0213 18.6329 60.6918 18.2783 60.2782 18.1089ZM58.4004 20.7585C53.523 19.6981 43.8008 16.8758 36 12.2487C28.1992 16.8758 18.477 19.6981 13.5996 20.7585C12.6677 29.2242 16.1561 47.5856 36 59.7536C55.8438 47.5856 59.3323 29.2242 58.4004 20.7585Z" fill="#18181B"/>
<path d="M36.6711 15.699C39.6687 18.1708 43.2589 19.9911 46.4788 21.1937C49.7296 22.4078 52.4876 22.9501 53.7923 22.9501C54.3655 22.9501 54.8302 23.4202 54.8302 24.0001C54.8302 24.58 54.3655 25.0501 53.7923 25.0501C52.1316 25.0501 49.1071 24.4138 45.7599 23.1637C42.6131 21.9884 39.0799 20.2334 36 17.8393C32.92 20.2334 29.3869 21.9884 26.2401 23.1637C22.8928 24.4138 19.8683 25.0501 18.2077 25.0501C17.6345 25.0501 17.1698 24.58 17.1698 24.0001C17.1698 23.4202 17.6345 22.9501 18.2077 22.9501C19.5124 22.9501 22.2704 22.4078 25.5212 21.1937C28.741 19.9911 32.3313 18.1708 35.3288 15.699C35.3991 15.6386 35.4758 15.5891 35.5567 15.5505C35.6975 15.4831 35.849 15.45 36 15.4501C36.1509 15.45 36.3025 15.4831 36.4433 15.5505C36.5242 15.5891 36.6009 15.6386 36.6711 15.699Z" fill="#18181B"/>
</svg>
