<svg width="72" height="72" viewBox="0 0 72 72" fill="none" xmlns="http://www.w3.org/2000/svg">
<path d="M38.1693 26.4853C38.1693 25.2473 37.1657 24.2437 35.9277 24.2437C34.6897 24.2437 33.6861 25.2473 33.6861 26.4853V42.6267C33.6861 43.8647 34.6897 44.8683 35.9277 44.8683C37.1657 44.8683 38.1693 43.8647 38.1693 42.6267V26.4853Z" fill="#DB2F00"/>
<path d="M38.5526 51.2848C38.5526 49.8351 37.3774 48.6599 35.9277 48.6599C34.478 48.6599 33.3027 49.8351 33.3027 51.2848C33.3027 52.7346 34.478 53.9098 35.9277 53.9098C37.3774 53.9098 38.5526 52.7346 38.5526 51.2848Z" fill="#DB2F00"/>
<path d="M36.0037 62.9179C28.172 63.0038 20.3441 62.5332 12.5791 61.5096C11.3907 61.3394 10.2591 60.8916 9.27601 60.2024C8.29295 59.5133 7.48611 58.6022 6.92087 57.543C6.35076 56.4943 6.03626 55.3259 6.00295 54.1327C5.96965 52.9395 6.21848 51.7553 6.7292 50.6765C10.8958 41.835 19.3956 25.0269 30.0621 11.8522C30.7799 10.9617 31.688 10.2433 32.7198 9.74974C33.7516 9.25619 34.8808 9 36.0245 9C37.1683 9 38.2975 9.25619 39.3292 9.74974C40.361 10.2433 41.2691 10.9617 41.9869 11.8522C52.67 25.0103 61.1449 41.7933 65.2782 50.6182C65.7846 51.7011 66.0307 52.8874 65.9969 54.0824C65.9632 55.2774 65.6504 56.4479 65.0836 57.5005C64.5169 58.553 63.7118 59.4585 62.7327 60.1445C61.7537 60.8305 60.6278 61.278 59.4449 61.4513C51.6769 62.5063 43.8426 62.9964 36.0037 62.9179ZM31.8371 13.3355C21.3873 26.3186 12.9624 42.9266 8.87083 51.6765C8.51799 52.4229 8.34617 53.2421 8.36934 54.0674C8.3925 54.8927 8.61 55.7009 9.00416 56.4264C9.39656 57.1583 9.95545 57.7877 10.6358 58.2639C11.3161 58.7401 12.0988 59.0498 12.9208 59.168C20.5726 60.1748 28.2863 60.637 36.0037 60.5513C43.7255 60.6293 51.4428 60.1475 59.0949 59.1097C59.9126 58.9877 60.6904 58.6765 61.3665 58.2008C62.0426 57.7251 62.5983 57.098 62.9892 56.3696C63.3801 55.6412 63.5955 54.8316 63.6182 54.0052C63.6409 53.1788 63.4702 52.3586 63.1199 51.6098C59.0366 42.8766 50.6201 26.2936 40.1203 13.3271C39.6234 12.7129 38.9956 12.2175 38.2826 11.8771C37.5696 11.5368 36.7896 11.3602 35.9995 11.3602C35.2095 11.3602 34.4294 11.5368 33.7164 11.8771C33.0035 12.2175 32.3756 12.7129 31.8788 13.3271L31.8371 13.3355Z" fill="#18181B"/>
</svg>
