<svg width="72" height="72" viewBox="0 0 72 72" fill="none" xmlns="http://www.w3.org/2000/svg">
<path fill-rule="evenodd" clip-rule="evenodd" d="M47.9199 43.5009C47.9199 50.0836 42.5836 55.4199 36.0009 55.4199C29.4183 55.4199 24.082 50.0836 24.082 43.5009C24.082 36.9183 29.4183 31.582 36.0009 31.582C42.5836 31.582 47.9199 36.9183 47.9199 43.5009ZM45.0009 43.5009C45.0009 48.4715 40.9715 52.5009 36.0009 52.5009C31.0304 52.5009 27.0009 48.4715 27.0009 43.5009C27.0009 38.5304 31.0304 34.5009 36.0009 34.5009C40.9715 34.5009 45.0009 38.5304 45.0009 43.5009Z" fill="#DB2F00"/>
<path d="M32.227 39.727C32.6544 39.2995 33.3475 39.2995 33.7749 39.727L36.0009 41.953L38.227 39.727C38.6544 39.2995 39.3475 39.2995 39.7749 39.727C40.2024 40.1544 40.2024 40.8475 39.7749 41.2749L37.5489 43.5009L39.7749 45.727C40.2024 46.1544 40.2024 46.8475 39.7749 47.2749C39.3475 47.7024 38.6544 47.7024 38.227 47.2749L36.0009 45.0489L33.7749 47.2749C33.3475 47.7024 32.6544 47.7024 32.227 47.2749C31.7995 46.8475 31.7995 46.1544 32.227 45.727L34.453 43.5009L32.227 41.2749C31.7995 40.8475 31.7995 40.1544 32.227 39.727Z" fill="#DB2F00"/>
<path fill-rule="evenodd" clip-rule="evenodd" d="M28.9497 20.9994C28.9497 20.4195 29.4198 19.9494 29.9997 19.9494H41.9997C42.5796 19.9494 43.0497 20.4195 43.0497 20.9994C43.0497 21.5793 42.5796 22.0494 41.9997 22.0494H29.9997C29.4198 22.0494 28.9497 21.5793 28.9497 20.9994Z" fill="#18181B"/>
<path fill-rule="evenodd" clip-rule="evenodd" d="M28.9497 20.9994C28.9497 20.4195 29.4198 19.9494 29.9997 19.9494H41.9997C42.5796 19.9494 43.0497 20.4195 43.0497 20.9994C43.0497 21.5793 42.5796 22.0494 41.9997 22.0494H29.9997C29.4198 22.0494 28.9497 21.5793 28.9497 20.9994Z" fill="#18181B"/>
<path fill-rule="evenodd" clip-rule="evenodd" d="M36.8927 12.1163L62.0825 18.7548C63.4219 19.1051 64.5 20.2633 64.5 21.7554V25.3861C64.5 27.2608 62.8412 28.4997 61.1913 28.4997L60 28.4998V51.4494C62.2366 51.4495 64.0497 53.2627 64.0497 55.4994V58.4994C64.0497 59.0793 63.5796 59.5494 62.9997 59.5494H47.9997C47.4198 59.5494 46.9497 59.0793 46.9497 58.4994V55.4994C46.9497 53.2626 48.763 51.4494 50.9997 51.4494L51 28.4998L21 28.5V51.4494C23.2366 51.4495 25.0497 53.2627 25.0497 55.4994V58.4994C25.0497 59.0793 24.5796 59.5494 23.9997 59.5494H8.99971C8.41981 59.5494 7.94971 59.0793 7.94971 58.4994V55.4994C7.94971 53.2626 9.76295 51.4494 11.9997 51.4494L12 28.4997H10.7997C9.13959 28.4997 7.5 27.2517 7.5 25.3861V21.7554C7.5 20.2547 8.5934 19.104 9.9133 18.7559L35.1052 12.1169C35.6899 11.9614 36.308 11.9608 36.8927 12.1163ZM35.8779 15.0156C35.9577 14.9944 36.0423 14.9944 36.1221 15.0156L36.1262 15.0167L61.322 21.6568L61.3259 21.6578C61.4239 21.6834 61.4726 21.7267 61.4906 21.7482C61.4957 21.7543 61.5 21.7613 61.5 21.7613V25.3717C61.4957 25.3785 61.4867 25.39 61.4693 25.4054C61.4173 25.4517 61.3208 25.4997 61.1913 25.4997H10.7997C10.6711 25.4997 10.5786 25.4524 10.53 25.4089C10.5125 25.3931 10.5039 25.3817 10.5 25.3751V21.7653C10.5 21.7653 10.5051 21.7575 10.5104 21.751C10.532 21.7254 10.5841 21.6816 10.6783 21.6567L35.8738 15.0167L35.8779 15.0156ZM18 51.4494H15V28.4997H18V51.4494ZM11.9997 53.5494C10.9228 53.5494 10.0497 54.4224 10.0497 55.4994V57.4494H22.9497V55.4994C22.9497 54.4224 22.0767 53.5494 20.9997 53.5494H11.9997ZM57 51.4494H54V28.4997L57 28.5V51.4494ZM49.0497 55.4994C49.0497 54.4224 49.9228 53.5494 50.9997 53.5494H59.9997C61.0767 53.5494 61.9497 54.4224 61.9497 55.4994V57.4494H49.0497V55.4994Z" fill="#18181B"/>
</svg>
