<svg width="72" height="72" viewBox="0 0 72 72" fill="none" xmlns="http://www.w3.org/2000/svg">
<path d="M32.2271 32.2278C32.6546 31.8004 33.3476 31.8004 33.7751 32.2278L36.0011 34.4538L38.2271 32.2278C38.6546 31.8004 39.3476 31.8004 39.7751 32.2278C40.2025 32.6553 40.2025 33.3484 39.7751 33.7758L37.5491 36.0018L39.7751 38.2278C40.2025 38.6553 40.2025 39.3483 39.7751 39.7758C39.3476 40.2033 38.6546 40.2033 38.2271 39.7758L36.0011 37.5498L33.7751 39.7758C33.3476 40.2033 32.6546 40.2033 32.2271 39.7758C31.7996 39.3483 31.7996 38.6553 32.2271 38.2278L34.4531 36.0018L32.2271 33.7758C31.7996 33.3484 31.7996 32.6553 32.2271 32.2278Z" fill="#DB2F00"/>
<path fill-rule="evenodd" clip-rule="evenodd" d="M47.9199 36.0009C47.9199 42.5836 42.5836 47.9199 36.0009 47.9199C29.4183 47.9199 24.082 42.5836 24.082 36.0009C24.082 29.4183 29.4183 24.082 36.0009 24.082C42.5836 24.082 47.9199 29.4183 47.9199 36.0009ZM45.0009 36.0009C45.0009 40.9715 40.9715 45.0009 36.0009 45.0009C31.0304 45.0009 27.0009 40.9715 27.0009 36.0009C27.0009 31.0304 31.0304 27.0009 36.0009 27.0009C40.9715 27.0009 45.0009 31.0304 45.0009 36.0009Z" fill="#DB2F00"/>
<path d="M17.7 48.9C18.6391 48.9 19.4663 48.4205 19.95 47.693C20.4337 48.4205 21.2609 48.9 22.2 48.9C23.6912 48.9 24.9 47.6912 24.9 46.2C24.9 44.7088 23.6912 43.5 22.2 43.5C21.2609 43.5 20.4337 43.9795 19.95 44.707C19.4663 43.9795 18.6391 43.5 17.7 43.5C16.2088 43.5 15 44.7088 15 46.2C15 47.6912 16.2088 48.9 17.7 48.9Z" fill="#18181B"/>
<path d="M46.5 46.5C46.5 45.6716 47.1716 45 48 45H54C54.8284 45 55.5 45.6716 55.5 46.5C55.5 47.3284 54.8284 48 54 48H48C47.1716 48 46.5 47.3284 46.5 46.5Z" fill="#18181B"/>
<path fill-rule="evenodd" clip-rule="evenodd" d="M15 18H57C60.3137 18 63 20.6863 63 24V48C63 51.3137 60.3137 54 57 54H15C11.6863 54 9 51.3137 9 48V24C9 20.6863 11.6863 18 15 18ZM60 24V27H43.8143C45.604 28.5549 46.9255 30.6348 47.5389 33H60V48C60 49.6569 58.6569 51 57 51H15C13.3431 51 12 49.6569 12 48V33H24.463C25.0764 30.6348 26.3979 28.5549 28.1876 27H12V24C12 22.3431 13.3431 21 15 21H57C58.6569 21 60 22.3431 60 24Z" fill="#18181B"/>
</svg>
