<svg width="72" height="72" viewBox="0 0 72 72" fill="none" xmlns="http://www.w3.org/2000/svg">
<path d="M32.2271 32.2264C32.6546 31.7989 33.3476 31.7989 33.7751 32.2264L36.0011 34.4524L38.2271 32.2264C38.6546 31.7989 39.3476 31.7989 39.7751 32.2264C40.2025 32.6538 40.2025 33.3469 39.7751 33.7744L37.5491 36.0004L39.7751 38.2264C40.2025 38.6538 40.2025 39.3469 39.7751 39.7744C39.3476 40.2018 38.6546 40.2018 38.2271 39.7744L36.0011 37.5483L33.7751 39.7744C33.3476 40.2018 32.6546 40.2018 32.2271 39.7744C31.7996 39.3469 31.7996 38.6538 32.2271 38.2264L34.4531 36.0004L32.2271 33.7744C31.7996 33.3469 31.7996 32.6538 32.2271 32.2264Z" fill="#DB2F00"/>
<path fill-rule="evenodd" clip-rule="evenodd" d="M36.0009 47.9199C42.5836 47.9199 47.9199 42.5836 47.9199 36.0009C47.9199 29.4183 42.5836 24.082 36.0009 24.082C29.4183 24.082 24.082 29.4183 24.082 36.0009C24.082 42.5836 29.4183 47.9199 36.0009 47.9199ZM36.0009 45.0009C40.9715 45.0009 45.0009 40.9715 45.0009 36.0009C45.0009 31.0304 40.9715 27.0009 36.0009 27.0009C31.0304 27.0009 27.0009 31.0304 27.0009 36.0009C27.0009 40.9715 31.0304 45.0009 36.0009 45.0009Z" fill="#DB2F00"/>
<path fill-rule="evenodd" clip-rule="evenodd" d="M15 18H57C60.3137 18 63 20.6863 63 24V48C63 51.3137 60.3137 54 57 54H15C11.6863 54 9 51.3137 9 48V24C9 20.6863 11.6863 18 15 18ZM15 21C13.7066 21 12.6043 21.8185 12.183 22.9658C12.2525 22.9782 12.3218 22.9978 12.3899 23.0251L26.5787 28.7006C26.1426 29.2627 25.7556 29.8648 25.4243 30.5006L12 25.1309V48C12 49.6569 13.3431 51 15 51H57C58.6569 51 60 49.6569 60 48V25.1309L46.5773 30.5C46.2459 29.8642 45.8589 29.2621 45.4227 28.7L59.6101 23.0251C59.6782 22.9978 59.7475 22.9782 59.817 22.9659C59.3957 21.8185 58.2934 21 57 21H15Z" fill="#18181B"/>
</svg>
