<svg width="72" height="72" viewBox="0 0 72 72" fill="none" xmlns="http://www.w3.org/2000/svg">
<path d="M9 42C9 27.0883 21.0883 15 36 15C50.9117 15 63 27.0883 63 42V44.1923C63 46.2952 61.2952 48 59.1923 48H47.5394C47.7877 47.0418 47.9199 46.0368 47.9199 45.0009L59.1923 45C59.6384 45 60 44.6384 60 44.1923V42C60 36.6331 58.2384 31.6776 55.2618 27.6802L53.593 29.0622C52.9677 29.5802 52.0344 29.4985 51.5084 28.8799C50.9825 28.2613 51.0631 27.3399 51.6885 26.822L53.3652 25.4334C49.3169 21.1913 43.73 18.4303 37.5 18.0461V21C37.5 21.8284 36.8284 22.5 36 22.5C35.1716 22.5 34.5 21.8284 34.5 21V18.0461C28.2702 18.4303 22.6835 21.1911 18.6353 25.4329L20.3123 26.8218C20.9376 27.3397 21.0182 28.2611 20.4923 28.8797C19.9664 29.4983 19.0331 29.58 18.4077 29.062L16.7386 27.6797C13.7618 31.6772 12 36.6328 12 42V44.1923C12 44.6384 12.3616 45 12.8077 45H24.082C24.082 46.0359 24.2142 47.0418 24.4625 48H12.8077C10.7048 48 9 46.2952 9 44.1923V42Z" fill="#18181B"/>
<path fill-rule="evenodd" clip-rule="evenodd" d="M33.7751 41.2264C33.3476 40.7989 32.6546 40.7989 32.2271 41.2264C31.7996 41.6538 31.7996 42.3469 32.2271 42.7744L34.4531 45.0004L32.2271 47.2264C31.7996 47.6538 31.7996 48.3469 32.2271 48.7744C32.6546 49.2018 33.3476 49.2018 33.7751 48.7744L36.0011 46.5483L38.2271 48.7744C38.6546 49.2018 39.3476 49.2018 39.7751 48.7744C40.2025 48.3469 40.2025 47.6538 39.7751 47.2264L37.5491 45.0004L39.7751 42.7744C40.2025 42.3469 40.2025 41.6538 39.7751 41.2264C39.3476 40.7989 38.6546 40.7989 38.2271 41.2264L36.0011 43.4524L33.7751 41.2264Z" fill="#DB2F00"/>
<path fill-rule="evenodd" clip-rule="evenodd" d="M55.4234 38.5272C55.1614 37.7412 54.4029 37.2861 53.7292 37.5107L46.7465 39.8378C44.8225 35.8407 40.7339 33.082 36.0009 33.082C29.4183 33.082 24.082 38.4183 24.082 45.0009C24.082 51.5836 29.4183 56.9199 36.0009 56.9199C42.5836 56.9199 47.9199 51.5836 47.9199 45.0009C47.9199 44.2082 47.8425 43.4335 47.6948 42.684L54.6778 40.3568C55.3515 40.1322 55.6853 39.3131 55.4234 38.5272ZM45.0009 45.0009C45.0009 49.9715 40.9715 54.0009 36.0009 54.0009C31.0304 54.0009 27.0009 49.9715 27.0009 45.0009C27.0009 40.0304 31.0304 36.0009 36.0009 36.0009C40.9715 36.0009 45.0009 40.0304 45.0009 45.0009Z" fill="#DB2F00"/>
</svg>
