<svg width="72" height="72" viewBox="0 0 72 72" fill="none" xmlns="http://www.w3.org/2000/svg">
<path d="M44.8997 42.9729C44.5284 42.9729 44.1723 43.1204 43.9097 43.383C43.6472 43.6455 43.4997 44.0016 43.4997 44.3729V45.8369C43.4997 46.2082 43.6472 46.5643 43.9097 46.8269C44.1723 47.0894 44.5284 47.2369 44.8997 47.2369C45.271 47.2369 45.6271 47.0894 45.8896 46.8269C46.1522 46.5643 46.2997 46.2082 46.2997 45.8369V44.3729C46.2997 44.0016 46.1522 43.6455 45.8896 43.383C45.6271 43.1204 45.271 42.9729 44.8997 42.9729ZM25.0557 12.7049C25.0557 12.3336 25.2032 11.9775 25.4657 11.715C25.7283 11.4524 26.0844 11.3049 26.4557 11.3049C26.827 11.3049 27.1831 11.4524 27.4456 11.715C27.7082 11.9775 27.8557 12.3336 27.8557 12.7049V14.1679C27.8557 14.5392 27.7082 14.8953 27.4456 15.1579C27.1831 15.4204 26.827 15.5679 26.4557 15.5679C26.0844 15.5679 25.7283 15.4204 25.4657 15.1579C25.2032 14.8953 25.0557 14.5392 25.0557 14.1679V12.7049Z" fill="#18181B"/>
<path fill-rule="evenodd" clip-rule="evenodd" d="M23.1788 6C22.2771 6 21.4123 6.35821 20.7746 6.99584C20.137 7.63346 19.7788 8.49826 19.7788 9.4V48.913C19.7788 49.8147 20.137 50.6795 20.7746 51.3172C21.4123 51.9548 22.2771 52.313 23.1788 52.313H48.1868C49.0885 52.313 49.9534 51.9548 50.591 51.3172C51.2286 50.6795 51.5868 49.8147 51.5868 48.913V9.4C51.5868 8.49826 51.2286 7.63346 50.591 6.99584C49.9534 6.35821 49.0885 6 48.1868 6H23.1788ZM22.5788 9.4C22.5788 9.24087 22.642 9.08826 22.7545 8.97574C22.8671 8.86321 23.0197 8.8 23.1788 8.8H48.1868C48.3459 8.8 48.4986 8.86321 48.6111 8.97574C48.7236 9.08826 48.7868 9.24087 48.7868 9.4V48.913C48.7868 49.0721 48.7236 49.2247 48.6111 49.3373C48.4986 49.4498 48.3459 49.513 48.1868 49.513H23.1788C23.0197 49.513 22.8671 49.4498 22.7545 49.3373C22.642 49.2247 22.5788 49.0721 22.5788 48.913V9.4Z" fill="#18181B"/>
<path d="M17.9289 17.8201L5.51891 21.1451C4.64814 21.3787 3.90582 21.9487 3.45519 22.7295C3.00456 23.5104 2.88252 24.4383 3.11591 25.3091L13.3409 63.4751C13.4564 63.9064 13.6557 64.3108 13.9274 64.6651C14.1992 65.0194 14.5381 65.3167 14.9248 65.5401C15.3114 65.7634 15.7383 65.9084 16.181 65.9667C16.6237 66.025 17.0736 65.9956 17.5049 65.8801L31.9849 62.0001L28.9749 61.1941C28.3533 61.0282 27.7675 60.7492 27.2469 60.3711L16.7809 63.1751C16.7048 63.1955 16.6254 63.2007 16.5473 63.1905C16.4692 63.1802 16.3938 63.1547 16.3256 63.1153C16.2573 63.0759 16.1975 63.0235 16.1495 62.961C16.1015 62.8985 16.0663 62.8272 16.0459 62.7511L5.81991 24.5841C5.79948 24.508 5.79425 24.4286 5.80451 24.3505C5.81477 24.2724 5.84031 24.197 5.87968 24.1288C5.91905 24.0605 5.97148 24.0007 6.03398 23.9527C6.09647 23.9047 6.1678 23.8695 6.24391 23.8491L17.9289 20.7191V17.8201Z" fill="#18181B"/>
<path d="M27.3408 54.163L27.0508 55.243C26.8175 56.114 26.9396 57.042 27.3905 57.8228C27.8413 58.6037 28.5839 59.1736 29.4548 59.407L53.6118 65.879C54.4828 66.1123 55.4108 65.9902 56.1917 65.5393C56.9726 65.0885 57.5424 64.3459 57.7758 63.475L68.0028 25.309C68.1185 24.8777 68.1481 24.4278 68.0899 23.985C68.0317 23.5422 67.8868 23.1153 67.6636 22.7285C67.4403 22.3417 67.1431 22.0027 66.7888 21.7309C66.4345 21.459 66.0302 21.2596 65.5988 21.144L53.4368 17.886V20.785L64.8738 23.849C64.9499 23.8694 65.0213 23.9046 65.0837 23.9526C65.1462 24.0006 65.1987 24.0604 65.238 24.1287C65.2774 24.1969 65.303 24.2723 65.3132 24.3504C65.3235 24.4285 65.3182 24.5079 65.2978 24.584L55.0708 62.751C55.0296 62.9045 54.9291 63.0353 54.7915 63.1148C54.6539 63.1943 54.4904 63.2159 54.3368 63.175L30.1798 56.701C30.1037 56.6806 30.0324 56.6454 29.9699 56.5974C29.9074 56.5494 29.855 56.4896 29.8156 56.4213C29.7762 56.353 29.7507 56.2777 29.7404 56.1996C29.7302 56.1215 29.7354 56.0421 29.7558 55.966L30.2388 54.162L27.3408 54.163ZM10.0158 25.516C9.83819 25.5636 9.67167 25.6457 9.52578 25.7576C9.37989 25.8696 9.25748 26.0091 9.16554 26.1684C9.07361 26.3277 9.01395 26.5035 8.98998 26.6858C8.966 26.8681 8.97818 27.0534 9.02582 27.231L9.40582 28.645C9.45062 28.8256 9.53097 28.9954 9.64218 29.1446C9.75338 29.2938 9.8932 29.4193 10.0535 29.5138C10.2137 29.6083 10.3912 29.6699 10.5756 29.695C10.76 29.7202 10.9475 29.7083 11.1272 29.6601C11.3069 29.6119 11.4752 29.5284 11.6223 29.4144C11.7693 29.3004 11.8922 29.1583 11.9837 28.9963C12.0752 28.8342 12.1334 28.6556 12.1551 28.4708C12.1768 28.286 12.1614 28.0988 12.1098 27.92L11.7298 26.506C11.6337 26.1475 11.3992 25.8418 11.0778 25.6561C10.7564 25.4705 10.3744 25.4201 10.0158 25.516Z" fill="#18181B"/>
<path d="M53.9725 57.918C54.0241 57.7392 54.0395 57.552 54.0178 57.3672C53.9962 57.1824 53.9379 57.0037 53.8464 56.8417C53.7549 56.6797 53.632 56.5376 53.485 56.4236C53.3379 56.3096 53.1696 56.2261 52.9899 56.1779C52.8102 56.1297 52.6227 56.1178 52.4383 56.1429C52.254 56.1681 52.0765 56.2297 51.9162 56.3242C51.7559 56.4187 51.6161 56.5442 51.5049 56.6934C51.3937 56.8426 51.3133 57.0124 51.2685 57.193L50.8895 58.607C50.8419 58.7846 50.8298 58.9699 50.8538 59.1522C50.8778 59.3345 50.9374 59.5103 51.0293 59.6695C51.1213 59.8288 51.2437 59.9684 51.3895 60.0803C51.5354 60.1923 51.7019 60.2744 51.8795 60.322C52.0571 60.3696 52.2424 60.3818 52.4247 60.3578C52.607 60.3338 52.7828 60.2741 52.9421 60.1822C53.2637 59.9965 53.4984 59.6907 53.5945 59.332L53.9725 57.918Z" fill="#18181B"/>
<path d="M35.6597 19.752C35.8748 19.7515 36.0871 19.8006 36.2801 19.8955C36.4731 19.9904 36.6417 20.1284 36.7727 20.299L42.8597 28.223C43.0459 28.4652 43.1478 28.7616 43.1498 29.0671C43.1518 29.3726 43.0538 29.6704 42.8707 29.915L36.7837 38.049C36.653 38.2235 36.4834 38.3651 36.2883 38.4625C36.0932 38.5598 35.878 38.6103 35.66 38.6098C35.4419 38.6093 35.227 38.5579 35.0323 38.4597C34.8377 38.3614 34.6687 38.2191 34.5387 38.044L28.5037 29.911C28.323 29.6674 28.2262 29.3716 28.228 29.0683C28.2298 28.7649 28.3301 28.4704 28.5137 28.229L34.5487 20.305C34.6791 20.1338 34.8471 19.9949 35.0398 19.8992C35.2324 19.8034 35.4446 19.7524 35.6597 19.752ZM19.7787 33.991C18.1127 33.572 15.5887 34.194 15.3147 37.307C15.0477 40.33 17.5987 42.944 19.7787 44.507V33.991ZM51.5867 44.555C53.7817 42.998 56.3887 40.361 56.1187 37.307C55.8407 34.151 53.2517 33.556 51.5867 34.008V44.555Z" fill="#4A47EA"/>
</svg>
