<svg width="72" height="72" viewBox="0 0 72 72" fill="none" xmlns="http://www.w3.org/2000/svg">
<path d="M55.2448 22.933C55.5058 23.065 55.7668 23.131 56.0278 23.131C56.2888 23.131 56.5498 23.065 56.8108 22.933C57.0718 22.803 57.2808 22.583 57.4378 22.269L59.0038 18.901L62.3718 17.335C62.6858 17.178 62.9078 16.969 63.0398 16.708C63.1646 16.4657 63.231 16.1975 63.2338 15.925C63.231 15.6524 63.1646 15.3843 63.0398 15.142C62.9078 14.881 62.6858 14.672 62.3718 14.515L59.0048 12.948L57.4378 9.58099C57.2808 9.26699 57.0718 9.04499 56.8108 8.91299C56.5685 8.78823 56.3003 8.7218 56.0278 8.71899C55.7668 8.71899 55.5058 8.78399 55.2448 8.91299C54.9838 9.04499 54.7748 9.26699 54.6178 9.58099L53.0518 12.948L49.6838 14.515C49.3708 14.672 49.1488 14.88 49.0198 15.142C48.8929 15.3837 48.825 15.652 48.8218 15.925C48.8218 16.185 48.8878 16.447 49.0198 16.708C49.1498 16.969 49.3698 17.178 49.6838 17.335L53.0518 18.901L54.6178 22.269C54.7748 22.582 54.9838 22.804 55.2448 22.933ZM11.2428 64.094C11.5038 64.226 11.7658 64.292 12.0268 64.292C12.2868 64.292 12.5488 64.226 12.8098 64.094C13.0708 63.964 13.2798 63.744 13.4368 63.43L15.0028 60.062L18.3708 58.496C18.6838 58.339 18.9068 58.13 19.0378 57.869C19.1629 57.6268 19.2297 57.3586 19.2328 57.086C19.2297 56.8134 19.1629 56.5452 19.0378 56.303C18.9068 56.041 18.6838 55.833 18.3708 55.676L15.0028 54.109L13.4368 50.742C13.2798 50.428 13.0708 50.206 12.8098 50.074C12.5675 49.9492 12.2993 49.8828 12.0268 49.88C11.7539 49.8826 11.4854 49.9491 11.2428 50.074C10.9828 50.206 10.7728 50.428 10.6168 50.742L9.0498 54.108L5.6818 55.675C5.3688 55.832 5.1478 56.04 5.0178 56.302C4.89119 56.5438 4.82368 56.8121 4.8208 57.085C4.8208 57.345 4.8868 57.607 5.0178 57.868C5.1478 58.129 5.3688 58.338 5.6818 58.495L9.0498 60.061L10.6168 63.429C10.7728 63.742 10.9818 63.965 11.2428 64.094ZM51.1698 30.696C51.7002 30.696 52.2089 30.4853 52.584 30.1102C52.9591 29.7351 53.1698 29.2264 53.1698 28.696C53.1698 28.1656 52.9591 27.6569 52.584 27.2818C52.2089 26.9067 51.7002 26.696 51.1698 26.696C50.6394 26.696 50.1307 26.9067 49.7556 27.2818C49.3805 27.6569 49.1698 28.1656 49.1698 28.696C49.1698 29.2264 49.3805 29.7351 49.7556 30.1102C50.1307 30.4853 50.6394 30.696 51.1698 30.696ZM11.4508 16.59C11.9812 16.59 12.4899 16.3793 12.865 16.0042C13.2401 15.6291 13.4508 15.1204 13.4508 14.59C13.4508 14.0596 13.2401 13.5509 12.865 13.1758C12.4899 12.8007 11.9812 12.59 11.4508 12.59C10.9204 12.59 10.4117 12.8007 10.0366 13.1758C9.66151 13.5509 9.4508 14.0596 9.4508 14.59C9.4508 15.1204 9.66151 15.6291 10.0366 16.0042C10.4117 16.3793 10.9204 16.59 11.4508 16.59ZM42.3868 25.613C42.9172 25.613 43.4259 25.4023 43.801 25.0272C44.1761 24.6521 44.3868 24.1434 44.3868 23.613C44.3868 23.0826 44.1761 22.5739 43.801 22.1988C43.4259 21.8237 42.9172 21.613 42.3868 21.613C41.8564 21.613 41.3477 21.8237 40.9726 22.1988C40.5975 22.5739 40.3868 23.0826 40.3868 23.613C40.3868 24.1434 40.5975 24.6521 40.9726 25.0272C41.3477 25.4023 41.8564 25.613 42.3868 25.613ZM26.8658 60.565C27.3962 60.565 27.9049 60.3543 28.28 59.9792C28.6551 59.6041 28.8658 59.0954 28.8658 58.565C28.8658 58.0346 28.6551 57.5259 28.28 57.1508C27.9049 56.7757 27.3962 56.565 26.8658 56.565C26.3354 56.565 25.8267 56.7757 25.4516 57.1508C25.0765 57.5259 24.8658 58.0346 24.8658 58.565C24.8658 59.0954 25.0765 59.6041 25.4516 59.9792C25.8267 60.3543 26.3354 60.565 26.8658 60.565Z" fill="#4A47EA"/>
<path fill-rule="evenodd" clip-rule="evenodd" d="M36.8001 6.06394C36.9105 6.4184 36.8757 6.80221 36.7031 7.13095C36.5306 7.4597 36.2346 7.70645 35.8801 7.81694L31.0661 9.31994L31.0671 9.33094C33.2621 13.3969 33.8671 18.0609 33.7371 22.2799C33.6101 26.3659 32.7901 30.1499 31.9371 32.7899C33.5089 34.0355 34.6541 35.7395 35.2138 37.6654C35.7734 39.5912 35.7197 41.6436 35.0602 43.5376C34.4007 45.4316 33.1681 47.0733 31.5333 48.2351C29.8985 49.3969 27.9427 50.021 25.9371 50.0209C23.3751 50.0209 20.9181 49.0032 19.1065 47.1916C17.2949 45.38 16.2771 42.9229 16.2771 40.3609C16.2771 37.7989 17.2949 35.3419 19.1065 33.5303C20.9181 31.7187 23.3751 30.7009 25.9371 30.7009C27.1761 30.7009 28.3611 30.9339 29.4501 31.3589C30.3314 28.3787 30.8313 25.2989 30.9381 22.1929C31.0221 19.4839 30.7741 16.6919 30.0001 14.0809C28.7701 17.8139 26.4361 22.5989 22.4811 26.4759C23.318 27.1692 24.0326 27.9981 24.5951 28.9279C23.6018 29.0429 22.6278 29.2877 21.6981 29.6559C21.0265 28.8102 20.1648 28.135 19.1829 27.6852C18.2011 27.2354 17.127 27.0238 16.0479 27.0676C14.9689 27.1114 13.9154 27.4093 12.9732 27.9371C12.031 28.4649 11.2268 29.2076 10.6259 30.105C10.025 31.0023 9.64443 32.0288 9.5152 33.101C9.38596 34.1732 9.51168 35.2607 9.88213 36.2751C10.2526 37.2896 10.8573 38.2022 11.6471 38.9387C12.4368 39.6753 13.3894 40.215 14.4271 40.5139C14.4401 41.5359 14.5871 42.5259 14.8501 43.4669C10.2141 42.7579 6.66211 38.7529 6.66211 33.9189C6.66211 31.3569 7.67986 28.8999 9.49146 27.0883C11.3031 25.2767 13.7601 24.2589 16.3221 24.2589C17.6221 24.2589 18.8601 24.5149 19.9921 24.9789C25.1351 20.2499 27.4581 13.6839 28.1361 10.2339L20.8091 12.5199C20.4546 12.6305 20.0708 12.5958 19.7419 12.4233C19.4131 12.2509 19.1662 11.9549 19.0556 11.6004C18.945 11.246 18.9798 10.8621 19.1522 10.5333C19.3246 10.2044 19.6206 9.95753 19.9751 9.84694L35.0481 5.14394C35.4026 5.0335 35.7864 5.06839 36.1151 5.24092C36.4439 5.41345 36.6896 5.70949 36.8001 6.06394ZM25.9351 33.5009C25.0342 33.5009 24.1422 33.6784 23.3099 34.0231C22.4776 34.3679 21.7214 34.8732 21.0844 35.5102C20.4473 36.1472 19.942 36.9034 19.5973 37.7357C19.2525 38.568 19.0751 39.4601 19.0751 40.3609C19.0751 41.2618 19.2525 42.1539 19.5973 42.9861C19.942 43.8184 20.4473 44.5747 21.0844 45.2117C21.7214 45.8487 22.4776 46.354 23.3099 46.6987C24.1422 47.0435 25.0342 47.2209 25.9351 47.2209C27.7545 47.2209 29.4994 46.4982 30.7859 45.2117C32.0724 43.9252 32.7951 42.1803 32.7951 40.3609C32.7951 38.5415 32.0724 36.7967 30.7859 35.5102C29.4994 34.2237 27.7545 33.5009 25.9351 33.5009Z" fill="#18181B"/>
<path fill-rule="evenodd" clip-rule="evenodd" d="M46.5549 66.4649L31.7549 50.2949C32.5657 49.8182 33.3152 49.2443 33.9869 48.5859L46.1689 61.8959V47.2329H35.1689C35.8088 46.3756 36.3258 45.4332 36.7049 44.4329H43.5089L37.4289 39.7369C37.3505 38.2486 36.9823 36.79 36.3449 35.4429H59.8829C60.1168 35.4428 60.3469 35.5014 60.5523 35.6132C60.7578 35.725 60.9319 35.8865 61.0589 36.0829L66.9539 45.1889C67.1232 45.4505 67.2004 45.7612 67.1733 46.0716C67.1461 46.3821 67.0161 46.6746 66.8039 46.9029L48.6129 66.4729C48.4812 66.6145 48.3217 66.7273 48.1443 66.8041C47.9669 66.881 47.7755 66.9203 47.5821 66.9196C47.3888 66.9188 47.1977 66.878 47.0209 66.7998C46.8441 66.7215 46.6854 66.6075 46.5549 66.4649ZM54.9559 38.2429H40.0759L47.6019 44.0569L54.9559 38.2429ZM48.9689 47.2329V61.9769L62.6749 47.2329H48.9689ZM63.1289 44.4329H51.6419L59.2419 38.4259L63.1309 44.4329H63.1289Z" fill="#18181B"/>
</svg>
