<svg width="72" height="72" viewBox="0 0 72 72" fill="none" xmlns="http://www.w3.org/2000/svg">
<path d="M62.3753 52.6087L62.2463 52.4453C61.627 51.6454 60.9217 51.0003 60.2421 50.381C57.937 48.265 55.3222 45.8652 54.6082 35.3543C54.5136 34.0039 54.462 33.0062 54.4104 32.1288C54.3072 30.2709 54.2298 28.9291 53.9201 26.0218C53.0428 17.8591 46.8412 12.4746 40.4675 11.1242V9.16308C40.4675 6.8665 38.601 5 36.3131 5C34.0165 5 32.15 6.8665 32.15 9.16308V11.1242C25.7763 12.4746 19.5747 17.8591 18.6974 26.0218C18.3877 28.9291 18.3103 30.2709 18.2071 32.1288C18.1555 33.0062 18.1039 34.0039 18.0093 35.3543C17.2954 45.8652 14.6805 48.265 12.3754 50.381C11.6959 51.0003 10.9906 51.6454 10.3713 52.4453L10.2422 52.6087C9.69176 53.3055 8.39295 54.9225 9.3305 57.1245C10.4315 59.7049 12.9861 59.7049 13.8204 59.7049H13.872C18.3705 59.6877 22.3358 59.6877 26.3698 59.6877H29.4749C29.4921 63.4465 32.5456 66.5 36.3131 66.5C40.0719 66.5 43.1254 63.4465 43.1426 59.6877H46.2477C50.2817 59.6877 54.247 59.6877 58.7455 59.7049H58.7971C59.6315 59.7049 62.1861 59.7049 63.287 57.1245C64.2246 54.9225 62.9258 53.3055 62.3753 52.6087ZM34.7304 9.16308C34.7304 8.29434 35.4357 7.58042 36.3131 7.58042C37.1818 7.58042 37.8871 8.29434 37.8871 9.16308V10.7973C37.7667 10.7887 37.6549 10.7801 37.5345 10.7801C37.1388 10.7543 36.7603 10.7371 36.3819 10.7285H36.2356C35.8572 10.7371 35.4787 10.7543 35.0831 10.7801C34.9626 10.7801 34.8508 10.7887 34.7304 10.7973V9.16308ZM36.3131 63.9196C33.9735 63.9196 32.0726 62.0273 32.0554 59.6877H40.5621C40.5449 62.0273 38.644 63.9196 36.3131 63.9196ZM60.9303 56.1181C60.526 57.0643 59.7003 57.1417 58.7971 57.1417H58.7541C54.2556 57.1331 50.2817 57.1331 46.2477 57.1331H26.3698C22.3358 57.1331 18.3619 57.1331 13.8634 57.1417H13.8204C12.9173 57.1417 12.0915 57.0643 11.6873 56.1181C11.3088 55.2322 11.8937 54.6559 12.3926 54.0108C14.7924 50.9229 19.5747 50.0111 20.5639 35.5264C20.8477 31.3203 20.7961 30.4859 21.2434 26.2971C22.1121 18.2203 28.9761 13.395 35.1863 13.3434C35.5733 13.3176 35.9432 13.3003 36.3045 13.2831C36.6743 13.3003 37.0442 13.3176 37.4312 13.3434C43.6414 13.395 50.5054 18.2203 51.3741 26.2971C51.8214 30.4859 51.7698 31.3203 52.0536 35.5264C53.0428 50.0111 57.8252 50.9229 60.2249 54.0108C60.7238 54.6559 61.3087 55.2322 60.9303 56.1181Z" fill="#18181B"/>
</svg>
