<svg width="72" height="72" viewBox="0 0 72 72" fill="none" xmlns="http://www.w3.org/2000/svg">
<g clip-path="url(#clip0_2224_366)">
<path d="M29.0022 6.35C29.6022 7.25 30.5022 8.45 30.9022 8.95C31.0022 9.15 31.1022 9.35 31.1022 9.55V12.95C31.1022 13.65 31.8022 14.15 32.4022 13.95L35.5022 12.95C35.7022 12.85 36.0022 12.85 36.2022 12.95L39.2022 14.15C39.9022 14.45 40.6022 13.95 40.6022 13.15V9.75C40.6022 9.55 40.7022 9.35 40.8022 9.15L43.0022 6.35C43.4022 5.75 43.2022 4.95 42.5022 4.75L39.5022 3.85C39.3022 3.75 39.1022 3.65 39.0022 3.45L36.8022 0.45C36.4022 -0.15 35.6022 -0.15 35.1022 0.45L33.1022 3.15C33.0022 3.35 32.8022 3.45 32.6022 3.55L29.4022 4.65C28.8022 5.05 28.6022 5.75 29.0022 6.35ZM46.6022 11.15C47.0022 11.75 47.6022 12.55 47.9022 12.95C48.0022 13.05 48.0022 13.15 48.0022 13.35V15.75C48.0022 16.25 48.5022 16.55 48.9022 16.45L51.1022 15.75C51.2312 15.685 51.3182 15.704 51.4182 15.726C51.4722 15.737 51.5312 15.75 51.6022 15.75L53.7022 16.55C54.2022 16.75 54.7022 16.35 54.7022 15.85V13.45C54.7022 13.333 54.7362 13.25 54.7642 13.181C54.7848 13.1401 54.7974 13.0956 54.8012 13.05L56.3012 11.15C56.6012 10.75 56.4012 10.15 55.9012 10.05L53.8012 9.45C53.6012 9.45 53.5012 9.35 53.4012 9.15L52.0012 7.15C51.7012 6.75 51.1012 6.75 50.8012 7.15L49.4012 9.05L49.1012 9.35L46.9012 10.05C46.5012 10.15 46.3022 10.75 46.6022 11.15ZM5.3502 17.081C5.1072 16.755 4.6202 16.103 4.2962 15.614C4.0532 15.287 4.2152 14.798 4.5392 14.717L6.3242 14.146L6.5672 13.901L7.7022 12.351C7.75856 12.2749 7.83197 12.2131 7.91654 12.1705C8.00112 12.1278 8.0945 12.1056 8.1892 12.1056C8.2839 12.1056 8.37728 12.1278 8.46186 12.1705C8.54643 12.2131 8.61984 12.2749 8.6762 12.351L9.8112 13.983C9.8922 14.146 9.9732 14.227 10.1362 14.227L11.8392 14.717C12.2442 14.798 12.4072 15.287 12.1632 15.614L10.9472 17.164C10.9472 17.197 10.9332 17.231 10.9172 17.27C10.8844 17.3388 10.867 17.4138 10.8662 17.49V19.447C10.8662 19.854 10.4602 20.18 10.0552 20.017L8.3512 19.365C8.30094 19.3639 8.25096 19.3572 8.2022 19.345C8.1222 19.328 8.0502 19.312 7.9462 19.365L6.1612 19.935C5.8372 20.017 5.4312 19.773 5.4312 19.365V17.408C5.4312 17.245 5.4302 17.163 5.3502 17.081ZM59.8102 15.614C60.1352 16.103 60.6222 16.755 60.8652 17.082C60.9462 17.163 60.9462 17.245 60.9462 17.408V19.365C60.9462 19.773 61.3522 20.017 61.6762 19.935L63.4602 19.365C63.5652 19.312 63.6362 19.328 63.7172 19.345C63.766 19.3572 63.8159 19.3639 63.8662 19.365L65.5692 20.017C65.9752 20.18 66.3802 19.854 66.3802 19.447V17.489C66.3802 17.394 66.4082 17.326 66.4312 17.27C66.4479 17.2366 66.4581 17.2002 66.4612 17.163L67.6782 15.613C67.9212 15.288 67.7592 14.798 67.3542 14.717L65.6502 14.227C65.4882 14.227 65.4072 14.146 65.3262 13.983L64.1902 12.352C64.1338 12.2761 64.0605 12.2144 63.976 12.1719C63.8915 12.1294 63.7983 12.1073 63.7037 12.1073C63.6091 12.1073 63.5159 12.1294 63.4314 12.1719C63.3469 12.2144 63.2736 12.2761 63.2172 12.352L62.0822 13.902L61.8382 14.146L60.0542 14.716C59.7292 14.798 59.5672 15.288 59.8102 15.614ZM17.0022 12.95C16.7022 12.55 16.1022 11.75 15.7022 11.15C15.4022 10.75 15.6022 10.15 16.0022 10.05L18.2022 9.25L18.5022 8.95L19.9022 7.05C20.2022 6.65 20.8022 6.65 21.1022 7.05L22.6022 9.15C22.7022 9.35 22.8022 9.45 23.0022 9.45L25.0022 10.05C25.5022 10.15 25.7022 10.75 25.4022 11.15L23.9022 13.05C23.9022 13.091 23.8842 13.133 23.8642 13.181C23.8362 13.25 23.8022 13.333 23.8022 13.45V15.85C23.8022 16.35 23.3022 16.75 22.8022 16.55L20.7022 15.75C20.6402 15.7489 20.5784 15.7409 20.5182 15.726C20.4182 15.704 20.3312 15.686 20.2022 15.75L18.0022 16.45C17.6022 16.55 17.1022 16.25 17.1022 15.75V13.35C17.1022 13.25 17.1022 13.05 17.0022 12.95Z" fill="#4A47EA"/>
<path fill-rule="evenodd" clip-rule="evenodd" d="M7.36816 50.2101C7.36816 49.3083 7.72638 48.4435 8.364 47.8059C9.00162 47.1683 9.86643 46.8101 10.7682 46.8101H16.4482C17.3499 46.8101 18.2147 47.1683 18.8523 47.8059C19.49 48.4435 19.8482 49.3083 19.8482 50.2101V68.0801C19.8482 68.9818 19.49 69.8466 18.8523 70.4842C18.2147 71.1219 17.3499 71.4801 16.4482 71.4801H10.7682C9.86643 71.4801 9.00162 71.1219 8.364 70.4842C7.72638 69.8466 7.36816 68.9818 7.36816 68.0801V50.2101ZM10.7682 49.6101C10.609 49.6101 10.4564 49.6733 10.3439 49.7858C10.2314 49.8983 10.1682 50.051 10.1682 50.2101V68.0801C10.1682 68.2392 10.2314 68.3918 10.3439 68.5043C10.4564 68.6169 10.609 68.6801 10.7682 68.6801H16.4482C16.6073 68.6801 16.7599 68.6169 16.8724 68.5043C16.985 68.3918 17.0482 68.2392 17.0482 68.0801V50.2101C17.0482 50.051 16.985 49.8983 16.8724 49.7858C16.7599 49.6733 16.6073 49.6101 16.4482 49.6101H10.7682ZM41.0562 26.6681C42.0052 28.3061 42.4832 30.2651 42.6682 31.4661C43.0702 34.0831 42.2702 37.4241 40.4192 40.1211C39.9192 40.8511 39.4892 41.6091 39.1362 42.3091C39.1072 42.3598 39.093 42.4177 39.0952 42.4761C39.0992 42.5222 39.1154 42.5664 39.1422 42.6041C39.2032 42.6941 39.3372 42.7931 39.5522 42.7931H50.6872C54.3832 42.7931 56.0332 45.6571 56.0462 47.4131V47.4231C56.0462 49.1841 55.4742 50.4631 54.5712 51.3181C55.4242 52.0911 56.0462 53.2281 56.0462 54.7781C56.0462 55.7481 55.7722 56.5881 55.2642 57.2671C54.9262 57.7126 54.5021 58.0856 54.0172 58.3641C54.5782 59.1001 54.9272 60.0771 54.9272 61.3211C54.9272 62.3111 54.6502 63.1641 54.1452 63.8611C53.7332 64.4311 53.2092 64.8401 52.6732 65.1361C53.1052 65.7681 53.3772 66.5731 53.3772 67.5641C53.3772 69.1431 52.7802 70.2861 51.9002 71.0221C51.0772 71.7091 50.1302 71.9371 49.5232 71.9941C49.4799 71.9981 49.4366 72.0001 49.3932 72.0001H25.7032C24.8014 72.0001 23.9366 71.6419 23.299 71.0042C22.6614 70.3666 22.3032 69.5018 22.3032 68.6001V48.2101C22.3032 45.9801 23.6292 43.8341 25.2772 41.6801C26.1282 40.5671 27.1332 39.3711 28.2152 38.0861L28.3192 37.9641C29.3792 36.7041 30.5222 35.3481 31.7132 33.8501C32.1222 33.3371 32.3012 32.6761 32.3342 31.8561C32.3602 31.2361 32.3052 30.6661 32.2472 30.0641C32.2223 29.8123 32.2003 29.5603 32.1812 29.3081C32.1662 29.1352 32.1466 28.9628 32.1222 28.7911L32.1152 28.7321C32.0871 28.5292 32.0628 28.3258 32.0422 28.1221C31.9972 27.6521 31.9722 27.0351 32.1442 26.4041C32.3405 25.6748 32.7887 25.0386 33.4092 24.6081C34.0572 24.1481 34.8872 23.8711 35.8732 23.7241C38.4462 23.3421 40.1182 25.0501 41.0562 26.6681ZM38.6332 28.0721C37.9142 26.8321 37.1532 26.3651 36.2852 26.4941C35.5512 26.6041 35.1952 26.7741 35.0322 26.8901C34.9062 26.9801 34.8702 27.0521 34.8452 27.1421C34.8082 27.2791 34.7952 27.4921 34.8302 27.8561C34.8452 28.0181 34.8662 28.1821 34.8912 28.3721L34.8992 28.4271C34.9252 28.6291 34.9552 28.8651 34.9732 29.1011C34.9832 29.2511 35.0012 29.4291 35.0202 29.6281C35.0832 30.2741 35.1662 31.1411 35.1322 31.9711C35.0862 33.1081 34.8242 34.4381 33.9042 35.5931C32.7785 36.9981 31.6327 38.3869 30.4672 39.7591L30.3572 39.8901C29.2652 41.1861 28.3052 42.3301 27.5012 43.3801C25.8412 45.5501 25.1032 47.0201 25.1032 48.2101V68.6001C25.1032 68.7592 25.1664 68.9118 25.2789 69.0243C25.3914 69.1369 25.544 69.2001 25.7032 69.2001H49.3162C49.6044 69.1645 49.8775 69.0511 50.1062 68.8721C50.3062 68.7061 50.5762 68.3711 50.5762 67.5641C50.5762 66.8741 50.3122 66.5811 50.0232 66.3941C49.6512 66.1521 49.1402 66.0481 48.7632 66.0341C48.4013 66.0204 48.0588 65.867 47.8076 65.6061C47.5564 65.3453 47.4161 64.9972 47.4161 64.6351C47.4161 64.2729 47.5564 63.9249 47.8076 63.664C48.0588 63.4031 48.4013 63.2498 48.7632 63.2361C49.5072 63.2091 50.4482 63.1021 51.1632 62.7661C51.5032 62.6051 51.7332 62.4191 51.8782 62.2191C52.0112 62.0341 52.1272 61.7641 52.1272 61.3211C52.1272 60.3431 51.7702 59.9591 51.4472 59.7461C51.0252 59.4661 50.4472 59.3561 49.9382 59.3181C49.5835 59.2934 49.2516 59.1346 49.0097 58.8742C48.7678 58.6137 48.6341 58.2709 48.6356 57.9155C48.6371 57.56 48.7738 57.2184 49.0179 56.96C49.2621 56.7016 49.5953 56.5458 49.9502 56.5241C50.7392 56.4731 51.6502 56.3871 52.3522 56.0761C52.6812 55.9301 52.8922 55.7641 53.0202 55.5921C53.1362 55.4371 53.2462 55.1981 53.2462 54.7771C53.2462 53.9281 52.8812 53.4771 52.4032 53.1771C51.8522 52.8281 51.1382 52.6951 50.6872 52.6951C50.5033 52.6971 50.3209 52.6628 50.1503 52.5943C49.9797 52.5257 49.8242 52.4242 49.6928 52.2956C49.5614 52.167 49.4566 52.0138 49.3845 51.8447C49.3123 51.6756 49.2741 51.4939 49.2722 51.3101C49.2702 51.1262 49.3045 50.9438 49.373 50.7732C49.4415 50.6026 49.543 50.4471 49.6716 50.3157C49.8002 50.1843 49.9534 50.0796 50.1225 50.0074C50.2916 49.9352 50.4733 49.8971 50.6572 49.8951C51.2472 49.8831 51.9142 49.7881 52.4042 49.4731C52.7812 49.2311 53.2442 48.7431 53.2462 47.4291C53.2392 47.0271 52.6652 45.5931 50.6872 45.5931H39.5512C37.3112 45.5931 35.4882 43.3231 36.6352 41.0481C37.0322 40.2611 37.5252 39.3911 38.1102 38.5381C39.6152 36.3441 40.1802 33.7111 39.9002 31.8921C39.7442 30.8741 39.3402 29.2931 38.6332 28.0721Z" fill="#18181B"/>
</g>
<defs>
<clipPath id="clip0_2224_366">
<rect width="72" height="72" fill="white"/>
</clipPath>
</defs>
</svg>
