<svg width="72" height="72" viewBox="0 0 72 72" fill="none" xmlns="http://www.w3.org/2000/svg">
<path d="M38.903 51.1847C38.903 49.735 37.7278 48.5598 36.2781 48.5598C34.8284 48.5598 33.6531 49.735 33.6531 51.1847C33.6531 52.6345 34.8284 53.8097 36.2781 53.8097C37.7278 53.8097 38.903 52.6345 38.903 51.1847Z" fill="#FF7049"/>
<path d="M42.3613 27.3018C41.6833 26.4074 40.8133 25.6765 39.8152 25.163C38.8172 24.6496 37.7167 24.3667 36.5947 24.3352H36.1281C34.4865 24.3569 32.8902 24.8769 31.5508 25.8264C30.2114 26.7759 29.1922 28.1099 28.6282 29.6518C28.4627 30.1315 28.4933 30.6571 28.7133 31.1143C28.9334 31.5716 29.3251 31.9234 29.8032 32.0934C30.0092 32.1663 30.2263 32.203 30.4448 32.2017C30.8408 32.201 31.2269 32.0782 31.5505 31.85C31.8741 31.6218 32.1195 31.2994 32.2532 30.9268C32.5551 30.1309 33.0891 29.4441 33.786 28.9553C34.4828 28.4665 35.3103 28.1982 36.1614 28.1851H36.4197C36.9839 28.1854 37.5405 28.3156 38.0463 28.5656C38.5521 28.8156 38.9935 29.1787 39.3364 29.6268C39.6901 30.099 39.946 30.637 40.0891 31.2094C40.2322 31.7818 40.2596 32.377 40.1697 32.9601C40.0041 33.6225 39.6941 34.2402 39.2619 34.769C38.8298 35.2977 38.286 35.7243 37.6697 36.0183C34.1614 38.1683 33.9865 40.4183 34.1281 43.1432C34.1517 43.6355 34.364 44.0997 34.7209 44.4396C35.0778 44.7794 35.5519 44.9687 36.0447 44.9682H36.1531C36.6609 44.9402 37.1369 44.7124 37.4773 44.3345C37.8177 43.9567 37.9947 43.4595 37.9697 42.9515C37.8697 41.0266 38.078 40.2016 39.4614 39.4349C40.576 38.887 41.5541 38.0967 42.324 37.1221C43.0939 36.1474 43.6363 35.013 43.9113 33.8017C44.1154 32.67 44.0831 31.5082 43.8163 30.3896C43.5496 29.271 43.0542 28.2197 42.3613 27.3018Z" fill="#FF7049"/>
<path d="M36.0037 62.9179C28.172 63.0041 20.3441 62.5335 12.5791 61.5096C11.3907 61.3394 10.2591 60.8916 9.27601 60.2024C8.29295 59.5133 7.48611 58.6022 6.92087 57.543C6.35076 56.4943 6.03626 55.3259 6.00295 54.1327C5.96965 52.9395 6.21848 51.7553 6.7292 50.6765C10.8958 41.835 19.3956 25.0269 30.0621 11.8522C30.7799 10.9617 31.688 10.2433 32.7198 9.74974C33.7516 9.25619 34.8808 9 36.0245 9C37.1683 9 38.2975 9.25619 39.3292 9.74974C40.361 10.2433 41.2691 10.9617 41.9869 11.8522C52.67 25.0103 61.1449 41.7933 65.2782 50.6182C65.7846 51.7011 66.0307 52.8874 65.9969 54.0824C65.9632 55.2774 65.6504 56.4479 65.0836 57.5005C64.5169 58.553 63.7118 59.4585 62.7327 60.1445C61.7537 60.8305 60.6278 61.278 59.4449 61.4513C51.6769 62.5063 43.8426 62.9964 36.0037 62.9179ZM31.8371 13.3355C21.3873 26.3186 12.9624 42.935 8.87083 51.6765C8.51799 52.4229 8.34617 53.2421 8.36934 54.0674C8.3925 54.8927 8.61 55.7009 9.00416 56.4264C9.39656 57.1583 9.95545 57.7877 10.6358 58.2639C11.3161 58.7401 12.0988 59.0498 12.9208 59.168C20.5726 60.1748 28.2863 60.637 36.0037 60.5513C43.7255 60.6293 51.4428 60.1475 59.0949 59.1097C59.9126 58.9877 60.6904 58.6765 61.3665 58.2008C62.0426 57.7251 62.5983 57.098 62.9892 56.3696C63.3801 55.6412 63.5955 54.8316 63.6182 54.0052C63.6409 53.1788 63.4702 52.3586 63.1199 51.6098C59.0366 42.8766 50.6201 26.2936 40.1203 13.3271C39.6234 12.7129 38.9956 12.2175 38.2826 11.8771C37.5696 11.5368 36.7896 11.3602 35.9995 11.3602C35.2095 11.3602 34.4294 11.5368 33.7164 11.8771C33.0035 12.2175 32.3756 12.7129 31.8788 13.3271L31.8371 13.3355Z" fill="#18181B"/>
</svg>
