<svg width="72" height="72" viewBox="0 0 72 72" fill="none" xmlns="http://www.w3.org/2000/svg">
<path fill-rule="evenodd" clip-rule="evenodd" d="M59.7744 32.0308H58.105V40.8018L58.1 40.8072V55.9379C58.1 56.7884 57.7835 57.5113 57.1521 58.1066C56.5199 58.7025 55.7529 59 54.8496 59H17.1502C16.2471 59 15.4796 58.7025 14.8481 58.1066C14.216 57.5118 13.9 56.7891 13.9 55.9379V37.3301L13.8947 37.3226V32.0308H12.2205C10.4979 31.8498 10.0221 30.4358 10 29.6569V22.1931C10.0235 21.364 10.5612 19.8153 12.5694 19.8001L18.1355 19.8C17.92 19.1265 17.8 18.3806 17.8 17.5612C17.8 14.5077 19.1358 12.0987 21.6171 10.8558C23.9073 9.70859 26.6388 9.83177 28.9901 10.5385C31.5229 11.2997 33.2588 13.4986 34.4739 15.2573C35.0129 16.0372 35.5394 16.874 36.0386 17.671C36.6514 16.8013 37.2945 15.9251 37.9492 15.1127C38.7162 14.1606 39.5504 13.2288 40.4333 12.4502C41.295 11.6901 42.3419 10.9506 43.5509 10.5569C45.7834 9.83008 48.427 9.69097 50.6476 10.896C53.0168 12.1817 54.2 14.6004 54.2 17.5612C54.2 18.3913 54.0581 19.136 53.8128 19.8001H59.4256C61.4807 19.8157 61.9957 21.4373 61.9957 22.25H62V29.6H61.9957C61.9957 30.3646 61.54 31.8453 59.7744 32.0308ZM23 17.5612C23 15.9261 23.6142 15.4047 24.0579 15.1824C24.6927 14.8644 25.8613 14.7413 27.41 15.2067C27.9971 15.3832 28.8612 16.1145 30.1161 17.9308C30.52 18.5152 30.9167 19.1371 31.3325 19.7984H29.8801L29.8782 19.7998H25.6C25.1269 19.7998 24.3765 19.6525 23.8251 19.2945C23.4112 19.0259 23 18.5916 23 17.5612ZM29.8782 19.7998L26.6116 19.8001L26.4886 19.8L29.8782 19.7998ZM41.742 19.7984L41.7439 19.7998H45.6001C46.0254 19.7998 47.0631 19.643 47.9055 19.1874C48.638 18.7911 49 18.3263 49 17.5612C49 15.8334 48.3832 15.3217 48.0524 15.1422C47.5731 14.8821 46.6167 14.743 45.2491 15.1883C45.0182 15.2634 44.5952 15.4909 43.9868 16.0275C43.3996 16.5455 42.7638 17.24 42.091 18.0754C41.6496 18.6234 41.2142 19.2031 40.7852 19.7984H41.742ZM39.5471 43.4915V48.7634C39.5471 50.6093 37.959 52.1059 35.9999 52.1059C34.0408 52.1059 32.4528 50.6093 32.4528 48.7634V43.4915C31.0818 42.491 30.1956 40.9292 30.1956 39.1689C30.1956 36.1482 32.7943 33.6992 35.9999 33.6992C39.2056 33.6992 41.8043 36.1482 41.8043 39.1689C41.8043 40.9292 40.9182 42.491 39.5471 43.4915Z" fill="#18181B"/>
</svg>
