<svg width="72" height="72" viewBox="0 0 72 72" fill="none" xmlns="http://www.w3.org/2000/svg">
<path fill-rule="evenodd" clip-rule="evenodd" d="M46.1084 28.9894C46.6666 29.6016 46.6228 30.5503 46.0106 31.1084L33.7706 42.2685C32.9059 43.0569 31.5811 43.0509 30.7236 42.2546L25.9793 37.8492C25.3723 37.2855 25.3371 36.3364 25.9008 35.7293C26.4645 35.1223 27.4136 35.0871 28.0207 35.6508L32.2593 39.5867L43.9894 28.8916C44.6015 28.3334 45.5503 28.3772 46.1084 28.9894Z" fill="#00B63D"/>
<path fill-rule="evenodd" clip-rule="evenodd" d="M63 36C63 50.9117 50.9117 63 36 63C21.0883 63 9 50.9117 9 36C9 21.0883 21.0883 9 36 9C50.9117 9 63 21.0883 63 36ZM36 60C49.2548 60 60 49.2548 60 36C60 22.7452 49.2548 12 36 12C22.7452 12 12 22.7452 12 36C12 49.2548 22.7452 60 36 60Z" fill="#18181B"/>
</svg>
