<svg width="72" height="72" viewBox="0 0 72 72" fill="none" xmlns="http://www.w3.org/2000/svg">
<g clip-path="url(#clip0_2224_378)">
<path d="M42.2 66.9H26.7C26.6 66.9 26.5 66.9 26.4 66.9C25.9 66.8 25.4 66.7 24.9 66.2C24.8 66.1 24.8 66.1 24.7 66C24.6 65.8 24.3 65.5 24.2 65C24.2 64.9 24.1 64.7 24.1 64.5V62.2C24.1 62.2 24.1 62.2 24.1 62.1C24.2 60.2 24.4 58.4 24.8 56.7C25 55.8 25.2 54.9 25.5 53.9C25.6 53.7 25.6 53.5 25.7 53.3C25.8 53.1 25.9 52.8 25.9 52.6C26 52.4 26.1 52.2 26.2 51.9C26.3 51.7 26.4 51.5 26.4 51.4C26.5 51 26.7 50.6 26.8 50.3C27 49.7 27.4 49.1 27.8 48.5C28.8 47 29.8 45.7 30.9 44.6C31.3 44.2 31.7 43.8 32.2 43.4C32.1 43.4 31.9 43.4 31.8 43.3C31.1 43.2 30.4 43.1 29.7 42.9H29.6H29.5C29.4 42.9 29.2 42.9 29 42.8H28.9C28.8 42.8 28.6 42.8 28.4 42.7C28.2 42.7 28 42.6 27.8 42.6C27.7 42.6 27.5 42.6 27.4 42.6H27.1C26.8 42.6 26.6 42.6 26.4 42.7C26.4 42.7 26.4 42.7 26.3 42.7H26.2L26.1 42.8C26 42.9 25.9 42.9 25.8 43L25.7 43.1C25.7 43.2 25.6 43.2 25.6 43.3C25.6 43.4 25.5 43.4 25.5 43.5C25.5 43.5 25.5 43.6 25.4 43.6C25.3 43.7 25.3 43.9 25.2 44.1C25.1 44.7 25 45.1 25 45.5C25 46.1 24.8 46.6 24.5 47.1C24.2 47.5 23.8 47.8 23.3 48C22.9 48.2 22.5 48.2 22.2 48.2H20C18.9 48.2 17.9 47.7 17.4 46.9C17.2 46.7 17.2 46.5 17.1 46.4C17.1 46.3 17 46.3 17 46.2C16.9 45.9 16.8 45.6 16.8 45.1V30.6C16.8 30 16.9 29.5 17.2 29C17.3 28.9 17.3 28.8 17.4 28.7C17.5 28.6 17.5 28.6 17.6 28.5C17.9 28.1 18.3 27.9 18.7 27.7C18.8 27.6 19 27.6 19.2 27.5C19.5 27.4 19.8 27.4 20 27.4H22.8C23 27.4 23.3 27.5 23.5 27.6C23.5 27.6 23.5 27.6 23.6 27.6C23.9 27.8 24.2 28 24.4 28.3C24.5 28.4 24.6 28.6 24.7 28.7C24.9 28.6 25 28.6 25.2 28.5C25.5 28.4 25.7 28.3 26 28.3C26.5 28.1 26.9 28 27.5 27.8C29 27.4 30.6 27.1 32.1 27H32.2H33.2C33.6 27 34.1 27 34.6 27.1C35.1 27.1 35.6 27.2 36 27.2C36.9 27.3 37.7 27.5 38.6 27.7C38.6 27.7 38.6 27.7 38.7 27.7C39.4 27.9 40.3 28.1 41 28.3L41.4 28.4C41.9 28.5 42.3 28.6 42.8 28.7C43.3 28.8 43.7 28.9 44.1 29C44.2 29 44.4 29 44.5 29H44.6C44.7 29 44.8 29 44.9 29C44.9 29 44.9 29 45 29C45.4 28.9 45.7 29 46 29C46.2 29 46.4 29 46.5 29H47C47.4 29 47.8 28.9 48.1 28.7C48.1 28.7 48.2 28.7 48.2 28.6C48.2 28.6 48.3 28.6 48.3 28.5C48.4 28.4 48.5 28.2 48.7 28.1C49.1 27.7 49.6 27.5 50.1 27.4C50.2 27.4 50.3 27.4 50.4 27.4H51C51.1 27.4 51.2 27.4 51.3 27.4C51.8 27.5 52.3 27.8 52.7 28.1C53.1 28.4 53.4 28.7 53.8 29L53.9 29.1C54 29.2 54.1 29.3 54.3 29.5C54.5 29.7 54.7 29.8 54.8 30C55.4 30.6 55.7 31.7 55.3 32.6V32.7C55.1 33.2 54.8 33.7 54.6 34.1C54.6 34.1 54.6 34.2 54.5 34.2C54.2 34.6 53.9 35.1 53.6 35.6C53.5 35.8 53.4 36 53.2 36.2C52.4 37.5 51.5 39 50.7 40.3C50.7 40.3 50.7 40.3 50.7 40.4C50.2 41.1 49.9 41.8 49.6 42.4C49.6 42.5 49.5 42.6 49.5 42.7C49.3 43 49.2 43.3 49.1 43.7C49.1 43.8 49.1 43.8 49 43.9C48.2 45.6 47.5 47.3 46.9 49.1C46.4 50.5 46.1 51.8 45.9 53.1L45.7 54.5C45.6 55.3 45.5 56.2 45.4 57.1V57.3V57.4C45.3 57.8 45.3 58.2 45.3 58.7V60.8C45.3 61.1 45.3 61.4 45.3 61.7L43.9 61.8L45.3 61.7C45.3 62.1 45.3 62.4 45.3 62.8V63.2C45.3 63.5 45.3 63.9 45.2 64.4C45.2 64.5 45.2 64.5 45.1 64.6C45.1 64.7 45 64.8 45 65C44.9 65.3 44.7 65.6 44.4 65.9C44 66.3 43.5 66.6 42.9 66.9C42.8 66.9 42.7 67 42.7 67C42.6 66.9 42.4 66.9 42.2 66.9ZM27.1 64.1H42C42 64.1 42 64.1 42.1 64.1C42.2 64 42.3 64 42.3 64C42.3 64 42.3 64 42.4 63.9V63.8C42.4 63.7 42.4 63.6 42.5 63.5C42.5 63.4 42.5 63.3 42.5 63.1V62.7C42.5 62.4 42.5 62.1 42.5 61.8V61.7C42.5 61.3 42.5 61 42.5 60.6V58.5C42.5 58 42.5 57.5 42.6 56.9V56.8C42.7 55.9 42.7 54.9 42.9 54L43.1 52.6C43.3 51.2 43.7 49.7 44.2 48.2C44.8 46.3 45.5 44.4 46.4 42.7C46.6 42.2 46.8 41.8 46.9 41.5C46.9 41.4 47 41.3 47 41.2C47.4 40.5 47.8 39.7 48.3 38.9C49.1 37.5 50 36.1 50.8 34.7C50.9 34.5 51 34.3 51.1 34.2C51.4 33.7 51.8 33.1 52.2 32.6C52.3 32.4 52.5 32.1 52.6 31.9C52.5 31.8 52.4 31.8 52.4 31.7C52.2 31.5 52.1 31.4 51.9 31.2C51.6 30.9 51.3 30.7 51.1 30.5L51 30.4H50.8L50.7 30.5C50.7 30.5 50.7 30.5 50.6 30.6C50.6 30.6 50.6 30.6 50.5 30.7C50.3 30.9 50 31.1 49.7 31.3C49 31.8 48.1 32 47.1 32H47C46.7 32 46.5 32 46.2 32C46.1 32 45.9 32 45.8 32C45.5 32 45.2 32 45 32H44.9C44.7 32 44.5 32 44.4 32H44.3C44.2 32 44.1 32 44 32C43.5 31.9 43.1 31.8 42.6 31.7C42.1 31.6 41.6 31.5 41.1 31.4L40.7 31.3C39.9 31.1 39 30.9 38.2 30.7C37.4 30.5 36.7 30.4 35.8 30.3C35.4 30.2 35 30.2 34.7 30.2C34.6 30.2 34.6 30.2 34.5 30.2C34.2 30.1 33.8 30.1 33.4 30.1H32.5C31.1 30.2 29.8 30.5 28.4 30.9C27.9 31 27.5 31.2 27.1 31.3C27 31.3 27 31.3 26.9 31.4C26.7 31.5 26.5 31.5 26.2 31.6C25.9 31.7 25.6 31.8 25.4 31.9C25.3 31.9 25.3 31.9 25.2 31.9C25.1 31.9 24.9 32 24.7 32C23.9 32 23 31.5 22.6 30.8C22.6 30.8 22.6 30.7 22.5 30.7C22.5 30.7 22.5 30.7 22.5 30.6H20.3H20.2C20.2 30.6 20.2 30.6 20.1 30.6H20C20 30.6 20 30.6 20 30.7C20 30.7 20 30.8 20 30.9V45.5V45.6C20 45.6 20.1 45.7 20.3 45.7H22.5C22.5 45.1 22.6 44.5 22.8 43.8C22.9 43.5 23 43 23.3 42.4C23.4 42.3 23.5 42 23.7 41.8C23.9 41.6 24.1 41.4 24.2 41.2C24.3 41.1 24.5 40.9 24.8 40.7C25.1 40.4 25.5 40.3 25.8 40.2C26.3 40 26.9 39.9 27.5 39.9H27.9C28 39.9 28 39.9 28.1 39.9C28.2 39.9 28.3 39.9 28.5 39.9C28.8 39.9 29.2 40 29.6 40.1H29.7C29.8 40.1 30 40.1 30.2 40.2H30.3C30.4 40.2 30.6 40.2 30.8 40.3C31.4 40.4 32 40.5 32.6 40.6C33 40.6 33.4 40.7 33.7 40.8C34 40.9 34.3 40.9 34.5 40.9C35.1 41 35.6 41 36.2 41C36.8 41 37.3 41.4 37.5 41.9C37.7 42.4 37.6 43.1 37.1 43.5L36.9 43.7C36.9 43.7 36.8 43.8 36.7 43.8C36.6 43.9 36.5 44 36.3 44.1C36.1 44.2 36 44.4 35.8 44.5C34.8 45.3 34 46 33.4 46.6C32.4 47.6 31.5 48.7 30.6 50.1C30.3 50.6 30 51 29.9 51.5C29.9 51.5 29.9 51.6 29.8 51.6C29.7 51.8 29.6 52 29.6 52.1C29.6 52.2 29.6 52.2 29.5 52.3C29.4 52.5 29.3 52.8 29.2 53C29.1 53.2 29 53.4 29 53.6C28.9 53.8 28.9 54 28.8 54.2C28.7 54.4 28.6 54.7 28.6 54.9C28.3 55.7 28.1 56.5 28 57.3V57.4C27.6 58.9 27.4 60.5 27.3 62.3V64.1H27.1ZM26.4 42.6C26.4 42.6 26.4 42.7 26.4 42.6C26.4 42.6 26.4 42.7 26.4 42.6ZM17.6 28.6C17.5 28.6 17.5 28.6 17.6 28.6C17.5 28.6 17.5 28.6 17.6 28.6ZM61.3 64.9H50.3C50.1 64.9 49.9 64.9 49.7 64.8H49.6H49.5C48.2 64.6 47.4 63.7 47.4 62.6V60.9C47.4 60.9 47.4 60.9 47.4 60.8C47.5 59.5 47.6 58.2 48 56.6C48 56.6 48 56.6 48 56.5C48.1 56.3 48.1 56 48.2 55.8C48.5 54.7 48.8 53.5 49.3 52.4C50.2 50.5 51.3 48.9 52.8 47.3C52.9 47.2 53.1 47 53.3 46.9C52.6 46.8 51.9 46.7 51.4 46.6C50.6 46.4 50.1 45.7 50.3 44.9C50.5 44.1 51.2 43.6 52 43.8C53 44 54.7 44.3 55.6 44.4C55.8 44.4 56 44.4 56.2 44.5C56.5 44.5 56.7 44.5 57 44.6C57.5 44.7 58 45.1 58.1 45.6C58.2 46.1 58.1 46.7 57.7 47.1C57.6 47.2 57.4 47.3 57.2 47.5C56.4 48.1 55.6 48.8 54.9 49.5C53.6 50.8 52.6 52.2 51.9 53.8C51.5 54.7 51.2 55.7 51 56.7V56.8C50.9 57 50.9 57.3 50.8 57.5C50.5 59 50.3 60.1 50.3 61.2V62H61.3C61.3 62 61.3 62 61.4 62C61.4 61.8 61.4 61.6 61.4 61.4C61.4 60.9 61.4 60.4 61.4 59.9C61.4 59.4 61.4 58.8 61.4 58.3C61.4 56.7 61.6 55.2 61.9 53.6C62.4 50.7 63.4 47.7 64.9 44.9C66.1 42.6 67.5 40.4 68.9 38.4L69 38.3C69 38.3 69.1 38.2 69.1 38.1L68 37C67.9 37.1 67.9 37.1 67.8 37.1C67 37.9 66 38.2 64.9 38.2C64.2 38.2 63.4 38.1 62.7 38C61.2 37.7 59.7 37.4 58.3 37.1C58.1 37.1 57.7 37 57.3 36.9L57 36.8C56.2 36.7 55.7 35.9 55.9 35.1C56 34.3 56.8 33.8 57.6 34L57.9 34.1C58.4 34.2 58.8 34.3 59 34.3C60.4 34.6 61.8 35 63.3 35.2C63.9 35.3 64.5 35.4 65 35.4H65.1C65.4 35.4 65.7 35.3 65.9 35.1C65.9 35.1 65.9 35.1 66 35C66.1 34.9 66.3 34.8 66.4 34.7C66.4 34.7 66.4 34.7 66.3 34.8C66.3 34.8 66.4 34.8 66.4 34.7C67.4 33.9 68.8 33.9 69.8 34.7C69.8 34.7 69.9 34.7 69.9 34.8L71.4 36.2C72.2 36.8 72.4 37.9 71.9 38.9C71.9 38.9 71.8 39 71.8 39.1C71.7 39.4 71.5 39.7 71.3 40C70 42 68.6 44.1 67.5 46.2C66.1 48.8 65.2 51.5 64.8 54.1C64.5 55.5 64.4 56.9 64.4 58.3C64.4 58.8 64.4 59.3 64.4 59.8V59.9C64.4 60.4 64.4 60.9 64.4 61.5C64.4 62 64.4 62.6 64.2 63.2V63.3C63.5 64.2 62.4 64.9 61.3 64.9ZM19.5 64.9H8.5C8.3 64.9 8.1 64.9 7.9 64.8H7.8H7.7C6.4 64.6 5.6 63.7 5.6 62.6V60.9C5.6 60.9 5.6 60.9 5.6 60.8C5.7 59.2 6 57.7 6.2 56.6C6.2 56.6 6.2 56.6 6.2 56.5C6.3 56.2 6.3 56 6.4 55.7C6.7 54.6 7 53.4 7.5 52.3C8.4 50.4 9.5 48.8 11 47.2C11.1 47.1 11.3 46.9 11.4 46.8C11 46.7 10.6 46.6 10.2 46.6H10.1C9.5 46.5 8.9 46.4 8.2 46.2C7.8 46.2 7.6 46.3 7.4 46.5C7.2 46.7 7.1 47 7.1 47.2V47.4C7.1 47.7 7 48 7 48.3C7 49.7 6 50.7 4.6 50.7H2.8C1.2 50.7 0 49.5 0 48V36.9C0 36.1 0.3 35.4 0.8 34.9C1.4 34.4 2 34.1 2.8 34.1H4.7C5.5 34.1 6 34.6 6.2 34.7C6.3 34.8 6.4 34.9 6.5 35C6.7 34.9 6.9 34.9 7.1 34.8C7.1 34.8 7.1 34.8 7.2 34.8C8.8 34.3 10.4 33.9 12 33.8C12.3 33.8 13.7 33.7 14.2 33.7C15 33.7 15.6 34.4 15.6 35.1C15.6 35.9 15 36.5 14.2 36.5C14.2 36.5 14.2 36.5 14.1 36.5C13.8 36.5 12.9 36.6 12.3 36.6C11 36.7 9.6 37 8.2 37.5C7.8 37.6 7.4 37.8 6.9 37.9C6 38 5.2 37.7 4.6 37L4.5 36.9H2.8V47.8H4.2C4.2 47.5 4.3 47.2 4.3 46.9V46.7C4.4 45.9 4.8 45.1 5.4 44.5L5.5 44.4C6.4 43.6 7.4 43.3 8.6 43.4H8.7C9.4 43.5 10.1 43.7 10.7 43.8C11.6 44 12.6 44.2 13.5 44.3C13.7 44.3 13.8 44.3 13.9 44.4H14C14.5 44.6 15.1 45 15.3 45.8C15.4 46.3 15.3 47.1 14.4 47.9L14.1 48.1C13.7 48.4 13.3 48.8 13 49.1C11.7 50.4 10.7 51.8 10 53.4C9.6 54.3 9.3 55.3 9.1 56.3C9 56.5 9 56.8 8.9 57C8.6 58.5 8.4 59.6 8.4 60.7V62H19.4C19.4 62 19.4 62 19.5 62C19.5 61.8 19.5 61.6 19.5 61.4C19.5 60.9 19.5 60.4 19.5 59.9C19.5 59.4 19.5 58.8 19.5 58.3C19.5 56.7 19.7 55.2 20 53.6C20.1 52.8 20.3 51.9 20.6 51C20.8 50.2 21.6 49.8 22.3 50C23.1 50.2 23.5 51 23.3 51.7C23.1 52.5 22.9 53.3 22.8 54C22.5 55.4 22.4 56.8 22.4 58.2C22.4 58.7 22.4 59.2 22.4 59.7C22.4 60.2 22.4 60.8 22.4 61.3C22.4 61.8 22.4 62.3 22.2 63V63.1C21.6 64.2 20.6 64.9 19.5 64.9ZM13.4 47.2H13.5C13.4 47.2 13.4 47.2 13.4 47.2Z" fill="#18181B"/>
<path d="M28.9991 11.3002C29.5991 12.2002 30.4991 13.4002 30.8991 13.9002C30.9991 14.1002 31.0991 14.3002 31.0991 14.5002V17.9002C31.0991 18.6002 31.7991 19.1002 32.3991 18.9002L35.4991 17.9002C35.6991 17.8002 35.9991 17.8002 36.1991 17.9002L39.1991 19.1002C39.8991 19.4002 40.5991 18.9002 40.5991 18.1002C40.5991 16.9002 40.5991 15.4002 40.5991 14.7002C40.5991 14.5002 40.6991 14.3002 40.7991 14.1002L42.9991 11.3002C43.3991 10.7002 43.1991 9.90019 42.4991 9.70019L39.4991 8.8002C39.2991 8.7002 39.0991 8.60019 38.9991 8.40019L36.7991 5.4002C36.3991 4.8002 35.5991 4.8002 35.0991 5.4002L33.0991 8.1002C32.9991 8.3002 32.7991 8.4002 32.5991 8.5002L29.3991 9.60019C28.7991 10.0002 28.5991 10.7002 28.9991 11.3002Z" fill="#4A47EA"/>
<path d="M46.5995 16.1003C46.9995 16.7003 47.5995 17.5003 47.8995 17.9003C47.9995 18.0003 47.9995 18.1003 47.9995 18.3003V20.7003C47.9995 21.2003 48.4995 21.5003 48.8995 21.4003L51.0995 20.7003C51.2995 20.6003 51.3995 20.7003 51.5995 20.7003L53.6995 21.5003C54.1995 21.7003 54.6995 21.3003 54.6995 20.8003C54.6995 20.0003 54.6995 18.9003 54.6995 18.4003C54.6995 18.2003 54.7995 18.1003 54.7995 18.0003L56.2995 16.1003C56.5995 15.7003 56.3995 15.1003 55.8995 15.0003L53.7995 14.4003C53.5995 14.4003 53.4995 14.3003 53.3995 14.1003L51.9995 12.1003C51.6995 11.7003 51.0995 11.7003 50.7995 12.1003L49.3995 14.0003C49.2995 14.1003 49.1995 14.2003 49.0995 14.3003L46.8995 15.0003C46.4995 15.1003 46.2995 15.7003 46.5995 16.1003Z" fill="#4A47EA"/>
<path d="M15.6991 16.1002C16.0991 16.7002 16.6991 17.5002 16.9991 17.9002C17.0991 18.0002 17.0991 18.2002 17.0991 18.3002V20.7002C17.0991 21.2002 17.5991 21.5002 17.9991 21.4002L20.1991 20.7002C20.3991 20.6002 20.4991 20.7002 20.6991 20.7002L22.7991 21.5002C23.2991 21.7002 23.7991 21.3002 23.7991 20.8002C23.7991 20.0002 23.7991 18.9002 23.7991 18.4002C23.7991 18.2002 23.8991 18.1002 23.8991 18.0002L25.3991 16.1002C25.6991 15.7002 25.4991 15.1002 24.9991 15.0002L22.9991 14.4002C22.7991 14.4002 22.6991 14.3002 22.5991 14.1002L21.0991 12.0002C20.7991 11.6002 20.1991 11.6002 19.8991 12.0002L18.4991 13.9002C18.3991 14.0002 18.2991 14.1002 18.1991 14.2002L15.9991 15.0002C15.5991 15.1002 15.3991 15.7002 15.6991 16.1002Z" fill="#4A47EA"/>
</g>
<defs>
<clipPath id="clip0_2224_378">
<rect width="72" height="72" fill="white"/>
</clipPath>
</defs>
</svg>
