<svg width="72" height="72" viewBox="0 0 72 72" fill="none" xmlns="http://www.w3.org/2000/svg">
<path d="M56.0141 27.1514C55.9031 27.0266 55.7672 26.9264 55.615 26.8575C55.4628 26.7886 55.2979 26.7525 55.1308 26.7514H20.1336C19.9679 26.7541 19.8044 26.7911 19.6537 26.8601C19.5029 26.9291 19.3681 27.0286 19.2577 27.1523C19.1473 27.276 19.0637 27.4212 19.0123 27.5788C18.9608 27.7364 18.9426 27.903 18.9587 28.068L22.4501 60.2238C22.619 61.809 23.369 63.2754 24.5554 64.3402C25.7417 65.4051 27.2804 65.9928 28.8746 65.99H46.3732C47.9688 65.9948 49.5095 65.408 50.6977 64.343C51.8858 63.278 52.637 61.8104 52.806 60.2238L56.2974 28.068C56.3163 27.9039 56.3009 27.7377 56.2521 27.5799C56.2033 27.4221 56.1223 27.2762 56.0141 27.1514ZM50.4729 59.9738C50.3621 60.977 49.8851 61.9042 49.1333 62.5776C48.3814 63.251 47.4076 63.6234 46.3982 63.6235H28.8996C27.8892 63.6271 26.9133 63.256 26.1607 62.5819C25.4081 61.9077 24.9321 60.9785 24.8249 59.9738L21.4919 29.1429H53.8143L50.4729 59.9738Z" fill="#18181B"/>
<path d="M56.1391 14.7024C56.2886 14.4274 56.3302 14.1065 56.2558 13.8025L55.6391 11.536C55.3502 10.4754 54.6538 9.57206 53.7017 9.02267C52.7496 8.47328 51.619 8.32239 50.5562 8.60289L42.0569 10.9027L41.4903 8.8862C40.8986 6.68637 38.2239 5.48647 35.5407 6.21141L30.9744 7.44465C29.7735 7.75147 28.7056 8.44195 27.933 9.41115C27.5596 9.87144 27.297 10.4114 27.1655 10.9893C27.034 11.5673 27.0372 12.1677 27.1747 12.7442L27.6914 14.7941L19.0421 17.1272C17.9858 17.4232 17.0889 18.1238 16.546 19.077C16.0032 20.0302 15.8581 21.159 16.1423 22.2185L16.7589 24.4933C16.7979 24.6435 16.8667 24.7843 16.9611 24.9074C17.0556 25.0305 17.1739 25.1334 17.3089 25.2099C17.4903 25.309 17.6938 25.3606 17.9005 25.3599C18.0027 25.3756 18.1066 25.3756 18.2088 25.3599L55.4392 15.2524C55.7336 15.164 55.9836 14.9676 56.1391 14.7024ZM29.4746 12.1359C29.4298 11.9102 29.4373 11.6771 29.4965 11.4547C29.5558 11.2323 29.6651 11.0264 29.8162 10.8527C30.2759 10.296 30.9002 9.89931 31.5994 9.71946L36.1407 8.49456C37.5406 8.11959 38.9405 8.57789 39.1988 9.51948L39.7654 11.5277L29.9745 14.1608L29.4746 12.1359ZM18.6921 22.7351L18.3921 21.6018C18.2697 21.1422 18.3342 20.6528 18.5716 20.2406C18.8089 19.8284 19.1997 19.5269 19.6587 19.402L51.1395 10.886C51.2916 10.8441 51.4484 10.8217 51.6061 10.8194C51.9195 10.8194 52.2272 10.9028 52.4977 11.061C52.7016 11.1792 52.8801 11.3365 53.0231 11.5238C53.1661 11.7111 53.2707 11.9248 53.331 12.1526L53.6393 13.2775L18.6921 22.7351Z" fill="#18181B"/>
<path d="M30.6995 60.0154H30.7911C31.1038 59.99 31.3936 59.8413 31.5967 59.6023C31.7998 59.3632 31.8997 59.0532 31.8744 58.7405L29.7745 33.2009C29.7652 33.0437 29.7245 32.8898 29.6549 32.7485C29.5853 32.6071 29.4882 32.4811 29.3693 32.3778C29.2503 32.2745 29.1119 32.196 28.9622 32.1469C28.8126 32.0978 28.6546 32.079 28.4975 32.0918C28.3405 32.1046 28.1876 32.1486 28.0478 32.2212C27.908 32.2938 27.7841 32.3937 27.6834 32.5148C27.5827 32.636 27.5072 32.776 27.4614 32.9268C27.4155 33.0775 27.4002 33.2359 27.4164 33.3926L29.5162 58.9322C29.5413 59.2284 29.677 59.5042 29.8962 59.705C30.1155 59.9057 30.4022 60.0165 30.6995 60.0154Z" fill="#18181B"/>
<path d="M44.0484 60.0154H44.1484C44.4413 60.0103 44.7219 59.8967 44.9358 59.6966C45.1498 59.4965 45.2819 59.2241 45.3066 58.9322L47.4065 33.3926C47.4201 33.2375 47.4029 33.0813 47.3557 32.933C47.3084 32.7847 47.2322 32.6472 47.1314 32.5286C47.0307 32.41 46.9073 32.3126 46.7686 32.242C46.6298 32.1715 46.4784 32.1292 46.3232 32.1177C46.011 32.0946 45.7023 32.1952 45.4637 32.3979C45.2251 32.6006 45.0759 32.8891 45.0483 33.2009L42.9735 58.7405C42.9598 58.895 42.9768 59.0505 43.0235 59.1983C43.0701 59.3461 43.1456 59.4833 43.2455 59.6018C43.3455 59.7203 43.4678 59.8178 43.6056 59.8888C43.7434 59.9598 43.8939 60.0029 44.0484 60.0154Z" fill="#18181B"/>
<path d="M37.6322 60.0154C37.7879 60.0166 37.9423 59.9867 38.0864 59.9276C38.2304 59.8686 38.3613 59.7814 38.4714 59.6714C38.5815 59.5613 38.6686 59.4304 38.7277 59.2863C38.7867 59.1423 38.8166 58.9879 38.8155 58.8322V33.2926C38.8155 32.9788 38.6908 32.6778 38.4689 32.4559C38.247 32.234 37.9461 32.1093 37.6322 32.1093C37.3184 32.1093 37.0175 32.234 36.7956 32.4559C36.5737 32.6778 36.449 32.9788 36.449 33.2926V58.8322C36.449 59.146 36.5737 59.447 36.7956 59.6689C37.0175 59.8908 37.3184 60.0154 37.6322 60.0154Z" fill="#18181B"/>
</svg>
