<svg viewBox="0 0 24 24" fill="none" xmlns="http://www.w3.org/2000/svg">
<path fill-rule="evenodd" clip-rule="evenodd" d="M2 10.3344C2 5.27277 5.8 2 10 2C14.2 2 18 5.27277 18 10.3344C18 10.4016 17.9989 10.4691 17.9968 10.5368C17.7519 10.5115 17.5026 10.4988 17.2493 10.4988C15.4067 10.4988 13.7774 11.1714 12.4749 12.4738C11.1723 13.7764 10.5 15.4058 10.5 17.2482C10.5 18.6019 10.863 19.8405 11.5722 20.9191C11.2813 21.1932 10.9806 21.4697 10.67 21.7484C10.29 22.0839 9.72 22.0839 9.34 21.7484C4.45 17.3678 2 13.5665 2 10.3344ZM8 10.1311C8 11.2491 8.9 12.1639 10 12.1639C11.1 12.1639 12 11.2491 12 10.1311C12 9.01309 11.1 8.09834 10 8.09834C8.9 8.09834 8 9.01309 8 10.1311Z" fill="white"/>
<path fill-rule="evenodd" clip-rule="evenodd" d="M13.8914 20.6064C14.819 21.534 15.9383 21.9978 17.2494 21.9978C18.5605 21.9978 19.6798 21.534 20.6074 20.6064C21.535 19.6788 21.9988 18.5594 21.9988 17.2484C21.9988 15.9373 21.535 14.818 20.6074 13.8904C19.6798 12.9628 18.5605 12.499 17.2494 12.499C15.9383 12.499 14.819 12.9628 13.8914 13.8904C12.9638 14.818 12.5 15.9373 12.5 17.2484C12.5 18.5594 12.9638 19.6788 13.8914 20.6064ZM17.9997 14.7488C17.9997 14.3345 17.6639 13.9988 17.2497 13.9988C16.8354 13.9988 16.4997 14.3345 16.4997 14.7488V16.9191C16.4997 17.4191 16.7977 17.871 17.2573 18.068L18.7042 18.6881C19.085 18.8513 19.5259 18.6749 19.689 18.2942C19.8522 17.9135 19.6758 17.4726 19.2951 17.3094L17.9997 16.7542V14.7488Z" fill="#FDD835"/>
</svg>
