<svg viewBox="0 0 24 24" fill="none" xmlns="http://www.w3.org/2000/svg">
<path fill-rule="evenodd" clip-rule="evenodd" d="M2 10.3344C2 5.27277 5.8 2 10 2C14.2 2 18 5.27277 18 10.3344C18 10.4016 17.9989 10.4691 17.9968 10.5368C17.7519 10.5115 17.5026 10.4988 17.2493 10.4988C15.4067 10.4988 13.7774 11.1714 12.4749 12.4738C11.1723 13.7764 10.5 15.4058 10.5 17.2482C10.5 18.6019 10.863 19.8405 11.5722 20.9191C11.2813 21.1932 10.9806 21.4697 10.67 21.7484C10.29 22.0839 9.72 22.0839 9.34 21.7484C4.45 17.3678 2 13.5665 2 10.3344ZM8 10.1311C8 11.2491 8.9 12.1639 10 12.1639C11.1 12.1639 12 11.2491 12 10.1311C12 9.01309 11.1 8.09834 10 8.09834C8.9 8.09834 8 9.01309 8 10.1311Z" fill="currentColor"/>
<path d="M16.5607 17.3671L16.157 16.9634C16.0145 16.8209 15.8443 16.7497 15.6464 16.7497C15.4485 16.7497 15.2783 16.8209 15.1359 16.9634C14.9934 17.1059 14.9221 17.2721 14.9221 17.4621C14.9221 17.6521 14.9934 17.8183 15.1359 17.9608L16.062 18.8869C16.2045 19.0294 16.3707 19.1006 16.5607 19.1006C16.7507 19.1006 16.9169 19.0294 17.0594 18.8869L19.3628 16.631C19.5053 16.4885 19.5765 16.3183 19.5765 16.1204C19.5765 15.9225 19.5053 15.7523 19.3628 15.6098C19.2203 15.4674 19.0501 15.3961 18.8523 15.3961C18.6544 15.3961 18.4842 15.4674 18.3417 15.6098L16.5607 17.3671ZM17.2493 21.9978C15.9353 21.9978 14.8153 21.5347 13.8891 20.6086C12.963 19.6824 12.5 18.5624 12.5 17.2484C12.5 15.9344 12.963 14.8143 13.8891 13.8882C14.8153 12.9621 15.9353 12.499 17.2493 12.499C18.5633 12.499 19.6834 12.9621 20.6095 13.8882C21.5357 14.8143 21.9987 15.9344 21.9987 17.2484C21.9987 18.5624 21.5357 19.6824 20.6095 20.6086C19.6834 21.5347 18.5633 21.9978 17.2493 21.9978Z" fill="#1BE176"/>
</svg>
