<svg viewBox="0 0 24 24" fill="none" xmlns="http://www.w3.org/2000/svg">
<path fill-rule="evenodd" clip-rule="evenodd" d="M2 10.3344C2 5.27277 5.8 2 10 2C14.2 2 18 5.27277 18 10.3344C18 10.4016 17.9989 10.4691 17.9968 10.5368C17.7519 10.5115 17.5026 10.4988 17.2493 10.4988C15.4067 10.4988 13.7774 11.1714 12.4749 12.4738C11.1723 13.7764 10.5 15.4058 10.5 17.2482C10.5 18.6019 10.863 19.8405 11.5722 20.9191C11.2813 21.1932 10.9806 21.4697 10.67 21.7484C10.29 22.0839 9.72 22.0839 9.34 21.7484C4.45 17.3678 2 13.5665 2 10.3344ZM8 10.1311C8 11.2491 8.9 12.1639 10 12.1639C11.1 12.1639 12 11.2491 12 10.1311C12 9.01309 11.1 8.09834 10 8.09834C8.9 8.09834 8 9.01309 8 10.1311Z" fill="white"/>
<path fill-rule="evenodd" clip-rule="evenodd" d="M13.8892 20.6086C14.8153 21.5347 15.9354 21.9978 17.2494 21.9978C18.5634 21.9978 19.6834 21.5347 20.6096 20.6086C21.5357 19.6824 21.9988 18.5624 21.9988 17.2484C21.9988 15.9344 21.5357 14.8143 20.6096 13.8882C19.6834 12.9621 18.5634 12.499 17.2494 12.499C15.9354 12.499 14.8153 12.9621 13.8892 13.8882C12.9631 14.8143 12.5 15.9344 12.5 17.2484C12.5 18.5624 12.9631 19.6824 13.8892 20.6086ZM19.2794 15.2183C18.9866 14.9255 18.5118 14.9255 18.2189 15.2183L17.2494 16.1879L16.2798 15.2183C15.987 14.9255 15.5122 14.9255 15.2193 15.2183C14.9265 15.5112 14.9265 15.986 15.2193 16.2788L16.1889 17.2484L15.2193 18.2179C14.9265 18.5108 14.9265 18.9856 15.2193 19.2784C15.5122 19.5713 15.987 19.5713 16.2798 19.2784L17.2494 18.3089L18.2189 19.2784C18.5118 19.5713 18.9866 19.5713 19.2794 19.2784C19.5723 18.9856 19.5723 18.5108 19.2794 18.2179L18.3099 17.2484L19.2794 16.2788C19.5723 15.986 19.5723 15.5112 19.2794 15.2183Z" fill="#FF5E3A"/>
</svg>
