<svg viewBox="0 0 24 24" fill="none" xmlns="http://www.w3.org/2000/svg">
<path d="M11.3 2.12713L5.3 4.39227C4.52 4.69429 4 5.43927 4 6.28493V11.0166C4 16.1006 7.41 20.8423 12 22C16.59 20.8423 20 16.1006 20 11.0166V6.28493C20 5.44934 19.48 4.69429 18.7 4.40234L12.7 2.13719C12.25 1.95598 11.75 1.95598 11.3 2.12713ZM12 15.9596C11.45 15.9596 11 15.5066 11 14.9529C11 14.3992 11.45 13.9462 12 13.9462C12.55 13.9462 13 14.3992 13 14.9529C13 15.5066 12.55 15.9596 12 15.9596ZM12 11.9327C11.45 11.9327 11 11.4797 11 10.926V7.90576C11 7.35206 11.45 6.89903 12 6.89903C12.55 6.89903 13 7.35206 13 7.90576V10.926C13 11.4797 12.55 11.9327 12 11.9327Z" fill="white"/>
</svg>
