<svg viewBox="0 0 24 24" fill="none" xmlns="http://www.w3.org/2000/svg">
<path d="M4.09977 21H19.9002C21.5159 21 22.5231 19.2325 21.7153 17.8249L13.8151 4.05571C13.0072 2.6481 10.9928 2.6481 10.1849 4.05571L2.28471 17.8249C1.47686 19.2325 2.48406 21 4.09977 21ZM12 13.5915C11.423 13.5915 10.9508 13.1152 10.9508 12.5331V10.4164C10.9508 9.83434 11.423 9.35808 12 9.35808C12.577 9.35808 13.0492 9.83434 13.0492 10.4164V12.5331C13.0492 13.1152 12.577 13.5915 12 13.5915ZM13.0492 16.8249C13.0492 17.3772 12.6015 17.8249 12.0492 17.8249H11.9508C11.3985 17.8249 10.9508 17.3772 10.9508 16.8249V16.7082C10.9508 16.1559 11.3985 15.7082 11.9508 15.7082H12.0492C12.6015 15.7082 13.0492 16.1559 13.0492 16.7082V16.8249Z" fill="currentColor"/>
</svg>
