<svg viewBox="0 0 24 24" fill="none" xmlns="http://www.w3.org/2000/svg">
<path d="M15.91 10.5001H8.08C7.69 11.3901 6.93 11.9801 6 12.3401V13.6001C6.93 13.9501 7.69 14.5901 8.08 15.4701H15.91C16.3 14.5901 17.06 13.9501 17.99 13.6001V12.3401C17.06 11.9801 16.3 11.3901 15.91 10.5001ZM13.41 14.4101C13.05 14.7701 12.55 15.0001 12 15.0001C10.89 15.0001 10 14.1001 10 13.0001C10 12.4501 10.22 11.9501 10.58 11.5801C10.95 11.2201 11.45 11.0001 12 11.0001C12.55 11.0001 13.05 11.2201 13.41 11.5801C13.77 11.9501 14 12.4501 14 13.0001C14 13.5501 13.77 14.0501 13.41 14.4101Z" fill="currentColor"/>
<path d="M20 6.99231H4C2.89 6.99231 2 7.89231 2 8.99231V16.9923C2 18.0923 2.89 18.9923 4 18.9923H20C21.1 18.9923 22 18.0923 22 16.9923V8.99231C22 7.89231 21.1 6.99231 20 6.99231ZM19.97 14.9823L18.67 15.4723C18.25 15.6323 17.89 15.9623 17.72 16.3223L17.17 17.4923H6.74L6.23 16.3223C6.06 15.9623 5.7 15.6323 5.27 15.4723L3.98 14.9823V10.9723L5.26 10.4723C5.7 10.3023 6.05 9.98231 6.23 9.59231L6.75 8.49231H17.19L17.72 9.59231C17.89 9.98231 18.24 10.3023 18.69 10.4723L19.97 10.9723V14.9823Z" fill="currentColor"/>
<path d="M6 5.00012H20L19.0098 3.67026C18.5 2.9981 17.67 2.86532 16.84 3.07148L6 5.00012Z" fill="currentColor"/>
</svg>
