<svg viewBox="0 0 24 24" fill="none" xmlns="http://www.w3.org/2000/svg">
<path d="M15.725 10.9998C16.1083 10.9998 16.4 10.8291 16.6 10.4878C16.8 10.1458 16.7917 9.80814 16.575 9.4748L12.85 3.3998C12.65 3.08314 12.3667 2.9248 12 2.9248C11.6333 2.9248 11.35 3.08314 11.15 3.3998L7.425 9.4748C7.20833 9.80814 7.2 10.1458 7.4 10.4878C7.6 10.8291 7.89167 10.9998 8.275 10.9998H15.725ZM6.5 21.9998C7.75 21.9998 8.81267 21.5625 9.688 20.6878C10.5627 19.8125 11 18.7498 11 17.4998C11 16.2498 10.5627 15.1871 9.688 14.3118C8.81267 13.4371 7.75 12.9998 6.5 12.9998C5.25 12.9998 4.18733 13.4371 3.312 14.3118C2.43733 15.1871 2 16.2498 2 17.4998C2 18.7498 2.43733 19.8125 3.312 20.6878C4.18733 21.5625 5.25 21.9998 6.5 21.9998ZM20 21.4998C20.2833 21.4998 20.5207 21.4038 20.712 21.2118C20.904 21.0205 21 20.7831 21 20.4998V14.4998C21 14.2165 20.904 13.9788 20.712 13.7868C20.5207 13.5955 20.2833 13.4998 20 13.4998H14C13.7167 13.4998 13.479 13.5955 13.287 13.7868C13.0957 13.9788 13 14.2165 13 14.4998V20.4998C13 20.7831 13.0957 21.0205 13.287 21.2118C13.479 21.4038 13.7167 21.4998 14 21.4998H20Z" fill="white"/>
</svg>
