<svg viewBox="0 0 24 24" fill="none" xmlns="http://www.w3.org/2000/svg">
<path fill-rule="evenodd" clip-rule="evenodd" d="M2.01006 11.5382C2.25175 6.13776 7.06948 1.75289 12.4995 2.01083C17.5106 2.23652 22.2477 6.63751 21.9899 12.4571C21.7482 18.0027 16.9627 22.2909 11.5488 21.9846C5.90936 21.8072 1.76837 16.7614 2.01006 11.5382ZM9.67582 16.5842C10.3286 16.8614 11.1 17 11.9703 17C12.5835 17 13.1374 16.9208 13.6714 16.7822C14.2055 16.6436 14.6802 16.4257 15.0956 16.1287C15.511 15.8317 15.8473 15.4752 16.0846 15.0396C16.322 14.604 16.4604 14.1089 16.4604 13.5347C16.4604 13.4356 16.4209 13.3762 16.3615 13.3168C16.3022 13.2574 16.2231 13.2376 16.144 13.2376H13.8099C13.6714 13.2376 13.5725 13.2574 13.4934 13.3168C13.4341 13.3762 13.3747 13.4752 13.3352 13.6139C13.2363 13.9901 13.0582 14.2673 12.8209 14.4059C12.5835 14.5446 12.3066 14.6238 11.9703 14.6238C11.5549 14.6238 11.2385 14.5248 11.0011 14.3069C10.744 14.0891 10.6253 13.7129 10.6055 13.1584C10.5857 12.3663 10.5857 11.5743 10.6055 10.8218C10.6253 10.2673 10.7637 9.89109 11.0011 9.67327C11.2385 9.45545 11.5549 9.35644 11.9703 9.35644C12.3066 9.35644 12.5835 9.43564 12.8209 9.57426C13.0582 9.71287 13.2363 9.9901 13.3549 10.3861C13.3945 10.5248 13.4538 10.6238 13.5132 10.6832C13.5725 10.7426 13.6714 10.7624 13.8099 10.7624H16.1835C16.2626 10.7624 16.3418 10.7228 16.4011 10.6634C16.4604 10.604 16.5 10.5248 16.5 10.4455C16.4802 9.87129 16.3615 9.35644 16.1242 8.94059C15.8868 8.52475 15.5505 8.16832 15.1352 7.87129C14.7198 7.57426 14.2451 7.35644 13.711 7.21782C13.1769 7.07921 12.6033 7 11.9901 7C11.1396 7 10.3681 7.13861 9.71538 7.41584C9.06264 7.69307 8.52857 8.10891 8.15275 8.66337C7.75714 9.21782 7.55934 9.91089 7.51978 10.7426C7.5 11.1386 7.5 11.5545 7.5 11.9901C7.5 12.2159 7.50531 12.4364 7.51043 12.6488C7.51519 12.8462 7.51978 13.0366 7.51978 13.2178C7.55934 14.0693 7.75714 14.7822 8.13297 15.3366C8.50879 15.8911 9.02308 16.3069 9.67582 16.5842Z" fill="white"/>
</svg>
