<svg viewBox="0 0 24 24" fill="none" xmlns="http://www.w3.org/2000/svg">
<path fill-rule="evenodd" clip-rule="evenodd" d="M20 2H4C2.89 2 2.01 2.89 2.01 4L2 15C2 16.11 2.89 17 4 17H8C8.33333 17 9 16.8 9 16C9 15.2 8.33333 15 8 15H5C4.45 15 4 14.55 4 14V10H20V14C20 14.55 19.55 15 19 15H16C15.6667 15 15 15.2 15 16C15 16.8 15.6667 17 16 17H20C21.11 17 22 16.11 22 15V4C22 2.89 21.11 2 20 2ZM20 6H4V4H20V6Z" fill="white"/>
<path d="M15.1414 19.0687L12.3514 21.8587C12.1614 22.0487 11.8414 22.0487 11.6514 21.8487L8.86143 19.0587C8.54143 18.7487 8.76143 18.2087 9.21143 18.2087H11.0014L11.0014 13.2087C11.0014 12.6587 11.4514 12.2087 12.0014 12.2087C12.5514 12.2087 13.0014 12.6587 13.0014 13.2087V18.2087H14.7914C15.2414 18.2087 15.4614 18.7487 15.1414 19.0687Z" fill="white"/>
</svg>
