<svg viewBox="0 0 24 24" fill="none" xmlns="http://www.w3.org/2000/svg">
<path d="M13.35 20.15L15.075 18.575C16.8417 16.9583 18.4373 15.354 19.862 13.762C21.2873 12.1707 22 10.4167 22 8.5C22 6.93333 21.475 5.625 20.425 4.575C19.375 3.525 18.0667 3 16.5 3C15.6167 3 14.7833 3.18733 14 3.562C13.2167 3.93733 12.55 4.45 12 5.1C11.45 4.45 10.7833 3.93733 10 3.562C9.21667 3.18733 8.38333 3 7.5 3C5.93333 3 4.625 3.525 3.575 4.575C2.525 5.625 2 6.93333 2 8.5C2 10.4167 2.70833 12.175 4.125 13.775C5.54167 15.375 7.15 16.9833 8.95 18.6L10.65 20.15C11.0333 20.5 11.4833 20.675 12 20.675C12.5167 20.675 12.9667 20.5 13.35 20.15Z" fill="currentColor"/>
</svg>
