<svg viewBox="0 0 24 24" fill="none" xmlns="http://www.w3.org/2000/svg">
<path d="M12.6502 10.0001C11.7002 7.31012 8.90018 5.50012 5.77018 6.12012C3.48018 6.58012 1.62018 8.41012 1.14018 10.7001C0.320184 14.5701 3.26018 18.0001 7.00018 18.0001C9.61018 18.0001 11.8302 16.3301 12.6502 14.0001H17.0002V16.0001C17.0002 17.1001 17.9002 18.0001 19.0002 18.0001C20.1002 18.0001 21.0002 17.1001 21.0002 16.0001V14.0001C22.1002 14.0001 23.0002 13.1001 23.0002 12.0001C23.0002 10.9001 22.1002 10.0001 21.0002 10.0001H12.6502ZM7.00018 14.0001C5.90018 14.0001 5.00018 13.1001 5.00018 12.0001C5.00018 10.9001 5.90018 10.0001 7.00018 10.0001C8.10018 10.0001 9.00018 10.9001 9.00018 12.0001C9.00018 13.1001 8.10018 14.0001 7.00018 14.0001Z" fill="white"/>
</svg>
