<svg viewBox="0 0 24 24" fill="none" xmlns="http://www.w3.org/2000/svg">
<path fill-rule="evenodd" clip-rule="evenodd" d="M5 2H19C20.1 2 21 2.9 21 4V11.5997C20.2499 11.2163 19.4002 11 18.5 11C15.4624 11 13 13.4624 13 16.5C13 17.8296 13.4718 19.0491 14.2572 20H5C3.9 20 3 19.1 3 18V4C3 2.9 3.9 2 5 2ZM8 16H10.5C11.05 16 11.5 15.55 11.5 15C11.5 14.45 11.05 14 10.5 14H8C7.45 14 7 14.45 7 15C7 15.55 7.45 16 8 16ZM8 12H12C12.55 12 13 11.55 13 11C13 10.45 12.55 10 12 10H8C7.45 10 7 10.45 7 11C7 11.55 7.45 12 8 12ZM8 8H16C16.55 8 17 7.55 17 7C17 6.45 16.55 6 16 6H8C7.45 6 7 6.45 7 7C7 7.55 7.45 8 8 8ZM20.5 19.3727C21.4067 18.7402 22 17.6894 22 16.5C22 14.567 20.433 13 18.5 13C16.567 13 15 14.567 15 16.5C15 17.6894 15.5933 18.7402 16.5 19.3727V22L18.5 21L20.5 22V19.3727Z" fill="currentColor"/>
</svg>
