<svg viewBox="0 0 24 24" fill="none" xmlns="http://www.w3.org/2000/svg">
<path d="M21.6704 11.6381C21.3969 10.4608 20.9127 9.34018 20.2404 8.32808L20.0004 4.4794C19.9836 4.18345 19.856 3.90395 19.642 3.69436C19.428 3.48477 19.1426 3.35981 18.8404 3.3434L12.4205 3.00064C12.2477 2.99526 12.0756 3.02367 11.9142 3.08421C11.7528 3.14474 11.6053 3.23619 11.4805 3.35319L2.36051 12.3139C2.24622 12.4257 2.15556 12.5585 2.0937 12.7047C2.03184 12.8509 2 13.0076 2 13.1659C2 13.3241 2.03184 13.4808 2.0937 13.627C2.15556 13.7732 2.24622 13.906 2.36051 14.0179L9.13047 20.6478C9.24384 20.7594 9.37863 20.848 9.52707 20.9084C9.67552 20.9689 9.8347 21 9.99547 21C10.1562 21 10.3154 20.9689 10.4639 20.9084C10.6123 20.848 10.7471 20.7594 10.8605 20.6478L15.4004 16.2017C15.6628 16.6552 15.971 17.0817 16.3204 17.4748L16.5904 17.7686C16.942 18.1868 17.3995 18.5073 17.9171 18.698C18.4348 18.8888 18.9946 18.9431 19.5404 18.8556C21.6104 18.3464 22.5504 15.1832 21.6704 11.6381ZM19.2204 17.514C18.6704 17.6413 17.9804 17.2985 17.3204 16.5347C16.9604 16.1107 16.6517 15.6473 16.4004 15.1539L19.1004 12.4999C18.5804 9.77746 17.4304 8.80794 17.1604 8.5827C16.6689 8.74168 16.1347 8.71727 15.6604 8.51415C15.5496 8.46291 15.4427 8.404 15.3404 8.33787C15.237 8.2679 15.14 8.18926 15.0504 8.10284C14.9655 8.01844 14.8885 7.92666 14.8204 7.82863C14.7604 7.7307 14.7004 7.64256 14.6504 7.54463C14.4926 7.19687 14.4417 6.81161 14.5038 6.43595C14.566 6.06029 14.7386 5.7105 15.0004 5.42933C15.1864 5.24575 15.4076 5.10004 15.6513 5.0006C15.895 4.90117 16.1564 4.84997 16.4204 4.84997C16.6844 4.84997 16.9459 4.90117 17.1896 5.0006C17.4333 5.10004 17.6545 5.24575 17.8404 5.42933C18.1465 5.73411 18.3491 6.124 18.4204 6.54574C18.4258 6.62073 18.4258 6.69599 18.4204 6.77098C18.4204 6.77098 18.4204 6.85912 18.4204 6.89829C18.4252 6.95368 18.4252 7.00938 18.4204 7.06477C18.3918 7.33356 18.3067 7.59363 18.1704 7.82863C18.1742 7.8579 18.1742 7.88751 18.1704 7.91677L18.4404 8.1518C18.5188 8.22201 18.5923 8.29726 18.6604 8.37705C19.2484 9.08571 19.7022 9.89164 20.0004 10.7568C20.0904 10.9918 20.1704 11.2268 20.2404 11.4717C20.2904 11.6283 20.3404 11.785 20.3804 11.9515C21.1104 14.9384 20.3604 17.2985 19.2204 17.563V17.514Z" fill="white"/>
</svg>
