<svg viewBox="0 0 24 24" fill="none" xmlns="http://www.w3.org/2000/svg">
<path d="M12.9998 2.9998V3.9998C12.9998 4.2828 12.9038 4.5198 12.7128 4.7128C12.6199 4.80679 12.5086 4.88074 12.386 4.9301C12.2634 4.97946 12.1319 5.00318 11.9998 4.9998C11.8677 5.00318 11.7362 4.97946 11.6136 4.9301C11.491 4.88074 11.3798 4.80679 11.2868 4.7128C11.1928 4.61989 11.1188 4.50868 11.0694 4.38604C11.0201 4.26341 10.9964 4.13196 10.9998 3.9998V2.9998C10.9967 2.86784 11.0205 2.73663 11.0699 2.6142C11.1192 2.49178 11.193 2.38071 11.2868 2.2878C11.3797 2.19364 11.4908 2.1195 11.6135 2.06997C11.7361 2.02043 11.8676 1.99655 11.9998 1.9998C12.132 1.99667 12.2634 2.02061 12.3861 2.07013C12.5087 2.11966 12.6199 2.19373 12.7128 2.2878C12.8067 2.38064 12.8805 2.49169 12.9299 2.61414C12.9793 2.73658 13.003 2.86783 12.9998 2.9998ZM20.9998 12.9998H19.9998C19.8678 13.003 19.7366 12.9793 19.6141 12.9299C19.4917 12.8805 19.3806 12.8067 19.2878 12.7128C19.1936 12.6199 19.1195 12.5088 19.07 12.3861C19.0204 12.2635 18.9966 12.132 18.9998 11.9998C18.9967 11.8676 19.0206 11.7362 19.0701 11.6135C19.1197 11.4909 19.1937 11.3797 19.2878 11.2868C19.3806 11.1929 19.4917 11.1191 19.6141 11.0697C19.7366 11.0204 19.8678 10.9966 19.9998 10.9998H20.9998C21.1318 10.9967 21.263 11.0205 21.3854 11.0699C21.5078 11.1192 21.6189 11.193 21.7118 11.2868C21.9038 11.4788 21.9998 11.7168 21.9998 11.9998C21.9998 12.2828 21.9038 12.5198 21.7118 12.7128C21.619 12.8067 21.5079 12.8805 21.3855 12.9299C21.263 12.9793 21.1318 13.003 20.9998 12.9998ZM3.9998 12.9998H2.9998C2.86782 13.0031 2.73656 12.9793 2.6141 12.93C2.49165 12.8806 2.3806 12.8067 2.2878 12.7128C2.19364 12.6199 2.1195 12.5088 2.06997 12.3861C2.02043 12.2635 1.99655 12.132 1.9998 11.9998C1.99667 11.8676 2.02061 11.7362 2.07013 11.6135C2.11966 11.4909 2.19373 11.3797 2.2878 11.2868C2.3806 11.1929 2.49165 11.119 2.6141 11.0696C2.73656 11.0203 2.86782 10.9965 2.9998 10.9998H3.9998C4.2828 10.9998 4.5198 11.0958 4.7128 11.2868C4.9038 11.4788 4.9998 11.7168 4.9998 11.9998C4.9998 12.2828 4.9038 12.5198 4.7128 12.7128C4.61989 12.8068 4.50868 12.8808 4.38604 12.9302C4.26341 12.9795 4.13196 13.0032 3.9998 12.9998ZM6.6998 4.7998L7.3998 5.4998C7.49097 5.59155 7.5624 5.70098 7.60969 5.82137C7.65698 5.94175 7.67914 6.07054 7.6748 6.1998C7.67914 6.32907 7.65698 6.45786 7.60969 6.57824C7.5624 6.69862 7.49097 6.80806 7.3998 6.8998C7.30806 6.99097 7.19862 7.0624 7.07824 7.10969C6.95786 7.15698 6.82907 7.17914 6.6998 7.1748C6.57054 7.17914 6.44175 7.15698 6.32137 7.10969C6.20098 7.0624 6.09155 6.99097 5.9998 6.8998L5.2998 6.1998C5.20864 6.10806 5.13721 5.99862 5.08992 5.87824C5.04262 5.75786 5.02047 5.62907 5.0248 5.4998C5.02058 5.37055 5.0428 5.2418 5.09008 5.12143C5.13737 5.00107 5.20873 4.89162 5.2998 4.7998C5.39155 4.70864 5.50098 4.63721 5.62137 4.58992C5.74175 4.54262 5.87054 4.52047 5.9998 4.5248C6.12906 4.52058 6.25781 4.5428 6.37818 4.59008C6.49854 4.63737 6.60799 4.70873 6.6998 4.7998ZM18.6998 6.1998L17.9998 6.8998C17.9081 6.99097 17.7986 7.0624 17.6782 7.10969C17.5579 7.15698 17.4291 7.17914 17.2998 7.1748C17.1705 7.17914 17.0417 7.15698 16.9214 7.10969C16.801 7.0624 16.6916 6.99097 16.5998 6.8998C16.5086 6.80806 16.4372 6.69862 16.3899 6.57824C16.3426 6.45786 16.3205 6.32907 16.3248 6.1998C16.3206 6.07055 16.3428 5.9418 16.3901 5.82143C16.4374 5.70107 16.5087 5.59162 16.5998 5.4998L17.2998 4.7998C17.3916 4.70864 17.501 4.63721 17.6214 4.58992C17.7417 4.54262 17.8705 4.52047 17.9998 4.5248C18.1291 4.52058 18.2578 4.5428 18.3782 4.59008C18.4985 4.63737 18.608 4.70873 18.6998 4.7998C18.791 4.89155 18.8624 5.00098 18.9097 5.12137C18.957 5.24175 18.9791 5.37054 18.9748 5.4998C18.9791 5.62907 18.957 5.75786 18.9097 5.87824C18.8624 5.99862 18.791 6.10806 18.6998 6.1998ZM11.9998 6.9998C13.3828 6.9998 14.5628 7.4868 15.5368 8.4628C16.5118 9.4378 16.9998 10.6168 16.9998 11.9998C17.0046 12.7784 16.82 13.5465 16.4618 14.2378C16.1079 14.9241 15.609 15.5253 14.9998 15.9998V18.9998C14.9998 19.5498 14.8038 20.0198 14.4118 20.4128C14.229 20.6019 14.0094 20.7515 13.7666 20.8524C13.5237 20.9534 13.2628 21.0035 12.9998 20.9998H10.9998C10.4498 20.9998 9.9798 20.8038 9.5878 20.4128C9.39844 20.23 9.24856 20.0102 9.14743 19.7672C9.04629 19.5242 8.99605 19.263 8.9998 18.9998V15.9998C8.39022 15.5254 7.89104 14.9242 7.5368 14.2378C7.17869 13.5465 6.99438 12.7783 6.9998 11.9998C6.9998 10.6168 7.4868 9.4368 8.4628 8.4628C9.4378 7.4878 10.6168 6.9998 11.9998 6.9998ZM12.9998 16.8998C12.6705 16.9654 12.3356 16.9989 11.9998 16.9998C11.664 17.0001 11.3289 16.9666 10.9998 16.8998V18.9998H12.9998V16.8998Z" fill="currentColor"/>
</svg>
