<svg viewBox="0 0 24 24" fill="none" xmlns="http://www.w3.org/2000/svg">
<path d="M16.3636 10.8571C18.1745 10.8571 19.6255 9.32571 19.6255 7.42857C19.6255 5.53143 18.1745 4 16.3636 4C14.5527 4 13.0909 5.53143 13.0909 7.42857C13.0909 9.32571 14.5527 10.8571 16.3636 10.8571ZM7.63636 10.8571C9.44727 10.8571 10.8982 9.32571 10.8982 7.42857C10.8982 5.53143 9.44727 4 7.63636 4C5.82545 4 4.36364 5.53143 4.36364 7.42857C4.36364 9.32571 5.82545 10.8571 7.63636 10.8571ZM7.63636 13.1429C5.09455 13.1429 0 14.48 0 17.1429V18.8571C0 19.4857 0.490909 20 1.09091 20H14.1818C14.7818 20 15.2727 19.4857 15.2727 18.8571V17.1429C15.2727 14.48 10.1782 13.1429 7.63636 13.1429ZM16.3636 13.1429C16.0473 13.1429 15.6873 13.1657 15.3055 13.2C15.3273 13.2114 15.3382 13.2343 15.3491 13.2457C16.5927 14.1943 17.4545 15.4629 17.4545 17.1429V18.8571C17.4545 19.2571 17.3782 19.6457 17.2582 20H22.9091C23.5091 20 24 19.4857 24 18.8571V17.1429C24 14.48 18.9055 13.1429 16.3636 13.1429Z" fill="white"/>
</svg>
