<svg viewBox="0 0 24 24" fill="none" xmlns="http://www.w3.org/2000/svg">
<path fill-rule="evenodd" clip-rule="evenodd" d="M19.013 12.94L19.008 12.945L15.788 16.135C14.501 14.939 12.506 14.996 11.273 16.209L11.263 16.219C10.7719 16.7022 10.4483 17.3299 10.3396 18.0102C10.231 18.6906 10.3429 19.3878 10.659 20H4C3.333 20 2 19.6 2 18V12H21.452C20.525 12.037 19.692 12.271 19.012 12.94H19.013ZM5 15C4.73478 15 4.48043 15.1054 4.29289 15.2929C4.10536 15.4804 4 15.7348 4 16V17C4 17.2652 4.10536 17.5196 4.29289 17.7071C4.48043 17.8946 4.73478 18 5 18H6C6.26522 18 6.51957 17.8946 6.70711 17.7071C6.89464 17.5196 7 17.2652 7 17V16C7 15.7348 6.89464 15.4804 6.70711 15.2929C6.51957 15.1054 6.26522 15 6 15H5Z" fill="white"/>
<path d="M20 4C20.667 4 22 4.4 22 6V8H2V6C2 5.333 2.4 4 4 4H20Z" fill="white"/>
<path d="M16.5578 21.4482C16.3533 21.6465 16.0797 21.7574 15.7948 21.7574C15.51 21.7574 15.2363 21.6465 15.0318 21.4482L12.8058 19.2382C12.7086 19.142 12.6315 19.0274 12.5788 18.9012C12.5261 18.7749 12.499 18.6395 12.499 18.5027C12.499 18.3659 12.5261 18.2305 12.5788 18.1042C12.6315 17.978 12.7086 17.8634 12.8058 17.7672L12.8168 17.7572C13.0172 17.559 13.2876 17.4479 13.5693 17.4479C13.8511 17.4479 14.1215 17.559 14.3218 17.7572L15.7948 19.2052L20.5568 14.4882C20.7593 14.2898 21.0314 14.1787 21.3148 14.1787C21.5983 14.1787 21.8704 14.2898 22.0728 14.4882L22.0828 14.4982C22.1799 14.5944 22.2569 14.7089 22.3095 14.8351C22.3621 14.9612 22.3891 15.0965 22.3891 15.2332C22.3891 15.3699 22.3621 15.5052 22.3095 15.6313C22.2569 15.7575 22.1799 15.872 22.0828 15.9682L16.5578 21.4482Z" fill="#1BE176"/>
</svg>
