<svg viewBox="0 0 24 24" fill="none" xmlns="http://www.w3.org/2000/svg">
<path d="M16.5581 21.669C16.1388 22.0815 15.4508 22.0815 15.0316 21.669L12.8064 19.4584C12.3979 19.0459 12.3979 18.3901 12.8064 17.9882L12.8171 17.9776C13.2364 17.5651 13.9136 17.5651 14.3221 17.9776L15.7948 19.4267L20.557 14.7093C20.9762 14.2968 21.6535 14.2968 22.0727 14.7093L22.0834 14.7199C22.4919 15.1324 22.4919 15.7881 22.0834 16.1901L16.5581 21.669Z" fill="#1BE176"/>
<path fill-rule="evenodd" clip-rule="evenodd" d="M12.0148 5.13104C12.2505 4.77604 12.4979 4.41842 12.7497 4.08681C13.0447 3.6982 13.3656 3.31789 13.7051 3.00008C14.0365 2.68985 14.4392 2.38801 14.9042 2.22733C15.7628 1.93064 16.7796 1.87387 17.6337 2.36572C18.5449 2.8905 19 3.87774 19 5.08621C19 5.42501 18.9454 5.72899 18.851 6.00007H21.0098C21.8003 6.00641 21.9984 6.66829 21.9984 7.00003H22V10H21.9984C21.9984 10.3121 21.823 10.9165 21.144 10.9922H20.5V11H14L14 6.00007L10 6.0001L8.34175 6L8.38905 6.00007L10 6.0001L10 11H3.5V10.9922H2.85404C2.19152 10.9183 2.0085 10.3412 2 10.0233V6.97678C2.00905 6.63838 2.21584 6.00626 2.98823 6.00007L5.12904 6C5.04614 5.72513 5 5.42068 5 5.08621C5 3.8399 5.51377 2.85662 6.46811 2.3493C7.34896 1.88106 8.39953 1.93134 9.30387 2.21978C10.2781 2.5305 10.9457 3.42802 11.413 4.14584C11.6203 4.46416 11.8228 4.8057 12.0148 5.13104ZM7.40689 4.11529C7.23623 4.20601 7 4.41881 7 5.08621C7 5.50681 7.15816 5.68404 7.31733 5.7937C7.5294 5.93981 7.81805 5.99993 8 5.99993H10.2051C10.0451 5.7298 9.89238 5.47579 9.73696 5.23706C9.2543 4.49571 8.92194 4.19723 8.69613 4.12521C8.10047 3.93522 7.65104 3.9855 7.40689 4.11529ZM13.8401 5.99993H15.6923C15.8559 5.99993 16.2551 5.93594 16.579 5.74995C16.8608 5.58821 17 5.39851 17 5.08621C17 4.38097 16.7628 4.17213 16.6356 4.09887C16.4512 3.99269 16.0833 3.93591 15.5574 4.11766C15.4685 4.14835 15.3058 4.2412 15.0718 4.4602C14.846 4.67163 14.6015 4.95511 14.3427 5.29609C14.1727 5.51992 14.0052 5.75673 13.8401 5.99993Z" fill="white"/>
<path d="M19.0733 13H14L14 14.9826C14.739 15.0827 15.4546 15.4286 16.0266 16.0287L16.0938 16.0981L19.0733 13Z" fill="white"/>
<path d="M10 18.6428C10 18.6384 10 18.6341 10 18.6297L10 13H3.5L3.50001 20.7502C3.50001 21.0976 3.62155 21.3926 3.86464 21.6354C4.10754 21.8786 4.40271 22 4.75006 22H10L10 18.6428Z" fill="white"/>
</svg>
