<svg viewBox="0 0 24 24" fill="none" xmlns="http://www.w3.org/2000/svg">
<path fill-rule="evenodd" clip-rule="evenodd" d="M7 5.08621C7 4.41881 7.23623 4.20601 7.40689 4.11529C7.65104 3.9855 8.10047 3.93522 8.69613 4.12521C8.92194 4.19723 9.2543 4.49571 9.73696 5.23706C9.89238 5.47579 10.0451 5.7298 10.2051 5.99993H8C7.81805 5.99993 7.5294 5.93981 7.31733 5.7937C7.15816 5.68404 7 5.50681 7 5.08621ZM15.6923 5.99993H13.8401C14.0052 5.75673 14.1727 5.51992 14.3427 5.29609C14.6015 4.95511 14.846 4.67163 15.0718 4.4602C15.3058 4.2412 15.4685 4.14835 15.5574 4.11766C16.0833 3.93591 16.4512 3.99269 16.6356 4.09887C16.7628 4.17213 17 4.38097 17 5.08621C17 5.39851 16.8608 5.58821 16.579 5.74995C16.2551 5.93594 15.8559 5.99993 15.6923 5.99993ZM12.7497 4.08681C12.4979 4.41842 12.2505 4.77604 12.0148 5.13104C11.8228 4.8057 11.6203 4.46416 11.413 4.14584C10.9457 3.42802 10.2781 2.5305 9.30387 2.21978C8.39953 1.93134 7.34896 1.88106 6.46811 2.3493C5.51377 2.85662 5 3.8399 5 5.08621C5 5.42068 5.04614 5.72513 5.12904 6L2.98823 6.00007C2.21584 6.00626 2.00905 6.63838 2 6.97678V10.0233C2.0085 10.3412 2.19152 10.9183 2.85404 10.9922H3.5V11H10L10 8.49224V6.0001L14 6.00007V8.49224L14 11H20.5V10.9922H21.144C21.823 10.9165 21.9984 10.3121 21.9984 10H22V7.00003H21.9984C21.9984 6.66829 21.8003 6.00641 21.0098 6.00007H18.851C18.9454 5.72899 19 5.42501 19 5.08621C19 3.87774 18.5449 2.8905 17.6337 2.36572C16.7796 1.87387 15.7628 1.93064 14.9042 2.22733C14.4392 2.38801 14.0365 2.68985 13.7051 3.00008C13.3656 3.31789 13.0447 3.6982 12.7497 4.08681ZM10 6.0001L8.38905 6.00007L8.34175 6L10 6.0001ZM14 13H20.5V20.7502C20.5 21.0973 20.3782 21.3924 20.1354 21.6354C19.8922 21.8786 19.5972 22 19.2498 22H14V19.6563V19V18.9273L14 13ZM10 19L10 18.9273L10 13H3.5L3.50001 20.7502C3.50001 21.0976 3.62155 21.3926 3.86464 21.6354C4.10754 21.8786 4.40271 22 4.75006 22H10V19Z" fill="currentColor"/>
</svg>
