<svg viewBox="0 0 24 24" fill="none" xmlns="http://www.w3.org/2000/svg">
<path d="M11.3 2.12706L5.3 4.39107C4.52 4.69294 4 5.43754 4 6.28277V11.0221C4 16.1035 7.41 20.8428 12 22C16.59 20.8428 20 16.1035 20 11.0221V6.28277C20 5.4476 19.48 4.69294 18.7 4.40113L12.7 2.13713C12.25 1.956 11.75 1.956 11.3 2.12706ZM10.23 14.7753L8.11 12.6421C7.72 12.2497 7.72 11.6158 8.11 11.2233C8.5 10.8309 9.13 10.8309 9.52 11.2233L10.93 12.6421L14.47 9.08008C14.86 8.68765 15.49 8.68765 15.88 9.08008C16.27 9.4725 16.27 10.1064 15.88 10.4989L11.64 14.7652C11.26 15.1677 10.62 15.1677 10.23 14.7753Z" fill="white"/>
</svg>
