<svg viewBox="0 0 24 24" fill="none" xmlns="http://www.w3.org/2000/svg">
<path d="M3 16C3 15.45 3.45 15 4 15C4.55 15 5 15.45 5 16C5 16.55 4.55 17 4 17C3.45 17 3 16.55 3 16Z" fill="white"/>
<path d="M1 7H4C4.55 7 5 7.45 5 8C5 8.55 4.55 9 4 9H1C0.45 9 0 8.55 0 8C0 7.45 0.45 7 1 7Z" fill="white"/>
<path d="M2 11H4C4.55 11 5 11.45 5 12C5 12.55 4.55 13 4 13H2C1.45 13 1 12.55 1 12C1 11.45 1.45 11 2 11Z" fill="white"/>
<path fill-rule="evenodd" clip-rule="evenodd" d="M24 7C24 5.9 23.159 5 22.1195 5H8.88994C7.85047 5 7 5.9 7 7V17C7 18.1 7.85047 19 8.88994 19H22.1195C23.6314 19 24.0031 17.6667 24 17V7ZM14.6542 12.05C15.1834 12.33 15.8166 12.33 16.3457 12.05L21.537 9.24996C21.8205 9.09996 22 8.78996 22 8.44996C22 7.77996 21.3385 7.34996 20.781 7.64996L15.5047 10.5L10.219 7.64996C9.66148 7.34996 9 7.78996 9 8.44996C9 8.78996 9.17954 9.09996 9.46303 9.24996L14.6542 12.05Z" fill="white"/>
</svg>
