<svg viewBox="0 0 24 24" fill="none" xmlns="http://www.w3.org/2000/svg">
<path fill-rule="evenodd" clip-rule="evenodd" d="M3.999 3C2.89955 3 2 3.88914 2 4.97587V16.8311C2 17.9179 2.89955 18.807 3.999 18.807H5.38831V21.5139C5.38831 21.9091 5.87806 22.1462 6.19791 21.8992L10.6157 18.9947C10.7856 18.8762 10.9855 18.807 11.1954 18.807H20.001C21.1004 18.807 22 17.9179 22 16.8311V4.97587C22 3.88914 21.1004 3 20.001 3H3.999ZM5.99801 13.8673C5.44828 13.8673 4.9985 13.4228 4.9985 12.8794C4.9985 12.336 5.44828 11.8915 5.99801 11.8915H11.995C12.5447 11.8915 12.9945 12.336 12.9945 12.8794C12.9945 13.4228 12.5447 13.8673 11.995 13.8673H5.99801ZM4.9985 8.91773C4.9985 9.46109 5.44828 9.90566 5.99801 9.90566H14.9935C15.5432 9.90566 15.993 9.46109 15.993 8.91773C15.993 8.37436 15.5432 7.92979 14.9935 7.92979H5.99801C5.44828 7.92979 4.9985 8.37436 4.9985 8.91773Z" fill="currentColor"/>
</svg>
