<svg viewBox="0 0 24 24" fill="none" xmlns="http://www.w3.org/2000/svg">
<path d="M15.4236 7.52126L17.283 5.5524C17.4292 5.39761 17.6684 5.39989 17.8173 5.55749L19.0301 6.84164C19.1789 6.99925 19.1811 7.25249 19.0349 7.40728L17.1789 9.37249C17.182 9.37617 17.185 9.37979 17.188 9.38333C17.2092 9.40835 17.2277 9.43009 17.2472 9.45081C17.3202 9.52805 17.3929 9.60552 17.4657 9.68299C17.6113 9.83797 17.757 9.99298 17.904 10.1463C18.0244 10.2714 18.0791 10.4126 18.0166 10.5804C17.9522 10.7539 17.8173 10.8088 17.647 10.8061C16.6224 10.7893 15.5978 10.7739 14.5733 10.7599C14.3313 10.7564 14.1873 10.6067 14.1838 10.3531C14.169 9.26405 14.1554 8.17503 14.1431 7.08603C14.1426 7.02931 14.155 6.97278 14.1674 6.91625C14.1732 6.88974 14.179 6.86324 14.1835 6.83672L14.2968 6.71679C14.4972 6.62876 14.6582 6.6912 14.8038 6.86177C14.8961 6.97037 14.9953 7.07272 15.0945 7.17512C15.1384 7.22048 15.1824 7.26585 15.2257 7.31178L15.4236 7.52126Z" fill="currentColor"/>
<path fill-rule="evenodd" clip-rule="evenodd" d="M4 5.34855C4 4.65762 4.53878 4 5.31392 4H8.23908C9.01422 4 9.553 4.65762 9.553 5.34855C9.553 6.42278 9.71368 7.45236 10.01 8.41179L10.0118 8.41755C10.1419 8.86035 10.055 9.37549 9.69748 9.74712L8.83327 10.6757C8.35923 11.185 8.2572 11.888 8.58756 12.4293C9.43475 13.8174 10.5238 15.018 11.7858 15.965C12.3935 16.421 13.301 16.3063 13.8755 15.6917L14.4983 15.0256C14.8584 14.6542 15.384 14.53 15.8618 14.6906L15.869 14.693C16.7528 15.0053 17.6994 15.1741 18.6861 15.1741C19.4612 15.1741 20 15.8318 20 16.5227V19.6515C20 20.3424 19.4612 21 18.6861 21C10.5228 21 4 13.9418 4 5.34855Z" fill="currentColor"/>
</svg>
