<svg viewBox="0 0 24 24" fill="none" xmlns="http://www.w3.org/2000/svg">
<path fill-rule="evenodd" clip-rule="evenodd" d="M5.31392 3.9C4.53878 3.9 4 4.56149 4 5.25648C4 13.9003 10.5228 21 18.6861 21C19.4612 21 20 20.3385 20 19.6435V16.4964C20 15.8014 19.4612 15.1399 18.6861 15.1399C17.6994 15.1399 16.7528 14.9701 15.869 14.6559L15.8618 14.6535C15.384 14.4919 14.8584 14.6169 14.4983 14.9904L13.8755 15.6605C13.301 16.2786 12.3935 16.3941 11.7858 15.9354C10.5238 14.9828 9.43475 13.7752 8.58756 12.3789C8.2572 11.8344 8.35923 11.1273 8.83327 10.615L9.69749 9.68093C10.055 9.30711 10.1419 8.78894 10.0118 8.34354L10.01 8.33774C9.71368 7.37267 9.553 6.33704 9.553 5.25648C9.553 4.56149 9.01422 3.9 8.23908 3.9H5.31392Z" fill="white"/>
<path fill-rule="evenodd" clip-rule="evenodd" d="M13.9083 3.05541C13.3896 2.83628 12.8889 3.299 12.8889 3.88315C12.8889 4.27496 13.1099 4.60587 13.4132 4.73691C15.7215 5.73438 17.3951 8.20326 17.556 11.1384C17.5814 11.6012 17.9111 12 18.3455 12C18.7695 12 19.1348 11.6032 19.1099 11.0917C18.9301 7.39349 16.8185 4.28486 13.9083 3.05541ZM14.0493 6.53456C13.503 6.12491 12.8889 6.64139 12.8889 7.28307C12.8889 7.6095 13.0407 7.89353 13.257 8.06268C14.1447 8.7566 14.7575 9.87251 14.8742 11.1554C14.9147 11.6005 15.2342 12 15.6713 12C16.0917 12 16.4679 11.6039 16.4286 11.0804C16.2858 9.17781 15.3732 7.52716 14.0493 6.53456Z" fill="white"/>
</svg>
