<svg viewBox="0 0 24 24" fill="none" xmlns="http://www.w3.org/2000/svg">
<path fill-rule="evenodd" clip-rule="evenodd" d="M4 3H20C21.11 3 22 3.89684 22 5.01538V11.0615H4V16.1C4 16.6542 4.45 17.1077 5 17.1077H11C11.3333 17.1077 12 17.3092 12 18.1154C12 18.9215 11.3333 19.123 11 19.123H4C2.89 19.123 2 18.2262 2 17.1077L2.01 5.01538C2.01 3.89684 2.89 3 4 3ZM4 7.03076H20V5.01538H4V7.03076Z" fill="white"/>
<path d="M21.58 21.7053C21.19 22.0982 20.56 22.0982 20.17 21.7053L18.04 19.5589L15.92 21.6952C15.53 22.0882 14.9 22.0882 14.51 21.6952C14.12 21.3022 14.12 20.6673 14.51 20.2743L16.63 18.138L14.5 16.0017C14.11 15.6087 14.11 14.9739 14.5 14.5809C14.89 14.1879 15.52 14.1879 15.91 14.5809L18.04 16.7172L20.16 14.5809C20.55 14.1879 21.18 14.1879 21.57 14.5809C21.96 14.9739 21.96 15.6087 21.57 16.0017L19.45 18.138L21.57 20.2743C21.97 20.6673 21.97 21.3123 21.58 21.7053Z" fill="white"/>
</svg>
