<svg viewBox="0 0 24 24" fill="none" xmlns="http://www.w3.org/2000/svg">
<path fill-rule="evenodd" clip-rule="evenodd" d="M14.4314 20.6064C15.359 21.534 16.4783 21.9978 17.7894 21.9978C19.1005 21.9978 20.2198 21.534 21.1474 20.6064C22.075 19.6788 22.5388 18.5594 22.5388 17.2484C22.5388 15.9373 22.075 14.818 21.1474 13.8904C20.2198 12.9628 19.1005 12.499 17.7894 12.499C16.4783 12.499 15.359 12.9628 14.4314 13.8904C13.5038 14.818 13.04 15.9373 13.04 17.2484C13.04 18.5594 13.5038 19.6788 14.4314 20.6064ZM18.5397 14.7488C18.5397 14.3345 18.2039 13.9988 17.7897 13.9988C17.3754 13.9988 17.0397 14.3345 17.0397 14.7488V16.9191C17.0397 17.4191 17.3377 17.871 17.7973 18.068L19.2442 18.6881C19.625 18.8513 20.0659 18.6749 20.229 18.2942C20.3922 17.9135 20.2158 17.4726 19.8351 17.3094L18.5397 16.7542V14.7488Z" fill="#FDD835"/>
<path d="M14.6651 7.22168C14.6651 9.55419 12.7759 11.4434 10.4433 11.4434C8.11087 11.4434 6.22168 9.55419 6.22168 7.22168C6.22168 4.8892 8.11087 3 10.4433 3C12.7759 3 14.6651 4.8892 14.6651 7.22168Z" fill="white"/>
<path d="M2 17.7759C2 14.9685 7.62538 13.5542 10.4433 13.5542C10.8914 13.5542 11.4104 13.59 11.9665 13.6614C11.3029 14.7198 10.9711 15.9154 10.9711 17.2482C10.9711 18.1972 11.1393 19.0768 11.4759 19.8867H3.05542C2.47494 19.8867 2 19.4118 2 18.8313V17.7759Z" fill="white"/>
</svg>
