<svg viewBox="0 0 24 24" fill="none" xmlns="http://www.w3.org/2000/svg">
<path fill-rule="evenodd" clip-rule="evenodd" d="M20 3H4C2.89 3 2.01 3.89 2.01 5L2 17C2 18.11 2.89 19 4 19H8C8.33333 19 9 18.8 9 18C9 17.2 8.33333 17 8 17H5C4.45 17 4 16.55 4 16V11H20V16C20 16.55 19.55 17 19 17H16C15.6667 17 15 17.2 15 18C15 18.8 15.6667 19 16 19H20C21.11 19 22 18.11 22 17V5C22 3.89 21.11 3 20 3ZM20 7H4V5H20V7Z" fill="white"/>
<path d="M8.86052 14.9313L11.6505 12.1413C11.8405 11.9513 12.1605 11.9513 12.3505 12.1513L15.1405 14.9413C15.4605 15.2513 15.2405 15.7913 14.7905 15.7913H13.0005V20.7913C13.0005 21.3413 12.5505 21.7913 12.0005 21.7913C11.4505 21.7913 11.0005 21.3413 11.0005 20.7913V15.7913H9.21052C8.76052 15.7913 8.54052 15.2513 8.86052 14.9313Z" fill="white"/>
</svg>
