<svg viewBox="0 0 24 24" fill="none" xmlns="http://www.w3.org/2000/svg">
<path d="M4.09277 4.93799C4.09277 4.3857 4.54049 3.93799 5.09277 3.93799H7.09277C7.64506 3.93799 8.09277 4.3857 8.09277 4.93799V6.93799C8.09277 7.49027 7.64506 7.93799 7.09277 7.93799H5.09277C4.54049 7.93799 4.09277 7.49027 4.09277 6.93799V4.93799Z" fill="#18181B"/>
<path d="M4.09277 16.938C4.09277 16.3857 4.54049 15.938 5.09277 15.938H7.09277C7.64506 15.938 8.09277 16.3857 8.09277 16.938V18.938C8.09277 19.4903 7.64506 19.938 7.09277 19.938H5.09277C4.54049 19.938 4.09277 19.4903 4.09277 18.938V16.938Z" fill="#18181B"/>
<path d="M4.09277 10.938C4.09277 10.3857 4.54049 9.93799 5.09277 9.93799H7.09277C7.64506 9.93799 8.09277 10.3857 8.09277 10.938V12.938C8.09277 13.4903 7.64506 13.938 7.09277 13.938H5.09277C4.54049 13.938 4.09277 13.4903 4.09277 12.938V10.938Z" fill="#18181B"/>
<path d="M16.0928 4.93799C16.0928 4.3857 16.5405 3.93799 17.0928 3.93799H19.0928C19.6451 3.93799 20.0928 4.3857 20.0928 4.93799V6.93799C20.0928 7.49027 19.6451 7.93799 19.0928 7.93799H17.0928C16.5405 7.93799 16.0928 7.49027 16.0928 6.93799V4.93799Z" fill="#18181B"/>
<path d="M16.0928 16.938C16.0928 16.3857 16.5405 15.938 17.0928 15.938H19.0928C19.6451 15.938 20.0928 16.3857 20.0928 16.938V18.938C20.0928 19.4903 19.6451 19.938 19.0928 19.938H17.0928C16.5405 19.938 16.0928 19.4903 16.0928 18.938V16.938Z" fill="#18181B"/>
<path d="M16.0928 10.938C16.0928 10.3857 16.5405 9.93799 17.0928 9.93799H19.0928C19.6451 9.93799 20.0928 10.3857 20.0928 10.938V12.938C20.0928 13.4903 19.6451 13.938 19.0928 13.938H17.0928C16.5405 13.938 16.0928 13.4903 16.0928 12.938V10.938Z" fill="#18181B"/>
<path d="M10.0928 4.93799C10.0928 4.3857 10.5405 3.93799 11.0928 3.93799H13.0928C13.6451 3.93799 14.0928 4.3857 14.0928 4.93799V6.93799C14.0928 7.49027 13.6451 7.93799 13.0928 7.93799H11.0928C10.5405 7.93799 10.0928 7.49027 10.0928 6.93799V4.93799Z" fill="#18181B"/>
<path d="M10.0928 16.938C10.0928 16.3857 10.5405 15.938 11.0928 15.938H13.0928C13.6451 15.938 14.0928 16.3857 14.0928 16.938V18.938C14.0928 19.4903 13.6451 19.938 13.0928 19.938H11.0928C10.5405 19.938 10.0928 19.4903 10.0928 18.938V16.938Z" fill="#18181B"/>
<path d="M10.0928 10.938C10.0928 10.3857 10.5405 9.93799 11.0928 9.93799H13.0928C13.6451 9.93799 14.0928 10.3857 14.0928 10.938V12.938C14.0928 13.4903 13.6451 13.938 13.0928 13.938H11.0928C10.5405 13.938 10.0928 13.4903 10.0928 12.938V10.938Z" fill="#18181B"/>
</svg>
