<svg viewBox="0 0 24 24" fill="none" xmlns="http://www.w3.org/2000/svg">
<path d="M15.6965 2H8.31462C8.02557 2 7.73652 2.12222 7.53641 2.32222L2.3224 7.53333C2.12229 7.73333 2 8.02222 2 8.31111V15.6778C2 15.9778 2.12229 16.2556 2.3224 16.4667L7.52529 21.6667C7.73652 21.8778 8.02557 22 8.31462 22H15.6854C15.9855 22 16.2635 21.8778 16.4747 21.6778L21.6776 16.4778C21.8888 16.2667 22 15.9889 22 15.6889V8.31111C22 8.01111 21.8777 7.73333 21.6776 7.52222L16.4747 2.32222C16.2746 2.12222 15.9855 2 15.6965 2ZM12.0056 17.8889C11.2051 17.8889 10.5603 17.2444 10.5603 16.4444C10.5603 15.6444 11.2051 15 12.0056 15C12.806 15 13.4508 15.6444 13.4508 16.4444C13.4508 17.2444 12.806 17.8889 12.0056 17.8889ZM12.0056 13.1111C11.3941 13.1111 10.8938 12.6111 10.8938 12V7.55556C10.8938 6.94444 11.3941 6.44444 12.0056 6.44444C12.617 6.44444 13.1173 6.94444 13.1173 7.55556V12C13.1173 12.6111 12.617 13.1111 12.0056 13.1111Z" fill="currentColor"/>
</svg>
