<svg viewBox="0 0 24 24" fill="none" xmlns="http://www.w3.org/2000/svg">
<path d="M16.5263 2.90909C16.5263 2.40701 16.1193 2 15.6172 2H5.78947C4.80526 2 4 2.81818 4 3.81818V15.6507C4 16.1449 4.40059 16.5455 4.89474 16.5455C5.38889 16.5455 5.78947 16.1449 5.78947 15.6507V3.81818H15.6172C16.1193 3.81818 16.5263 3.41117 16.5263 2.90909ZM15.6316 5.63636L21 11.0909V20.1818C21 21.1818 20.1947 22 19.2105 22H9.35947C8.37526 22 7.57895 21.1818 7.57895 20.1818L7.58789 7.45455C7.58789 6.45455 8.38421 5.63636 9.36842 5.63636H15.6316ZM14.7368 12H19.6579L14.7368 7V12Z" fill="#18181B"/>
</svg>
