<svg viewBox="0 0 24 24" fill="none" xmlns="http://www.w3.org/2000/svg">
<path d="M19 2H5C3.9 2 3 2.9 3 4.01V19.99C3 21.44 4.49 22.41 5.81 21.82L10.78 18.99C11.5 18.44 12.5 18.44 13.22 18.99L18.19 21.82C19.51 22.41 21 21.44 21 19.99V4.01C21 2.9 20.1 2 19 2ZM17.26 9.72L15.33 11.68C15.25 11.76 15.21 11.88 15.23 12L15.68 14.77C15.72 15.01 15.66 15.25 15.51 15.44C15.36 15.63 15.14 15.74 14.9 15.74C14.77 15.74 14.65 15.71 14.53 15.64L12.15 14.33C12.05 14.28 11.93 14.28 11.83 14.33L9.45 15.64C9.12 15.82 8.71 15.73 8.48 15.44C8.33 15.25 8.27 15.02 8.31 14.77L8.76 12C8.78 11.88 8.74 11.76 8.66 11.68L6.73 9.72C6.51 9.5 6.44 9.18 6.53 8.88C6.62 8.58 6.87 8.36 7.17 8.32L9.83 7.92C9.94 7.9 10.04 7.83 10.09 7.72L11.28 5.2C11.41 4.92 11.69 4.74 11.99 4.74C12.29 4.74 12.56 4.92 12.7 5.2L13.89 7.72C13.94 7.83 14.04 7.9 14.15 7.92L16.81 8.32C17.11 8.37 17.35 8.58 17.45 8.88C17.54 9.18 17.47 9.5 17.25 9.72H17.26Z" fill="currentColor"/>
</svg>
