<svg viewBox="0 0 24 24" fill="none" xmlns="http://www.w3.org/2000/svg">
<path d="M22 12L19.7818 9.34286L20.0909 5.82857L16.8091 5.04762L15.0909 2L12 3.39048L8.90909 2L7.19091 5.0381L3.90909 5.80952L4.21818 9.33333L2 12L4.21818 14.6571L3.90909 18.181L7.19091 18.9619L8.90909 22L12 20.6L15.0909 21.9905L16.8091 18.9524L20.0909 18.1714L19.7818 14.6571L22 12ZM9.61818 15.819L7.45455 13.5333C7.1 13.1619 7.1 12.5619 7.45455 12.1905L7.51818 12.1238C7.87273 11.7524 8.45455 11.7524 8.80909 12.1238L10.2727 13.6667L14.9545 8.75238C15.3091 8.38095 15.8909 8.38095 16.2455 8.75238L16.3091 8.81905C16.6636 9.19048 16.6636 9.79048 16.3091 10.1619L10.9273 15.819C10.5545 16.1905 9.98182 16.1905 9.61818 15.819Z" fill="#18181B"/>
</svg>
