<svg viewBox="0 0 24 24" fill="none" xmlns="http://www.w3.org/2000/svg">
<path d="M18.125 8.66667H17.1875V6.7619C17.1875 4.13333 15.0875 2 12.5 2C9.9125 2 7.8125 4.13333 7.8125 6.7619V8.66667H6.875C5.84375 8.66667 5 9.52381 5 10.5714V20.0952C5 21.1429 5.84375 22 6.875 22H18.125C19.1562 22 20 21.1429 20 20.0952V10.5714C20 9.52381 19.1562 8.66667 18.125 8.66667ZM12.5 17.2381C11.4688 17.2381 10.625 16.381 10.625 15.3333C10.625 14.2857 11.4688 13.4286 12.5 13.4286C13.5312 13.4286 14.375 14.2857 14.375 15.3333C14.375 16.381 13.5312 17.2381 12.5 17.2381ZM9.6875 8.66667V6.7619C9.6875 5.18095 10.9438 3.90476 12.5 3.90476C14.0562 3.90476 15.3125 5.18095 15.3125 6.7619V8.66667H9.6875Z" fill="currentColor"/>
</svg>
