<svg viewBox="0 0 24 24" fill="none" xmlns="http://www.w3.org/2000/svg">
<path fill-rule="evenodd" clip-rule="evenodd" d="M14.0581 20.6086C14.9842 21.5347 16.1043 21.9978 17.4183 21.9978C18.7323 21.9978 19.8523 21.5347 20.7785 20.6086C21.7046 19.6824 22.1677 18.5624 22.1677 17.2484C22.1677 15.9344 21.7046 14.8143 20.7785 13.8882C19.8523 12.9621 18.7323 12.499 17.4183 12.499C16.1043 12.499 14.9842 12.9621 14.0581 13.8882C13.132 14.8143 12.6689 15.9344 12.6689 17.2484C12.6689 18.5624 13.132 19.6824 14.0581 20.6086ZM19.4483 15.2183C19.1555 14.9255 18.6807 14.9255 18.3878 15.2183L17.4183 16.1879L16.4487 15.2183C16.1559 14.9255 15.6811 14.9255 15.3882 15.2183C15.0954 15.5112 15.0954 15.986 15.3882 16.2788L16.3578 17.2484L15.3882 18.2179C15.0954 18.5108 15.0954 18.9856 15.3882 19.2784C15.6811 19.5713 16.1559 19.5713 16.4487 19.2784L17.4183 18.3089L18.3878 19.2784C18.6807 19.5713 19.1555 19.5713 19.4483 19.2784C19.7412 18.9856 19.7412 18.5108 19.4483 18.2179L18.4788 17.2484L19.4483 16.2788C19.7412 15.986 19.7412 15.5112 19.4483 15.2183Z" fill="#DB2F00"/>
<path fill-rule="evenodd" clip-rule="evenodd" d="M10.4433 11.4434C12.7758 11.4434 14.665 9.55419 14.665 7.22168C14.665 4.8892 12.7758 3 10.4433 3C8.11088 3 6.22168 4.8892 6.22168 7.22168C6.22168 9.55419 8.11088 11.4434 10.4433 11.4434ZM10.4433 13.5542C7.62539 13.5542 2 14.9685 2 17.7759V18.8313C2 19.4118 2.47494 19.8867 3.05542 19.8867H11.1834C10.8404 19.0781 10.6689 18.1986 10.6689 17.2483C10.6689 15.8994 11.0144 14.6934 11.7053 13.6301C11.2478 13.5795 10.8205 13.5542 10.4433 13.5542Z" fill="#18181B"/>
</svg>
