<svg viewBox="0 0 24 24" fill="none" xmlns="http://www.w3.org/2000/svg">
<path fill-rule="evenodd" clip-rule="evenodd" d="M2 6C2 5.33333 2.4 4 4 4H20C20.6667 4 22 4.4 22 6V18C22 18.6667 21.6 20 20 20H4C3.33333 20 2 19.6 2 18V6ZM18.5 13C17.9477 13 17.5 13.4477 17.5 14C17.5 14.5523 17.9477 15 18.5 15H19C19.5523 15 20 14.5523 20 14C20 13.4477 19.5523 13 19 13H18.5ZM13 14C13 13.4477 13.4477 13 14 13H14.5C15.0523 13 15.5 13.4477 15.5 14C15.5 14.5523 15.0523 15 14.5 15H14C13.4477 15 13 14.5523 13 14ZM9.5 13C8.94772 13 8.5 13.4477 8.5 14C8.5 14.5523 8.94772 15 9.5 15H10C10.5523 15 11 14.5523 11 14C11 13.4477 10.5523 13 10 13H9.5ZM4 14C4 13.4477 4.44772 13 5 13H5.5C6.05228 13 6.5 13.4477 6.5 14C6.5 14.5523 6.05228 15 5.5 15H5C4.44772 15 4 14.5523 4 14ZM5 8C4.44772 8 4 8.44772 4 9V10C4 10.5523 4.44772 11 5 11H7C7.55228 11 8 10.5523 8 10V9C8 8.44772 7.55228 8 7 8H5Z" fill="#18181B"/>
</svg>
