<svg viewBox="0 0 24 24" fill="none" xmlns="http://www.w3.org/2000/svg">
<path d="M4 8C3.45 8 2.97891 8.19558 2.58691 8.58691C2.19558 8.97891 2 9.45 2 10V20C2 20.55 2.19558 21.0211 2.58691 21.4131C2.97891 21.8044 3.45 22 4 22H20C20.55 22 21.0208 21.8044 21.4121 21.4131C21.8041 21.0211 22 20.55 22 20V10C22 9.45001 21.8041 8.97891 21.4121 8.58691C21.0208 8.19558 20.55 8 20 8H4ZM12.1494 11.5C12.3827 11.5 12.5416 11.6165 12.625 11.8496L13.25 13.7754H15.2246C15.4579 13.7754 15.6119 13.8876 15.6865 14.1123C15.7618 14.3376 15.7077 14.5248 15.5244 14.6748L13.8994 15.9746L14.5 17.9004C14.5831 18.1335 14.5201 18.3207 14.3115 18.4619C14.1036 18.6038 13.9079 18.6002 13.7246 18.4502L12.1494 17.2754L10.6494 18.4248C10.4495 18.5747 10.2457 18.5785 10.0371 18.4365C9.82915 18.2952 9.76631 18.1083 9.84961 17.875L10.4502 15.9746L8.77441 14.6748C8.59137 14.5415 8.53769 14.3582 8.6123 14.125C8.68764 13.8918 8.84978 13.7755 9.09961 13.7754H11.0498L11.6748 11.8496C11.7581 11.6166 11.9164 11.5001 12.1494 11.5ZM5 5C4.71667 5 4.47942 5.09578 4.28809 5.28711C4.09609 5.47911 4 5.71667 4 6C4 6.28333 4.09609 6.52089 4.28809 6.71289C4.47942 6.90422 4.71667 7 5 7H19C19.2833 7 19.5209 6.90422 19.7129 6.71289C19.9042 6.52089 20 6.28333 20 6C20 5.71667 19.9042 5.47911 19.7129 5.28711C19.5209 5.09578 19.2833 5 19 5H5ZM8 2C7.71667 2 7.47942 2.09578 7.28809 2.28711C7.09609 2.47911 7 2.71667 7 3C7 3.28333 7.09609 3.52058 7.28809 3.71191C7.47942 3.90391 7.71667 4 8 4H16C16.2833 4 16.5209 3.90391 16.7129 3.71191C16.9042 3.52058 17 3.28333 17 3C17 2.71667 16.9042 2.47911 16.7129 2.28711C16.5209 2.09578 16.2833 2 16 2H8Z" fill="currentColor"/>
</svg>
