<svg viewBox="0 0 24 24" fill="none" xmlns="http://www.w3.org/2000/svg">
<path fill-rule="evenodd" clip-rule="evenodd" d="M2 12C2 6.48 6.48 2 12 2C17.52 2 22 6.48 22 12C22 17.52 17.52 22 12 22C6.48 22 2 17.52 2 12ZM15.0705 11.25L14.1705 12.17C13.5905 12.76 13.1805 13.27 13.0505 14.23C12.9905 14.66 12.6405 14.99 12.2005 14.99H11.8905C11.3705 14.99 10.9705 14.53 11.0405 14.01C11.1505 13.1 11.5705 12.29 12.1805 11.67L13.4205 10.41C13.7805 10.05 14.0005 9.55 14.0005 9C14.0005 7.9 13.1005 7 12.0005 7C11.1305 7 10.3805 7.57 10.1105 8.35C9.98048 8.72 9.67048 8.99 9.28048 8.99H8.98048C8.40048 8.99 8.00048 8.43 8.16048 7.87C8.65048 6.21 10.1805 5 12.0005 5C14.2105 5 16.0005 6.79 16.0005 9C16.0005 9.88 15.6405 10.68 15.0705 11.25ZM12.0005 17C12.5528 17 13.0005 17.4477 13.0005 18C13.0005 18.5523 12.5528 19 12.0005 19C11.4482 19 11.0005 18.5523 11.0005 18C11.0005 17.4477 11.4482 17 12.0005 17Z" fill="#18181B"/>
</svg>
