<svg viewBox="0 0 24 24" fill="none" xmlns="http://www.w3.org/2000/svg">
<path fill-rule="evenodd" clip-rule="evenodd" d="M10.1221 12.0048C12.3649 12.0048 14.1831 10.2129 14.1831 8.00241C14.1831 5.79194 12.3649 4 10.1221 4C7.87921 4 6.06103 5.79194 6.06103 8.00241C6.06103 10.2129 7.87921 12.0048 10.1221 12.0048ZM10.8023 13.0254C10.5789 13.0154 10.3556 13.0054 10.1221 13.0054C7.66513 13.0054 5.37065 13.6758 3.41121 14.8265C2.51778 15.3468 2 16.3274 2 17.358V19.009C2 19.5594 2.45687 20.0096 3.01526 20.0096H11.4013C10.5992 18.879 10.1221 17.4981 10.1221 16.0072C10.1221 14.9366 10.3759 13.936 10.8023 13.0254ZM20.9798 15.4029C21.009 15.6035 21.0369 15.796 21.0369 16.007C21.0369 16.2179 21.009 16.4105 20.9798 16.6111L20.976 16.6374L21.8288 17.3678C22.0116 17.5279 22.0522 17.7881 21.9304 17.9982L21.3314 19.0188C21.2095 19.2189 20.9659 19.319 20.7324 19.2389L19.6562 18.8787C19.3313 19.1489 18.9658 19.359 18.5597 19.5091L18.3364 20.5998C18.2856 20.8299 18.0825 21 17.8389 21H16.6409C16.3972 21 16.1942 20.8299 16.1434 20.5998L15.92 19.5091C15.5139 19.359 15.1484 19.1489 14.8236 18.8787L13.7474 19.2389C13.524 19.319 13.2702 19.2289 13.1484 19.0188L12.5494 17.9982C12.4276 17.7881 12.4682 17.5279 12.6509 17.3678L13.5037 16.6374C13.5025 16.6286 13.5012 16.6198 13.4999 16.6111C13.4708 16.4105 13.4428 16.2179 13.4428 16.007C13.4428 15.796 13.4708 15.6035 13.4999 15.4029C13.5012 15.3941 13.5025 15.3854 13.5037 15.3766L12.6509 14.6462C12.4682 14.4861 12.4276 14.2259 12.5494 14.0158L13.1484 12.9952C13.2702 12.7951 13.5139 12.695 13.7474 12.775L14.8236 13.1353C15.1484 12.8651 15.5139 12.655 15.92 12.5049L16.1434 11.4142C16.1942 11.1841 16.3972 11.014 16.6409 11.014H17.8389C18.0825 11.014 18.2856 11.1841 18.3364 11.4142L18.5597 12.5049C18.9658 12.655 19.3313 12.8651 19.6562 13.1353L20.7324 12.775C20.9557 12.695 21.2095 12.7851 21.3314 12.9952L21.9304 14.0158C22.0522 14.2259 22.0116 14.4861 21.8288 14.6462L20.976 15.3766L20.9798 15.4029ZM15.1992 16.007C15.1992 17.1077 16.1129 18.0082 17.2297 18.0082C18.3465 18.0082 19.2602 17.1077 19.2602 16.007C19.2602 14.9063 18.3465 14.0058 17.2297 14.0058C16.1129 14.0058 15.1992 14.9063 15.1992 16.007Z" fill="#18181B"/>
</svg>
