<svg viewBox="0 0 24 24" fill="none" xmlns="http://www.w3.org/2000/svg">
<path fill-rule="evenodd" clip-rule="evenodd" d="M6.5 3H17.5C18.8807 3 20 4.08887 20 5.43207V16.3644C20 17.7076 18.8807 18.7964 17.5 18.7964H13.2214C13.0055 18.7964 12.7955 18.8644 12.6226 18.9901L8.24384 21.9023C7.91413 22.1421 7.44444 21.9132 7.44444 21.5127V18.7964H6.5C5.11929 18.7964 4 17.7076 4 16.3644V5.43207C4 4.08887 5.11929 3 6.5 3ZM7.83333 6C7.3731 6 7 6.44772 7 7C7 7.55228 7.3731 8 7.83333 8H14.1667C14.6269 8 15 7.55228 15 7C15 6.44772 14.6269 6 14.1667 6H7.83333ZM7.83333 10C7.3731 10 7 10.4477 7 11C7 11.5523 7.3731 12 7.83333 12H16.1667C16.6269 12 17 11.5523 17 11C17 10.4477 16.6269 10 16.1667 10H7.83333ZM7 15C7 14.4477 7.3731 14 7.83333 14H12.1667C12.6269 14 13 14.4477 13 15C13 15.5523 12.6269 16 12.1667 16H7.83333C7.3731 16 7 15.5523 7 15Z" fill="currentColor"/>
</svg>
