<svg viewBox="0 0 24 24" fill="none" xmlns="http://www.w3.org/2000/svg">
<path d="M9.625 1C8.96916 1 8.4375 1.51841 8.4375 2.15789C8.4375 2.79738 8.96916 3.31579 9.625 3.31579H14.375C15.0308 3.31579 15.5625 2.79738 15.5625 2.15789C15.5625 1.51841 15.0308 1 14.375 1H9.625Z" fill="currentColor"/>
<path fill-rule="evenodd" clip-rule="evenodd" d="M12 23C17.2467 23 21.5 18.8527 21.5 13.7368C21.5 11.3009 20.5357 9.08455 18.959 7.43097L19.9647 6.45033C20.4284 5.99815 20.4284 5.26501 19.9647 4.81282C19.5009 4.36064 18.7491 4.36064 18.2853 4.81282L17.1302 5.93914C15.6505 5.01167 13.8897 4.47368 12 4.47368C6.75329 4.47368 2.5 8.62094 2.5 13.7368C2.5 18.8527 6.75329 23 12 23ZM10.8125 13.7368C10.8125 14.3763 11.3442 14.8947 12 14.8947C12.6558 14.8947 13.1875 14.3763 13.1875 13.7368V9.10526C13.1875 8.46578 12.6558 7.94737 12 7.94737C11.3442 7.94737 10.8125 8.46578 10.8125 9.10526V13.7368Z" fill="currentColor"/>
</svg>
