<svg viewBox="0 0 24 24" fill="none" xmlns="http://www.w3.org/2000/svg">
<path d="M19.4286 3.11111C19.7442 3.11111 20 3.35984 20 3.66667V4.77778C20 5.0846 19.7442 5.33333 19.4286 5.33333H4.57143C4.25584 5.33333 4 5.0846 4 4.77778V3.66667C4 3.35984 4.25584 3.11111 4.57143 3.11111H8L9.14286 2H14.8571L16 3.11111H19.4286Z" fill="currentColor"/>
<path fill-rule="evenodd" clip-rule="evenodd" d="M5.14286 19.7778V6.44444H18.8571V19.7778C18.8571 21 17.8286 22 16.5714 22H7.42857C6.17143 22 5.14286 21 5.14286 19.7778ZM15.4286 8.66667C14.7974 8.66667 14.2857 9.16413 14.2857 9.77778V18.6667C14.2857 19.2803 14.7974 19.7778 15.4286 19.7778C16.0598 19.7778 16.5714 19.2803 16.5714 18.6667V9.77778C16.5714 9.16413 16.0598 8.66667 15.4286 8.66667ZM10.8571 9.77778C10.8571 9.16413 11.3688 8.66667 12 8.66667C12.6312 8.66667 13.1429 9.16413 13.1429 9.77778V18.6667C13.1429 19.2803 12.6312 19.7778 12 19.7778C11.3688 19.7778 10.8571 19.2803 10.8571 18.6667V9.77778ZM8.57143 8.66667C7.94025 8.66667 7.42857 9.16413 7.42857 9.77778V18.6667C7.42857 19.2803 7.94025 19.7778 8.57143 19.7778C9.20261 19.7778 9.71429 19.2803 9.71429 18.6667V9.77778C9.71429 9.16413 9.20261 8.66667 8.57143 8.66667Z" fill="currentColor"/>
</svg>
