<svg viewBox="0 0 24 24" fill="none" xmlns="http://www.w3.org/2000/svg">
<path fill-rule="evenodd" clip-rule="evenodd" d="M20 3H4C2.89 3 2.01 3.91405 2.01 5.05405L2 17.3784C2 18.5184 2.89 19.4324 4 19.4324H12.5C12.8333 19.4324 13.5 19.227 13.5 18.4054C13.5 17.5838 12.8333 17.3784 12.5 17.3784H5C4.45 17.3784 4 16.9162 4 16.3514V11.2162H22V5.05405C22 3.91405 21.11 3 20 3ZM20 7.10811H4V5.05405H20V7.10811Z" fill="#18181B"/>
<path fill-rule="evenodd" clip-rule="evenodd" d="M21 16.8649C21.55 16.8649 22 17.327 22 17.8919V20.973C22 21.5378 21.55 22 21 22H17C16.45 22 16 21.5378 16 20.973V17.8919C16 17.327 16.45 16.8649 17 16.8649V15.8378C17 14.7081 17.9 13.7838 19 13.7838C20.1 13.7838 21 14.7081 21 15.8378V16.8649ZM19 14.8108C18.45 14.8108 18 15.273 18 15.8378V16.8649H20V15.8378C20 15.273 19.55 14.8108 19 14.8108Z" fill="#18181B"/>
</svg>
