<svg viewBox="0 0 24 24" fill="none" xmlns="http://www.w3.org/2000/svg">
<path d="M16.6007 17.3671L16.197 16.9634C16.0545 16.8209 15.8843 16.7497 15.6864 16.7497C15.4885 16.7497 15.3183 16.8209 15.1759 16.9634C15.0334 17.1059 14.9621 17.2721 14.9621 17.4621C14.9621 17.6521 15.0334 17.8183 15.1759 17.9608L16.102 18.8869C16.2445 19.0294 16.4107 19.1006 16.6007 19.1006C16.7907 19.1006 16.9569 19.0294 17.0994 18.8869L19.4028 16.631C19.5453 16.4885 19.6165 16.3183 19.6165 16.1204C19.6165 15.9225 19.5453 15.7523 19.4028 15.6098C19.2603 15.4674 19.0901 15.3961 18.8923 15.3961C18.6944 15.3961 18.5242 15.4674 18.3817 15.6098L16.6007 17.3671ZM17.2893 21.9978C15.9753 21.9978 14.8553 21.5347 13.9291 20.6086C13.003 19.6824 12.54 18.5624 12.54 17.2484C12.54 15.9344 13.003 14.8143 13.9291 13.8882C14.8553 12.9621 15.9753 12.499 17.2893 12.499C18.6033 12.499 19.7234 12.9621 20.6495 13.8882C21.5757 14.8143 22.0387 15.9344 22.0387 17.2484C22.0387 18.5624 21.5757 19.6824 20.6495 20.6086C19.7234 21.5347 18.6033 21.9978 17.2893 21.9978Z" fill="#00B63D"/>
<path fill-rule="evenodd" clip-rule="evenodd" d="M10.4433 11.4434C12.7758 11.4434 14.665 9.55419 14.665 7.22168C14.665 4.8892 12.7758 3 10.4433 3C8.11088 3 6.22168 4.8892 6.22168 7.22168C6.22168 9.55419 8.11088 11.4434 10.4433 11.4434ZM10.4433 13.5542C7.62539 13.5542 2 14.9685 2 17.7759V18.8313C2 19.4118 2.47494 19.8867 3.05542 19.8867H11.0549C10.7119 19.0781 10.5404 18.1986 10.5404 17.2483C10.5404 15.894 10.8886 14.6837 11.5851 13.6173C11.1729 13.5753 10.7872 13.5542 10.4433 13.5542Z" fill="currentColor"/>
</svg>
