<svg viewBox="0 0 24 24" fill="none" xmlns="http://www.w3.org/2000/svg">
<path d="M12 1C5.92433 1 1 5.92525 1 12C1 14.0781 1.5775 16.0214 2.5785 17.6797L1.209 22.9652L6.68242 21.6323C8.31047 22.5313 10.1402 23.0019 12 23C18.0757 23 23 18.0747 23 12C23 5.92525 18.0757 1 12 1ZM12 21.1575C10.2081 21.1594 8.45554 20.6323 6.962 19.6422L3.75092 20.4608L4.58692 17.368C3.45152 15.8086 2.84069 13.9289 2.8425 12C2.8425 6.95008 6.95008 2.8425 11.9982 2.8425C17.0463 2.8425 21.1557 6.951 21.1557 12C21.1557 17.0508 17.0481 21.1575 11.9982 21.1575H12Z" fill="#18181B"/>
<path d="M16.6576 14.2257C16.5045 14.1496 16.3413 14.0882 16.2112 14.0194L15.0965 13.43C14.9828 13.3704 14.8628 13.3081 14.7353 13.3117C14.244 13.3246 14.0148 14.024 13.694 14.2935C13.5629 14.4044 13.4098 14.5062 13.2393 14.5144C13.0982 14.5217 12.9625 14.464 12.8351 14.4044C12.191 14.0995 11.5996 13.6938 11.0833 13.2027C10.6791 12.8177 10.3225 12.3841 9.99067 11.9358C9.8385 11.7296 9.68542 11.5077 9.657 11.2538C9.58917 10.6277 10.4774 10.4087 10.5013 9.77983C10.5104 9.54975 10.4041 9.33342 10.3088 9.12441C10.1439 8.76598 10.003 8.39697 9.88708 8.01983C9.67533 7.32683 9.27108 7.02983 8.52217 7.19575C7.5945 7.40292 7.10592 8.70366 7.07475 9.53233C7.02892 10.7735 7.88783 12.0073 8.007 12.1787C8.57992 13.0019 9.11983 13.8077 9.84033 14.5162C11.0137 15.6694 12.6343 16.6053 14.2697 16.8785C14.5859 16.9307 14.9095 16.9564 15.2267 16.9133C15.7749 16.8331 16.2756 16.5573 16.6365 16.1369C16.9647 15.7556 17.3909 15.0415 17.0747 14.5474C16.9848 14.4072 16.8272 14.3091 16.6576 14.2257Z" fill="#18181B"/>
</svg>
