<svg viewBox="0 0 24 24" fill="none" xmlns="http://www.w3.org/2000/svg">
<path fill-rule="evenodd" clip-rule="evenodd" d="M11.0847 21.9774C11.1137 21.9793 11.1427 21.981 11.1718 21.9827L11.174 21.9828C11.1442 21.9811 11.1144 21.9793 11.0847 21.9774Z" fill="white"/>
<path d="M16.3447 13.1651L16.863 9.57283H13.621V7.24168C13.621 6.25891 14.0739 5.30098 15.526 5.30098H17V2.24272C17 2.24272 15.6623 2 14.3833 2C11.7132 2 9.96804 3.72039 9.96804 6.83496V9.57283H7V13.1651H9.96804V21.8491C10.312 21.9064 10.6608 21.9479 11.014 21.9727C11.0375 21.9744 11.0611 21.9759 11.0847 21.9774C11.1144 21.9793 11.1442 21.9811 11.174 21.9828L11.1823 21.9832C11.2364 21.9862 11.2907 21.9888 11.345 21.991C11.4941 21.997 11.644 22 11.7945 22C12.0178 22 12.2397 21.9934 12.4599 21.9802C12.8524 21.9567 13.2398 21.9127 13.621 21.8491V13.1651H16.3447Z" fill="white"/>
</svg>
