<svg viewBox="0 0 24 24" fill="none" xmlns="http://www.w3.org/2000/svg">
<mask id="mask0_2224_521" style="mask-type:luminance" maskUnits="userSpaceOnUse" x="2" y="2" width="20" height="20">
<path d="M22 2H2V22H22V2Z" fill="white"/>
</mask>
<g mask="url(#mask0_2224_521)">
<path d="M21.6 12.2271C21.6 11.518 21.5364 10.8362 21.4182 10.1816H12V14.0498H17.3818C17.15 15.2998 16.4455 16.3589 15.3864 17.068V19.5771H18.6182C20.5091 17.8362 21.6 15.2725 21.6 12.2271Z" fill="#4285F4"/>
<path d="M11.9999 21.9999C14.6999 21.9999 16.9635 21.1044 18.618 19.5772L15.3862 17.0681C14.4908 17.6681 13.3453 18.0226 11.9999 18.0226C9.39528 18.0226 7.19078 16.2635 6.40438 13.8999H3.06348V16.4908C4.70898 19.759 8.09078 21.9999 11.9999 21.9999Z" fill="#34A853"/>
<path d="M6.4045 13.9002C6.2045 13.3002 6.0909 12.6593 6.0909 12.0002C6.0909 11.3411 6.2045 10.7002 6.4045 10.1002V7.50928H3.0636C2.3864 8.85928 2 10.3866 2 12.0002C2 13.6138 2.3864 15.1411 3.0636 16.4911L6.4045 13.9002Z" fill="#FBBC04"/>
<path d="M11.9999 5.9773C13.468 5.9773 14.7862 6.4818 15.8226 7.4727L18.6908 4.6045C16.959 2.9909 14.6953 2 11.9999 2C8.09078 2 4.70898 4.2409 3.06348 7.5091L6.40438 10.1C7.19078 7.7364 9.39528 5.9773 11.9999 5.9773Z" fill="#E94235"/>
</g>
</svg>
