<svg viewBox="0 0 24 24" fill="none" xmlns="http://www.w3.org/2000/svg">
<path fill-rule="evenodd" clip-rule="evenodd" d="M12 1C9.01228 1 8.63828 1.01222 7.46494 1.066C6.29406 1.11978 5.49411 1.30556 4.79439 1.5775C4.06045 1.85368 3.39559 2.28664 2.84617 2.84617C2.28674 3.39568 1.85381 4.06051 1.5775 4.79439C1.30556 5.49411 1.11917 6.29406 1.066 7.46556C1.01283 8.63828 1 9.01167 1 12C1 14.9883 1.01222 15.3617 1.066 16.5351C1.11978 17.7059 1.30556 18.5059 1.5775 19.2056C1.85368 19.9396 2.28664 20.6044 2.84617 21.1538C3.45728 21.7649 4.07144 22.1414 4.79439 22.4225C5.49411 22.6944 6.29406 22.8808 7.46494 22.934C8.63828 22.9872 9.01228 23 12 23C14.9877 23 15.3617 22.9878 16.5351 22.934C17.7059 22.8802 18.5059 22.6944 19.2056 22.4225C19.9395 22.1463 20.6044 21.7134 21.1538 21.1538C21.7649 20.5427 22.1414 19.9286 22.4225 19.2056C22.6944 18.5059 22.8808 17.7059 22.934 16.5351C22.9872 15.3617 23 14.9877 23 12C23 9.01228 22.9878 8.63828 22.934 7.46494C22.8802 6.29406 22.6944 5.49411 22.4225 4.79439C22.1463 4.06046 21.7134 3.3956 21.1538 2.84617C20.6043 2.28674 19.9395 1.85381 19.2056 1.5775C18.5059 1.30556 17.7059 1.11917 16.5344 1.066C15.3617 1.01283 14.9883 1 12 1ZM12 2.98183C14.937 2.98183 15.2853 2.99344 16.4452 3.046C17.5177 3.09489 18.1001 3.27394 18.4876 3.42489C19.0009 3.62411 19.3676 3.86306 19.7526 4.24744C20.1376 4.63244 20.3759 4.99911 20.5751 5.51244C20.7261 5.89989 20.9051 6.48228 20.954 7.55478C21.0066 8.71467 21.0182 9.063 21.0182 12C21.0182 14.937 21.0066 15.2853 20.954 16.4452C20.9051 17.5177 20.7261 18.1001 20.5751 18.4876C20.3989 18.9654 20.1178 19.3977 19.7526 19.7526C19.3676 20.1376 19.0009 20.3759 18.4876 20.5751C18.1001 20.7261 17.5177 20.9051 16.4452 20.954C15.2853 21.0066 14.9376 21.0182 12 21.0182C9.06239 21.0182 8.71467 21.0066 7.55478 20.954C6.48228 20.9051 5.89989 20.7261 5.51244 20.5751C5.03461 20.3989 4.60234 20.1178 4.24744 19.7526C3.88219 19.3976 3.60111 18.9654 3.42489 18.4876C3.27394 18.1001 3.09489 17.5177 3.046 16.4452C2.99344 15.2853 2.98183 14.937 2.98183 12C2.98183 9.063 2.99344 8.71467 3.046 7.55478C3.09489 6.48228 3.27394 5.89989 3.42489 5.51244C3.62411 4.99911 3.86306 4.63244 4.24744 4.24744C4.63244 3.86244 4.99911 3.62411 5.51244 3.42489C5.89989 3.27394 6.48228 3.09489 7.55478 3.046C8.71467 2.99344 9.063 2.98183 12 2.98183Z" fill="white"/>
<path fill-rule="evenodd" clip-rule="evenodd" d="M12 15.6703C11.518 15.6703 11.0408 15.5754 10.5955 15.391C10.1501 15.2065 9.74553 14.9361 9.40471 14.5953C9.06389 14.2545 8.79353 13.8499 8.60908 13.4046C8.42463 12.9593 8.3297 12.482 8.3297 12C8.3297 11.518 8.42463 11.0407 8.60908 10.5954C8.79353 10.1501 9.06389 9.74551 9.40471 9.40469C9.74553 9.06386 10.1501 8.79351 10.5955 8.60906C11.0408 8.42461 11.518 8.32967 12 8.32967C12.9735 8.32967 13.907 8.71636 14.5953 9.40469C15.2837 10.093 15.6704 11.0266 15.6704 12C15.6704 12.9734 15.2837 13.907 14.5953 14.5953C13.907 15.2836 12.9735 15.6703 12 15.6703ZM12 6.346C10.5005 6.346 9.06238 6.94169 8.00205 8.00202C6.94172 9.06235 6.34603 10.5005 6.34603 12C6.34603 13.4995 6.94172 14.9377 8.00205 15.998C9.06238 17.0583 10.5005 17.654 12 17.654C13.4996 17.654 14.9377 17.0583 15.998 15.998C17.0583 14.9377 17.654 13.4995 17.654 12C17.654 10.5005 17.0583 9.06235 15.998 8.00202C14.9377 6.94169 13.4996 6.346 12 6.346ZM19.2991 6.24334C19.2991 6.5978 19.1583 6.93774 18.9077 7.18839C18.657 7.43903 18.3171 7.57984 17.9626 7.57984C17.6082 7.57984 17.2682 7.43903 17.0176 7.18839C16.767 6.93774 16.6261 6.5978 16.6261 6.24334C16.6261 5.88888 16.767 5.54893 17.0176 5.29829C17.2682 5.04765 17.6082 4.90684 17.9626 4.90684C18.3171 4.90684 18.657 5.04765 18.9077 5.29829C19.1583 5.54893 19.2991 5.88888 19.2991 6.24334Z" fill="white"/>
</svg>
