<svg viewBox="0 0 24 24" fill="none" xmlns="http://www.w3.org/2000/svg">
<path fill-rule="evenodd" clip-rule="evenodd" d="M22 12C22 17.5228 17.5228 22 12 22C6.47715 22 2 17.5228 2 12C2 6.47715 6.47715 2 12 2C17.5228 2 22 6.47715 22 12ZM12.3581 9.38197C11.3855 9.78653 9.44156 10.6239 6.52635 11.894C6.05297 12.0822 5.80499 12.2664 5.78242 12.4465C5.74426 12.7508 6.12537 12.8706 6.64434 13.0338C6.71493 13.056 6.78807 13.079 6.86306 13.1034C7.37364 13.2693 8.06046 13.4635 8.41752 13.4712C8.7414 13.4782 9.10288 13.3447 9.50198 13.0707C12.2257 11.232 13.6318 10.3027 13.72 10.2827C13.7823 10.2685 13.8686 10.2508 13.9271 10.3027C13.9856 10.3547 13.9798 10.4531 13.9736 10.4795C13.9359 10.6405 12.4399 12.0313 11.6657 12.751C11.4244 12.9754 11.2532 13.1346 11.2182 13.1709C11.1398 13.2523 11.0599 13.3294 10.9831 13.4034C10.5087 13.8606 10.153 14.2036 11.0028 14.7635C11.4111 15.0326 11.7379 15.2552 12.0639 15.4772C12.4199 15.7196 12.775 15.9614 13.2345 16.2626C13.3515 16.3393 13.4633 16.419 13.5722 16.4966C13.9865 16.792 14.3587 17.0574 14.8186 17.0151C15.0858 16.9905 15.3618 16.7392 15.502 15.9898C15.8333 14.2188 16.4845 10.3816 16.635 8.80034C16.6481 8.66181 16.6316 8.48451 16.6182 8.40668C16.6049 8.32885 16.5771 8.21796 16.4759 8.13587C16.3561 8.03865 16.1711 8.01814 16.0884 8.0196C15.7123 8.02623 15.1352 8.22688 12.3581 9.38197Z" fill="url(#paint0_linear_2224_526)"/>
<path d="M6.52635 11.894C9.44156 10.6239 11.3855 9.78653 12.3581 9.38197C15.1352 8.22688 15.7123 8.02623 16.0884 8.0196C16.1711 8.01814 16.3561 8.03865 16.4759 8.13587C16.5771 8.21796 16.6049 8.32885 16.6182 8.40668C16.6316 8.48451 16.6481 8.66181 16.635 8.80034C16.4845 10.3816 15.8333 14.2188 15.502 15.9898C15.3618 16.7392 15.0858 16.9905 14.8186 17.0151C14.3587 17.0574 13.9865 16.792 13.5722 16.4966C13.4633 16.419 13.3515 16.3393 13.2345 16.2626C12.775 15.9614 12.4199 15.7196 12.0639 15.4772C11.7379 15.2552 11.4111 15.0326 11.0028 14.7635C10.153 14.2036 10.5087 13.8606 10.9831 13.4034C11.0599 13.3294 11.1398 13.2523 11.2182 13.1709C11.2532 13.1346 11.4244 12.9754 11.6657 12.751C12.4399 12.0313 13.9359 10.6405 13.9736 10.4795C13.9798 10.4531 13.9856 10.3547 13.9271 10.3027C13.8686 10.2508 13.7823 10.2685 13.72 10.2827C13.6318 10.3027 12.2257 11.232 9.50198 13.0707C9.10288 13.3447 8.7414 13.4782 8.41752 13.4712C8.06046 13.4635 7.37364 13.2693 6.86306 13.1034C6.78807 13.079 6.71493 13.056 6.64434 13.0338C6.12537 12.8706 5.74426 12.7508 5.78242 12.4465C5.80499 12.2664 6.05297 12.0822 6.52635 11.894Z" fill="white"/>
<defs>
<linearGradient id="paint0_linear_2224_526" x1="1002" y1="2" x2="1002" y2="1987.17" gradientUnits="userSpaceOnUse">
<stop stop-color="#2AABEE"/>
<stop offset="1" stop-color="#229ED9"/>
</linearGradient>
</defs>
</svg>
