<svg viewBox="0 0 24 24" fill="none" xmlns="http://www.w3.org/2000/svg">
<path fill-rule="evenodd" clip-rule="evenodd" d="M19.0859 4.90629C17.2061 3.03307 14.7059 2.00095 12.042 2C6.55283 2 2.08547 6.44545 2.08356 11.9097C2.08261 13.6565 2.54147 15.3615 3.41288 16.8641L2 22L7.27909 20.6219C8.7335 21.4117 10.3713 21.8275 12.0377 21.828H12.042C17.5302 21.828 21.9981 17.382 22 11.9178C22.0009 9.26956 20.9662 6.77951 19.0859 4.90629ZM16.5819 13.9854C16.3332 13.8614 15.1099 13.2626 14.8816 13.1799C14.6534 13.0972 14.4877 13.0559 14.322 13.3039C14.1563 13.552 13.6793 14.1099 13.5342 14.2748C13.389 14.4401 13.2438 14.4606 12.9951 14.3365C12.7463 14.2125 11.9446 13.9511 10.9939 13.1077C10.2543 12.4509 9.75483 11.6403 9.60972 11.3922C9.46456 11.1442 9.59444 11.0102 9.71856 10.8871C9.83028 10.7759 9.96733 10.5977 10.0919 10.4532C10.2166 10.3088 10.2577 10.2052 10.3407 10.0403C10.4238 9.87492 10.3823 9.7305 10.3202 9.60643C10.2581 9.48242 9.76061 8.26352 9.55289 7.76791C9.35089 7.28512 9.14561 7.3507 8.99328 7.34262C8.84811 7.33549 8.68244 7.33407 8.51628 7.33407C8.35011 7.33407 8.08078 7.39584 7.85256 7.6439C7.62433 7.89192 6.98162 8.49114 6.98162 9.70955C6.98162 10.9231 7.86597 12.0965 7.99619 12.2693L7.99772 12.2714C8.12233 12.4367 9.75244 14.9377 12.2483 16.0107C12.8418 16.2658 13.3054 16.4184 13.6669 16.5324C14.2628 16.7211 14.8052 16.6945 15.234 16.6308C15.712 16.5595 16.7061 16.0316 16.9133 15.4532C17.1206 14.8749 17.1206 14.3788 17.0585 14.2757C16.9964 14.1726 16.8303 14.1103 16.5815 13.9863L16.5819 13.9854Z" fill="#25D366"/>
<path d="M16.5819 13.9854C16.3332 13.8614 15.1099 13.2626 14.8816 13.1799C14.6534 13.0972 14.4877 13.0559 14.322 13.3039C14.1563 13.552 13.6793 14.1099 13.5342 14.2748C13.389 14.4401 13.2438 14.4606 12.9951 14.3365C12.7463 14.2125 11.9446 13.9511 10.9939 13.1077C10.2543 12.4509 9.75483 11.6403 9.60972 11.3922C9.46456 11.1442 9.59444 11.0102 9.71856 10.8871C9.83028 10.7759 9.96733 10.5977 10.0919 10.4532C10.2166 10.3088 10.2577 10.2052 10.3407 10.0403C10.4238 9.87492 10.3823 9.7305 10.3202 9.60643C10.2581 9.48242 9.76061 8.26352 9.55289 7.76791C9.35089 7.28512 9.14561 7.3507 8.99328 7.34262C8.84811 7.33549 8.68244 7.33407 8.51628 7.33407C8.35011 7.33407 8.08078 7.39584 7.85256 7.6439C7.62433 7.89192 6.98162 8.49114 6.98162 9.70955C6.98162 10.9231 7.86597 12.0965 7.99619 12.2693L7.99772 12.2714C8.12233 12.4367 9.75244 14.9377 12.2483 16.0107C12.8418 16.2658 13.3054 16.4184 13.6669 16.5324C14.2628 16.7211 14.8052 16.6945 15.234 16.6308C15.712 16.5595 16.7061 16.0316 16.9133 15.4532C17.1206 14.8749 17.1206 14.3788 17.0585 14.2757C16.9964 14.1726 16.8303 14.1103 16.5815 13.9863L16.5819 13.9854Z" fill="white"/>
</svg>
