<svg viewBox="0 0 24 24" fill="none" xmlns="http://www.w3.org/2000/svg">
<path fill-rule="evenodd" clip-rule="evenodd" d="M12 14C11.4477 14 11 13.5523 11 13V10C11 9.44772 11.4477 9 12 9C12.5523 9 13 9.44772 13 10V13C13 13.5523 12.5523 14 12 14ZM19.9805 18.8203L12.0804 5.05125C12.0694 5.03205 12.0607 5.02254 12.0568 5.0187C12.0526 5.01458 12.049 5.01207 12.0455 5.0101C12.0376 5.00569 12.022 5 12 5C11.978 5 11.9624 5.00569 11.9545 5.0101C11.951 5.01207 11.9474 5.01458 11.9432 5.0187C11.9393 5.02255 11.9307 5.03187 11.9196 5.05113L4.01946 18.8203C4.00083 18.8527 3.99983 18.8707 4.00001 18.8815C4.00029 18.8983 4.00547 18.9228 4.0202 18.9486C4.03491 18.9743 4.05118 18.9876 4.05921 18.9925C4.0627 18.9946 4.06563 18.9958 4.06908 18.9968C4.07212 18.9977 4.08139 19 4.09977 19H19.9002C19.9186 19 19.9279 18.9977 19.9309 18.9968C19.9344 18.9958 19.9373 18.9946 19.9408 18.9925C19.9488 18.9876 19.9651 18.9743 19.9798 18.9486C19.9945 18.9228 19.9997 18.8983 20 18.8815C20.0002 18.8707 19.9992 18.8527 19.9805 18.8203ZM21.7153 17.8249L13.8151 4.05571C13.0072 2.6481 10.9928 2.6481 10.1849 4.05571L2.28471 17.8249C1.47686 19.2325 2.48406 21 4.09977 21H19.9002C21.5159 21 22.5231 19.2325 21.7153 17.8249Z" fill="currentColor"/>
<path d="M13 16.5C13 17.0523 12.5523 17.5 12 17.5C11.4477 17.5 11 17.0523 11 16.5C11 15.9477 11.4477 15.5 12 15.5C12.5523 15.5 13 15.9477 13 16.5Z" fill="currentColor"/>
</svg>
