<svg viewBox="0 0 24 24" fill="none" xmlns="http://www.w3.org/2000/svg">
<path d="M11.7426 2.00294C8.79868 2.0807 6.18808 3.42495 4.41064 5.51353L2.94426 4.05819C2.59988 3.7138 2 3.95821 2 4.45813V9.2241C2 9.53516 2.2444 9.77957 2.55545 9.77957H7.32119C7.82109 9.77957 8.06549 9.17966 7.71 8.83527L5.98811 7.10219C7.42117 5.358 9.57631 4.22483 11.9981 4.22483C16.7971 4.22483 20.5964 8.60197 19.6188 13.5679C19.0189 16.6452 16.4972 19.1004 13.42 19.6448C9.1986 20.4002 5.44378 17.7117 4.4773 13.9123C4.34399 13.4457 3.89963 13.1124 3.41084 13.1124C2.68876 13.1124 2.14442 13.7901 2.32216 14.4789C3.42195 18.8005 7.3323 22 11.9981 22C17.6192 22 22.1516 17.3673 21.9961 11.7126C21.8406 6.2912 17.1637 1.86962 11.7426 2.00294Z" fill="white"/>
<path fill-rule="evenodd" clip-rule="evenodd" d="M11.9977 5.89137C12.6112 5.89137 13.1086 6.38876 13.1086 7.00232V7.15089C13.4805 7.25811 13.812 7.42121 14.1009 7.63315C14.6441 8.03173 14.9657 8.5507 15.1404 9.02622C15.352 9.60213 15.0567 10.2405 14.4808 10.4522C13.9049 10.6638 13.2665 10.3684 13.0549 9.79253C13.0019 9.64824 12.9154 9.51915 12.7866 9.42463C12.6655 9.3358 12.4354 9.22421 11.9977 9.22421C11.4125 9.22421 11.1828 9.42092 11.0781 9.54822C10.9359 9.72099 10.8868 9.94405 10.8868 10.0574C10.8868 10.1708 10.9359 10.3939 11.0781 10.5666C11.1828 10.6939 11.4125 10.8906 11.9977 10.8906C13.1899 10.8906 14.0711 11.342 14.6329 12.0247C15.1573 12.662 15.3304 13.4111 15.3304 13.9457C15.3304 14.4804 15.1573 15.2294 14.6329 15.8667C14.2627 16.3167 13.7538 16.6661 13.1086 16.8521V17.0008C13.1086 17.6144 12.6112 18.1118 11.9977 18.1118C11.3841 18.1118 10.8868 17.6144 10.8868 17.0008V16.8523C10.5148 16.7451 10.1833 16.582 9.89446 16.37C9.35121 15.9714 9.02964 15.4525 8.85493 14.977C8.64333 14.401 8.93864 13.7626 9.51453 13.551C10.0904 13.3394 10.7288 13.6347 10.9404 14.2106C10.9934 14.3549 11.0799 14.484 11.2087 14.5785C11.3298 14.6674 11.5599 14.779 11.9977 14.779C12.5828 14.779 12.8125 14.5822 12.9173 14.4549C13.0594 14.2822 13.1086 14.0591 13.1086 13.9457C13.1086 13.8324 13.0594 13.6093 12.9173 13.4365C12.8125 13.3092 12.5828 13.1125 11.9977 13.1125C10.8054 13.1125 9.92421 12.6612 9.36242 11.9784C8.83804 11.3411 8.66498 10.5921 8.66498 10.0574C8.66498 9.52275 8.83804 8.77373 9.36242 8.13643C9.73263 7.6865 10.2415 7.33707 10.8868 7.15106V7.00232C10.8868 6.38876 11.3841 5.89137 11.9977 5.89137Z" fill="white"/>
</svg>
