<svg viewBox="0 0 24 24" fill="none" xmlns="http://www.w3.org/2000/svg">
<path d="M3.999 3C2.89955 3 2 3.88909 2 4.97575V16.8303C2 17.917 2.89955 18.8061 3.999 18.8061H5.38831V21.5128C5.38831 21.9095 5.87407 22.1471 6.19791 21.8981L10.6157 18.9938C10.7856 18.8752 10.9855 18.8061 11.1954 18.8061H20.001C21.1004 18.8061 22 17.917 22 16.8303V4.97575C22 3.88909 21.1004 3 20.001 3H3.999ZM19.991 16.8303H11.0954C10.5057 16.8501 9.94604 17.0378 9.46627 17.3638L7.37732 18.7369V16.8303H3.999V4.97575H19.991V16.8303Z" fill="white"/>
<path d="M6.9816 13.6138C6.43259 13.6138 5.9834 13.1638 5.9834 12.6138C5.9834 12.0638 6.43259 11.6138 6.9816 11.6138H12.9852C13.5342 11.6138 13.9834 12.0638 13.9834 12.6138C13.9834 13.1638 13.5342 13.6138 12.9852 13.6138H6.9816Z" fill="white"/>
<path d="M6.9834 9.60352C6.4334 9.60352 5.9834 9.15352 5.9834 8.60352C5.9834 8.05352 6.4334 7.60352 6.9834 7.60352H15.9873C16.5373 7.60352 16.9873 8.05352 16.9873 8.60352C16.9873 9.15352 16.5373 9.60352 15.9873 9.60352H6.9834Z" fill="white"/>
</svg>
