<svg viewBox="0 0 24 24" fill="none" xmlns="http://www.w3.org/2000/svg">
<path d="M19.71 4.29006C19.32 3.90007 18.68 3.90005 18.29 4.29006L12 10.5901L5.71008 4.29006C5.32005 3.90007 4.68005 3.90005 4.29004 4.29005C3.81678 4.76332 3.90005 5.32006 4.29008 5.71005L10.59 12.0001L4.29 18.2901C3.89999 18.6801 3.90007 19.3201 4.29 19.7101C4.68007 20.1001 5.32007 20.1001 5.70999 19.7101L12 13.4101L18.29 19.7101C18.6801 20.1001 19.3201 20.1001 19.71 19.7101C20.1001 19.3201 20.1001 18.6801 19.71 18.2901L13.41 12.0001L19.71 5.71005C20.1 5.32006 20.1711 4.75119 19.71 4.29006Z" fill="white"/>
</svg>
