<svg viewBox="0 0 24 24" fill="none" xmlns="http://www.w3.org/2000/svg">
<path d="M20.9445 14.6548C20.826 14.3656 20.5469 14.1907 20.2516 14.1904C20.2501 14.1904 20.2486 14.19 20.2471 14.19C20.2423 14.19 20.2381 14.1919 20.2333 14.1922C20.1755 14.1937 20.1177 14.2031 20.0603 14.2185C20.0389 14.2241 20.0187 14.2298 19.998 14.2369C19.9875 14.2406 19.9767 14.2421 19.9658 14.2463C19.0245 14.633 18.0248 14.8292 16.9935 14.8292C12.6804 14.8292 9.17124 11.3201 9.17124 7.0071C9.17124 5.97583 9.36707 4.97607 9.75423 4.03483C9.75985 4.0217 9.76173 4.00782 9.76623 3.99431C9.77186 3.97781 9.77673 3.9613 9.78124 3.94404C9.79812 3.88214 9.80862 3.81987 9.80937 3.7576C9.80937 3.75497 9.8105 3.75234 9.8105 3.74934C9.8105 3.74859 9.81012 3.74747 9.81012 3.74672C9.81012 3.7017 9.80487 3.65743 9.79662 3.61391C9.79474 3.60454 9.79324 3.59516 9.79137 3.58578C9.78161 3.54264 9.76923 3.49987 9.75198 3.45936C9.74522 3.4436 9.73584 3.43009 9.72834 3.41509C9.64993 3.25865 9.52013 3.12698 9.34531 3.05532C9.14086 2.97167 8.92215 2.98667 8.73757 3.07483C8.7357 3.07558 8.73345 3.07596 8.73157 3.07708C7.61025 3.53814 6.5981 4.2149 5.72325 5.08973C2.09219 8.72526 2.09219 14.6405 5.72363 18.2768C7.5416 20.0925 9.92905 21 12.3169 21C14.7047 21 17.0925 20.0921 18.9109 18.2764C19.7827 17.4042 20.4583 16.3955 20.9194 15.2779C20.9217 15.2738 20.9224 15.2689 20.9243 15.2644C20.9457 15.2198 20.9629 15.1733 20.9753 15.1249C20.9761 15.1211 20.9776 15.1177 20.9787 15.114C21.0143 14.9662 21.0068 14.8064 20.9445 14.6548ZM17.8507 17.2155C14.7996 20.2621 9.83563 20.2621 6.7853 17.2155C3.73834 14.1649 3.73834 9.20095 6.78492 6.15064C7.11055 5.82502 7.46244 5.53803 7.83121 5.27956C7.72542 5.84528 7.67065 6.42187 7.67065 7.00747C7.67065 12.1481 11.8528 16.3302 16.9935 16.3302C17.5787 16.3302 18.1557 16.2754 18.7214 16.1696C18.4626 16.538 18.1763 16.8899 17.8507 17.2155Z" fill="white"/>
</svg>
