<svg viewBox="0 0 24 24" fill="none" xmlns="http://www.w3.org/2000/svg">
<path d="M12 4C14.3837 4 16.5218 5.02 18.0155 6.62L16.4502 8.15C16.1331 8.46 16.3581 9 16.8185 9L21.2074 9C21.4938 9 21.7189 8.78 21.7189 8.5L21.7189 4.21C21.7189 3.76 21.1664 3.54 20.8493 3.86L19.4682 5.2C17.6063 3.24 14.9566 2 12 2C7.14056 2 3.06886 5.32 2.02536 9.76C1.88214 10.39 2.36296 11 3.02794 11C3.50877 11 3.91799 10.67 4.03052 10.21C4.85918 6.66 8.11245 4 12 4ZM12 22C16.8594 22 20.9311 18.68 21.9746 14.24C22.1179 13.61 21.637 13 20.9721 13C20.4912 13 20.082 13.33 19.9695 13.79C19.1408 17.34 15.8876 20 12 20C9.61632 20 7.47816 18.98 5.98453 17.38L7.54978 15.85C7.86692 15.54 7.64185 15 7.18148 15L2.79264 15C2.50619 15 2.28112 15.22 2.28112 15.5L2.28112 19.79C2.28112 20.24 2.83356 20.46 3.15071 20.14L4.53181 18.8C6.39374 20.76 9.04342 22 12 22Z" fill="currentColor"/>
</svg>
