<svg viewBox="0 0 24 24" fill="none" xmlns="http://www.w3.org/2000/svg">
<path d="M16.2778 2.94444L17.8889 4.55556L15.4667 6.95556C15.0333 7.38889 15.0333 8.1 15.4667 8.53333C15.9 8.96667 16.6111 8.96667 17.0444 8.53333L19.4444 6.11111L21.0556 7.72222C21.4 8.06667 22 7.82222 22 7.32222V2.55556C22 2.24444 21.7556 2 21.4444 2H16.6778C16.1778 2 15.9333 2.6 16.2778 2.94444ZM2.94444 7.72222L4.55556 6.11111L6.95556 8.53333C7.38889 8.96667 8.1 8.96667 8.53333 8.53333C8.96667 8.1 8.96667 7.38889 8.53333 6.95556L6.11111 4.55556L7.72222 2.94444C8.06667 2.6 7.82222 2 7.32222 2H2.55556C2.24444 2 2 2.24444 2 2.55556V7.32222C2 7.82222 2.6 8.06667 2.94444 7.72222ZM7.72222 21.0556L6.11111 19.4444L8.53333 17.0444C8.96667 16.6111 8.96667 15.9 8.53333 15.4667C8.1 15.0333 7.38889 15.0333 6.95556 15.4667L4.55556 17.8889L2.94444 16.2778C2.6 15.9333 2 16.1778 2 16.6778V21.4444C2 21.7556 2.24444 22 2.55556 22H7.32222C7.82222 22 8.06667 21.4 7.72222 21.0556ZM21.0556 16.2778L19.4444 17.8889L17.0444 15.4667C16.6111 15.0333 15.9 15.0333 15.4667 15.4667C15.0333 15.9 15.0333 16.6111 15.4667 17.0444L17.8889 19.4444L16.2778 21.0556C15.9333 21.4 16.1778 22 16.6778 22H21.4444C21.7556 22 22 21.7556 22 21.4444V16.6778C22 16.1778 21.4 15.9333 21.0556 16.2778Z" fill="currentColor"/>
</svg>
