<svg viewBox="0 0 24 24" fill="none" xmlns="http://www.w3.org/2000/svg">
<path fill-rule="evenodd" clip-rule="evenodd" d="M12 5.5C11.4477 5.5 11 5.05228 11 4.5V3C11 2.44772 11.4477 2 12 2C12.5523 2 13 2.44772 13 3V4.5C13 5.05228 12.5523 5.5 12 5.5ZM5.50001 5.5C5.10949 5.89052 4.47632 5.89052 4.0858 5.5L3.00001 4.41421C2.60949 4.02369 2.60949 3.39052 3.00001 3C3.39053 2.60948 4.0237 2.60947 4.41422 3L5.50001 4.08579C5.89053 4.47631 5.89053 5.10948 5.50001 5.5ZM18.5 5.5C18.1095 5.10948 18.1095 4.47631 18.5 4.08578L19.5858 3C19.9763 2.60948 20.6095 2.60948 21 3C21.3905 3.39052 21.3905 4.02369 21 4.41422L19.9142 5.5C19.5237 5.89052 18.8905 5.89052 18.5 5.5ZM5.20001 7.4C5.38886 7.14819 5.68525 7 6.00001 7H18C18.3148 7 18.6112 7.14819 18.8 7.4L21.8 11.4C22.0986 11.7981 22.059 12.3552 21.7071 12.7071L12.7071 21.7071C12.3166 22.0976 11.6834 22.0976 11.2929 21.7071L2.2929 12.7071C1.94101 12.3552 1.90142 11.7981 2.20001 11.4L5.20001 7.4ZM6.50001 9L5.00001 11H19L17.5 9H6.50001ZM18.5858 13H15.7208L14.2883 17.2975L18.5858 13ZM12 17.8377L13.6126 13H10.3874L12 17.8377ZM8.27925 13H5.41422L9.71176 17.2975L8.27925 13Z" fill="white"/>
</svg>
