<svg viewBox="0 0 24 24" fill="none" xmlns="http://www.w3.org/2000/svg">
<path d="M7.28583 6.1075L6.1075 4.92917C5.7825 4.60375 5.25417 4.60375 4.92917 4.92917C4.60375 5.25458 4.60375 5.78208 4.92917 6.1075L6.1075 7.28583C6.27 7.44874 6.48333 7.52999 6.69666 7.52999C6.91 7.52999 7.12333 7.44874 7.28583 7.28583C7.61125 6.96041 7.61125 6.43291 7.28583 6.1075Z" fill="currentColor"/>
<path d="M4.5 11.1667H2.83333C2.37333 11.1667 2 11.54 2 12C2 12.46 2.37333 12.8333 2.83333 12.8333H4.5C4.96 12.8333 5.33333 12.46 5.33333 12C5.33333 11.54 4.96 11.1667 4.5 11.1667Z" fill="currentColor"/>
<path d="M7.28583 16.7142C6.96083 16.3888 6.4325 16.3888 6.1075 16.7142L4.92917 17.8925C4.60375 18.2179 4.60375 18.7454 4.92917 19.0708C5.09167 19.2337 5.305 19.315 5.51833 19.315C5.73167 19.315 5.945 19.2337 6.1075 19.0708L7.28583 17.8925C7.61125 17.5671 7.61125 17.0396 7.28583 16.7142Z" fill="currentColor"/>
<path d="M12 18.6667C11.54 18.6667 11.1667 19.04 11.1667 19.5V21.1667C11.1667 21.6267 11.54 22 12 22C12.46 22 12.8333 21.6267 12.8333 21.1667V19.5C12.8333 19.04 12.46 18.6667 12 18.6667Z" fill="currentColor"/>
<path d="M19.0708 17.8925L17.8925 16.7142C17.5675 16.3888 17.0392 16.3888 16.7142 16.7142C16.3888 17.0396 16.3888 17.5671 16.7142 17.8925L17.8925 19.0708C18.055 19.2337 18.2683 19.315 18.4817 19.315C18.695 19.315 18.9083 19.2337 19.0708 19.0708C19.3962 18.7454 19.3962 18.2179 19.0708 17.8925Z" fill="currentColor"/>
<path d="M21.1667 11.1667H19.5C19.04 11.1667 18.6667 11.54 18.6667 12C18.6667 12.46 19.04 12.8333 19.5 12.8333H21.1667C21.6267 12.8333 22 12.46 22 12C22 11.54 21.6267 11.1667 21.1667 11.1667Z" fill="currentColor"/>
<path d="M19.0708 4.92917C18.7458 4.60375 18.2175 4.60375 17.8925 4.92917L16.7142 6.1075C16.3888 6.43291 16.3888 6.96041 16.7142 7.28583C16.8767 7.44874 17.09 7.52999 17.3033 7.52999C17.5167 7.52999 17.73 7.44874 17.8925 7.28583L19.0708 6.1075C19.3962 5.78208 19.3962 5.25458 19.0708 4.92917Z" fill="currentColor"/>
<path d="M12 2C11.54 2 11.1667 2.37333 11.1667 2.83333V4.5C11.1667 4.96 11.54 5.33333 12 5.33333C12.46 5.33333 12.8333 4.96 12.8333 4.5V2.83333C12.8333 2.37333 12.46 2 12 2Z" fill="currentColor"/>
<path d="M12 6.58333C9.01333 6.58333 6.58333 9.01333 6.58333 12C6.58333 14.9867 9.01333 17.4167 12 17.4167C14.9867 17.4167 17.4167 14.9867 17.4167 12C17.4167 9.01333 14.9867 6.58333 12 6.58333ZM12 15.75C9.9325 15.75 8.25 14.0675 8.25 12C8.25 9.9325 9.9325 8.25 12 8.25C14.0675 8.25 15.75 9.9325 15.75 12C15.75 14.0675 14.0675 15.75 12 15.75Z" fill="currentColor"/>
</svg>
