<svg viewBox="0 0 24 24" fill="none" xmlns="http://www.w3.org/2000/svg">
<path d="M14.12 15.5402C14.51 15.9302 14.51 16.5602 14.12 16.9502L12 19.0702C11.02 20.0502 9.83995 20.5402 8.45995 20.5402C7.07995 20.5402 5.89995 20.0502 4.91995 19.0702C3.93995 18.0902 3.44995 16.9102 3.44995 15.5302C3.44995 14.1502 3.93995 12.9702 4.91995 11.9902L7.03995 9.87021C7.42995 9.48021 8.05995 9.48021 8.44995 9.87021C8.83995 10.2602 8.83995 10.8902 8.44995 11.2802L6.32995 13.4002C5.73995 13.9902 5.44995 14.7002 5.44995 15.5202C5.44995 16.3402 5.73995 17.0502 6.32995 17.6402C6.91995 18.2302 7.62995 18.5202 8.44995 18.5202C9.26995 18.5202 9.97995 18.2302 10.57 17.6402L12.69 15.5202C13.08 15.1302 13.71 15.1302 14.1 15.5202L14.12 15.5402ZM10.59 14.8302C10.2 15.2202 9.56995 15.2202 9.17995 14.8302C8.78995 14.4402 8.78995 13.8102 9.17995 13.4202L13.42 9.18021C13.81 8.79022 14.44 8.79022 14.83 9.18021C15.22 9.57021 15.22 10.2002 14.83 10.5902L10.59 14.8302ZM16.95 14.1202C16.56 14.5102 15.93 14.5102 15.54 14.1202C15.15 13.7302 15.15 13.1002 15.54 12.7102L17.66 10.5902C18.25 10.0002 18.54 9.29022 18.54 8.47021C18.54 7.65021 18.25 6.94021 17.66 6.35021C17.07 5.76021 16.36 5.47021 15.54 5.47021C14.72 5.47021 14.01 5.76021 13.42 6.35021L11.3 8.47021C10.91 8.86021 10.28 8.86021 9.88995 8.47021C9.49995 8.08021 9.49995 7.45021 9.88995 7.06021L12.01 4.94021C12.99 3.96021 14.17 3.47021 15.55 3.47021C16.93 3.47021 18.11 3.96021 19.08 4.94021C20.06 5.92021 20.5499 7.10021 20.5499 8.48021C20.5499 9.86021 20.06 11.0402 19.08 12.0102L16.96 14.1302L16.95 14.1202Z" fill="white"/>
</svg>
