<svg viewBox="0 0 24 24" fill="none" xmlns="http://www.w3.org/2000/svg">
<path d="M19.4729 18.8228C19.4125 18.9685 19.324 19.1008 19.2124 19.2122C18.9874 19.4372 18.6822 19.5636 18.364 19.5636C18.0459 19.5636 17.7407 19.4372 17.5156 19.2122L15.3922 17.0887C15.1736 16.8624 15.0526 16.5593 15.0554 16.2447C15.0581 15.93 15.1843 15.6291 15.4068 15.4066C15.6293 15.1841 15.9303 15.0579 16.2449 15.0551C16.5595 15.0524 16.8627 15.1734 17.089 15.3919L17.0914 15.3944L19.2124 17.5143C19.324 17.6258 19.4125 17.7581 19.4729 17.9038C19.5333 18.0495 19.5643 18.2056 19.5643 18.3633C19.5643 18.521 19.5333 18.6772 19.4729 18.8228Z" fill="currentColor"/>
<path d="M8.60545 8.60525C8.38042 8.83021 8.07525 8.95659 7.75705 8.95659C7.43885 8.95659 7.13368 8.83021 6.90865 8.60525L4.78868 6.48528C4.56355 6.26028 4.43696 5.95502 4.43685 5.63673C4.43673 5.31842 4.56308 5.01309 4.78808 4.78793C5.01308 4.56277 5.31831 4.43621 5.63662 4.4361C5.95494 4.43599 6.26026 4.56233 6.48542 4.78733L8.60549 6.9084C8.83045 7.13344 8.95683 7.43861 8.95683 7.7568C8.95683 8.075 8.83041 8.38021 8.60545 8.60525Z" fill="currentColor"/>
<path d="M5.17802 19.4726C5.03237 19.4122 4.90004 19.3237 4.78861 19.2122C4.56368 18.9872 4.43726 18.682 4.43726 18.3638C4.43726 18.0456 4.56366 17.7404 4.78863 17.5154L6.91211 15.3919C7.13843 15.1734 7.44155 15.0524 7.75619 15.0551C8.07082 15.0579 8.3718 15.1841 8.59429 15.4066C8.81678 15.6291 8.94298 15.93 8.94572 16.2447C8.94845 16.5593 8.8275 16.8624 8.60891 17.0887L8.6065 17.0912L6.4865 19.2122C6.37507 19.3237 6.24274 19.4122 6.09708 19.4726C5.9514 19.533 5.79525 19.5641 5.63755 19.5641C5.47985 19.5641 5.3237 19.533 5.17802 19.4726Z" fill="currentColor"/>
<path d="M15.3946 8.6052C15.1696 8.38017 15.0433 8.075 15.0433 7.7568C15.0433 7.43861 15.1696 7.13345 15.3946 6.90842L17.5146 4.78743C17.626 4.67595 17.7583 4.58749 17.9039 4.52712C18.0495 4.46676 18.2055 4.43566 18.3631 4.4356C18.5207 4.43555 18.6768 4.46654 18.8225 4.5268C18.9681 4.58706 19.1004 4.67542 19.2119 4.78683C19.3234 4.89824 19.4119 5.03052 19.4722 5.17612C19.5326 5.32171 19.5637 5.47777 19.5638 5.63538C19.5638 5.79299 19.5328 5.94907 19.4726 6.09471C19.4123 6.24035 19.3239 6.37269 19.2125 6.48418L17.0915 8.60523C16.8664 8.83019 16.5612 8.95659 16.243 8.95659C15.9249 8.95659 15.6196 8.83017 15.3946 8.6052Z" fill="currentColor"/>
<path d="M12 1.7998C12.3183 1.7998 12.6235 1.92623 12.8486 2.15128C13.0736 2.37632 13.2 2.68154 13.2 2.9998V5.9998C13.2 6.31806 13.0736 6.62329 12.8486 6.84833C12.6235 7.07338 12.3183 7.1998 12 7.1998C11.6818 7.1998 11.3766 7.07338 11.1515 6.84833C10.9265 6.62329 10.8 6.31806 10.8 5.9998V2.9998C10.8 2.68154 10.9265 2.37632 11.1515 2.15128C11.3766 1.92623 11.6818 1.7998 12 1.7998Z" fill="currentColor"/>
<path d="M12 16.7998C12.3183 16.7998 12.6235 16.9262 12.8486 17.1513C13.0736 17.3763 13.2 17.6815 13.2 17.9998V20.9998C13.2 21.3181 13.0736 21.6233 12.8486 21.8483C12.6235 22.0734 12.3183 22.1998 12 22.1998C11.6818 22.1998 11.3766 22.0734 11.1515 21.8483C10.9265 21.6233 10.8 21.3181 10.8 20.9998V17.9998C10.8 17.6815 10.9265 17.3763 11.1515 17.1513C11.3766 16.9262 11.6818 16.7998 12 16.7998Z" fill="currentColor"/>
<path d="M22.2001 11.9998C22.2001 12.3181 22.0736 12.6233 21.8486 12.8483C21.6235 13.0734 21.3183 13.1998 21 13.1998H18C17.6818 13.1998 17.3766 13.0734 17.1515 12.8483C16.9265 12.6233 16.8 12.3181 16.8 11.9998C16.8 11.6815 16.9265 11.3763 17.1515 11.1513C17.3766 10.9262 17.6818 10.7998 18 10.7998H21C21.3183 10.7998 21.6235 10.9262 21.8486 11.1513C22.0736 11.3763 22.2001 11.6815 22.2001 11.9998Z" fill="currentColor"/>
<path d="M7.20005 11.9998C7.20005 12.3181 7.07362 12.6233 6.84858 12.8483C6.62353 13.0734 6.31831 13.1998 6.00005 13.1998H3.00005C2.68179 13.1998 2.37656 13.0734 2.15152 12.8483C1.92648 12.6233 1.80005 12.3181 1.80005 11.9998C1.80005 11.6815 1.92648 11.3763 2.15152 11.1513C2.37656 10.9262 2.68179 10.7998 3.00005 10.7998H6.00005C6.31831 10.7998 6.62353 10.9262 6.84858 11.1513C7.07362 11.3763 7.20005 11.6815 7.20005 11.9998Z" fill="currentColor"/>
</svg>
