<svg viewBox="0 0 24 24" fill="none" xmlns="http://www.w3.org/2000/svg">
<path d="M12.0014 22C13.1147 22 14.0256 21.0769 14.0256 19.9487H9.97719C9.97719 21.0769 10.8881 22 12.0014 22ZM18.0741 15.8462V10.7179C18.0741 7.56923 16.4243 4.93333 13.5196 4.2359V3.53846C13.5196 2.68718 12.8415 2 12.0014 2C11.1614 2 10.4832 2.68718 10.4832 3.53846V4.2359C7.58862 4.93333 5.92876 7.55897 5.92876 10.7179V15.8462L4.11416 17.685C3.97994 17.821 3.90454 18.0055 3.90454 18.1978C3.90454 18.5984 4.22496 18.9231 4.62021 18.9231H19.3826C19.7779 18.9231 20.0983 18.5984 20.0983 18.1978C20.0983 18.0055 20.0229 17.821 19.8887 17.685L18.0741 15.8462ZM16.0498 16.8718H7.95298V10.7179C7.95298 8.17436 9.48126 6.10256 12.0014 6.10256C14.5216 6.10256 16.0498 8.17436 16.0498 10.7179V16.8718Z" fill="white"/>
</svg>
