<svg viewBox="0 0 24 24" fill="none" xmlns="http://www.w3.org/2000/svg">
<path d="M12.0015 22C13.1148 22 14.0257 21.0769 14.0257 19.9487H9.97729C9.97729 21.0769 10.8882 22 12.0015 22ZM18.0742 15.8462V10.7179C18.0742 7.56923 16.4244 4.93333 13.5197 4.2359V3.53846C13.5197 2.68718 12.8416 2 12.0015 2C11.1615 2 10.4833 2.68718 10.4833 3.53846V4.2359C7.58871 4.93333 5.92885 7.55897 5.92885 10.7179V15.8462L4.11425 17.685C3.98004 17.821 3.90464 18.0055 3.90464 18.1978C3.90464 18.5984 4.22505 18.9231 4.62031 18.9231H19.3827C19.778 18.9231 20.0984 18.5984 20.0984 18.1978C20.0984 18.0055 20.023 17.821 19.8888 17.685L18.0742 15.8462ZM16.0499 16.8718H7.95307V10.7179C7.95307 8.17436 9.48136 6.10256 12.0015 6.10256C14.5217 6.10256 16.0499 8.17436 16.0499 10.7179V16.8718ZM6.61801 4.37573C7.06658 3.94841 7.131 3.21822 6.69566 2.77706C6.34348 2.42017 5.78146 2.37854 5.41109 2.716C3.60966 4.35734 2.37062 6.60301 2.0094 9.13853C1.92705 9.71657 2.39728 10.2051 2.97361 10.2051C3.51036 10.2051 3.95226 9.77866 4.04162 9.24232C4.35904 7.33717 5.28591 5.64469 6.61801 4.37573ZM19.961 9.24237C20.0508 9.77865 20.4911 10.2051 21.0278 10.2051C21.6054 10.2051 22.0743 9.71455 21.9902 9.13549C21.6225 6.60328 20.3855 4.36033 18.5937 2.72C18.223 2.38062 17.6588 2.42279 17.3068 2.78203C16.8758 3.22187 16.9393 3.94631 17.3839 4.37204C18.7095 5.64142 19.642 7.33535 19.961 9.24237Z" fill="currentColor"/>
</svg>
