<svg viewBox="0 0 24 24" fill="none" xmlns="http://www.w3.org/2000/svg">
<path fill-rule="evenodd" clip-rule="evenodd" d="M4 13C5.1 13 6 12.1 6 11C6 9.9 5.1 9 4 9C2.9 9 2 9.9 2 11C2 12.1 2.9 13 4 13ZM5.13 14.1C4.76 14.04 4.39 14 4 14C3.01 14 2.07 14.21 1.22 14.58C0.48 14.9 0 15.62 0 16.43V17.0232C0.00909275 17.3633 0.21788 18 0.999685 18H4.5V16.39C4.5 15.56 4.73 14.78 5.13 14.1ZM20 13C21.1 13 22 12.1 22 11C22 9.9 21.1 9 20 9C18.9 9 18 9.9 18 11C18 12.1 18.9 13 20 13ZM24 16.43C24 15.62 23.52 14.9 22.78 14.58C21.93 14.21 20.99 14 20 14C19.61 14 19.24 14.04 18.87 14.1C19.27 14.78 19.5 15.56 19.5 16.39V18H23.0003C23.7821 18 23.9909 17.3633 24 17.0232V16.43ZM16.24 13.65C15.07 13.13 13.63 12.75 12 12.75C10.37 12.75 8.93 13.14 7.76 13.65C6.68 14.13 6 15.21 6 16.39V17.0233C6.00909 17.3633 6.21788 18 6.99968 18H17.0003C17.7821 18 17.9909 17.3633 18 17.0232V16.39C18 15.21 17.32 14.13 16.24 13.65ZM8.07 16L8.07857 15.978C8.16335 15.7595 8.22514 15.6003 8.98 15.31C9.95 14.93 10.97 14.75 12 14.75C13.03 14.75 14.05 14.93 15.02 15.31C15.757 15.5972 15.8252 15.756 15.9174 15.9708L15.93 16H8.07ZM12 8C12.55 8 13 8.45 13 9C13 9.55 12.55 10 12 10C11.45 10 11 9.55 11 9C11 8.45 11.45 8 12 8ZM12 6C10.34 6 9 7.34 9 9C9 10.66 10.34 12 12 12C13.66 12 15 10.66 15 9C15 7.34 13.66 6 12 6Z" fill="white"/>
</svg>
