<svg viewBox="0 0 24 24" fill="none" xmlns="http://www.w3.org/2000/svg">
<path fill-rule="evenodd" clip-rule="evenodd" d="M22 12C22 17.5228 17.5228 22 12 22C6.47715 22 2 17.5228 2 12C2 6.47715 6.47715 2 12 2C17.5228 2 22 6.47715 22 12ZM11.25 20.4674V18.9603C9.87928 18.8143 8.62678 18.2726 7.6089 17.4518L6.54322 18.5174C7.84003 19.6044 9.46603 20.3114 11.25 20.4674ZM5.48256 17.4568L6.54824 16.3911C5.72736 15.3732 5.18571 14.1207 5.03971 12.75H3.53263C3.6886 14.534 4.39564 16.16 5.48256 17.4568ZM3.53263 11.25H5.03971C5.18571 9.87928 5.72736 8.62678 6.54824 7.6089L5.48256 6.54322C4.39564 7.84003 3.6886 9.46603 3.53263 11.25ZM6.54322 5.48256L7.6089 6.54824C8.62678 5.72736 9.87928 5.18571 11.25 5.03971V3.53263C9.46603 3.6886 7.84003 4.39564 6.54322 5.48256ZM17.4568 18.5174C16.16 19.6044 14.534 20.3114 12.75 20.4674V18.9603C14.1207 18.8143 15.3732 18.2726 16.3911 17.4518L17.4568 18.5174ZM18.5174 17.4568C19.6044 16.16 20.3114 14.534 20.4674 12.75H18.9603C18.8143 14.1207 18.2726 15.3732 17.4518 16.3911L18.5174 17.4568ZM18.9603 11.25H20.4674C20.3114 9.46603 19.6044 7.84003 18.5174 6.54322L17.4518 7.6089C18.2726 8.62678 18.8143 9.87928 18.9603 11.25ZM16.3911 6.54824C15.3732 5.72736 14.1207 5.18571 12.75 5.03971V3.53263C14.534 3.6886 16.16 4.39564 17.4568 5.48256L16.3911 6.54824ZM17.5 12C17.5 15.0376 15.0376 17.5 12 17.5C8.96243 17.5 6.5 15.0376 6.5 12C6.5 8.96243 8.96243 6.5 12 6.5C15.0376 6.5 17.5 8.96243 17.5 12Z" fill="white"/>
<path fill-rule="evenodd" clip-rule="evenodd" d="M9 8.8C9 8.35817 9.36631 8 9.81818 8H12.4364C12.8393 8 13.4582 8.15751 13.9895 8.57506C14.5618 9.02483 15 9.75181 15 10.7931C15 11.8711 14.4982 12.5664 13.8719 12.9532C13.3035 13.3042 12.6982 13.3647 12.4364 13.3647H10.6364V15.2C10.6364 15.6418 10.2701 16 9.81818 16C9.36631 16 9 15.6418 9 15.2V8.8ZM10.6364 11.7647H12.4364C12.5102 11.7647 12.7776 11.7366 12.998 11.6005C13.0969 11.5394 13.1802 11.4606 13.2418 11.3528C13.3029 11.2457 13.3636 11.073 13.3636 10.7931C13.3636 10.2399 13.1529 9.97032 12.9644 9.82217C12.8576 9.73829 12.7395 9.68005 12.631 9.64345C12.5774 9.62535 12.53 9.61386 12.4926 9.60717C12.4582 9.60103 12.4392 9.60014 12.4365 9.60002L10.6364 9.6V11.7647Z" fill="white"/>
</svg>
