<svg viewBox="0 0 24 24" fill="none" xmlns="http://www.w3.org/2000/svg">
<path d="M7.287 3.712C7.479 3.904 7.71667 4 8 4H16C16.2833 4 16.5207 3.904 16.712 3.712C16.904 3.52067 17 3.28333 17 3C17 2.71667 16.904 2.479 16.712 2.287C16.5207 2.09567 16.2833 2 16 2H8C7.71667 2 7.479 2.09567 7.287 2.287C7.09567 2.479 7 2.71667 7 3C7 3.28333 7.09567 3.52067 7.287 3.712Z" fill="currentColor"/>
<path d="M4.287 6.713C4.479 6.90433 4.71667 7 5 7H19C19.2833 7 19.5207 6.90433 19.712 6.713C19.904 6.521 20 6.28333 20 6C20 5.71667 19.904 5.479 19.712 5.287C19.5207 5.09567 19.2833 5 19 5H5C4.71667 5 4.479 5.09567 4.287 5.287C4.09567 5.479 4 5.71667 4 6C4 6.28333 4.09567 6.521 4.287 6.713Z" fill="currentColor"/>
<path d="M11.8502 17.275L13.3502 18.425C13.5502 18.575 13.7545 18.579 13.9632 18.437C14.1712 18.2957 14.2335 18.1083 14.1502 17.875L13.5502 15.975L15.2252 14.675C15.4085 14.5417 15.4628 14.3583 15.3882 14.125C15.3128 13.8917 15.1502 13.775 14.9002 13.775H12.9502L12.3252 11.85C12.2418 11.6167 12.0835 11.5 11.8502 11.5C11.6168 11.5 11.4585 11.6167 11.3752 11.85L10.7502 13.775H8.77518C8.54185 13.775 8.38785 13.8873 8.31318 14.112C8.23785 14.3373 8.29185 14.525 8.47518 14.675L10.1002 15.975L9.50018 17.9C9.41685 18.1333 9.47952 18.3207 9.68818 18.462C9.89618 18.604 10.0919 18.6 10.2752 18.45L11.8502 17.275Z" fill="currentColor"/>
<path fill-rule="evenodd" clip-rule="evenodd" d="M2.588 21.413C2.97933 21.8043 3.45 22 4 22H20C20.55 22 21.021 21.8043 21.413 21.413C21.8043 21.021 22 20.55 22 20V10C22 9.45 21.8043 8.979 21.413 8.587C21.021 8.19567 20.55 8 20 8H4C3.45 8 2.97933 8.19567 2.588 8.587C2.196 8.979 2 9.45 2 10V20C2 20.55 2.196 21.021 2.588 21.413ZM20 20H4V10H20V20Z" fill="currentColor"/>
</svg>
