<svg viewBox="0 0 24 24" fill="none" xmlns="http://www.w3.org/2000/svg">
<path fill-rule="evenodd" clip-rule="evenodd" d="M12.4474 2.10559C12.1665 1.96515 11.836 1.96479 11.5549 2.1046L3.55541 6.10024C3.21414 6.26994 2.99902 6.61887 3.00068 7L3.00001 17.0044C3.00166 17.3816 3.21541 17.7257 3.55279 17.8944L11.5529 21.8944C11.8344 22.0352 12.1658 22.0352 12.4474 21.8944L20.4466 17.8944C20.7853 17.725 20.9993 17.3788 20.9993 17V7C20.9993 6.62124 20.7853 6.27499 20.4466 6.10559L12.4474 2.10559ZM4.99731 8.5V16.3806L11.0001 19.382V11.6183L4.99731 8.5ZM11.9998 9.88211L17.7634 7L11.9989 4.11744L6.21893 6.99169L11.9998 9.88211ZM13.0001 11.618L18.9993 8.6181V16.382L13.0001 19.3819V11.618ZM12.9993 7C12.9993 7.55228 12.5516 8 11.9993 8C11.447 8 10.9993 7.55228 10.9993 7C10.9993 6.44772 11.447 6 11.9993 6C12.5516 6 12.9993 6.44772 12.9993 7ZM16.9993 13C17.5516 13 17.9993 12.5523 17.9993 12C17.9993 11.4477 17.5516 11 16.9993 11C16.447 11 15.9993 11.4477 15.9993 12C15.9993 12.5523 16.447 13 16.9993 13ZM15.9993 16C15.9993 16.5523 15.5516 17 14.9993 17C14.447 17 13.9993 16.5523 13.9993 16C13.9993 15.4477 14.447 15 14.9993 15C15.5516 15 15.9993 15.4477 15.9993 16ZM9.58917 17.7485C10.1415 17.7485 10.5892 17.3008 10.5892 16.7485C10.5892 16.1963 10.1415 15.7485 9.58917 15.7485C9.03689 15.7485 8.58917 16.1963 8.58917 16.7485C8.58917 17.3008 9.03689 17.7485 9.58917 17.7485ZM8.99933 14C8.99933 14.5523 8.55161 15 7.99933 15C7.44704 15 6.99933 14.5523 6.99933 14C6.99933 13.4477 7.44704 13 7.99933 13C8.55161 13 8.99933 13.4477 8.99933 14ZM6.36066 12.1592C6.91294 12.1592 7.36066 11.7115 7.36066 11.1592C7.36066 10.6069 6.91294 10.1592 6.36066 10.1592C5.80837 10.1592 5.36066 10.6069 5.36066 11.1592C5.36066 11.7115 5.80837 12.1592 6.36066 12.1592Z" fill="currentColor"/>
</svg>
