<svg viewBox="0 0 24 24" fill="none" xmlns="http://www.w3.org/2000/svg">
<path d="M12 11.5C9.24 11.5 7 9.26 7 6.5C7 3.74 9.24 1.5 12 1.5C14.76 1.5 17 3.74 17 6.5C17 9.26 14.76 11.5 12 11.5ZM12 3.5C10.35 3.5 9 4.85 9 6.5C9 8.15 10.35 9.5 12 9.5C13.65 9.5 15 8.15 15 6.5C15 4.85 13.65 3.5 12 3.5ZM9 16.5H7V14.5C7 13.95 6.55 13.5 6 13.5C5.45 13.5 5 13.95 5 14.5V16.5H3C2.45 16.5 2 16.95 2 17.5C2 18.05 2.45 18.5 3 18.5H5V20.5C5 21.05 5.45 21.5 6 21.5C6.55 21.5 7 21.05 7 20.5V18.5H9C9.55 18.5 10 18.05 10 17.5C10 16.95 9.55 16.5 9 16.5ZM22.01 20.15C22.01 16.2 18.8 12.99 14.85 12.99H10C9.45 12.99 9 13.44 9 13.99C9 14.54 9.45 14.99 10 14.99H14.85C17.65 14.99 19.94 17.24 20.01 20.03H10.01C9.46 20.03 9.01 20.48 9.01 21.03C9.01 21.58 9.46 22.03 10.01 22.03H20.14C21.18 22.03 22.02 21.19 22.02 20.15H22.01Z" fill="currentColor"/>
</svg>
