<svg viewBox="0 0 24 24" fill="none" xmlns="http://www.w3.org/2000/svg">
<path d="M21.6936 3.78606L17.9487 7.51962L19.607 9.17792C20.264 9.83498 19.7947 10.9614 18.8665 10.9614H14.0897C13.5161 10.9614 13.0468 10.492 13.0468 9.91842V5.12082C13.0468 4.19259 14.1732 3.72326 14.8302 4.38032L16.4885 6.03862L20.2335 2.30506C20.6402 1.89831 21.2973 1.89831 21.704 2.30506C22.1004 2.72225 22.1004 3.37931 21.6936 3.78606ZM3.78606 21.6936L7.51911 17.9492L9.17741 19.6075C9.83447 20.2645 10.9609 19.7952 10.9609 18.867V14.0902C10.9609 13.5166 10.4915 13.0473 9.91791 13.0473H5.12031C4.19208 13.0473 3.72275 14.1737 4.37981 14.8307L6.03811 16.489L2.30506 20.2335C1.89831 20.6402 1.89831 21.2973 2.30506 21.704C2.72225 22.1004 3.37931 22.1004 3.78606 21.6936Z" fill="currentColor"/>
</svg>
