<svg viewBox="0 0 24 24" fill="none" xmlns="http://www.w3.org/2000/svg">
<path d="M10.2375 8.4625L4.64418 2.87997C4.1571 2.39384 3.36828 2.39422 2.88168 2.88082C2.39474 3.36776 2.39474 4.15724 2.88168 4.64418L8.4625 10.225L10.2375 8.4625ZM16.3321 2C15.8867 2 15.6636 2.53857 15.9786 2.85355L17.675 4.55L2.8809 19.3559C2.39434 19.8428 2.39449 20.632 2.88125 21.1187C3.36801 21.6055 4.15715 21.6057 4.6441 21.1191L19.45 6.325L21.1464 8.02145C21.4614 8.33643 22 8.11335 22 7.66789V2.5C22 2.22386 21.7761 2 21.5 2H16.3321ZM15.5375 13.7625L13.775 15.525L17.6875 19.4375L15.9786 21.1464C15.6636 21.4614 15.8867 22 16.3321 22H21.5C21.7761 22 22 21.7761 22 21.5V16.3321C22 15.8867 21.4614 15.6636 21.1464 15.9786L19.45 17.675L15.5375 13.7625Z" fill="currentColor"/>
</svg>
