<svg viewBox="0 0 24 24" fill="none" xmlns="http://www.w3.org/2000/svg">
<path fill-rule="evenodd" clip-rule="evenodd" d="M12.995 2.57956C12.8316 2.23012 12.4865 2.00537 12.1052 2.00009C11.724 1.99482 11.3729 2.20992 11.2001 2.55471L8.00114 8.93816L3.47035 6.48879C3.1367 6.30842 2.73129 6.33434 2.42261 6.55578C2.11393 6.77722 1.95476 7.15631 2.01125 7.53552L3.47581 17.367C3.4864 17.4381 3.50402 17.5063 3.52784 17.5711C3.68176 19.4757 7.44504 21 12.0649 21C16.7068 21 20.4839 19.4611 20.6039 17.5439C20.6243 17.4835 20.6392 17.4202 20.6482 17.3546L21.9905 7.52312C22.042 7.14631 21.8813 6.77197 21.5742 6.55352C21.2672 6.33507 20.8655 6.30923 20.5337 6.4866L15.9649 8.92912L12.995 2.57956ZM18.9064 15.3236L19.7421 9.20307L15.9747 11.2171C15.7337 11.346 15.4512 11.3695 15.1926 11.2822C14.9341 11.1948 14.7218 11.0043 14.605 10.7545L12.0606 5.3146L9.322 10.7794C9.2003 11.0222 8.98741 11.2052 8.73126 11.2872C8.47512 11.3691 8.19726 11.343 7.96025 11.2149L4.28618 9.22869L5.19636 15.3387C6.75252 14.4655 9.24967 13.8995 12.0649 13.8995C14.8639 13.8995 17.3484 14.459 18.9064 15.3236ZM17.3467 16.8166C17.896 17.0449 18.2537 17.2722 18.4616 17.4497C18.2537 17.6273 17.896 17.8546 17.3467 18.0829C16.0957 18.6029 14.2293 18.9713 12.0649 18.9713C9.90053 18.9713 8.03417 18.6029 6.78312 18.0829C6.23381 17.8546 5.87614 17.6273 5.6682 17.4497C5.87614 17.2722 6.23381 17.0449 6.78312 16.8166C8.03417 16.2966 9.90053 15.9282 12.0649 15.9282C14.2293 15.9282 16.0957 16.2966 17.3467 16.8166ZM18.6456 17.643C18.6456 17.643 18.6447 17.641 18.6421 17.6369C18.6432 17.6392 18.6447 17.6418 18.6447 17.6418L18.6456 17.643Z" fill="white"/>
</svg>
