<svg viewBox="0 0 24 24" fill="none" xmlns="http://www.w3.org/2000/svg">
<path d="M18.9165 11.5173C18.3954 10.7191 17.6834 10.0955 16.9552 9.49447C16.2205 8.88698 15.4534 8.31827 14.8061 7.61384C14.2365 6.99343 13.806 6.29547 13.6021 5.46825C13.3691 4.52471 13.45 3.58763 13.6636 2.65378C13.7154 2.43082 13.6636 2.24664 13.4823 2.10769C13.3011 1.96874 13.1037 1.96874 12.9062 2.08184C11.1067 3.13202 9.68264 4.53764 8.80553 6.45057C8.13557 7.91112 7.93814 9.446 8.13233 11.039C8.24885 11.989 8.50454 12.9035 8.85408 13.7953C8.94794 14.0312 8.88969 14.2413 8.69549 14.3867C8.51748 14.5224 8.29092 14.5224 8.09673 14.377C7.00925 13.5659 6.39431 12.477 6.27132 11.1295C6.22925 10.6771 6.26809 10.215 6.27456 9.75943C6.27779 9.53001 6.19364 9.36521 5.99945 9.27474C5.73406 9.14872 5.47837 9.23273 5.30359 9.52355C4.1611 11.4203 3.75976 13.4657 4.13844 15.6437C4.42649 17.2916 5.20326 18.6972 6.46228 19.8088C8.09997 21.2597 10.0128 22.019 12.2201 21.9996C12.6441 21.9673 13.0713 21.9512 13.492 21.9027C14.5472 21.7799 15.5537 21.4956 16.4794 20.9689C18.5249 19.8023 19.703 18.0477 19.9619 15.705C20.127 14.1928 19.7515 12.7904 18.9165 11.5173ZM16.7674 18.2384C15.9097 19.1625 14.8287 19.6505 13.6086 19.8637C12.6279 20.0318 11.6343 20.0705 10.6698 19.825C8.97383 19.3984 7.5983 18.4969 6.70502 16.9491C6.43962 16.4903 6.26485 15.9926 6.1451 15.4756C6.13539 15.4401 6.13539 15.4013 6.12891 15.3496C6.40078 15.5726 6.64676 15.7923 6.90892 15.9894C8.53043 17.2108 10.6148 16.096 10.8834 14.3641C10.9514 13.9181 10.8866 13.4851 10.7183 13.0651C10.3041 12.031 10.0484 10.9647 10.0646 9.84345C10.084 8.30534 10.6051 6.95466 11.589 5.74938C11.6051 5.78815 11.6213 5.814 11.6278 5.83985C11.9223 7.14207 12.5761 8.25364 13.5341 9.1681C14.2818 9.87899 15.0877 10.5285 15.8741 11.2006C16.4082 11.6562 16.9357 12.1183 17.3112 12.7225C18.3922 14.4513 18.1559 16.7391 16.7674 18.2384Z" fill="currentColor"/>
</svg>
