<svg viewBox="0 0 24 24" fill="none" xmlns="http://www.w3.org/2000/svg">
<path d="M8.275 10.9998C7.89167 10.9998 7.6 10.8291 7.4 10.4878C7.2 10.1458 7.20833 9.80814 7.425 9.4748L11.15 3.3998C11.35 3.08314 11.6333 2.9248 12 2.9248C12.3667 2.9248 12.65 3.08314 12.85 3.3998L16.575 9.4748C16.7917 9.80814 16.8 10.1458 16.6 10.4878C16.4 10.8291 16.1083 10.9998 15.725 10.9998H8.275ZM17.5 21.9998C16.25 21.9998 15.1873 21.5625 14.312 20.6878C13.4373 19.8125 13 18.7498 13 17.4998C13 16.2498 13.4373 15.1871 14.312 14.3118C15.1873 13.4371 16.25 12.9998 17.5 12.9998C18.75 12.9998 19.8127 13.4371 20.688 14.3118C21.5627 15.1871 22 16.2498 22 17.4998C22 18.7498 21.5627 19.8125 20.688 20.6878C19.8127 21.5625 18.75 21.9998 17.5 21.9998ZM4 21.4998C3.71667 21.4998 3.47933 21.4038 3.288 21.2118C3.096 21.0205 3 20.7831 3 20.4998V14.4998C3 14.2165 3.096 13.9788 3.288 13.7868C3.47933 13.5955 3.71667 13.4998 4 13.4998H10C10.2833 13.4998 10.521 13.5955 10.713 13.7868C10.9043 13.9788 11 14.2165 11 14.4998V20.4998C11 20.7831 10.9043 21.0205 10.713 21.2118C10.521 21.4038 10.2833 21.4998 10 21.4998H4ZM17.5 19.9998C18.2 19.9998 18.7917 19.7581 19.275 19.2748C19.7583 18.7915 20 18.1998 20 17.4998C20 16.7998 19.7583 16.2081 19.275 15.7248C18.7917 15.2415 18.2 14.9998 17.5 14.9998C16.8 14.9998 16.2083 15.2415 15.725 15.7248C15.2417 16.2081 15 16.7998 15 17.4998C15 18.1998 15.2417 18.7915 15.725 19.2748C16.2083 19.7581 16.8 19.9998 17.5 19.9998ZM5 19.4998H9V15.4998H5V19.4998ZM10.05 8.9998H13.95L12 5.8498L10.05 8.9998Z" fill="currentColor"/>
</svg>
