<svg viewBox="0 0 24 24" fill="none" xmlns="http://www.w3.org/2000/svg">
<path d="M19.7097 4.29006C19.3197 3.90007 18.6797 3.90005 18.2897 4.29006L11.9998 10.5901L5.70984 4.29006C5.31981 3.90007 4.67981 3.90005 4.2898 4.29005C3.81653 4.76332 3.89981 5.32006 4.28984 5.71005L10.5897 12.0001L4.28976 18.2901C3.89975 18.6801 3.89983 19.3201 4.28976 19.7101C4.67983 20.1001 5.31983 20.1001 5.70975 19.7101L11.9998 13.4101L18.2897 19.7101C18.6799 20.1001 19.3199 20.1001 19.7097 19.7101C20.0999 19.3201 20.0998 18.6801 19.7097 18.2901L13.4097 12.0001L19.7097 5.71005C20.0997 5.32006 20.1709 4.75119 19.7097 4.29006Z" fill="#18181B"/>
</svg>
