<svg viewBox="0 0 24 24" fill="none" xmlns="http://www.w3.org/2000/svg">
<path d="M10.65 21.15L8.925 19.575C7.15833 17.9583 5.56267 16.354 4.138 14.762C2.71267 13.1707 2 11.4167 2 9.5C2 7.93333 2.525 6.625 3.575 5.575C4.625 4.525 5.93333 4 7.5 4C8.38333 4 9.21667 4.18733 10 4.562C10.7833 4.93733 11.45 5.45 12 6.1C12.55 5.45 13.2167 4.93733 14 4.562C14.7833 4.18733 15.6167 4 16.5 4C18.0667 4 19.375 4.525 20.425 5.575C21.475 6.625 22 7.93333 22 9.5C22 11.4167 21.2917 13.175 19.875 14.775C18.4583 16.375 16.85 17.9833 15.05 19.6L13.35 21.15C12.9667 21.5167 12.5167 21.7 12 21.7C11.4833 21.7 11.0333 21.5167 10.65 21.15ZM11.05 8.1C10.5667 7.41667 10.05 6.89567 9.5 6.537C8.95 6.179 8.28333 6 7.5 6C6.5 6 5.66667 6.33333 5 7C4.33333 7.66667 4 8.5 4 9.5C4 10.3667 4.30833 11.2873 4.925 12.262C5.54167 13.2373 6.27933 14.1833 7.138 15.1C7.996 16.0167 8.87933 16.875 9.788 17.675C10.696 18.475 11.4333 19.1333 12 19.65C12.5667 19.1333 13.3043 18.475 14.213 17.675C15.121 16.875 16.0043 16.0167 16.863 15.1C17.721 14.1833 18.4583 13.2373 19.075 12.262C19.6917 11.2873 20 10.3667 20 9.5C20 8.5 19.6667 7.66667 19 7C18.3333 6.33333 17.5 6 16.5 6C15.7167 6 15.05 6.179 14.5 6.537C13.95 6.89567 13.4333 7.41667 12.95 8.1C12.8333 8.26667 12.6917 8.39167 12.525 8.475C12.3583 8.55833 12.1833 8.6 12 8.6C11.8167 8.6 11.6417 8.55833 11.475 8.475C11.3083 8.39167 11.1667 8.26667 11.05 8.1Z" fill="currentColor"/>
</svg>
