<svg viewBox="0 0 24 24" fill="none" xmlns="http://www.w3.org/2000/svg">
<path fill-rule="evenodd" clip-rule="evenodd" d="M12.4096 4.0098L12.4046 4.00958C8.07305 3.80382 4.19993 7.34039 4.00806 11.6278L4.00792 11.6308C3.81377 15.8266 7.17401 19.845 11.6117 19.9846L11.6367 19.9853L11.6618 19.9868C15.9581 20.2298 19.7985 16.8061 19.9918 12.37L19.9919 12.3685C20.1969 7.74019 16.4076 4.18986 12.4096 4.0098ZM12.4995 2.01083C7.06948 1.75289 2.25175 6.13776 2.01006 11.5382C1.76837 16.7614 5.90936 21.8072 11.5488 21.9846C16.9627 22.2909 21.7482 18.0027 21.9899 12.4571C22.2477 6.63751 17.5106 2.23652 12.4995 2.01083Z" fill="currentColor"/>
<path fill-rule="evenodd" clip-rule="evenodd" d="M6.79289 7.29553C6.98043 7.1079 7.23478 7.00249 7.5 7.00249H10.5C11.0523 7.00249 11.5 7.45043 11.5 8.00299C11.5 8.55555 11.0523 9.00349 10.5 9.00349H8.5V11.2713H10.5C11.0523 11.2713 11.5 11.7192 11.5 12.2718C11.5 12.8243 11.0523 13.2723 10.5 13.2723H8.5V16.007C8.5 16.5595 8.05229 17.0075 7.5 17.0075C6.94772 17.0075 6.5 16.5595 6.5 16.007V8.00299C6.5 7.73764 6.60536 7.48316 6.79289 7.29553Z" fill="currentColor"/>
<path fill-rule="evenodd" clip-rule="evenodd" d="M14.2115 9.33796C14.0602 9.54823 14 9.83059 14 10.004C14 10.1774 14.0602 10.4598 14.2115 10.67C14.3261 10.8293 14.5259 11.0045 15 11.0045C16.1259 11.0045 16.9261 11.4963 17.4115 12.1708C17.8602 12.7943 18 13.5124 18 14.006C18 14.4996 17.8602 15.2177 17.4115 15.8412C16.9261 16.5157 16.1259 17.0075 15 17.0075C14.2059 17.0075 13.5522 16.7623 13.0558 16.3459C12.5741 15.9418 12.3022 15.4292 12.1576 14.9792C11.9886 14.4532 12.2778 13.8896 12.8036 13.7205C13.3293 13.5514 13.8926 13.8407 14.0616 14.3668C14.122 14.5547 14.2174 14.7091 14.3408 14.8125C14.4493 14.9036 14.6383 15.0065 15 15.0065C15.4741 15.0065 15.6739 14.8313 15.7885 14.672C15.9398 14.4617 16 14.1794 16 14.006C16 13.8326 15.9398 13.5502 15.7885 13.34C15.6739 13.1807 15.4741 13.0055 15 13.0055C13.8741 13.0055 13.0739 12.5137 12.5885 11.8392C12.1398 11.2157 12 10.4976 12 10.004C12 9.51039 12.1398 8.79226 12.5885 8.16877C13.0739 7.49427 13.8741 7.00249 15 7.00249C15.7941 7.00249 16.4478 7.24763 16.9442 7.6641C17.4259 8.06816 17.6978 8.5808 17.8424 9.03076C18.0114 9.5568 17.7222 10.1203 17.1964 10.2895C16.6707 10.4586 16.1074 10.1693 15.9384 9.64322C15.878 9.45525 15.7826 9.3009 15.6592 9.19744C15.5507 9.10639 15.3617 9.00349 15 9.00349C14.5259 9.00349 14.3261 9.17871 14.2115 9.33796Z" fill="currentColor"/>
</svg>
