<svg viewBox="0 0 24 24" fill="none" xmlns="http://www.w3.org/2000/svg">
<path d="M19.4726 18.8228C19.4122 18.9685 19.3237 19.1008 19.2122 19.2122C18.9872 19.4372 18.682 19.5636 18.3638 19.5636C18.0456 19.5636 17.7404 19.4372 17.5154 19.2122L15.3919 17.0887C15.1734 16.8624 15.0524 16.5593 15.0551 16.2447C15.0579 15.93 15.1841 15.6291 15.4066 15.4066C15.6291 15.1841 15.93 15.0579 16.2447 15.0551C16.5593 15.0524 16.8624 15.1734 17.0887 15.3919L17.0912 15.3944L19.2122 17.5143C19.3237 17.6258 19.4122 17.7581 19.4726 17.9038C19.533 18.0495 19.5641 18.2056 19.5641 18.3633C19.5641 18.521 19.533 18.6772 19.4726 18.8228Z" fill="currentColor"/>
<path d="M8.6052 8.60525C8.38017 8.83021 8.075 8.95659 7.7568 8.95659C7.43861 8.95659 7.13344 8.83021 6.9084 8.60525L4.78843 6.48528C4.5633 6.26028 4.43671 5.95502 4.4366 5.63673C4.43649 5.31842 4.56283 5.01309 4.78783 4.78793C5.01284 4.56277 5.31807 4.43621 5.63638 4.4361C5.95469 4.43599 6.26001 4.56233 6.48518 4.78733L8.60525 6.9084C8.8302 7.13344 8.95659 7.43861 8.95659 7.7568C8.95659 8.075 8.83017 8.38021 8.6052 8.60525Z" fill="currentColor"/>
<path d="M5.17778 19.4726C5.03212 19.4122 4.8998 19.3237 4.78836 19.2122C4.56343 18.9872 4.43702 18.682 4.43702 18.3638C4.43702 18.0456 4.56342 17.7404 4.78838 17.5154L6.91186 15.3919C7.13819 15.1734 7.44131 15.0524 7.75594 15.0551C8.07058 15.0579 8.37155 15.1841 8.59404 15.4066C8.81653 15.6291 8.94274 15.93 8.94547 16.2447C8.9482 16.5593 8.82725 16.8624 8.60866 17.0887L8.60626 17.0912L6.48626 19.2122C6.37482 19.3237 6.24249 19.4122 6.09683 19.4726C5.95116 19.533 5.795 19.5641 5.6373 19.5641C5.47961 19.5641 5.32345 19.533 5.17778 19.4726Z" fill="currentColor"/>
<path d="M15.3944 8.6052C15.1694 8.38017 15.043 8.075 15.043 7.7568C15.043 7.43861 15.1694 7.13345 15.3944 6.90842L17.5143 4.78743C17.6257 4.67595 17.758 4.58749 17.9036 4.52712C18.0492 4.46676 18.2053 4.43566 18.3629 4.4356C18.5205 4.43555 18.6766 4.46654 18.8222 4.5268C18.9678 4.58706 19.1002 4.67542 19.2117 4.78683C19.3232 4.89824 19.4116 5.03052 19.472 5.17612C19.5324 5.32171 19.5635 5.47777 19.5635 5.63538C19.5636 5.79299 19.5326 5.94907 19.4723 6.09471C19.412 6.24035 19.3237 6.37269 19.2123 6.48418L17.0912 8.60523C16.8662 8.83019 16.561 8.95659 16.2428 8.95659C15.9246 8.95659 15.6194 8.83017 15.3944 8.6052Z" fill="currentColor"/>
<path d="M11.9998 1.7998C12.3181 1.7998 12.6233 1.92623 12.8483 2.15128C13.0734 2.37632 13.1998 2.68154 13.1998 2.9998V5.9998C13.1998 6.31806 13.0734 6.62329 12.8483 6.84833C12.6233 7.07338 12.3181 7.1998 11.9998 7.1998C11.6815 7.1998 11.3763 7.07338 11.1513 6.84833C10.9262 6.62329 10.7998 6.31806 10.7998 5.9998V2.9998C10.7998 2.68154 10.9262 2.37632 11.1513 2.15128C11.3763 1.92623 11.6815 1.7998 11.9998 1.7998Z" fill="currentColor"/>
<path d="M11.9998 16.7998C12.3181 16.7998 12.6233 16.9262 12.8483 17.1513C13.0734 17.3763 13.1998 17.6815 13.1998 17.9998V20.9998C13.1998 21.3181 13.0734 21.6233 12.8483 21.8483C12.6233 22.0734 12.3181 22.1998 11.9998 22.1998C11.6815 22.1998 11.3763 22.0734 11.1513 21.8483C10.9262 21.6233 10.7998 21.3181 10.7998 20.9998V17.9998C10.7998 17.6815 10.9262 17.3763 11.1513 17.1513C11.3763 16.9262 11.6815 16.7998 11.9998 16.7998Z" fill="currentColor"/>
<path d="M22.1998 11.9998C22.1998 12.3181 22.0734 12.6233 21.8483 12.8483C21.6233 13.0734 21.3181 13.1998 20.9998 13.1998H17.9998C17.6815 13.1998 17.3763 13.0734 17.1513 12.8483C16.9262 12.6233 16.7998 12.3181 16.7998 11.9998C16.7998 11.6815 16.9262 11.3763 17.1513 11.1513C17.3763 10.9262 17.6815 10.7998 17.9998 10.7998H20.9998C21.3181 10.7998 21.6233 10.9262 21.8483 11.1513C22.0734 11.3763 22.1998 11.6815 22.1998 11.9998Z" fill="currentColor"/>
<path d="M7.1998 11.9998C7.1998 12.3181 7.07338 12.6233 6.84833 12.8483C6.62329 13.0734 6.31806 13.1998 5.9998 13.1998H2.9998C2.68154 13.1998 2.37632 13.0734 2.15128 12.8483C1.92623 12.6233 1.7998 12.3181 1.7998 11.9998C1.7998 11.6815 1.92623 11.3763 2.15128 11.1513C2.37632 10.9262 2.68154 10.7998 2.9998 10.7998H5.9998C6.31806 10.7998 6.62329 10.9262 6.84833 11.1513C7.07338 11.3763 7.1998 11.6815 7.1998 11.9998Z" fill="currentColor"/>
</svg>
