<svg viewBox="0 0 24 24" fill="none" xmlns="http://www.w3.org/2000/svg">
<path fill-rule="evenodd" clip-rule="evenodd" d="M8 19H10.6667V22H8V19ZM4.99952 21.197L6.50194 18.6004C6.0456 18.3363 5.66368 17.9544 5.39965 17.4981L2.80297 19.0005C3.32979 19.911 4.08901 20.6702 4.99952 21.197ZM5 16V13.3333H2V16H5ZM2 10.6667H5V8H2V10.6667ZM2.80297 4.99952L5.39965 6.50194C5.66368 6.0456 6.0456 5.66368 6.50194 5.39965L4.99952 2.80297C4.08901 3.32978 3.32979 4.08901 2.80297 4.99952ZM8 2H10.6667V5H8V2ZM13.3333 2V5H16V2H13.3333ZM19.0005 2.80297L17.4981 5.39965C17.9544 5.66368 18.3363 6.0456 18.6004 6.50194L21.197 4.99952C20.6702 4.08901 19.911 3.32979 19.0005 2.80297ZM19 8V10.6667H22V8H19ZM22 13.3333H19V16H22V13.3333ZM21.197 19.0005L18.6004 17.4981C18.3363 17.9544 17.9544 18.3363 17.4981 18.6004L19.0005 21.197C19.911 20.6702 20.6702 19.911 21.197 19.0005ZM16 19H13.3333V22H16V19Z" fill="#18181B"/>
</svg>
