<svg viewBox="0 0 24 24" fill="none" xmlns="http://www.w3.org/2000/svg">
<path d="M4 12C4 9.61632 5.02 7.47816 6.62 5.98453L8.15 7.54978C8.46 7.86692 9 7.64185 9 7.18148V2.79264C9 2.50619 8.78 2.28112 8.5 2.28112H4.21C3.76 2.28112 3.54 2.83356 3.86 3.15071L5.2 4.53181C3.24 6.39374 2 9.04341 2 12C2 16.8594 5.32 20.9311 9.76 21.9746C10.39 22.1179 11 21.637 11 20.9721C11 20.4912 10.67 20.082 10.21 19.9695C6.66 19.1408 4 15.8876 4 12ZM22 12C22 7.14056 18.68 3.06886 14.24 2.02536C13.61 1.88214 13 2.36297 13 3.02794C13 3.50877 13.33 3.91799 13.79 4.03052C17.34 4.85918 20 8.11245 20 12C20 14.3837 18.98 16.5218 17.38 18.0155L15.85 16.4502C15.54 16.1331 15 16.3581 15 16.8185V21.2074C15 21.4938 15.22 21.7189 15.5 21.7189H19.79C20.24 21.7189 20.46 21.1664 20.14 20.8493L18.8 19.4682C20.76 17.6063 22 14.9566 22 12Z" fill="#18181B"/>
<path d="M15.47 12.409L10.8 15.9897C10.47 16.2454 10 15.9999 10 15.5805V8.41918C10 7.99973 10.47 7.75421 10.8 8.00996L15.47 11.5906C15.74 11.7952 15.74 12.2044 15.47 12.409Z" fill="#18181B"/>
</svg>
