<svg viewBox="0 0 24 24" fill="none" xmlns="http://www.w3.org/2000/svg">
<path d="M16.0628 10.6744C16.254 10.4944 16.3215 10.2244 16.2428 9.98817C16.164 9.74067 15.9503 9.57192 15.6803 9.52692L13.3403 9.20067C13.239 9.18942 13.1603 9.12192 13.1153 9.04317L12.069 6.98442C11.9565 6.74817 11.709 6.61317 11.4503 6.61317C11.1915 6.61317 10.944 6.75942 10.8315 6.98442L9.78527 9.04317C9.74027 9.13317 9.65027 9.18942 9.56027 9.20067L7.22027 9.52692C6.96152 9.56067 6.74777 9.74067 6.65777 9.98817C6.57902 10.2357 6.64652 10.4944 6.83777 10.6744L8.52527 12.2832C8.59277 12.3507 8.62652 12.4519 8.61527 12.5419L8.22152 14.8032C8.18777 15.0057 8.24402 15.1969 8.36777 15.3544C8.57027 15.5907 8.93027 15.6694 9.22277 15.5232L11.3153 14.4544C11.4053 14.4094 11.5178 14.4094 11.5965 14.4544L13.689 15.5232C13.7903 15.5794 13.9028 15.6019 14.0153 15.6019C14.2178 15.6019 14.409 15.5119 14.544 15.3544C14.679 15.1969 14.7353 15.0057 14.6903 14.8032L14.2965 12.5419C14.274 12.4407 14.3078 12.3507 14.3865 12.2832L16.074 10.6744H16.0628Z" fill="#18181B"/>
<path fill-rule="evenodd" clip-rule="evenodd" d="M9.85767 2.59205C14.7542 1.71207 19.4277 4.96127 20.3079 9.85768C20.7426 12.2767 20.1676 14.6402 18.886 16.5198L21.6038 19.1008L21.5901 19.0921C22.1967 19.6689 22.2202 20.6248 21.6565 21.2405C21.0797 21.8468 20.137 21.8787 19.5305 21.302L16.7874 18.6975C15.7128 19.4893 14.446 20.0555 13.0422 20.3079C8.1458 21.1878 3.47223 17.9386 2.59205 13.0422C1.71207 8.14578 4.96131 3.47227 9.85767 2.59205ZM18.093 10.2561C17.4328 6.58256 13.9297 4.14672 10.2561 4.80689C6.58269 5.46715 4.14586 8.97036 4.80592 12.6438C5.46613 16.3172 8.97037 18.754 12.6438 18.094C16.3174 17.4338 18.7532 13.9297 18.093 10.2561Z" fill="#18181B"/>
</svg>
