<svg viewBox="0 0 24 24" fill="none" xmlns="http://www.w3.org/2000/svg">
<path d="M10 8C9.45 8 9 7.55 9 7C9 6.45 9.45 6 10 6H14C14.55 6 15 6.45 15 7C15 7.55 14.55 8 14 8H10Z" fill="currentColor"/>
<path d="M10 11C9.45 11 9 10.55 9 10C9 9.45 9.45 9 10 9H17C17.55 9 18 9.45 18 10C18 10.55 17.55 11 17 11H10Z" fill="currentColor"/>
<path fill-rule="evenodd" clip-rule="evenodd" d="M6 2.97675C6.00909 2.63668 6.21788 2 6.99968 2H20.0232C20.3633 2.00909 21 2.21788 21 2.99968V19C21 20.66 19.66 22 18 22H6C4.34 22 3 20.66 3 19V17C3 16.45 3.45 16 4 16H6V2.97675ZM8 16V4H19V19C19 19.55 18.55 20 18 20C17.45 20 17 19.55 17 19V17C17 16.45 16.55 16 16 16H8ZM5 19C5 19.55 5.45 20 6 20H15V18H5V19Z" fill="currentColor"/>
<path d="M10 14H17C17.55 14 18 13.55 18 13C18 12.45 17.55 12 17 12H10C9.45 12 9 12.45 9 13C9 13.55 9.45 14 10 14Z" fill="currentColor"/>
</svg>
