<svg viewBox="0 0 24 24" fill="none" xmlns="http://www.w3.org/2000/svg">
<path fill-rule="evenodd" clip-rule="evenodd" d="M9.85863 2.59196C14.7551 1.71221 19.4279 4.96208 20.3078 9.85856C20.7425 12.2774 20.1675 14.6402 18.886 16.5197L21.6037 19.1007L21.591 19.092C22.1974 19.6688 22.2201 20.6248 21.6565 21.2404C21.0797 21.8467 20.137 21.8786 19.5305 21.3019L16.7873 18.6984C15.7129 19.49 14.4459 20.0555 13.0422 20.3078C8.14569 21.1877 3.47207 17.9387 2.59203 13.0422C1.71203 8.14558 4.96208 3.47203 9.85863 2.59196ZM18.094 10.256C17.4337 6.58252 13.9296 4.14661 10.2561 4.8068C6.58279 5.46712 4.1469 8.97036 4.80687 12.6437C5.46708 16.3171 8.97042 18.7538 12.6438 18.0939C16.3173 17.4337 18.7541 13.9296 18.094 10.256Z" fill="currentColor"/>
</svg>
