<svg viewBox="0 0 24 24" fill="none" xmlns="http://www.w3.org/2000/svg">
<path d="M10.8869 8.38649V12.4761C10.8869 12.8651 11.0981 13.2318 11.4315 13.4318L14.8988 15.4877C15.2988 15.7211 15.81 15.5878 16.0434 15.1988C16.2768 14.7987 16.1545 14.2875 15.7545 14.0542L12.565 12.1538V8.37537C12.5539 7.93085 12.176 7.55301 11.7204 7.55301C11.2648 7.55301 10.8869 7.93085 10.8869 8.38649ZM22 9.21997V3.34115C22 2.84106 21.3999 2.59658 21.0554 2.9522L19.0773 4.93032C17.0658 2.91886 14.1986 1.7631 11.0647 2.04092C6.40837 2.46322 2.57436 6.20832 2.06316 10.8647C1.39638 16.888 6.0972 22 11.9982 22C17.0991 22 21.311 18.1771 21.9222 13.2429C22 12.5761 21.4777 11.9982 20.8109 11.9982C20.2552 11.9982 19.7885 12.4094 19.7218 12.954C19.244 16.8324 15.8989 19.833 11.8871 19.7774C7.76416 19.7218 4.28577 16.2434 4.21909 12.1094C4.15242 7.77527 7.67526 4.21909 11.9982 4.21909C14.1431 4.21909 16.0878 5.09702 17.4992 6.49727L15.1766 8.8199C14.821 9.17552 15.0654 9.77562 15.5655 9.77562H21.4443C21.7555 9.77562 22 9.53113 22 9.21997Z" fill="currentColor"/>
</svg>
