<svg viewBox="0 0 24 24" fill="none" xmlns="http://www.w3.org/2000/svg">
<path fill-rule="evenodd" clip-rule="evenodd" d="M15.599 14.4261C16.219 14.4261 16.799 14.7061 17.179 15.1961L19.259 17.8761C19.579 18.2861 20.169 18.3661 20.589 18.0461C20.859 17.8361 20.999 17.5061 20.949 17.1761L19.769 7.75605C19.629 6.60605 18.659 5.74605 17.499 5.74605H6.519C5.649 5.74605 4.849 6.23605 4.469 7.01605C4.349 7.24605 4.279 7.49605 4.249 7.75605L3.059 17.2561C3.019 17.6061 3.199 17.9461 3.509 18.0961C3.879 18.2861 4.339 18.1661 4.569 17.8161L6.239 15.3061C6.609 14.7461 7.239 14.4161 7.899 14.4161L15.599 14.4261ZM17.649 19.1361C18.519 20.2661 20.069 20.6161 21.349 19.9761C22.479 19.4061 23.139 18.1861 22.979 16.9261L21.799 7.50605C21.739 7.01605 21.599 6.54605 21.379 6.10605C20.649 4.63605 19.139 3.70605 17.499 3.70605H6.519C4.879 3.70605 3.369 4.63605 2.639 6.10605C2.419 6.54605 2.279 7.01605 2.219 7.50605L1.019 17.0061C0.868998 18.2161 1.499 19.3861 2.589 19.9361C3.889 20.5861 5.459 20.1661 6.259 18.9561L7.919 16.4661H15.579L17.649 19.1361ZM10.099 9.17605H9.399V8.47605C9.399 7.97605 8.999 7.57605 8.499 7.57605C7.999 7.57605 7.599 7.97605 7.599 8.47605V9.17605H6.899C6.399 9.17605 5.999 9.57605 5.999 10.0761C5.999 10.5761 6.399 10.9761 6.899 10.9761H7.599V11.6761C7.599 12.1761 7.999 12.5761 8.499 12.5761C8.999 12.5761 9.399 12.1761 9.399 11.6761V10.9761H10.099C10.599 10.9761 10.999 10.5761 10.999 10.0761C10.999 9.57605 10.599 9.17605 10.099 9.17605ZM15.809 11.5661C16.639 11.5661 17.309 10.8961 17.309 10.0661C17.309 9.23605 16.639 8.56605 15.809 8.56605C14.979 8.56605 14.309 9.23605 14.309 10.0661C14.309 10.8961 14.979 11.5661 15.809 11.5661Z" fill="#18181B"/>
</svg>
