<svg viewBox="0 0 24 24" fill="none" xmlns="http://www.w3.org/2000/svg">
<path fill-rule="evenodd" clip-rule="evenodd" d="M12.1064 1.75C14.8248 1.75006 17.4323 2.82976 19.3545 4.75195C21.2767 6.67419 22.3564 9.28159 22.3564 12C22.3564 14.7184 21.2767 17.3258 19.3545 19.248C17.4323 21.1702 14.8248 22.2499 12.1064 22.25C10.7605 22.25 9.42712 21.9848 8.18359 21.4697C6.94018 20.9546 5.81009 20.1997 4.8584 19.248C3.9067 18.2963 3.15183 17.1663 2.63672 15.9229C2.12161 14.6793 1.85645 13.346 1.85645 12C1.85645 10.654 2.12161 9.32074 2.63672 8.07715C3.15183 6.83372 3.9067 5.70365 4.8584 4.75195C5.81009 3.80029 6.94018 3.04536 8.18359 2.53027C9.42712 2.01522 10.7605 1.75 12.1064 1.75ZM9.35645 12.9473C9.39226 13.7932 9.47434 14.6208 9.60352 15.4043L9.67383 15.8027C9.84704 16.7175 10.08 17.5366 10.3555 18.2266C10.6734 19.0205 11.0251 19.5851 11.3623 19.9355C11.6966 20.2808 11.9503 20.3545 12.1064 20.3545C12.2618 20.3544 12.5157 20.2813 12.8486 19.9365C13.1869 19.5863 13.5391 19.0213 13.8574 18.2266C14.1723 17.438 14.4313 16.4804 14.6094 15.4043C14.7385 14.621 14.8201 13.7934 14.8564 12.9473H9.35645ZM3.80566 12.9473C3.98305 14.502 4.59321 15.9781 5.57031 17.2051C6.46637 18.3302 7.63615 19.2007 8.96191 19.7393C8.8267 19.4752 8.70301 19.2052 8.59473 18.9287C8.26579 18.1059 8.00174 17.1657 7.81055 16.1533L7.7334 15.7148C7.58396 14.7989 7.49368 13.8745 7.45801 12.9473H3.80566ZM16.7539 12.9473C16.7279 13.6223 16.6742 14.296 16.5879 14.9658L16.4785 15.7148C16.2837 16.8953 15.9934 17.9889 15.6172 18.9297C15.5044 19.2125 15.3803 19.4829 15.25 19.7393C16.5756 19.2008 17.7444 18.3302 18.6406 17.2051C19.6178 15.9781 20.2288 14.5021 20.4062 12.9473H16.7539ZM8.96191 4.25977C7.63623 4.79824 6.46739 5.66997 5.57129 6.79492C4.59403 8.0219 3.98312 9.49786 3.80566 11.0527H7.45801C7.49596 10.1059 7.58683 9.17292 7.73438 8.28418C7.92925 7.10389 8.21951 6.0108 8.59473 5.07031C8.70317 4.7939 8.82655 4.52372 8.96191 4.25977ZM12.1064 3.64551C11.9512 3.64551 11.6973 3.7186 11.3643 4.06348C11.026 4.41372 10.6738 4.97868 10.3555 5.77344C10.0406 6.56196 9.78164 7.5196 9.60352 8.5957C9.47437 9.37903 9.39283 10.2066 9.35645 11.0527H14.8564C14.8222 10.2296 14.7416 9.40904 14.6094 8.5957L14.5391 8.19727C14.3659 7.28249 14.1329 6.46336 13.8574 5.77344C13.5392 4.97883 13.1871 4.41386 12.8496 4.06348C12.5154 3.71826 12.2626 3.64558 12.1064 3.64551ZM15.251 4.26367C15.3858 4.52656 15.51 4.79505 15.6182 5.07031L15.7549 5.42969C16.0647 6.28532 16.308 7.25204 16.4785 8.28516L16.5879 9.03418C16.6745 9.70405 16.7287 10.3776 16.7549 11.0527H20.4043C20.1907 9.17918 19.3516 7.42916 18.0146 6.0918C17.2242 5.30116 16.2827 4.68266 15.251 4.26367Z" fill="#18181B"/>
</svg>
