<svg viewBox="0 0 24 24" fill="none" xmlns="http://www.w3.org/2000/svg">
<path fill-rule="evenodd" clip-rule="evenodd" d="M20.9 2H17.1C16.49 2 16 2.49 16 3.1V5H15V3.1C15 2.49 14.51 2 13.9 2H10.1C9.49 2 9 2.49 9 3.1V5H8V3.1C8 2.49 7.51 2 6.9 2H3.1C2.49 2 2 2.49 2 3.1V7.79C2 8.32 2.21 8.83 2.59 9.2L4 10.61V20C4 21.1 4.9 22 6 22H9.49C10.05 22 10.5 21.55 10.5 20.99V16.5C10.5 15.67 11.17 15 12 15C12.83 15 13.5 15.67 13.5 16.5V20.99C13.5 21.55 13.95 22 14.51 22H18C19.1 22 20 21.1 20 20V10.61L21.41 9.2C21.79 8.82 22 8.32 22 7.79V3.1C22 2.49 21.51 2 20.9 2ZM20 7.79L18.59 9.2C18.21 9.58 18 10.08 18 10.61V20H15.5V16.5C15.5 14.57 13.93 13 12 13C10.07 13 8.5 14.57 8.5 16.5V20H6V10.61C6 10.08 5.79 9.57 5.41 9.2L4 7.79V4H6V5.9C6 6.51 6.49 7 7.1 7H9.9C10.51 7 11 6.51 11 5.9V4H13V5.9C13 6.51 13.49 7 14.1 7H16.9C17.51 7 18 6.51 18 5.9V4H20V7.79Z" fill="#18181B"/>
</svg>
