<svg viewBox="0 0 24 24" fill="none" xmlns="http://www.w3.org/2000/svg">
<path d="M20 2.5H4C2.9 2.5 2 3.4 2 4.5V15.5C2 16.6 2.9 17.5 4 17.5H11V19.5H8C7.45 19.5 7 19.95 7 20.5C7 21.05 7.45 21.5 8 21.5H16C16.55 21.5 17 21.05 17 20.5C17 19.95 16.55 19.5 16 19.5H13V17.5H20C21.1 17.5 22 16.6 22 15.5V4.5C22 3.4 21.1 2.5 20 2.5ZM20 15.5H4V4.5H20V15.5ZM10 7.64C10 7.4 10.11 7.21 10.32 7.09C10.53 6.96 10.74 6.97 10.95 7.11L14.71 9.47C14.91 9.6 15 9.78 15 10.01C15 10.24 14.9 10.42 14.71 10.55L10.95 12.91C10.74 13.05 10.53 13.05 10.32 12.93C10.11 12.8 10 12.62 10 12.38V7.64Z" fill="#18181B"/>
</svg>
