<svg viewBox="0 0 24 24" fill="none" xmlns="http://www.w3.org/2000/svg">
<path fill-rule="evenodd" clip-rule="evenodd" d="M15.6225 2.92123L10.2825 1.75123C9.98249 1.69123 9.68249 1.68123 9.39249 1.73123C8.52249 1.89123 7.78249 2.55123 7.58249 3.45123L4.35249 17.6612C4.28249 17.9712 4.27249 18.2812 4.34249 18.5712C4.51249 19.4212 5.16249 20.1212 6.06249 20.3212L14.8925 22.2512C15.2025 22.3212 15.5125 22.3112 15.8025 22.2612C16.6625 22.0912 17.3825 21.4412 17.5925 20.5512L20.0725 9.66123C19.8825 9.68123 19.6925 9.70123 19.5025 9.70123C18.9025 9.70123 18.3425 9.58123 17.8225 9.37123L15.3925 20.0612H15.3825L6.58249 18.1312L9.80249 3.94123L15.0025 5.08123C15.0225 4.29123 15.2425 3.55123 15.6225 2.91123V2.92123ZM2.03249 5.30123C1.82249 4.08123 2.65249 2.91123 3.88249 2.70123L5.50249 2.42123L3.26249 12.3112L2.03249 5.30123ZM14.1025 12.9812C13.7025 13.2512 13.2125 13.2412 12.8225 13.0112L12.6525 13.8112L12.9025 13.9612C13.0825 14.0712 13.1725 14.2812 13.1225 14.4812C13.0625 14.7412 12.8025 14.9112 12.5425 14.8512L11.3425 14.5912C11.0725 14.5312 10.9125 14.2712 10.9625 14.0112C11.0025 13.8112 11.1725 13.6512 11.3725 13.6312L11.6725 13.5912L11.8425 12.8112C11.4025 12.8512 10.9625 12.6712 10.7125 12.2712C10.3425 11.6912 10.5125 10.9112 11.0825 10.5212L13.1525 9.13123L14.4725 11.2312C14.8325 11.8112 14.6725 12.5912 14.1025 12.9812Z" fill="#18181B"/>
<circle cx="19.5024" cy="5.20117" r="2.5" fill="#DB2F00"/>
</svg>
