<svg viewBox="0 0 24 24" fill="none" xmlns="http://www.w3.org/2000/svg">
<path d="M3.49976 8.06013L4.77976 19.0001H19.2298L20.4998 8.06013L16.4998 10.7401L11.9998 4.44013L7.49976 10.7401L3.49976 8.06013ZM2.79976 5.20013L6.99976 8.00013L11.1998 2.14013C11.2925 2.01208 11.4142 1.90783 11.555 1.83594C11.6958 1.76405 11.8517 1.72656 12.0098 1.72656C12.1679 1.72656 12.3237 1.76405 12.4645 1.83594C12.6053 1.90783 12.727 2.01208 12.8198 2.14013L16.9998 8.00013L21.1998 5.20013C21.3587 5.09347 21.545 5.03467 21.7364 5.03074C21.9278 5.0268 22.1163 5.07788 22.2795 5.17792C22.4427 5.27796 22.5738 5.42275 22.6572 5.59509C22.7405 5.76742 22.7727 5.96007 22.7498 6.15013L21.1098 20.1001C21.0826 20.3459 20.9653 20.5728 20.7807 20.7371C20.596 20.9015 20.357 20.9916 20.1098 20.9901H3.89976C3.65427 20.9892 3.41771 20.8979 3.23514 20.7338C3.05258 20.5697 2.93676 20.3441 2.90976 20.1001L1.25976 6.15013C1.23843 5.96162 1.27116 5.77092 1.35414 5.60031C1.43713 5.4297 1.56693 5.28621 1.7284 5.18661C1.88987 5.087 2.07634 5.03538 2.26604 5.03778C2.45575 5.04017 2.64086 5.09648 2.79976 5.20013ZM11.9998 15.0001C11.4693 15.0001 10.9606 14.7894 10.5855 14.4143C10.2105 14.0393 9.99976 13.5306 9.99976 13.0001C9.99976 12.4697 10.2105 11.961 10.5855 11.5859C10.9606 11.2108 11.4693 11.0001 11.9998 11.0001C12.5302 11.0001 13.0389 11.2108 13.414 11.5859C13.789 11.961 13.9998 12.4697 13.9998 13.0001C13.9998 13.5306 13.789 14.0393 13.414 14.4143C13.0389 14.7894 12.5302 15.0001 11.9998 15.0001Z" fill="#18181B"/>
</svg>
