<svg viewBox="0 0 24 24" fill="none" xmlns="http://www.w3.org/2000/svg">
<path d="M12.0017 22C13.115 22 14.0259 21.0769 14.0259 19.9487H9.97744C9.97744 21.0769 10.8883 22 12.0017 22ZM18.0743 15.8462V10.7179C18.0743 7.56923 16.4246 4.93333 13.5198 4.2359V3.53846C13.5198 2.68718 12.8417 2 12.0017 2C11.1616 2 10.4835 2.68718 10.4835 3.53846V4.2359C7.58886 4.93333 5.929 7.55897 5.929 10.7179V15.8462L4.1144 17.685C3.98019 17.821 3.90479 18.0055 3.90479 18.1978C3.90479 18.5984 4.2252 18.9231 4.62045 18.9231H19.3829C19.7781 18.9231 20.0985 18.5984 20.0985 18.1978C20.0985 18.0055 20.0231 17.821 19.8889 17.685L18.0743 15.8462ZM16.0501 16.8718H7.95322V10.7179C7.95322 8.17436 9.48151 6.10256 12.0017 6.10256C14.5218 6.10256 16.0501 8.17436 16.0501 10.7179V16.8718Z" fill="#18181B"/>
</svg>
