<svg viewBox="0 0 24 24" fill="none" xmlns="http://www.w3.org/2000/svg">
<path d="M21.5 13C21.5 14.1259 21.0085 14.9261 20.3343 15.4115C19.7111 15.8602 18.9934 16 18.5 16L18 16V14L18.5 14C18.6733 14 18.9555 13.9398 19.1657 13.7885C19.3249 13.6739 19.5 13.4741 19.5 13V9C19.5 8.44772 19.9477 8 20.5 8C21.0523 8 21.5 8.44772 21.5 9V13Z" fill="#18181B"/>
<path d="M5 2C4.50664 2 3.78887 2.13978 3.1657 2.58847C2.49153 3.07386 2 3.87408 2 5V6C2 6.55228 2.44772 7 3 7L15 7V5L4 5C4 4.52592 4.17513 4.32614 4.3343 4.21153C4.54446 4.06022 4.82669 4 5 4L15 4C15.4741 4 15.6739 4.17513 15.7885 4.3343C15.9398 4.54446 16 4.82669 16 5V19C16 19.4741 15.8249 19.6739 15.6657 19.7885C15.4555 19.9398 15.1733 20 15 20H5C4.52592 20 4.32614 19.8249 4.21153 19.6657C4.06022 19.4555 4 19.1733 4 19V16H15V14H3C2.44772 14 2 14.4477 2 15V19C2 19.4934 2.13978 20.2111 2.58847 20.8343C3.07386 21.5085 3.87408 22 5 22H15C15.4934 22 16.2111 21.8602 16.8343 21.4115C17.5085 20.9261 18 20.1259 18 19V5C18 4.50664 17.8602 3.78887 17.4115 3.1657C16.9261 2.49153 16.1259 2 15 2L5 2Z" fill="#18181B"/>
<path d="M12 17C11.4477 17 11 17.4477 11 18C11 18.5523 11.4477 19 12 19H14C14.5523 19 15 18.5523 15 18C15 17.4477 14.5523 17 14 17H12Z" fill="#18181B"/>
<path fill-rule="evenodd" clip-rule="evenodd" d="M5.37516 9H3.5C3.22386 9 3 8.77614 3 8.5C3 8.22386 3.22386 8 3.5 8H6C6.27614 8 6.5 8.22386 6.5 8.5C6.5 8.50557 6.5 8.5112 6.50001 8.51687C6.50007 8.62845 6.50014 8.75932 6.47757 8.8947C6.4518 9.04936 6.40097 9.1911 6.32221 9.34861C6.18313 9.62678 5.91906 10.0229 5.45462 10.7195C5.44191 10.7385 5.42904 10.7578 5.41603 10.7774C5.10325 11.2465 4.87049 11.7132 4.71724 12.1155C4.66221 12.26 4.61911 12.3917 4.58632 12.5089C4.51191 12.7748 4.27614 13 4 13C3.72386 13 3.50163 12.7746 3.55818 12.5043C3.60671 12.2723 3.68381 12.0192 3.78276 11.7595C3.96284 11.2868 4.23009 10.7535 4.58397 10.2227C5.0236 9.56322 5.25172 9.21956 5.37516 9Z" fill="#18181B"/>
<path fill-rule="evenodd" clip-rule="evenodd" d="M9.37516 9H7.5C7.22386 9 7 8.77614 7 8.5C7 8.22386 7.22386 8 7.5 8H10C10.2761 8 10.5 8.22386 10.5 8.5C10.5 8.50557 10.5 8.5112 10.5 8.51687C10.5001 8.62845 10.5001 8.75932 10.4776 8.8947C10.4518 9.04936 10.401 9.1911 10.3222 9.34861C10.1831 9.62678 9.91906 10.0229 9.45462 10.7195C9.44191 10.7385 9.42904 10.7578 9.41603 10.7774C9.10325 11.2465 8.87049 11.7132 8.71724 12.1155C8.66221 12.26 8.61911 12.3917 8.58632 12.5089C8.51191 12.7748 8.27614 13 8 13C7.72386 13 7.50163 12.7746 7.55818 12.5043C7.60671 12.2723 7.68381 12.0192 7.78276 11.7595C7.96284 11.2868 8.23009 10.7535 8.58397 10.2227C9.0236 9.56322 9.25172 9.21956 9.37516 9Z" fill="#18181B"/>
<path fill-rule="evenodd" clip-rule="evenodd" d="M13.3752 9H11.5C11.2239 9 11 8.77614 11 8.5C11 8.22386 11.2239 8 11.5 8H14C14.2761 8 14.5 8.22386 14.5 8.5C14.5 8.50557 14.5 8.5112 14.5 8.51687C14.5001 8.62845 14.5001 8.75932 14.4776 8.8947C14.4518 9.04936 14.401 9.1911 14.3222 9.34861C14.1831 9.62678 13.9191 10.0229 13.4546 10.7195C13.4419 10.7385 13.429 10.7578 13.416 10.7774C13.1032 11.2465 12.8705 11.7132 12.7172 12.1155C12.6622 12.26 12.6191 12.3917 12.5863 12.5089C12.5119 12.7748 12.2761 13 12 13C11.7239 13 11.5016 12.7746 11.5582 12.5043C11.6067 12.2723 11.6838 12.0192 11.7828 11.7595C11.9628 11.2868 12.2301 10.7535 12.584 10.2227C13.0236 9.56322 13.2517 9.21956 13.3752 9Z" fill="#18181B"/>
<path d="M22 6.5C22 7.32843 21.3284 8 20.5 8C19.6716 8 19 7.32843 19 6.5C19 5.67157 19.6716 5 20.5 5C21.3284 5 22 5.67157 22 6.5Z" fill="#18181B"/>
</svg>
