<svg viewBox="0 0 24 24" fill="none" xmlns="http://www.w3.org/2000/svg">
<path fill-rule="evenodd" clip-rule="evenodd" d="M6 10C6 6.68629 8.68629 4 12 4C15.3137 4 18 6.68629 18 10C18 13.3137 15.3137 16 12 16C8.68629 16 6 13.3137 6 10ZM12 2C7.58172 2 4 5.58172 4 10C4 13.012 5.66458 15.6353 8.12399 17H8V21C8 21.3262 8.15911 21.6319 8.4263 21.8191C8.69349 22.0062 9.03517 22.0513 9.34174 21.9398L12 20.9732L14.6583 21.9398C14.9648 22.0513 15.3065 22.0062 15.5737 21.8191C15.8409 21.6319 16 21.3262 16 21V17H15.876C18.3354 15.6353 20 13.012 20 10C20 5.58172 16.4183 2 12 2ZM14 17.748C13.3608 17.9125 12.6906 18 12 18C11.3094 18 10.6392 17.9125 10 17.748V19.5723L11.6583 18.9693C11.879 18.889 12.121 18.889 12.3417 18.9693L14 19.5723V17.748Z" fill="#18181B"/>
<path d="M11.9995 12.51L13.9395 13.64C14.3095 13.86 14.7695 13.52 14.6595 13.09L14.1495 10.89L15.8395 9.43C16.1795 9.14 15.9995 8.59 15.5595 8.55L13.3295 8.36L12.4495 6.3C12.2795 5.9 11.6995 5.9 11.5295 6.3L10.6495 8.36L8.41953 8.55C7.97953 8.59 7.80953 9.14 8.13953 9.43L9.82953 10.89L9.31953 13.09C9.21953 13.52 9.67953 13.86 10.0595 13.64L11.9995 12.51Z" fill="#18181B"/>
</svg>
