<svg viewBox="0 0 24 24" fill="none" xmlns="http://www.w3.org/2000/svg">
<path fill-rule="evenodd" clip-rule="evenodd" d="M13.0028 3.57213C12.9227 3.40322 12.7969 3.26013 12.6397 3.15911C12.4824 3.05808 12.3 3.00316 12.1131 3.00058C11.9262 2.99801 11.7423 3.04787 11.5824 3.14452C11.4224 3.24118 11.2927 3.38074 11.208 3.54738L8.00927 9.83988L3.47927 7.42488C3.3156 7.33741 3.13082 7.29722 2.94561 7.30881C2.76039 7.3204 2.58206 7.38332 2.43057 7.49051C2.27909 7.5977 2.16043 7.74494 2.08787 7.91575C2.01532 8.08655 1.99174 8.27418 2.01977 8.45763L3.48377 18.1491C3.49427 18.2189 3.51227 18.2864 3.53627 18.3501C3.69002 20.2274 7.45277 21.7304 12.0728 21.7304C16.7138 21.7304 20.4908 20.2131 20.6108 18.3231C20.631 18.2631 20.646 18.2016 20.6558 18.1364L21.9975 8.44488C22.0227 8.26272 21.9972 8.07713 21.9238 7.90853C21.8504 7.73993 21.7318 7.59486 21.5813 7.48926C21.4307 7.38367 21.2539 7.32165 21.0704 7.31003C20.8869 7.2984 20.7037 7.33762 20.541 7.42338L15.972 9.83088L13.0028 3.57213ZM18.9135 16.1346L19.749 10.1009L15.9818 12.0861C15.8625 12.1489 15.7318 12.187 15.5975 12.198C15.4631 12.209 15.3279 12.1928 15.2 12.1503C15.0721 12.1077 14.9541 12.0398 14.8531 11.9506C14.7521 11.8613 14.6702 11.7526 14.6123 11.6309L12.0683 6.26838L9.33002 11.6549C9.26984 11.7735 9.18659 11.8789 9.08516 11.9649C8.98373 12.051 8.86615 12.1159 8.73931 12.1559C8.61247 12.1959 8.47892 12.2102 8.34649 12.198C8.21405 12.1858 8.08538 12.1472 7.96802 12.0846L4.29452 10.1264L5.20427 16.1489C6.76052 15.2886 9.25727 14.7306 12.0728 14.7306C14.871 14.7306 17.3558 15.2819 18.9135 16.1346ZM17.3535 17.6061C17.9033 17.8311 18.261 18.0554 18.4688 18.2301C18.261 18.4056 17.9033 18.6299 17.3543 18.8549C16.1033 19.3671 14.2365 19.7301 12.0728 19.7301C9.90827 19.7301 8.04227 19.3671 6.79127 18.8549C6.24152 18.6299 5.88377 18.4049 5.67602 18.2301C5.88452 18.0554 6.24152 17.8311 6.79127 17.6061C8.04227 17.0939 9.90827 16.7301 12.0728 16.7301C14.2365 16.7301 16.1025 17.0939 17.3535 17.6061Z" fill="#18181B"/>
</svg>
