<svg viewBox="0 0 24 24" fill="none" xmlns="http://www.w3.org/2000/svg">
<path d="M8.22709 18.6999C9.19709 18.6999 9.97709 19.4799 9.97709 20.4499C9.97709 21.4199 9.19709 22.1999 8.22709 22.1999C7.25709 22.1999 6.47709 21.4199 6.47709 20.4499C6.47709 19.4799 7.25709 18.6999 8.22709 18.6999ZM15.7871 18.6999C16.7571 18.6999 17.5371 19.4799 17.5371 20.4499C17.5371 21.4199 16.7571 22.1999 15.7871 22.1999C14.8171 22.1999 14.0371 21.4199 14.0371 20.4499C14.0371 19.4799 14.8171 18.6999 15.7871 18.6999ZM16.3471 13.6999C17.1471 13.6999 17.8671 13.2299 18.1871 12.4899L20.5371 7.00986C20.8071 6.38986 20.7371 5.67986 20.3671 5.11986C19.9971 4.55986 19.3671 4.21986 18.6971 4.21986H6.49709L6.18709 3.07986C5.94709 2.20986 5.15709 1.60986 4.25709 1.60986H3.01709C2.46709 1.60986 2.01709 2.05986 2.01709 2.60986C2.01709 3.15986 2.46709 3.60986 3.01709 3.60986H4.25709L6.69709 12.5199L5.32709 14.6099C4.92709 15.2299 4.88709 16.0099 5.23709 16.6599C5.58709 17.3099 6.25709 17.7099 6.99709 17.7099H18.0171C18.5671 17.7099 19.0171 17.2599 19.0171 16.7099C19.0171 16.1599 18.5671 15.7099 18.0171 15.7099H6.99709L8.31709 13.6999H16.3471ZM8.01709 9.78986H9.91709L10.1571 11.6899H8.52709L8.00709 9.78986H8.01709ZM13.5471 9.78986L13.2571 11.6899H11.8771L11.6371 9.78986H13.5471ZM11.4171 8.08986L11.1771 6.21986H14.0971L13.8171 8.08986H11.4271H11.4171ZM14.9771 11.6999L15.2671 9.78986H17.1671L16.3471 11.6999H14.9771ZM17.8971 8.08986H15.5171L15.7971 6.21986H18.6871L17.8871 8.08986H17.8971ZM9.45709 6.22986L9.69709 8.09986H7.54709L7.03709 6.22986H9.45709Z" fill="#18181B"/>
</svg>
