<svg viewBox="0 0 24 24" fill="none" xmlns="http://www.w3.org/2000/svg">
<g clip-path="url(#clip0_2225_230)">
<path d="M22.6591 11.4084H19.7069C19.4234 7.56964 16.3722 4.51845 12.5335 4.23493V1.28275C12.5335 0.97223 12.2814 0.720215 11.9709 0.720215C11.6604 0.720215 11.4084 0.97223 11.4084 1.28275V4.23493C7.56964 4.51845 4.51845 7.56964 4.23493 11.4084H1.28275C0.97223 11.4084 0.720215 11.6604 0.720215 11.9709C0.720215 12.2814 0.97223 12.5335 1.28275 12.5335H4.23493C4.51845 16.3722 7.56964 19.4234 11.4084 19.7069V22.6591C11.4084 22.9696 11.6604 23.2216 11.9709 23.2216C12.2814 23.2216 12.5335 22.9696 12.5335 22.6591V19.7069C16.3722 19.4234 19.4234 16.3722 19.7069 12.5335H22.6591C22.9696 12.5335 23.2216 12.2814 23.2216 11.9709C23.2216 11.6604 22.9696 11.4084 22.6591 11.4084ZM12.5335 18.5773V16.7817C12.5335 16.4712 12.2814 16.2192 11.9709 16.2192C11.6604 16.2192 11.4084 16.4712 11.4084 16.7817V18.5773C8.19068 18.2983 5.64352 15.7512 5.3645 12.5335H7.16012C7.47064 12.5335 7.72265 12.2814 7.72265 11.9709C7.72265 11.6604 7.47064 11.4084 7.16012 11.4084H5.3645C5.64352 8.19068 8.19518 5.64352 11.4084 5.3645V7.16012C11.4084 7.47064 11.6604 7.72265 11.9709 7.72265C12.2814 7.72265 12.5335 7.47064 12.5335 7.16012V5.3645C15.7512 5.64352 18.2983 8.19518 18.5773 11.4084H16.7817C16.4712 11.4084 16.2192 11.6604 16.2192 11.9709C16.2192 12.2814 16.4712 12.5335 16.7817 12.5335H18.5773C18.2983 15.7512 15.7512 18.2983 12.5335 18.5773Z" fill="white"/>
<path fill-rule="evenodd" clip-rule="evenodd" d="M20.1583 10.9084H22.6591C23.2457 10.9084 23.7216 11.3843 23.7216 11.9709C23.7216 12.5576 23.2457 13.0335 22.6591 13.0335H20.1583C19.6751 16.7462 16.7462 19.6751 13.0335 20.1583V22.6591C13.0335 23.2457 12.5576 23.7216 11.9709 23.7216C11.3843 23.7216 10.9084 23.2457 10.9084 22.6591V20.1583C7.19565 19.6751 4.26678 16.7462 3.78349 13.0335H1.28275C0.696088 13.0335 0.220215 12.5576 0.220215 11.9709C0.220215 11.3843 0.696088 10.9084 1.28275 10.9084H3.78349C4.26678 7.19565 7.19565 4.26678 10.9084 3.78349V1.28275C10.9084 0.696088 11.3843 0.220215 11.9709 0.220215C12.5576 0.220215 13.0335 0.696088 13.0335 1.28275V3.78349C16.7462 4.26678 19.6751 7.19565 20.1583 10.9084ZM19.7069 11.4084C19.4234 7.56964 16.3722 4.51845 12.5335 4.23493V1.28275C12.5335 0.97223 12.2814 0.720215 11.9709 0.720215C11.6604 0.720215 11.4084 0.97223 11.4084 1.28275V4.23493C7.56964 4.51845 4.51845 7.56964 4.23493 11.4084H1.28275C0.97223 11.4084 0.720215 11.6604 0.720215 11.9709C0.720215 12.2814 0.97223 12.5335 1.28275 12.5335H4.23493C4.51845 16.3722 7.56964 19.4234 11.4084 19.7069V22.6591C11.4084 22.9696 11.6604 23.2216 11.9709 23.2216C12.2814 23.2216 12.5335 22.9696 12.5335 22.6591V19.7069C16.3722 19.4234 19.4234 16.3722 19.7069 12.5335H22.6591C22.9696 12.5335 23.2216 12.2814 23.2216 11.9709C23.2216 11.6604 22.9696 11.4084 22.6591 11.4084H19.7069ZM12.5335 18.5773C12.702 18.5627 12.8688 18.5419 13.0335 18.515C15.8472 18.0564 18.0564 15.8472 18.515 13.0335C18.5419 12.8688 18.5627 12.702 18.5773 12.5335H16.7817C16.4712 12.5335 16.2192 12.2814 16.2192 11.9709C16.2192 11.6604 16.4712 11.4084 16.7817 11.4084H18.5773C18.5627 11.2398 18.5418 11.0731 18.5149 10.9084C18.0561 8.0982 15.8469 5.88582 13.0335 5.42684C12.8688 5.39998 12.702 5.37912 12.5335 5.3645V7.16012C12.5335 7.47064 12.2814 7.72265 11.9709 7.72265C11.6604 7.72265 11.4084 7.47064 11.4084 7.16012V5.3645C11.2398 5.37914 11.0731 5.40002 10.9084 5.42691C8.0982 5.88576 5.88582 8.09489 5.42684 10.9084C5.39998 11.0731 5.37912 11.2398 5.3645 11.4084H7.16012C7.47064 11.4084 7.72265 11.6604 7.72265 11.9709C7.72265 12.2814 7.47064 12.5335 7.16012 12.5335H5.3645C5.37912 12.702 5.39997 12.8688 5.42681 13.0335C5.88543 15.8472 8.09468 18.0564 10.9084 18.515C11.0731 18.5419 11.2398 18.5627 11.4084 18.5773V16.7817C11.4084 16.4712 11.6604 16.2192 11.9709 16.2192C12.2814 16.2192 12.5335 16.4712 12.5335 16.7817V18.5773ZM13.0335 18.0079C15.57 17.5598 17.5598 15.57 18.0079 13.0335H16.7817C16.1951 13.0335 15.7192 12.5576 15.7192 11.9709C15.7192 11.3843 16.1951 10.9084 16.7817 10.9084H18.0077C17.5594 8.37498 15.5696 6.38247 13.0335 5.93402V7.16012C13.0335 7.74678 12.5576 8.22265 11.9709 8.22265C11.3843 8.22265 10.9084 7.74678 10.9084 7.16012V5.9341C8.37498 6.38245 6.38247 8.37225 5.93402 10.9084H7.16012C7.74678 10.9084 8.22265 11.3843 8.22265 11.9709C8.22265 12.5576 7.74678 13.0335 7.16012 13.0335H5.93397C6.38204 15.57 8.37181 17.5598 10.9084 18.0079V16.7817C10.9084 16.1951 11.3843 15.7192 11.9709 15.7192C12.5576 15.7192 13.0335 16.1951 13.0335 16.7817V18.0079Z" fill="white"/>
</g>
<defs>
<clipPath id="clip0_2225_230">
<rect width="24" height="24" fill="white"/>
</clipPath>
</defs>
</svg>
