<svg viewBox="0 0 24 24" fill="none" xmlns="http://www.w3.org/2000/svg">
<path d="M21.3543 14.0889C21.4693 13.8963 21.653 13.7545 21.8684 13.6922C22.0837 13.6298 22.3147 13.6516 22.5147 13.753C22.7147 13.8544 22.8688 14.028 22.9459 14.2387C23.0231 14.4494 23.0175 14.6816 22.9304 14.8884L22.718 15.3306C22.2025 16.3264 21.5504 17.0702 20.7932 17.5711C19.98 18.1095 19.0174 18.3763 18.0433 18.3331C16.719 18.2825 15.4452 17.7087 14.4665 16.8759C14.4949 17.4932 14.7092 18.1509 15.0772 18.7824C15.6635 19.7903 16.5016 20.4967 17.1466 20.7163L17.273 20.7537L17.3599 20.78C17.5672 20.8536 17.7396 21.0019 17.8435 21.1958C17.9475 21.3897 17.9756 21.6155 17.9223 21.829C17.8691 22.0426 17.7382 22.2286 17.5554 22.3509C17.3725 22.4731 17.1508 22.5228 16.9333 22.4903L16.8443 22.4721L16.6037 22.4022C15.4067 22.0055 14.2654 20.9096 13.5476 19.674C12.7722 18.3412 12.3364 16.5773 13.0623 14.9683L13.1432 14.8165C13.5577 14.1577 14.417 14.2447 14.8426 14.691L14.9265 14.7922L15.066 14.9744C15.7939 15.8659 16.9667 16.5196 18.1091 16.5632C18.714 16.5927 19.3125 16.4282 19.8176 16.0936C20.3514 15.7394 20.8831 15.1403 21.3138 14.1699L21.3543 14.0889ZM1.52516 13.7195C1.73954 13.6245 1.98284 13.6186 2.2016 13.703C2.42036 13.7874 2.59668 13.9554 2.69182 14.1699C3.1235 15.1413 3.65527 15.7384 4.18805 16.0916C4.71881 16.4417 5.30011 16.5814 5.89052 16.5571C7.02886 16.5126 8.19855 15.8588 8.92746 14.9653L9.06899 14.7831L9.15189 14.6819C9.57751 14.2356 10.4378 14.1476 10.8503 14.8054L10.9332 14.9592C11.6581 16.5682 11.2254 18.3321 10.453 19.6669C9.69074 20.9865 8.44624 22.1492 7.16029 22.4721C6.93265 22.5289 6.69176 22.493 6.4906 22.3721C6.28944 22.2512 6.1445 22.0553 6.08765 21.8274C6.03081 21.5996 6.06673 21.3584 6.1875 21.1571C6.30827 20.9557 6.504 20.8106 6.73164 20.7537C7.38877 20.5888 8.29864 19.8581 8.9224 18.7804C9.28837 18.1469 9.50169 17.4851 9.52898 16.8657C8.55138 17.6996 7.28059 18.2754 5.95926 18.328C4.98646 18.3727 4.02464 18.1069 3.21247 17.5691C2.34809 16.9973 1.61817 16.1088 1.07629 14.8884C0.980983 14.6738 0.974729 14.4301 1.05891 14.2109C1.14309 13.9917 1.3108 13.8149 1.52516 13.7195Z" fill="white"/>
<path d="M11.9998 1.5C13.2606 1.49968 14.5035 1.79911 15.6261 2.37365C16.7487 2.94819 17.7189 3.7814 18.4569 4.8047C19.1949 5.828 19.6796 7.01211 19.8709 8.25957C20.0623 9.50703 19.955 10.7821 19.5578 11.98L19.4385 12.3159C19.1516 13.0666 18.7528 13.7695 18.2556 14.4006L18.195 14.4684C18.0367 14.6292 17.8231 14.7234 17.5977 14.7318C17.3723 14.7402 17.1523 14.6621 16.9825 14.5135C16.8127 14.3649 16.7061 14.157 16.6843 13.9323C16.6626 13.7076 16.7274 13.4831 16.8656 13.3046L17.0071 13.1184C17.3266 12.6792 17.5894 12.1975 17.7855 11.6834L17.8786 11.4234C18.1905 10.4809 18.2716 9.47724 18.1152 8.49683C17.9588 7.51642 17.5694 6.58796 16.9798 5.78959C16.3902 4.99123 15.6177 4.34632 14.7271 3.90914C13.8366 3.47197 12.8542 3.25532 11.8626 3.27743C10.871 3.29954 9.89923 3.55977 9.02905 4.0362C8.15887 4.51264 7.41575 5.19134 6.86224 6.0152C6.30874 6.83905 5.96104 7.78395 5.84841 8.77035C5.73578 9.75676 5.86152 10.7558 6.21504 11.6834L6.30299 11.901C6.48699 12.3341 6.71951 12.742 6.99348 13.1174L7.13502 13.3036L7.18759 13.3775C7.305 13.5626 7.34965 13.7846 7.31289 14.0008C7.27613 14.2169 7.16057 14.4117 6.98859 14.5475C6.81661 14.6832 6.60044 14.7503 6.3819 14.7357C6.16337 14.7211 5.95802 14.6258 5.80559 14.4684L5.74494 14.3996L5.56498 14.1618C5.21027 13.6756 4.91181 13.1508 4.67533 12.5973L4.56211 12.3159C4.10098 11.109 3.93998 9.80789 4.09297 8.5248C4.24596 7.24171 4.70835 6.0151 5.4403 4.95069C6.17225 3.88628 7.1518 3.016 8.29453 2.41486C9.43725 1.81372 10.7089 1.49975 11.9998 1.5Z" fill="white"/>
<path d="M15.9355 8.98452C16.4238 8.98452 16.8191 9.3802 16.8201 9.86797V11.1937C16.8201 11.9132 16.2105 12.1955 16.0174 12.2653C15.7656 12.3564 15.5068 12.3787 15.3461 12.3787H14.1673C13.8771 12.3787 13.5253 12.3412 13.2231 12.1378C13.0065 11.9889 12.8435 11.7743 12.758 11.5256L12.4466 10.7565H11.5752L11.2294 11.5478L11.2274 11.5519C11.2133 11.5822 11.099 11.9041 10.7826 12.1247C10.4823 12.3352 10.1315 12.3787 9.82924 12.3787H8.65045C8.42158 12.3791 8.19428 12.3407 7.97816 12.2653C7.78608 12.1945 7.17647 11.9132 7.17647 11.1937V9.87101C7.17647 9.38122 7.57276 8.98554 8.06106 8.98452H15.9355Z" fill="white"/>
</svg>
