<svg viewBox="0 0 24 24" fill="none" xmlns="http://www.w3.org/2000/svg">
<path fill-rule="evenodd" clip-rule="evenodd" d="M9.91945 21.7833C10.5906 21.9253 11.2866 22 12 22C17.5228 22 22 17.5228 22 12C22 6.47715 17.5228 2 12 2C9.49543 2 7.20592 2.92075 5.45148 4.44222C5.43814 4.44094 5.4254 4.43985 5.4133 4.43895L5.4104 4.47804C3.31989 6.31091 2 9.00132 2 12C2 16.7817 5.35618 20.7796 9.84142 21.7664L9.85788 21.8079C9.87853 21.7997 9.89905 21.7915 9.91945 21.7833ZM20.5 12C20.5 12.169 20.4951 12.3368 20.4853 12.5033C20.3087 12.4378 20.0857 12.3458 19.8581 12.2434C19.7081 12.1759 19.5697 12.11 19.4589 12.054C19.2702 11.2103 18.8913 9.55819 18.6777 8.67295L19.3006 7.64415C20.0623 8.91801 20.5 10.4079 20.5 12ZM12.1888 20.4979C13.5432 20.4684 14.8197 20.1221 15.9469 19.5301C15.938 19.3739 15.8985 19.2389 15.8445 19.1244C15.0356 19.481 13.8749 19.8541 12.6496 20.0389C12.585 20.1148 12.5137 20.1924 12.4348 20.2711C12.3591 20.3465 12.2774 20.4221 12.1888 20.4979ZM9.7882 20.2094C10.4153 19.927 10.8376 19.6613 11.1258 19.4308C11.0247 19.3459 10.9227 19.2545 10.8213 19.158C10.3779 18.7362 9.90022 18.1741 9.53466 17.5549C8.51332 17.4502 7.67486 17.1983 7.04406 16.9174L6.09597 18.115C7.11498 19.099 8.37928 19.8307 9.7882 20.2094ZM20.2608 14.0105C19.8078 15.8786 18.7375 17.5056 17.2781 18.6632C17.2042 18.4708 17.1115 18.2984 17.0101 18.147C17.3437 17.2098 17.6632 15.6724 17.7479 15.0616C18.0474 14.8006 18.3145 14.5144 18.5453 14.2352C18.7382 14.002 18.9141 13.7636 19.0705 13.5324C19.1267 13.5587 19.1843 13.5851 19.2426 13.6113C19.5605 13.7544 19.9559 13.9181 20.2608 14.0105ZM7.17254 15.2957C6.95761 14.8962 6.7365 14.3501 6.54701 13.782C6.42051 13.4028 6.31999 13.05 6.24915 12.7639C6.6086 11.5937 7.51924 10.6579 8.139 10.1787C8.92016 10.3512 10.1412 10.6216 11.2538 10.9796L11.9723 14.0412C11.2981 14.8185 10.4838 15.5911 9.94704 16.0852C8.55324 15.9873 7.61495 15.5699 7.17254 15.2957ZM7.00164 7.1074C6.93669 7.70063 6.91019 8.42596 6.99526 9.17581C6.40617 9.67203 5.69788 10.4254 5.20361 11.3793C4.98776 11.3062 4.69963 11.1954 4.39086 11.066C4.15725 10.9682 3.93496 10.8697 3.76136 10.789C3.69318 10.7573 3.63884 10.7312 3.59713 10.7108C3.87073 8.9126 4.70779 7.29953 5.92256 6.05737C6.0723 6.09497 6.23916 6.14154 6.41311 6.19757C6.66585 6.27898 6.8974 6.36926 7.09387 6.46287C7.05869 6.65964 7.02688 6.87694 7.00164 7.1074ZM7.29644 4.9189C7.46642 4.98438 7.64149 5.05931 7.81297 5.14464C9.27663 4.33359 11.1904 3.96828 12.0044 3.88958C12.0992 3.75677 12.2035 3.62797 12.3117 3.50561C12.2082 3.50188 12.1043 3.5 12 3.5C10.2607 3.5 8.64337 4.02242 7.29644 4.9189ZM14.1591 5.40624C13.8986 5.14526 13.6133 4.87519 13.3258 4.62887C13.4132 4.52027 13.5151 4.40787 13.6265 4.29603C13.8308 4.09079 14.0385 3.91546 14.2048 3.78875C15.8245 4.22256 17.2534 5.12282 18.3387 6.33674L17.571 7.60463C17.1207 7.38915 16.6592 7.22373 16.2304 7.09798C15.9701 7.02165 15.7163 6.95829 15.4769 6.90653C15.4615 6.8793 15.4442 6.85278 15.425 6.82713C15.1649 6.47883 14.685 5.93313 14.1591 5.40624ZM17.2433 9.12342C17.4605 10.029 17.8265 11.6263 18.0039 12.4207C17.8357 12.6918 17.6281 12.9907 17.3894 13.2793C17.1271 13.5964 16.8475 13.8766 16.5624 14.0943C15.6131 13.9507 14.2011 13.646 13.3744 13.4503L12.7132 10.6331C13.2453 10.0199 14.1511 9.06019 14.866 8.31405C15.147 8.36529 15.47 8.43815 15.8082 8.53736C16.3028 8.68241 16.8033 8.87608 17.2433 9.12342ZM5.85203 16.0065L5.09678 16.9605C4.14983 15.645 3.56962 14.0478 3.50587 12.3188C3.60406 12.3617 3.70678 12.4058 3.81128 12.4495C4.09032 12.5664 4.41966 12.6978 4.71821 12.7982C4.80638 13.218 4.95291 13.7435 5.12408 14.2567C5.31701 14.8351 5.56748 15.4779 5.85203 16.0065ZM8.49273 7.27066C8.53321 6.90097 8.58984 6.60249 8.63672 6.4042C9.71148 5.8352 11.1218 5.51977 11.902 5.41202C12.2542 5.6656 12.6812 6.04887 13.0975 6.46591C13.3671 6.73608 13.6166 7.00448 13.8207 7.23688C13.142 7.94463 12.2572 8.8801 11.6765 9.54015C10.5032 9.1659 9.22317 8.88107 8.45897 8.71269C8.42369 8.20164 8.44546 7.70239 8.49273 7.27066ZM11.0375 17.1202C11.6062 16.5946 12.4616 15.7765 13.1743 14.9441C13.9656 15.1284 15.1898 15.3919 16.1396 15.5459C16.0123 16.1781 15.815 17.0088 15.6239 17.5676C15.0498 17.8731 13.8271 18.3398 12.4608 18.5503C12.4382 18.5376 12.4105 18.5208 12.3775 18.4991C12.2388 18.4081 12.0571 18.2633 11.8552 18.0712C11.5753 17.805 11.2847 17.4747 11.0375 17.1202Z" fill="white"/>
</svg>
