<svg viewBox="0 0 24 24" fill="none" xmlns="http://www.w3.org/2000/svg">
<path d="M3.18258 4.98947L4.46578 4.45895L4.46578 13.0137L2.13879 7.4621C1.74617 6.49579 2.2154 5.38737 3.18258 4.98947ZM21.8559 8.49474L17.1062 19.8347C16.8094 20.5453 16.1103 20.9811 15.3729 21C15.124 21 14.8654 20.9621 14.6164 20.8579L7.55885 17.9684C6.84065 17.6747 6.40015 16.9926 6.38099 16.2632C6.37142 16.0074 6.4193 15.7516 6.52464 15.5053L11.2744 4.16526C11.5712 3.44526 12.2799 3.00947 13.0268 3C13.2758 3 13.5248 3.04737 13.7642 3.1421L20.8122 6.03158C21.7889 6.42947 22.2581 7.5379 21.8559 8.49474ZM13.0459 4.89474L8.29621 16.2253L15.3346 19.1053H15.3442L20.0844 7.78421L13.0459 4.89474Z" fill="white"/>
<path d="M6.39057 4.89474C6.39057 3.85263 7.25242 3 8.30579 3H9.69432L6.39057 10.9011L6.39057 4.89474Z" fill="white"/>
<path fill-rule="evenodd" clip-rule="evenodd" d="M14.8842 10.3717C14.8565 10.2837 14.8221 10.1959 14.7792 10.1121C14.6953 9.94798 14.5264 9.69517 14.2077 9.54615C13.856 9.38164 13.5056 9.4269 13.2469 9.53231C12.6702 9.76731 12.3228 10.2043 12.2075 10.7015C12.1065 11.1373 12.2001 11.5399 12.3164 11.799L13.3284 14.0527L15.6643 13.1015C15.7219 13.0781 15.7769 13.0492 15.8288 13.0152C15.8299 13.0145 15.8341 13.0118 15.8407 13.0077C15.8806 12.9826 16.0082 12.9024 16.0845 12.8479C16.2002 12.7653 16.3667 12.6321 16.5066 12.4341C16.6566 12.222 16.7594 11.959 16.7708 11.6533C16.7817 11.3613 16.7075 11.0853 16.595 10.8347C16.4404 10.4904 16.123 10.2396 15.724 10.189C15.4161 10.15 15.1602 10.2444 15.0312 10.3002C14.9817 10.3216 14.9325 10.3457 14.8842 10.3717Z" fill="white"/>
</svg>
