<svg viewBox="0 0 24 24" fill="none" xmlns="http://www.w3.org/2000/svg">
<path d="M18.5458 6.9635L19.1565 8.49635C19.2201 8.65693 19.3346 8.73723 19.5 8.73723C19.6654 8.73723 19.7799 8.65693 19.8435 8.49635L20.4542 6.9635L21.7901 6.26277C21.93 6.18978 22 6.05839 22 5.86861C22 5.67883 21.93 5.54745 21.7901 5.47445L20.4542 4.77372L19.8435 3.24088C19.7799 3.08029 19.6654 3 19.5 3C19.3346 3 19.2201 3.08029 19.1565 3.24088L18.5458 4.77372L17.2099 5.47445C17.07 5.54745 17 5.67883 17 5.86861C17 6.05839 17.07 6.18978 17.2099 6.26277L18.5458 6.9635Z" fill="white"/>
<path d="M18.5458 19.2263L19.1565 20.7591C19.2201 20.9197 19.3346 21 19.5 21C19.6654 21 19.7799 20.9197 19.8435 20.7591L20.4542 19.2263L21.7901 18.5255C21.93 18.4526 22 18.3212 22 18.1314C22 17.9416 21.93 17.8102 21.7901 17.7372L20.4542 17.0365L19.8435 15.5036C19.7799 15.3431 19.6654 15.2628 19.5 15.2628C19.3346 15.2628 19.2201 15.3431 19.1565 15.5036L18.5458 17.0365L17.2099 17.7372C17.07 17.8102 17 17.9416 17 18.1314C17 18.3212 17.07 18.4526 17.2099 18.5255L18.5458 19.2263Z" fill="white"/>
<path d="M12.5008 8.5H7.81162C7.53905 8.5 7.31808 8.72096 7.31808 8.99354V9.99973C7.31808 10.2723 7.53905 10.4933 7.81162 10.4933H10.511V13.2114C10.511 13.3926 10.3336 13.755 9.80146 13.755C9.44244 13.755 9.2449 13.535 9.15436 13.3177C9.09146 13.1668 8.95935 13.0301 8.7958 13.0301H7.24831C6.98822 13.0301 6.76935 13.2334 6.80353 13.4912C6.92935 14.4403 7.63133 15.7482 9.80145 15.7482C12.3558 15.7482 12.9944 14.057 12.9944 13.2114V8.99354C12.9944 8.72096 12.7734 8.5 12.5008 8.5Z" fill="white"/>
<path fill-rule="evenodd" clip-rule="evenodd" d="M10 18C13.3137 18 16 15.3137 16 12C16 8.68629 13.3137 6 10 6C6.68629 6 4 8.68629 4 12C4 15.3137 6.68629 18 10 18ZM10 20C14.4183 20 18 16.4183 18 12C18 7.58172 14.4183 4 10 4C5.58172 4 2 7.58172 2 12C2 16.4183 5.58172 20 10 20Z" fill="white"/>
</svg>
