<svg viewBox="0 0 24 24" fill="none" xmlns="http://www.w3.org/2000/svg">
<path d="M19 2H16.72C16.36 1.38 15.71 1 15 1H9C8.29 1 7.64 1.38 7.28 2H5C3.9 2 3 2.9 3 4V20C3 21.1 3.9 22 5 22H19C20.1 22 21 21.1 21 20V4C21 2.9 20.1 2 19 2ZM15 3V4H9V3H15ZM19 20H5V4H7C7 5.1 7.9 6 9 6H15C16.1 6 17 5.1 17 4H19V20ZM16.03 9.95C16.43 10.33 16.44 10.97 16.05 11.36L11.92 15.64C11.49 16.08 10.78 16.09 10.35 15.64L7.95 13.21C7.56 12.82 7.57 12.18 7.95 11.8C8.33 11.42 8.98 11.42 9.36 11.8L11.11 13.57L14.6 9.96C14.98 9.57 15.6 9.55 16 9.93C16 9.93 16 9.93 16.01 9.94L16.03 9.95Z" fill="white"/>
</svg>
