<svg viewBox="0 0 24 24" fill="none" xmlns="http://www.w3.org/2000/svg">
<path fill-rule="evenodd" clip-rule="evenodd" d="M8.16501 4.803C7.99658 4.55203 7.86334 4.27916 7.76901 3.992C5.85141 4.94586 4.31239 6.51971 3.40167 8.45818C2.49095 10.3966 2.26198 12.586 2.7519 14.6709C3.24182 16.7559 4.42189 18.6141 6.10063 19.9441C7.77937 21.2741 9.85827 21.9978 12 21.9978C14.1417 21.9978 16.2206 21.2741 17.8994 19.9441C19.5781 18.6141 20.7582 16.7559 21.2481 14.6709C21.738 12.586 21.5091 10.3966 20.5983 8.45818C19.6876 6.51971 18.1486 4.94586 16.231 3.992C16.141 4.269 16.011 4.542 15.836 4.802L13.77 7.902L11.992 10.66L9.68801 7.09L8.16501 4.803ZM15.182 19.293C14.1863 19.76 13.0998 20.0014 12 20C10.8955 20.0018 9.80428 19.7586 8.80501 19.288L11.992 14.348L15.182 19.294V19.293ZM16.862 18.21C18.2688 17.0138 19.1841 15.3399 19.432 13.51H13.83L16.863 18.21H16.862ZM7.12401 6.802L10.161 11.509H4.56501C4.80804 9.67824 5.72006 8.00186 7.12401 6.802ZM10.154 13.509L7.12701 18.201C5.7259 17.005 4.81482 15.3345 4.56801 13.509H10.154ZM19.436 11.509H13.824L16.867 6.792C18.2776 7.99237 19.1922 9.67293 19.436 11.509Z" fill="white"/>
<path d="M13.3817 3.03667L12.0004 5L10.6183 3.03667C10.5476 2.93627 10.507 2.81956 10.5008 2.69901C10.4947 2.57846 10.5231 2.45858 10.5832 2.35216C10.6433 2.24574 10.7328 2.15677 10.8421 2.09475C10.9514 2.03273 11.0764 1.99998 11.2038 2H12.7962C12.9236 1.99998 13.0486 2.03273 13.1579 2.09475C13.2672 2.15677 13.3567 2.24574 13.4168 2.35216C13.4769 2.45858 13.5054 2.57846 13.4992 2.69901C13.493 2.81956 13.4524 2.93627 13.3817 3.03667Z" fill="white"/>
</svg>
