<svg viewBox="0 0 24 24" fill="none" xmlns="http://www.w3.org/2000/svg">
<path d="M11.5002 9C11.3267 9.00165 11.1555 9.03909 10.9972 9.10999C10.8389 9.18088 10.6969 9.2837 10.5802 9.412C10.4161 9.59336 10.2903 9.80592 10.2102 10.037C10.0642 10.44 10.0002 10.943 10.0002 11.5C10.0002 12.072 10.0762 12.577 10.2282 12.977C10.3032 13.174 10.4152 13.392 10.5842 13.578C10.7492 13.758 11.0572 14 11.5002 14H12.5002C12.8402 14 13.1762 13.88 13.4422 13.624C13.6792 13.394 13.7952 13.118 13.8582 12.906C13.9802 12.499 14.0002 11.991 14.0002 11.5C14.0002 10.943 13.9362 10.44 13.7902 10.037C13.7101 9.80592 13.5843 9.59336 13.4202 9.412C13.3035 9.2837 13.1615 9.18088 13.0032 9.10999C12.8449 9.03909 12.6736 9.00165 12.5002 9H11.5002Z" fill="white"/>
<path fill-rule="evenodd" clip-rule="evenodd" d="M10.3752 2.591C10.8232 2.28 11.3852 2 12.0002 2C12.6142 2 13.1762 2.28 13.6242 2.591C14.0902 2.915 14.5482 3.353 14.9772 3.838C15.8372 4.81 16.6752 6.08 17.3392 7.331C18.1362 8.834 18.0842 10.921 17.8452 12.801L17.8122 13.051C18.3572 13.153 18.9122 13.431 19.4052 13.938C20.1732 14.73 20.7252 16.009 20.9902 17.873C21.1552 19.034 21.1502 20.015 20.8252 20.747C20.6482 21.144 20.3742 21.477 19.9942 21.697C19.6516 21.8895 19.2642 21.9882 18.8712 21.983C18.1932 21.987 17.4492 21.75 16.7882 21.504C16.4322 21.3695 16.0781 21.2298 15.7262 21.085L15.7012 21.075C15.5312 21.005 15.3612 20.937 15.1912 20.869C15.0125 21.0127 14.8236 21.1434 14.6262 21.26C13.8293 21.729 12.9247 21.984 12.0002 22C11.0753 21.9841 10.1703 21.7292 9.37319 21.26C9.17609 21.1433 8.98761 21.0126 8.80919 20.869L8.29919 21.075L8.27419 21.085C7.91819 21.23 7.55819 21.375 7.21219 21.505C6.55219 21.75 5.80719 21.987 5.12919 21.983C4.7363 21.9885 4.34893 21.8901 4.00619 21.698C3.63548 21.4777 3.34471 21.1449 3.17619 20.748C2.85019 20.015 2.84619 19.034 3.01019 17.873C3.27519 16.009 3.82719 14.73 4.59519 13.938C5.08819 13.431 5.64219 13.153 6.18819 13.05C6.17678 12.9671 6.16578 12.8841 6.15519 12.801C5.91519 10.921 5.86419 8.834 6.66119 7.331C7.32519 6.08 8.16319 4.811 9.02319 3.838C9.45219 3.353 9.90919 2.915 10.3752 2.591ZM10.5212 5.162C9.79019 5.99 9.03719 7.12 8.42819 8.27C7.95219 9.167 7.90119 10.68 8.13819 12.55C8.32019 13.977 8.64319 15.44 8.93219 16.75C9.01219 17.11 9.08819 17.46 9.15919 17.794C9.34819 18.683 9.84019 19.213 10.3942 19.541C10.9772 19.887 11.6232 20.001 12.0002 20.001C12.3772 20.001 13.0232 19.887 13.6062 19.541C14.1592 19.213 14.6522 18.683 14.8412 17.794C14.9112 17.46 14.9882 17.111 15.0682 16.75C15.3562 15.441 15.6792 13.977 15.8612 12.55C16.0992 10.68 16.0472 9.167 15.5712 8.27C14.9632 7.121 14.2102 5.99 13.4782 5.163C13.1112 4.748 12.7732 4.436 12.4832 4.235C12.1762 4.02 12.0212 4 12.0002 4C11.9782 4 11.8232 4.02 11.5162 4.234C11.2262 4.435 10.8882 4.747 10.5212 5.162ZM17.0112 17.229C17.1612 16.55 17.3262 15.8 17.4782 15.024C17.6222 15.058 17.7892 15.146 17.9702 15.331C18.3272 15.699 18.7752 16.505 19.0102 18.155C19.1652 19.247 19.0802 19.747 18.9972 19.935C18.9916 19.9474 18.9853 19.9594 18.9782 19.971C18.9391 19.9797 18.8992 19.9838 18.8592 19.983C18.5822 19.985 18.1442 19.875 17.4852 19.63C17.1479 19.5022 16.8126 19.3696 16.4792 19.232L16.4652 19.227C16.6124 18.9 16.7237 18.558 16.7972 18.207C16.8612 17.904 16.9352 17.576 17.0112 17.229ZM7.20319 18.208C7.28219 18.579 7.39519 18.918 7.53519 19.227L7.52119 19.232C7.16119 19.378 6.82819 19.513 6.51519 19.63C5.85619 19.875 5.41819 19.985 5.14119 19.983C5.10085 19.9839 5.06056 19.9798 5.02119 19.971C5.01444 19.9594 5.00843 19.9474 5.00319 19.935C4.91919 19.747 4.83519 19.247 4.99019 18.155C5.22519 16.505 5.67419 15.699 6.03019 15.331C6.21019 15.146 6.37819 15.059 6.52219 15.024C6.67419 15.8 6.84019 16.55 6.98919 17.229C7.06619 17.576 7.13919 17.904 7.20319 18.208Z" fill="white"/>
</svg>
