<svg viewBox="0 0 24 24" fill="none" xmlns="http://www.w3.org/2000/svg">
<path fill-rule="evenodd" clip-rule="evenodd" d="M3.06092 2C2.475 2 2 2.47011 2 3.05C2 3.6299 2.475 4.1 3.06092 4.1H3.75974L6.68435 11.8187C6.70479 11.8726 6.72943 11.9243 6.75777 11.9731L5.71322 14.0408C5.09599 15.2624 5.99366 16.7 7.37383 16.7H18.9747C19.5607 16.7 20.0357 16.2299 20.0357 15.65C20.0357 15.0701 19.5607 14.6 18.9747 14.6H7.80298L8.86388 12.5H16.9575C17.5782 12.5 18.1579 12.193 18.5023 11.6817L21.6851 6.95677C22.5076 5.73564 21.6231 4.1 20.1403 4.1H6.02587L5.48833 2.68132C5.33304 2.2715 4.93719 2 4.49496 2H3.06092ZM8.41294 10.4L6.82156 6.2H19.6446L16.8155 10.4H8.41294Z" fill="white"/>
<path d="M8.36553 23C7.12212 21.7694 6.56181 20.4636 6.35103 19.578C6.25026 19.1547 6.59993 18.8 7.03938 18.8H9.69168C10.1311 18.8 10.4884 19.1561 10.3892 19.5798C10.0568 21.0009 8.96075 22.5582 8.36553 23Z" fill="white"/>
<path d="M15.5267 18.8C15.0873 18.8 14.7376 19.1547 14.8384 19.578C15.0492 20.4636 15.6095 21.7694 16.8529 23C17.4481 22.5582 18.5442 21.0009 18.8766 19.5798C18.9758 19.1561 18.6185 18.8 18.179 18.8H15.5267Z" fill="white"/>
</svg>
