<svg viewBox="0 0 24 24" fill="none" xmlns="http://www.w3.org/2000/svg">
<path fill-rule="evenodd" clip-rule="evenodd" d="M14.8169 6.92958C14.2192 6.92958 13.646 7.167 13.2234 7.58962C12.8008 8.01223 12.5634 8.58543 12.5634 9.1831C12.5634 9.78077 12.8008 10.354 13.2234 10.7766C13.646 11.1992 14.2192 11.4366 14.8169 11.4366C15.4146 11.4366 15.9878 11.1992 16.4104 10.7766C16.833 10.354 17.0704 9.78077 17.0704 9.1831C17.0704 8.58543 16.833 8.01223 16.4104 7.58962C15.9878 7.167 15.4146 6.92958 14.8169 6.92958ZM14.8169 8.61972C14.6675 8.61972 14.5242 8.67907 14.4185 8.78473C14.3129 8.89038 14.2535 9.03368 14.2535 9.1831C14.2535 9.33252 14.3129 9.47581 14.4185 9.58147C14.5242 9.68712 14.6675 9.74648 14.8169 9.74648C14.9663 9.74648 15.1096 9.68712 15.2153 9.58147C15.3209 9.47581 15.3803 9.33251 15.3803 9.1831C15.3803 9.03368 15.3209 8.89038 15.2153 8.78473C15.1096 8.67907 14.9663 8.61972 14.8169 8.61972Z" fill="white"/>
<path fill-rule="evenodd" clip-rule="evenodd" d="M21.1555 2C18.8038 1.99831 16.4849 2.55292 14.3884 3.61856C12.4524 4.6026 10.7567 5.99664 9.41807 7.70122C8.63959 7.58716 7.84523 7.61563 7.07411 7.7869C6.11965 7.9989 5.22555 8.42416 4.45881 9.03082C3.69207 9.63748 3.07257 10.4098 2.64675 11.2899C2.22093 12.17 1.99982 13.1351 2 14.1128C2.00009 14.5795 2.37841 14.9577 2.84507 14.9577H6.67806C6.94969 15.4072 7.8028 16.5092 9.04225 17.322V21.1549C9.04225 21.6216 9.42053 21.9999 9.8872 22C10.8648 22.0001 11.8298 21.779 12.7098 21.3533C13.5898 20.9275 14.3621 20.3081 14.9687 19.5415C15.5753 18.7749 16.0006 17.881 16.2127 16.9266C16.384 16.1556 16.4126 15.3613 16.2987 14.5829C18.0034 13.2441 19.3976 11.5483 20.3817 9.61208C21.4473 7.51539 22.0019 5.19636 22 2.84441C21.9996 2.37819 21.6218 2.00034 21.1555 2ZM14.872 13.5433L14.8733 13.5423C16.5589 12.3145 17.9301 10.7053 18.875 8.84629C19.6877 7.24721 20.1651 5.50226 20.2817 3.71834C18.498 3.83503 16.7532 4.31251 15.1543 5.12523C13.2954 6.07008 11.6864 7.44122 10.4586 9.12668L10.4577 9.12802C9.35608 10.6341 8.58653 12.3565 8.20101 14.1808C8.4847 14.4995 9.20603 15.2691 9.82183 15.7984C11.6457 15.4129 13.3665 14.6444 14.872 13.5433ZM8.30422 9.32611C8.01445 9.33668 7.72537 9.37358 7.44057 9.43684C6.7351 9.59353 6.07424 9.90785 5.50752 10.3563C4.9408 10.8047 4.48291 11.3755 4.16817 12.026C3.9772 12.4207 3.84193 12.8386 3.76511 13.2676H6.67806C7.02805 11.8812 7.5763 10.5538 8.30422 9.32611ZM14.5628 16.56C14.6261 16.2753 14.663 15.9864 14.6736 15.6968C13.446 16.4245 12.1188 16.9723 10.7324 17.322V20.2348C11.1613 20.158 11.5791 20.0228 11.9737 19.8319C12.6241 19.5172 13.1949 19.0594 13.6433 18.4927C14.0917 17.9261 14.4061 17.2654 14.5628 16.56Z" fill="white"/>
<path fill-rule="evenodd" clip-rule="evenodd" d="M5.92788 15.8525C6.20637 16.2271 6.12853 16.7564 5.75401 17.0349C5.26007 17.4022 4.87603 17.8977 4.64348 18.4676C4.49534 18.8307 4.41227 19.2151 4.3963 19.6036C4.78479 19.5875 5.1693 19.5044 5.53237 19.3562C6.1023 19.1235 6.5977 18.7393 6.96492 18.2452C7.24333 17.8706 7.77268 17.7926 8.14727 18.071C8.52186 18.3495 8.59983 18.8788 8.32143 19.2534C7.77025 19.995 7.02666 20.5717 6.17121 20.9209C5.31576 21.2702 4.38106 21.3787 3.46834 21.2348C3.10634 21.1777 2.82239 20.8938 2.76525 20.5318C2.62119 19.6192 2.72955 18.6845 3.0786 17.8291C3.42765 16.9736 4.00408 16.23 4.74548 15.6787C5.12 15.4002 5.64938 15.478 5.92788 15.8525Z" fill="white"/>
</svg>
