<svg viewBox="0 0 24 24" fill="none" xmlns="http://www.w3.org/2000/svg">
<path fill-rule="evenodd" clip-rule="evenodd" d="M20 2H17C17 1.45 16.55 1 16 1C15.45 1 15 1.45 15 2H9C9 1.45 8.55 1 8 1C7.45 1 7 1.45 7 2H4C2.9 2 2 2.9 2 4V20C2 21.1 2.9 22 4 22H20C21.1 22 22 21.1 22 20V4C22 2.9 21.1 2 20 2ZM7 4V5C7 5.55 7.45 6 8 6C8.55 6 9 5.55 9 5V4H15V5C15 5.55 15.45 6 16 6C16.55 6 17 5.55 17 5V4H20V8H4V4H7ZM4 20V10H20V20H4ZM17.5 14H14.5C14.22 14 14 14.22 14 14.5V17.5C14 17.78 14.22 18 14.5 18H17.5C17.78 18 18 17.78 18 17.5V14.5C18 14.22 17.78 14 17.5 14Z" fill="white"/>
</svg>
