<svg viewBox="0 0 24 24" fill="none" xmlns="http://www.w3.org/2000/svg">
<path d="M12 2C6.49 2 2 6.49 2 12C2 17.51 6.49 22 12 22C17.51 22 22 17.51 22 12C22 6.49 17.51 2 12 2ZM19.06 14.04L19.98 12.45C19.93 13.26 19.77 14.04 19.49 14.78L19.06 14.04ZM4.94 9.96L4.03 11.54C4.08 10.73 4.24 9.95 4.52 9.22L4.95 9.96H4.94ZM10.24 17.14H6.67L4.88 14.05L6.66 10.96H10.23L12.01 14.05L11.66 14.66L10.23 17.14H10.24ZM10.67 19.88C9.87 19.75 9.11 19.49 8.41 19.14H10.24L10.67 19.88ZM11.97 9.95L13.75 6.86H17.32L19.1 9.95L17.31 13.04H13.74L11.96 9.95H11.97ZM13.76 4.86L13.33 4.12C14.13 4.25 14.89 4.51 15.59 4.86H13.76ZM10.99 4.07L12.02 5.86L10.24 8.95H6.67L5.64 7.17C6.91 5.5 8.81 4.35 10.99 4.07ZM13.01 19.93L11.97 18.14L13.69 15.16L13.76 15.04H17.33L18.36 16.83C17.09 18.5 15.19 19.65 13.01 19.93Z" fill="white"/>
</svg>
