<svg viewBox="0 0 24 24" fill="none" xmlns="http://www.w3.org/2000/svg">
<path d="M21 20H4V3C4 2.45 3.55 2 3 2C2.45 2 2 2.45 2 3V20C2 21.1 2.9 22 4 22H21C21.55 22 22 21.55 22 21C22 20.45 21.55 20 21 20ZM6.75 14.66L9.96 11.05L12.49 14.21C13.18 15.07 14.44 15.21 15.3 14.52C15.38 14.45 15.46 14.38 15.53 14.31L19 10.52V10.99C19 11.54 19.45 11.99 20 11.99C20.55 11.99 21 11.54 21 10.99V7.99C21 7.44 20.55 6.99 20 6.99H17C16.45 6.99 16 7.44 16 7.99C16 8.54 16.45 8.99 17 8.99H17.68L14.05 12.95L11.52 9.79C10.83 8.93 9.57 8.78 8.71 9.47C8.62 9.54 8.54 9.62 8.46 9.71L5.25 13.32C4.88 13.73 4.92 14.36 5.33 14.73C5.74 15.1 6.37 15.06 6.74 14.65L6.75 14.66Z" fill="white"/>
</svg>
