<svg viewBox="0 0 24 24" fill="none" xmlns="http://www.w3.org/2000/svg">
<path fill-rule="evenodd" clip-rule="evenodd" d="M14.7405 2.38017C13.8696 2.13255 12.9503 2 12 2C6.47715 2 2 6.47715 2 12C2 17.5228 6.47715 22 12 22C17.5228 22 22 17.5228 22 12C22 11.0497 21.8674 10.1304 21.6198 9.25952C21.1933 9.52243 20.7242 9.72307 20.2254 9.84874C20.3437 10.3022 20.4254 10.7704 20.4674 11.25H18.9603C18.9142 10.8175 18.8288 10.3969 18.7076 9.99159C18.075 9.95512 17.474 9.80104 16.926 9.55089C17.2934 10.2884 17.5 11.1201 17.5 12C17.5 15.0376 15.0376 17.5 12 17.5C8.96243 17.5 6.5 15.0376 6.5 12C6.5 8.96243 8.96243 6.5 12 6.5C12.8799 6.5 13.7116 6.70664 14.4491 7.07403C14.199 6.52603 14.0449 5.92498 14.0084 5.29239C13.6031 5.17122 13.1825 5.08577 12.75 5.03971V3.53263C13.2296 3.57456 13.6978 3.65633 14.1513 3.77459C14.2769 3.27576 14.4776 2.80673 14.7405 2.38017ZM20.4674 12.75C20.3114 14.5338 19.6045 16.1597 18.5177 17.4565L17.452 16.3908C18.2728 15.3729 18.8143 14.1206 18.9603 12.75H20.4674ZM16.3914 17.4515L17.4571 18.5172C16.1602 19.6042 14.5341 20.3114 12.75 20.4674V18.9603C14.1209 18.8143 15.3735 18.2725 16.3914 17.4515ZM3.53263 11.25C3.68859 9.46613 4.39557 7.8402 5.48239 6.54343L6.54808 7.60911C5.72728 8.62696 5.1857 9.87938 5.03971 11.25H3.53263ZM7.6087 6.54841L6.54302 5.48273C7.83986 4.39572 9.46594 3.6886 11.25 3.53263V5.03971C9.87919 5.18572 8.62661 5.72743 7.6087 6.54841ZM6.54316 18.5174C7.83998 19.6043 9.466 20.3114 11.25 20.4674V18.9603C9.87925 18.8143 8.62673 18.2726 7.60884 17.4517L6.54316 18.5174ZM6.54819 16.391C5.72733 15.3732 5.18571 14.1207 5.03971 12.75H3.53263C3.68859 14.5339 4.39562 16.1599 5.48251 17.4567L6.54819 16.391Z" fill="white"/>
<path d="M10.941 10.0819C10.7886 10.2407 10.75 10.4232 10.75 10.5C10.75 10.5768 10.7886 10.7593 10.941 10.9181C11.0752 11.0579 11.3661 11.25 12 11.25C12.9661 11.25 13.6752 11.5579 14.141 12.0431C14.5886 12.5093 14.75 13.0768 14.75 13.5C14.75 13.9232 14.5886 14.4907 14.141 14.9569C13.8054 15.3065 13.3434 15.5641 12.75 15.6807V16C12.75 16.4142 12.4142 16.75 12 16.75C11.5858 16.75 11.25 16.4142 11.25 16V15.6805C10.2772 15.4888 9.69013 14.925 9.4203 14.2955C9.2571 13.9148 9.43342 13.4739 9.81413 13.3107C10.1948 13.1475 10.6358 13.3238 10.799 13.7045C10.8473 13.8173 10.9359 13.9428 11.0975 14.0444C11.2597 14.1464 11.5367 14.25 12 14.25C12.6339 14.25 12.9248 14.0579 13.059 13.9181C13.2114 13.7593 13.25 13.5768 13.25 13.5C13.25 13.4232 13.2114 13.2407 13.059 13.0819C12.9248 12.9421 12.6339 12.75 12 12.75C11.0339 12.75 10.3248 12.4421 9.85896 11.9569C9.41137 11.4907 9.25 10.9232 9.25 10.5C9.25 10.0768 9.41137 9.50934 9.85896 9.0431C10.1946 8.69347 10.6566 8.43591 11.25 8.31927V8C11.25 7.58579 11.5858 7.25 12 7.25C12.4142 7.25 12.75 7.58579 12.75 8V8.31951C13.7228 8.5112 14.3099 9.07504 14.5797 9.7045C14.7429 10.0852 14.5666 10.5261 14.1859 10.6893C13.8052 10.8525 13.3642 10.6762 13.201 10.2955C13.1527 10.1827 13.0641 10.0572 12.9025 9.95557C12.7403 9.8536 12.4633 9.75 12 9.75C11.3661 9.75 11.0752 9.94212 10.941 10.0819Z" fill="white"/>
<path d="M22 5C22 6.65685 20.6569 8 19 8C17.3431 8 16 6.65685 16 5C16 3.34315 17.3431 2 19 2C20.6569 2 22 3.34315 22 5Z" fill="white"/>
</svg>
