<svg viewBox="0 0 24 24" fill="none" xmlns="http://www.w3.org/2000/svg">
<path fill-rule="evenodd" clip-rule="evenodd" d="M2.28456 2.98557C2.28456 2.44125 2.71953 2 3.2561 2H6.17073C6.42323 2 6.66581 2.09972 6.84707 2.27803L12 7.34693L17.1529 2.27803C17.3342 2.09972 17.5768 2 17.8293 2H20.7439C21.2805 2 21.7154 2.44125 21.7154 2.98557V6.33052C21.7154 6.59717 21.6089 6.85243 21.4202 7.03806L16.5531 11.8258L19.4771 14.7021L19.4312 14.7502L20.3415 13.8268C20.7209 13.4419 21.336 13.4419 21.7154 13.8268C22.0949 14.2117 22.0949 14.8357 21.7154 15.2206L19.2032 17.7691L21.7154 20.3175C22.0949 20.7024 22.0949 21.3264 21.7154 21.7113C21.336 22.0962 20.7209 22.0962 20.3415 21.7113L17.8293 19.1629L15.3171 21.7113C14.9376 22.0962 14.3225 22.0962 13.9431 21.7113C13.5637 21.3264 13.5637 20.7024 13.9431 20.3175L14.9948 19.2506L12 16.3047L9.0052 19.2506L10.0569 20.3175C10.4363 20.7024 10.4363 21.3264 10.0569 21.7113C9.6775 22.0962 9.06235 22.0962 8.68294 21.7113L6.17073 19.1629L3.65853 21.7113C3.27912 22.0962 2.66397 22.0962 2.28456 21.7113C1.90515 21.3264 1.90515 20.7024 2.28456 20.3175L4.79676 17.7691L2.28456 15.2206C1.90515 14.8357 1.90515 14.2117 2.28456 13.8268C2.66397 13.4419 3.27912 13.4419 3.65853 13.8268L4.56887 14.7503L4.52286 14.7021L7.44688 11.8258L2.57977 7.03806C2.39106 6.85243 2.28456 6.59717 2.28456 6.33052V2.98557ZM8.84248 10.453L10.6044 8.71977L5.77704 3.97113H4.22765V5.91338L8.84248 10.453ZM5.89626 16.0968L7.63107 17.8567L19.7724 5.91337V3.97113H18.223L5.89626 16.0968ZM13.3956 14.9318L16.3689 17.8567L18.1037 16.0968L15.1575 13.1986L13.3956 14.9318Z" fill="white"/>
</svg>
