<svg width="72" height="72" viewBox="0 0 72 72" fill="none" xmlns="http://www.w3.org/2000/svg">
<path d="M65.8462 32.7374C61.4812 31.9116 57.3525 27.7829 57.9802 22.5516C58.1377 21.2151 57.1545 20.1149 55.8203 20.2319C48.2287 20.9001 41.8185 14.5686 42.291 6.97939C42.3697 5.99614 41.7397 5.09164 40.797 4.93414C19.0103 1.43539 4.5 19.7211 4.5 36.0404C4.5 53.4216 18.5783 67.4999 35.9595 67.4999C53.892 67.4999 68.2065 52.5171 67.3808 34.5846C67.3403 33.7206 66.7102 32.8949 65.8462 32.7374ZM23.1795 45.8706C22.5214 45.8902 21.866 45.7775 21.2522 45.5391C20.6385 45.3007 20.0788 44.9416 19.6065 44.4829C19.1341 44.0242 18.7587 43.4753 18.5024 42.8688C18.2461 42.2623 18.1142 41.6105 18.1145 40.9521C18.1148 40.2936 18.2473 39.642 18.5042 39.0357C18.761 38.4295 19.1369 37.8809 19.6097 37.4227C20.0825 36.9644 20.6425 36.6057 21.2564 36.3679C21.8704 36.1301 22.5259 36.0179 23.184 36.0381C24.4621 36.0774 25.6747 36.6129 26.5647 37.531C27.4547 38.4492 27.9521 39.6779 27.9515 40.9566C27.9509 42.2353 27.4524 43.4635 26.5615 44.3809C25.6707 45.2982 24.4576 45.8326 23.1795 45.8706ZM31.0432 30.1431C30.3973 30.1428 29.7578 30.0153 29.1612 29.7679C28.5646 29.5204 28.0225 29.1579 27.566 28.701C27.1095 28.244 26.7474 27.7016 26.5005 27.1048C26.2536 26.5079 26.1267 25.8683 26.127 25.2224C26.1273 24.5765 26.2548 23.937 26.5023 23.3403C26.7497 22.7437 27.1123 22.2017 27.5692 21.7451C28.0261 21.2886 28.5685 20.9266 29.1653 20.6797C29.7622 20.4328 30.4018 20.3058 31.0477 20.3061C32.3337 20.3342 33.5575 20.865 34.4568 21.7846C35.3561 22.7042 35.8594 23.9395 35.8588 25.2257C35.8582 26.512 35.3538 27.7468 34.4536 28.6656C33.5535 29.5844 32.3292 30.114 31.0432 30.1409V30.1431ZM45.7897 48.8204C45.0098 48.8145 44.2635 48.5021 43.7121 47.9506C43.1606 47.3991 42.8481 46.6528 42.8423 45.8729C42.8423 44.2596 44.1787 42.9231 45.7897 42.9231C47.403 42.9231 48.7395 44.2596 48.7395 45.8706C48.7398 46.2579 48.6638 46.6414 48.5158 46.9993C48.3678 47.3572 48.1507 47.6824 47.877 47.9563C47.6033 48.2302 47.2782 48.4475 46.9205 48.5958C46.5627 48.7441 46.1793 48.8204 45.792 48.8204H45.7897Z" fill="url(#paint0_linear_2223_540)"/>
<defs>
<linearGradient id="paint0_linear_2223_540" x1="35.9572" y1="4.49989" x2="35.9572" y2="67.4999" gradientUnits="userSpaceOnUse">
<stop stop-color="#FFFE7A"/>
<stop offset="1" stop-color="#FFA001"/>
</linearGradient>
</defs>
</svg>
