<svg width="72" height="72" viewBox="0 0 72 72" fill="none" xmlns="http://www.w3.org/2000/svg">
<path fill-rule="evenodd" clip-rule="evenodd" d="M63 36C63 50.9117 50.9117 63 36 63C21.0883 63 9 50.9117 9 36C9 21.0883 21.0883 9 36 9C50.9117 9 63 21.0883 63 36ZM36 60C49.2548 60 60 49.2548 60 36C60 22.7452 49.2548 12 36 12C22.7452 12 12 22.7452 12 36C12 49.2548 22.7452 60 36 60Z" fill="white"/>
<path d="M38.7 21.4891C39.4456 21.4891 40.05 20.876 40.05 20.1196C40.05 19.3632 39.4456 18.75 38.7 18.75H33.3C32.5544 18.75 31.95 19.3632 31.95 20.1196C31.95 20.876 32.5544 21.4891 33.3 21.4891L38.7 21.4891Z" fill="#FDD835"/>
<path d="M34.65 36.5543C34.65 37.3107 35.2544 37.9239 36 37.9239C36.7456 37.9239 37.35 37.3107 37.35 36.5543V29.7065C37.35 28.9501 36.7456 28.337 36 28.337C35.2544 28.337 34.65 28.9501 34.65 29.7065V36.5543Z" fill="#FDD835"/>
<path fill-rule="evenodd" clip-rule="evenodd" d="M36 50.25C43.4558 50.25 49.5 44.1182 49.5 36.5543C49.5 33.2657 48.3574 30.2478 46.4531 27.8869L47.7547 26.5664C48.2819 26.0315 48.2819 25.1643 47.7547 24.6295C47.2275 24.0947 46.3727 24.0947 45.8455 24.6295L44.5439 25.95C42.2167 24.0179 39.2418 22.8587 36 22.8587C28.5442 22.8587 22.5 28.9904 22.5 36.5543C22.5 44.1182 28.5442 50.25 36 50.25ZM46.8 36.5543C46.8 42.6055 41.9647 47.5109 36 47.5109C30.0353 47.5109 25.2 42.6055 25.2 36.5543C25.2 30.5032 30.0353 25.5978 36 25.5978C41.9647 25.5978 46.8 30.5032 46.8 36.5543Z" fill="#FDD835"/>
</svg>
