<svg width="72" height="72" viewBox="0 0 72 72" fill="none" xmlns="http://www.w3.org/2000/svg">
<g clip-path="url(#clip0_2223_550)">
<path d="M53.7001 41.0901H31.7001C31.4825 40.9772 31.2445 40.9092 31.0001 40.8901L42.2801 34.5901C43.2931 34.033 44.0433 33.0964 44.3658 31.9862C44.6884 30.8761 44.5568 29.6833 44.0001 28.6701L42.7601 26.4601C42.4849 25.9596 42.1122 25.5194 41.6638 25.1656C41.2155 24.8118 40.7008 24.5515 40.1501 24.4001C39.6005 24.2423 39.0252 24.1946 38.4572 24.2598C37.8891 24.325 37.3396 24.5018 36.8401 24.7801L32.9201 27.0001C33.8158 24.8009 33.953 22.366 33.3101 20.0801C32.8433 18.4471 31.7988 17.0395 30.3711 16.1197C28.9434 15.1998 27.23 14.8303 25.5501 15.0801C24.5177 15.1514 23.5125 15.4426 22.6019 15.9341C21.6913 16.4256 20.8962 17.1062 20.2701 17.9301C17.6701 21.3001 17.8801 26.6901 18.0901 28.9301L17.2401 29.4301C15.0001 27.6301 8.6601 23.4901 3.1001 27.0801C1.62486 28.0644 0.578248 29.5721 0.171736 31.2984C-0.234775 33.0246 0.029119 34.8409 0.910099 36.3801C1.60863 37.6445 2.59935 38.7235 3.79964 39.5271C4.99992 40.3308 6.37497 40.8358 7.8101 41.0001L3.6401 43.3401C2.64084 43.9107 1.90769 44.8533 1.60048 45.9622C1.29327 47.0712 1.43692 48.2566 2.0001 49.2601L3.2401 51.4701C3.51706 51.9692 3.89041 52.4083 4.33845 52.7619C4.7865 53.1155 5.30032 53.3766 5.8501 53.5301C6.2242 53.6375 6.61092 53.6946 7.0001 53.7001C7.74007 53.6994 8.46717 53.5064 9.1101 53.1401L14.6801 50.0001V66.6501C14.6801 67.5687 15.0443 68.4497 15.6929 69.1002C16.3415 69.7507 17.2215 70.1174 18.1401 70.1201H53.7001C54.6196 70.1174 55.5007 69.751 56.1508 69.1008C56.801 68.4506 57.1675 67.5696 57.1701 66.6501V44.5601C57.1701 43.6398 56.8045 42.7572 56.1538 42.1064C55.503 41.4557 54.6204 41.0901 53.7001 41.0901ZM20.0501 43.7801L17.2801 39.0001L25.8101 34.2301L28.5901 39.0001L20.0501 43.7801ZM22.8701 29.7801C23.0103 29.8126 23.1419 29.875 23.2558 29.963C23.3697 30.051 23.4633 30.1626 23.5301 30.2901L24.4001 31.7901L15.8601 36.5601L15.0601 35.1701C14.9886 35.0468 14.9423 34.9106 14.9237 34.7693C14.9052 34.628 14.9148 34.4844 14.9519 34.3468C14.9891 34.2092 15.0532 34.0804 15.1404 33.9677C15.2276 33.8549 15.3363 33.7606 15.4601 33.6901L22.0501 29.8901C22.1672 29.8059 22.3011 29.748 22.4426 29.7203C22.5841 29.6927 22.73 29.6961 22.8701 29.7301V29.7801ZM39.4301 43.9801V67.2801H32.5801V43.9301L39.4301 43.9801ZM38.2201 27.2601C38.4424 27.1335 38.6943 27.0679 38.9501 27.0701C39.0922 27.0704 39.2336 27.0905 39.3701 27.1301C39.5596 27.1831 39.7366 27.2732 39.8911 27.3951C40.0456 27.5169 40.1744 27.6682 40.2701 27.8401L41.5101 30.0501C41.7045 30.4006 41.7527 30.8137 41.6441 31.1995C41.5355 31.5853 41.2788 31.9125 40.9301 32.1101L31.0601 37.6201L28.2901 32.8101L38.2201 27.2601ZM22.5201 19.6001C22.9109 19.0863 23.4081 18.663 23.9777 18.3593C24.5472 18.0555 25.1757 17.8784 25.8201 17.8401C26.856 17.6526 27.9244 17.8639 28.811 18.4314C29.6976 18.999 30.3367 19.8809 30.6001 20.9001C31.4801 23.7001 30.4101 27.7601 26.8401 30.2901L26.0001 28.8201C25.8497 28.5674 25.6756 28.3297 25.4801 28.1101C25.7375 26.632 26.2519 25.2105 27.0001 23.9101C27.1977 23.6008 27.2678 23.227 27.1959 22.8672C27.1239 22.5073 26.9154 22.1892 26.6141 21.9797C26.3127 21.7702 25.942 21.6855 25.5796 21.7434C25.2172 21.8012 24.8912 21.9972 24.6701 22.2901C23.7922 23.6942 23.1662 25.2407 22.8201 26.8601C22.1277 26.8159 21.4363 26.961 20.8201 27.2801C20.7401 24.9201 21.0001 21.5801 22.5201 19.6001ZM3.4201 35.0601C2.8643 34.1489 2.68095 33.0585 2.90815 32.0157C3.13535 30.9728 3.75563 30.0575 4.6401 29.4601C8.0501 27.2601 12.2701 29.3901 14.5401 30.9001L14.0401 31.1801C13.5709 31.4548 13.1625 31.8223 12.8401 32.2601C10.7901 31.9201 8.6401 31.6401 8.5401 31.6201C8.35494 31.5958 8.1668 31.6082 7.98643 31.6566C7.80607 31.705 7.637 31.7885 7.48889 31.9023C7.18977 32.132 6.99416 32.4711 6.9451 32.8451C6.9208 33.0303 6.93322 33.2184 6.98163 33.3988C7.03005 33.5791 7.11351 33.7482 7.22726 33.8963C7.457 34.1954 7.79614 34.391 8.1701 34.4401C8.1701 34.4401 10.1701 34.7001 12.1001 35.0101C12.1597 35.5491 12.3299 36.0699 12.6001 36.5401L13.2601 37.6801C7.9401 39.3601 4.6601 37.4201 3.4201 35.0601ZM7.7401 50.6701C7.38857 50.8623 6.97567 50.909 6.5901 50.8001C6.39797 50.747 6.21844 50.656 6.06213 50.5323C5.90582 50.4086 5.77591 50.2549 5.6801 50.0801L4.4501 47.8701C4.26905 47.5265 4.22832 47.1261 4.3365 46.753C4.44467 46.38 4.69331 46.0635 5.0301 45.8701L14.8001 40.4001L17.5701 45.2201L7.7401 50.6701ZM17.5101 66.6701V48.4501L25.6001 43.9301H29.3401V67.2801H18.1401C17.973 67.2801 17.8128 67.2137 17.6946 67.0956C17.5765 66.9774 17.5101 66.8172 17.5101 66.6501V66.6701ZM54.3301 66.6701C54.3301 66.8372 54.2637 66.9974 54.1456 67.1156C54.0274 67.2337 53.8672 67.3001 53.7001 67.3001H42.7001V43.9301H53.7001C53.8672 43.9301 54.0274 43.9965 54.1456 44.1146C54.2637 44.2328 54.3301 44.393 54.3301 44.5601V66.6701Z" fill="white"/>
<path d="M46.9201 38.0901C47.1657 38.2825 47.4681 38.388 47.7801 38.3901C47.9987 38.3893 48.2143 38.3385 48.4102 38.2414C48.6061 38.1443 48.7771 38.0036 48.9101 37.8301C54.4901 30.5201 53.4501 21.1701 53.0601 17.6501C53.0198 17.2764 52.833 16.9338 52.5405 16.6977C52.2481 16.4615 51.8739 16.3509 51.5001 16.3901C51.3108 16.4111 51.1276 16.4696 50.9613 16.5624C50.795 16.6551 50.6488 16.7801 50.5315 16.9301C50.4141 17.08 50.3279 17.2519 50.2778 17.4357C50.2278 17.6194 50.215 17.8113 50.2401 18.0001C50.8501 23.4701 50.9901 30.4701 46.6601 36.1501C46.4439 36.4442 46.3501 36.8107 46.3986 37.1725C46.4471 37.5344 46.6341 37.8633 46.9201 38.0901Z" fill="white"/>
<path d="M70.4401 9.41009C62.8201 10.1601 58.2701 18.1501 57.2701 21.8901C57.2203 22.07 57.2066 22.258 57.23 22.4433C57.2534 22.6285 57.3134 22.8072 57.4064 22.9691C57.4995 23.131 57.6237 23.2727 57.772 23.3862C57.9202 23.4997 58.0896 23.5826 58.2701 23.6301C58.391 23.6614 58.5152 23.6782 58.6401 23.6801C58.9499 23.6761 59.2501 23.5715 59.4954 23.3821C59.7407 23.1927 59.9178 22.9288 60.0001 22.6301C60.8001 19.6301 64.6201 12.8301 70.7101 12.2301C70.9043 12.2236 71.0952 12.1774 71.2708 12.0942C71.4464 12.011 71.6031 11.8926 71.7311 11.7464C71.8592 11.6003 71.9558 11.4293 72.0152 11.2443C72.0745 11.0592 72.0952 10.8639 72.076 10.6706C72.0568 10.4772 71.9981 10.2898 71.9035 10.12C71.809 9.95023 71.6806 9.80166 71.5263 9.6835C71.372 9.56534 71.1951 9.48011 71.0066 9.43308C70.818 9.38605 70.6218 9.37822 70.4301 9.41009H70.4401Z" fill="white"/>
<path d="M38.09 8.53988L39.6 10.6199C39.6994 10.7524 39.7522 10.9142 39.75 11.0799V13.8099C39.7497 13.9313 39.7778 14.051 39.832 14.1596C39.8861 14.2683 39.9649 14.3627 40.062 14.4356C40.1591 14.5084 40.2719 14.5575 40.3913 14.5791C40.5107 14.6007 40.6336 14.5941 40.75 14.5599L43.25 13.7699C43.4208 13.7054 43.6092 13.7054 43.78 13.7699L46.19 14.7699C46.3136 14.8229 46.4486 14.8434 46.5824 14.8296C46.7161 14.8158 46.8441 14.7681 46.9543 14.691C47.0644 14.6139 47.1531 14.5099 47.2118 14.389C47.2706 14.2681 47.2975 14.1341 47.29 13.9999C47.29 13.0599 47.29 11.8199 47.29 11.2699C47.2914 11.1031 47.3477 10.9415 47.45 10.8099L49.18 8.59988C49.2586 8.49923 49.3113 8.38082 49.3335 8.25504C49.3556 8.12927 49.3465 7.99998 49.3071 7.87852C49.2676 7.75707 49.1988 7.64718 49.1069 7.55849C49.015 7.4698 48.9028 7.40504 48.78 7.36988L46.38 6.66988C46.2273 6.6131 46.0951 6.51214 46 6.37988L44.23 3.99988C44.156 3.90805 44.0623 3.83396 43.9559 3.78306C43.8494 3.73216 43.733 3.70574 43.615 3.70574C43.497 3.70574 43.3806 3.73216 43.2741 3.78306C43.1677 3.83396 43.074 3.90805 43 3.99988L41.4 6.17988C41.3083 6.30247 41.1834 6.39618 41.04 6.44988L38.5 7.34988C38.3829 7.38614 38.276 7.4495 38.1879 7.53481C38.0999 7.62013 38.0332 7.72499 37.9932 7.84091C37.9533 7.95682 37.9412 8.08052 37.9581 8.20197C37.9749 8.32341 38.0201 8.43918 38.09 8.53988Z" fill="#FDD835"/>
<path d="M58.69 32.4299L60.12 34.4299C60.2183 34.5668 60.2708 34.7313 60.27 34.8999V37.4999C60.2718 37.6206 60.3012 37.7392 60.3559 37.8468C60.4107 37.9543 60.4894 38.0479 60.5859 38.1203C60.6825 38.1927 60.7943 38.2421 60.9129 38.2645C61.0315 38.287 61.1537 38.282 61.27 38.2499L63.65 37.4899C63.8224 37.4348 64.0076 37.4348 64.18 37.4899L66.48 38.4199C66.5988 38.4675 66.7275 38.4851 66.8548 38.4712C66.982 38.4573 67.1039 38.4123 67.2096 38.3401C67.3154 38.268 67.4017 38.1709 67.4611 38.0575C67.5204 37.9441 67.551 37.8179 67.55 37.6899C67.55 36.7899 67.55 35.6199 67.55 35.0999C67.5507 34.93 67.6069 34.7649 67.71 34.6299L69.36 32.4999C69.4384 32.3983 69.4909 32.2792 69.513 32.1529C69.535 32.0265 69.5259 31.8966 69.4866 31.7745C69.4472 31.6525 69.3787 31.5418 69.2869 31.4521C69.1952 31.3624 69.083 31.2965 68.96 31.2599L66.68 30.5999C66.5127 30.5504 66.3656 30.4488 66.26 30.3099L64.63 27.9999C64.5565 27.9006 64.4608 27.82 64.3505 27.7644C64.2403 27.7088 64.1185 27.6799 63.995 27.6799C63.8715 27.6799 63.7497 27.7088 63.6395 27.7644C63.5292 27.82 63.4335 27.9006 63.36 27.9999L61.84 30.0999C61.7494 30.2278 61.6194 30.3226 61.47 30.3699L59.06 31.2299C58.9447 31.2702 58.8404 31.337 58.7556 31.425C58.6708 31.513 58.6079 31.6197 58.5719 31.7364C58.5359 31.8532 58.5278 31.9768 58.5483 32.0972C58.5688 32.2177 58.6174 32.3316 58.69 32.4299Z" fill="#FDD835"/>
<path d="M59.91 9.41988C61.9921 9.41988 63.68 7.732 63.68 5.64988C63.68 3.56777 61.9921 1.87988 59.91 1.87988C57.8279 1.87988 56.14 3.56777 56.14 5.64988C56.14 7.732 57.8279 9.41988 59.91 9.41988Z" fill="#FDD835"/>
</g>
<defs>
<clipPath id="clip0_2223_550">
<rect width="72" height="72" fill="white"/>
</clipPath>
</defs>
</svg>
