<svg width="72" height="72" viewBox="0 0 72 72" fill="none" xmlns="http://www.w3.org/2000/svg">
<path d="M51.4005 25.4006C51.4005 16.9087 44.4919 10 36 10C27.5081 10 20.5995 16.9087 20.5995 25.4006V31.8365C18.9526 32.3985 17.41 33.0448 16 33.7696V57.5038C21.2435 60.1992 28.2708 61.8505 36 61.8505C43.7292 61.8505 50.7565 60.1992 56 57.5038V33.7696C54.59 33.0448 53.0474 32.3986 51.4005 31.8365V25.4006ZM39.0712 46.1778V51.0216C39.0712 52.7177 37.6961 54.0927 36 54.0927C34.3039 54.0927 32.9288 52.7177 32.9288 51.0216V46.1778C31.7419 45.2586 30.9746 43.8236 30.9746 42.2061C30.9746 39.4306 33.2245 37.1807 36 37.1807C38.7755 37.1807 41.0254 39.4306 41.0254 42.2061C41.0254 43.8236 40.2581 45.2586 39.0712 46.1778ZM44.8899 30.1849C42.085 29.6926 39.1006 29.4229 36 29.4229C32.8994 29.4229 29.915 29.6926 27.1101 30.1849V25.4006C27.1101 20.4988 31.0982 16.5107 36 16.5107C40.9018 16.5107 44.8899 20.4988 44.8899 25.4006V30.1849Z" fill="white"/>
</svg>
