<svg width="72" height="72" viewBox="0 0 72 72" fill="none" xmlns="http://www.w3.org/2000/svg">
<path fill-rule="evenodd" clip-rule="evenodd" d="M46.5341 19.3967C47.113 20.0315 47.0676 21.0154 46.4327 21.5942L34.1927 32.7542C33.0398 33.8054 31.2735 33.7974 30.1301 32.7357L25.6597 28.5846C25.0301 28 24.9937 27.0157 25.5783 26.3862C26.1628 25.7566 27.1471 25.7202 27.7766 26.3048L32.1722 30.3864L44.3366 19.2952C44.9715 18.7164 45.9553 18.7618 46.5341 19.3967Z" fill="#1BE176"/>
<path d="M62.8685 29.2492C62.8653 29.2155 62.8653 29.1817 62.8685 29.148C62.6713 28.6491 62.3658 28.2002 61.974 27.8336L54.3441 20.6159V9.10487C54.3431 8.95681 54.3126 8.81044 54.2543 8.67434C54.196 8.53824 54.1111 8.41514 54.0046 8.31227C53.8982 8.20941 53.7722 8.12883 53.6342 8.07529C53.4961 8.02174 53.3488 7.99629 53.2008 8.00044H18.9399C18.6476 8.00247 18.3679 8.11949 18.1612 8.32617C17.9545 8.53285 17.8375 8.81259 17.8355 9.10487V20.6159L10.1667 27.8336C9.77667 28.197 9.47361 28.6436 9.28 29.1403L9.23334 29.2492C9.0783 29.6673 8.99928 30.1098 9 30.5558V60.2978C9.00103 60.785 9.098 61.2672 9.28538 61.7169C9.47277 62.1667 9.7469 62.5751 10.0921 62.9189C10.4374 63.2626 10.8469 63.5351 11.2974 63.7206C11.7479 63.9061 12.2306 64.001 12.7178 64H59.3841C60.3667 64 61.3091 63.6102 62.0047 62.9161C62.7002 62.222 63.092 61.2804 63.094 60.2978V30.5558C63.0972 30.1103 63.0209 29.6678 62.8685 29.2492ZM54.313 23.6492L60.3718 29.3814L54.313 34.8258V23.6492ZM60.9007 31.8702V60.2978C60.9007 60.2978 60.9007 60.3522 60.9007 60.3834L45.1586 45.9635L60.9007 31.8702ZM20.0055 10.2093H52.0963V36.778L37.4198 49.9301C37.0441 50.2684 36.5565 50.4556 36.0509 50.4556C35.5453 50.4556 35.0577 50.2684 34.682 49.9301L20.0055 36.778V10.2093ZM17.7966 23.6492V34.8102L11.7378 29.3658L17.7966 23.6492ZM11.2167 60.3834C11.2167 60.3834 11.2167 60.3211 11.2167 60.2978V31.8702L26.9432 45.9635L11.2167 60.3834ZM28.5999 47.4412L33.212 51.5556C33.9916 52.2564 35.0027 52.644 36.0509 52.644C37.0991 52.644 38.1102 52.2564 38.8898 51.5556L43.502 47.4257L59.1585 61.7911H12.9433L28.5999 47.4412Z" fill="white"/>
</svg>
