<svg width="72" height="72" viewBox="0 0 72 72" fill="none" xmlns="http://www.w3.org/2000/svg">
<path fill-rule="evenodd" clip-rule="evenodd" d="M45.6706 24.3375C46.2206 23.7876 47.1123 23.7876 47.6623 24.3375C48.2123 24.8875 48.2123 25.7792 47.6623 26.3292L37.9915 36.0001L47.6623 45.6709C48.2123 46.2209 48.2123 47.1126 47.6623 47.6626C47.1123 48.2125 46.2206 48.2125 45.6706 47.6626L35.9998 37.9917L26.329 47.6626C25.779 48.2125 24.8873 48.2125 24.3373 47.6626C23.7873 47.1126 23.7873 46.2209 24.3373 45.6709L34.0081 36.0001L24.3373 26.3292C23.7873 25.7792 23.7873 24.8875 24.3373 24.3375C24.8873 23.7876 25.779 23.7876 26.329 24.3375L35.9998 34.0084L45.6706 24.3375Z" fill="#FF5E3A"/>
<path fill-rule="evenodd" clip-rule="evenodd" d="M63 36C63 50.9117 50.9117 63 36 63C21.0883 63 9 50.9117 9 36C9 21.0883 21.0883 9 36 9C50.9117 9 63 21.0883 63 36ZM36 60C49.2548 60 60 49.2548 60 36C60 22.7452 49.2548 12 36 12C22.7452 12 12 22.7452 12 36C12 49.2548 22.7452 60 36 60Z" fill="white"/>
</svg>
