<svg width="72" height="72" viewBox="0 0 72 72" fill="none" xmlns="http://www.w3.org/2000/svg">
<path d="M18.8179 25.9497C18.238 25.9497 17.7679 26.4198 17.7679 26.9997C17.7679 28.3515 16.5884 29.5497 14.9997 29.5497C14.4198 29.5497 13.9497 30.0198 13.9497 30.5997V41.3997C13.9497 41.9796 14.4198 42.4497 14.9997 42.4497C16.5884 42.4497 17.7679 43.648 17.7679 44.9997C17.7679 45.5796 18.238 46.0497 18.8179 46.0497H29.5886C28.6725 45.4639 27.8419 44.7563 27.1195 43.9497H19.7447C19.3218 42.1849 17.8553 40.8405 16.0497 40.4591V31.5403C17.8553 31.1589 19.3218 29.8145 19.7447 28.0497H27.1217C27.8446 27.243 28.6758 26.5354 29.5925 25.9497H18.8179Z" fill="white"/>
<path d="M44.8802 28.0497C44.1573 27.243 43.3261 26.5354 42.4094 25.9497H53.1815C53.7614 25.9497 54.2315 26.4198 54.2315 26.9997C54.2315 28.3515 55.411 29.5497 56.9997 29.5497C57.5796 29.5497 58.0497 30.0198 58.0497 30.5997V41.3997C58.0497 41.9796 57.5796 42.4497 56.9997 42.4497C55.411 42.4497 54.2315 43.648 54.2315 44.9997C54.2315 45.5796 53.7614 46.0497 53.1815 46.0497H42.4133C43.3294 45.4639 44.16 44.7563 44.8824 43.9497H52.2547C52.6777 42.1849 54.1441 40.8405 55.9497 40.4591V31.5403C54.1441 31.1589 52.6777 29.8145 52.2547 28.0497H44.8802Z" fill="white"/>
<path fill-rule="evenodd" clip-rule="evenodd" d="M60 18H12C8.68629 18 6 20.6863 6 24V48C6 51.3137 8.6863 54 12 54H60C63.3137 54 66 51.3137 66 48V24C66 20.6863 63.3137 18 60 18ZM9 24C9 22.3431 10.3431 21 12 21H60C61.6569 21 63 22.3431 63 24V48C63 49.6569 61.6569 51 60 51H12C10.3431 51 9 49.6569 9 48V24Z" fill="white"/>
<path fill-rule="evenodd" clip-rule="evenodd" d="M47.9199 36.0009C47.9199 42.5836 42.5836 47.9199 36.0009 47.9199C29.4183 47.9199 24.082 42.5836 24.082 36.0009C24.082 29.4183 29.4183 24.082 36.0009 24.082C42.5836 24.082 47.9199 29.4183 47.9199 36.0009ZM45.0009 36.0009C45.0009 40.9715 40.9715 45.0009 36.0009 45.0009C31.0304 45.0009 27.0009 40.9715 27.0009 36.0009C27.0009 31.0304 31.0304 27.0009 36.0009 27.0009C40.9715 27.0009 45.0009 31.0304 45.0009 36.0009Z" fill="#FF5E3A"/>
<path d="M32.2267 32.2275C32.6542 31.8 33.3473 31.8 33.7747 32.2275L36.0007 34.4535L38.2267 32.2275C38.6542 31.8 39.3473 31.8 39.7747 32.2275C40.2022 32.6549 40.2022 33.348 39.7747 33.7755L37.5487 36.0015L39.7747 38.2275C40.2022 38.6549 40.2022 39.348 39.7747 39.7755C39.3473 40.2029 38.6542 40.2029 38.2267 39.7755L36.0007 37.5495L33.7747 39.7755C33.3473 40.2029 32.6542 40.2029 32.2267 39.7755C31.7993 39.348 31.7993 38.6549 32.2267 38.2275L34.4527 36.0015L32.2267 33.7755C31.7993 33.348 31.7993 32.6549 32.2267 32.2275Z" fill="#FF5E3A"/>
</svg>
