<svg width="72" height="72" viewBox="0 0 72 72" fill="none" xmlns="http://www.w3.org/2000/svg">
<g clip-path="url(#clip0_2223_535)">
<mask id="mask0_2223_535" style="mask-type:luminance" maskUnits="userSpaceOnUse" x="0" y="0" width="72" height="72">
<path d="M0 0H72V72H0V0Z" fill="white"/>
</mask>
<g mask="url(#mask0_2223_535)">
<path d="M15.7369 8.258C15.9046 8.17015 16.0907 8.1232 16.28 8.121C16.46 8.121 16.6419 8.167 16.8229 8.258C17.0029 8.348 17.1479 8.501 17.2569 8.718L18.3419 11.052L20.6759 12.137C20.8734 12.2271 21.0357 12.3796 21.1379 12.571C21.2279 12.752 21.2729 12.933 21.2729 13.114C21.2729 13.294 21.2279 13.476 21.1379 13.657C21.0357 13.8484 20.8734 14.0009 20.6759 14.091L18.3419 15.176L17.2569 17.51C17.1669 17.7074 17.0144 17.8698 16.8229 17.972C16.655 18.0588 16.469 18.105 16.28 18.107C16.0999 18.107 15.9179 18.062 15.7369 17.972C15.5456 17.8697 15.3931 17.7074 15.3029 17.51L14.2179 15.176L11.8839 14.091C11.6867 14.0014 11.5249 13.8487 11.4239 13.657C11.336 13.4894 11.289 13.3033 11.2869 13.114C11.2869 12.934 11.3329 12.752 11.4239 12.571C11.5249 12.3793 11.6867 12.2267 11.8839 12.137L14.2179 11.052L15.3029 8.718C15.3926 8.52079 15.5453 8.35898 15.7369 8.258ZM5.74995 0.095C5.86668 0.0339226 5.99621 0.00136703 6.12795 0C6.25999 0.00143612 6.38984 0.0339832 6.50695 0.095C6.64046 0.165505 6.74671 0.27844 6.80895 0.416L7.56595 2.043L9.19195 2.799C9.32999 2.86176 9.4435 2.96825 9.51495 3.102C9.57495 3.21905 9.60679 3.34848 9.60795 3.48C9.60679 3.61152 9.57495 3.74095 9.51495 3.858C9.4435 3.99175 9.32999 4.09824 9.19195 4.161L7.56595 4.918L6.80895 6.544C6.74626 6.68151 6.64016 6.79464 6.50695 6.866C6.38969 6.92649 6.25989 6.95869 6.12795 6.96C5.99635 6.95853 5.86691 6.92634 5.74995 6.866C5.61674 6.79464 5.51064 6.68151 5.44795 6.544L4.68995 4.918L3.06495 4.16C2.92723 4.09751 2.81428 3.99089 2.74395 3.857C2.68252 3.74036 2.64963 3.61082 2.64795 3.479C2.64795 3.353 2.67995 3.227 2.74395 3.101C2.81402 2.96728 2.9266 2.86068 3.06395 2.798L4.69095 2.042L5.44795 0.415C5.51037 0.277812 5.6166 0.16525 5.74995 0.095ZM26.4319 0C26.2999 0.00120915 26.17 0.0337693 26.0529 0.095C25.9194 0.165505 25.8132 0.27844 25.7509 0.416L24.9939 2.043L23.3679 2.799C23.2302 2.86149 23.1173 2.96811 23.0469 3.102C22.9858 3.21871 22.9533 3.34826 22.9519 3.48C22.9519 3.606 22.983 3.732 23.0469 3.858C23.117 3.99172 23.2296 4.09832 23.3669 4.161L24.9939 4.918L25.7509 6.544C25.8136 6.68155 25.9197 6.79469 26.0529 6.866C26.1702 6.92649 26.3 6.95869 26.4319 6.96C26.5635 6.95853 26.693 6.92634 26.8099 6.866C26.9436 6.79487 27.0501 6.68171 27.1129 6.544L27.8689 4.918L29.4959 4.161C29.6336 4.09805 29.7468 3.99159 29.8179 3.858C29.8783 3.74104 29.9105 3.6116 29.9119 3.48C29.9105 3.3484 29.8783 3.21896 29.8179 3.102C29.7468 2.96841 29.6336 2.86195 29.4959 2.799L27.8689 2.043L27.1129 0.416C27.0503 0.278656 26.9437 0.166074 26.8099 0.096C26.6933 0.0345753 26.5638 0.0016758 26.4319 0Z" fill="#FDD835"/>
<path fill-rule="evenodd" clip-rule="evenodd" d="M46.8081 9.81006C36.1551 9.81006 27.0451 16.4061 23.3341 25.7311C22.1532 28.7018 21.5484 31.8702 21.5521 35.0671C21.5521 37.4251 21.8751 39.7091 22.4811 41.8761H25.4021C24.7651 39.8683 24.4143 37.7808 24.3601 35.6751C24.4191 35.6451 24.4761 35.6111 24.5321 35.5711L29.4641 32.1111C29.712 31.9372 29.8969 31.6878 29.991 31.4C30.0851 31.1123 30.0834 30.8018 29.9861 30.5151L27.7521 23.9211C27.7041 23.7779 27.6332 23.6435 27.5421 23.5231C30.2933 18.9403 34.5847 15.4854 39.6491 13.7761L46.4611 18.8851C46.7035 19.0668 46.9982 19.1651 47.3011 19.1651C47.604 19.1651 47.8988 19.0668 48.1411 18.8851L54.6331 14.0111C59.4738 15.8173 63.5466 19.2324 66.1691 23.6841C66.1269 23.7597 66.0918 23.839 66.0641 23.9211L63.8301 30.5151C63.7329 30.8018 63.7312 31.1123 63.8253 31.4C63.9194 31.6878 64.1043 31.9372 64.3521 32.1111L69.2591 35.5541C69.1794 39.534 68.0377 43.4204 65.9521 46.8111L57.2511 47.4311C56.9482 47.4526 56.6606 47.572 56.4315 47.7714C56.2024 47.9707 56.0443 48.2391 55.9811 48.5361L54.3411 56.2281C53.7061 56.4541 53.0571 56.6531 52.3971 56.8221V59.7021C63.6561 57.1591 72.0641 47.0951 72.0641 35.0671C72.0641 21.1181 60.7571 9.81006 46.8081 9.81006ZM25.8411 27.0071C25.2048 28.6619 24.768 30.3868 24.5401 32.1451L26.9981 30.4211L25.8411 27.0071ZM66.8181 30.4211L67.8801 27.2871C68.4419 28.8076 68.8359 30.3849 69.0551 31.9911L66.8181 30.4211ZM57.5051 54.8161C59.8823 53.525 62.0079 51.8168 63.7801 49.7731L58.5001 50.1491L57.5051 54.8161ZM47.3001 16.0151L43.1561 12.9061C44.3634 12.7088 45.5848 12.6098 46.8081 12.6101C48.3281 12.6101 49.8141 12.7621 51.2501 13.0501L47.3001 16.0151ZM19.0481 40.4911V41.8761H16.2481V41.8741H4.85613V44.0001C4.85613 44.1592 4.91934 44.3118 5.03186 44.4243C5.14439 44.5368 5.297 44.6001 5.45613 44.6001H6.75013C6.32472 45.3743 6.10246 46.2437 6.10413 47.1271V47.4001H5.45713C4.55539 47.4001 3.69059 47.0418 3.05297 46.4042C2.41534 45.7666 2.05713 44.9018 2.05713 44.0001V31.4001C2.05713 30.4983 2.41534 29.6335 3.05297 28.9959C3.69059 28.3583 4.55539 28.0001 5.45713 28.0001H16.1291V28.0341C16.9397 28.1496 17.6813 28.5538 18.2177 29.1724C18.7542 29.7909 19.0494 30.5823 19.0491 31.4011V40.4921L19.0481 40.4911ZM4.85613 31.4001C4.85613 31.3213 4.87165 31.2432 4.9018 31.1704C4.93195 31.0977 4.97615 31.0315 5.03186 30.9758C5.08758 30.9201 5.15372 30.8759 5.22652 30.8457C5.29931 30.8156 5.37734 30.8001 5.45613 30.8001H15.6481C15.7269 30.8001 15.8049 30.8156 15.8777 30.8457C15.9505 30.8759 16.0167 30.9201 16.0724 30.9758C16.1281 31.0315 16.1723 31.0977 16.2025 31.1704C16.2326 31.2432 16.2481 31.3213 16.2481 31.4001V33.5371H4.85613V31.4001ZM4.85613 36.3371H16.2481V39.0741H4.85613V36.3371Z" fill="white"/>
<path d="M53.8181 44.677H51.7921C51.3567 43.8511 50.7089 43.1562 49.9154 42.664C49.1219 42.1718 48.2116 41.9002 47.2781 41.877H52.8001L55.9101 32.321L47.1121 26.037L38.5691 32.415L41.5691 41.875H38.6321L35.6001 32.313C35.5122 32.0358 35.5129 31.738 35.6019 31.4612C35.691 31.1843 35.8641 30.942 36.0971 30.768L46.2571 23.183C46.495 23.0052 46.7832 22.9076 47.0802 22.9044C47.3772 22.9011 47.6675 22.9924 47.9091 23.165L58.3731 30.64C58.6154 30.813 58.7962 31.0586 58.8893 31.3413C58.9825 31.624 58.9831 31.929 58.8911 32.212L55.1501 43.712C55.0585 43.993 54.8803 44.2378 54.641 44.4114C54.4018 44.5849 54.1137 44.6782 53.8181 44.678V44.677Z" fill="white"/>
<path fill-rule="evenodd" clip-rule="evenodd" d="M22.0952 53.595C22.7579 51.9322 23.9791 50.5522 25.549 49.6922C27.1188 48.8322 28.9393 48.5461 30.6973 48.8829C32.4553 49.2198 34.041 50.1586 35.1818 51.538C36.3226 52.9173 36.9472 54.651 36.9482 56.441C36.9474 57.5742 36.6963 58.6932 36.213 59.7181C35.7297 60.7431 35.0261 61.6487 34.1524 62.3703C33.2787 63.0919 32.2564 63.6117 31.1586 63.8926C30.0608 64.1736 28.9145 64.2086 27.8016 63.9954C26.6886 63.7821 25.6365 63.3258 24.7203 62.659C23.8041 61.9922 23.0464 61.1313 22.5013 60.1378C21.9563 59.1444 21.6372 58.0428 21.567 56.9118C21.4968 55.7808 21.6772 54.6483 22.0952 53.595ZM29.2502 51.543C28.2696 51.5429 27.3114 51.837 26.4997 52.3873C25.688 52.9377 25.0601 53.7189 24.6972 54.63C24.4684 55.206 24.3513 55.8202 24.3522 56.44C24.3516 57.0834 24.4778 57.7206 24.7237 58.3152C24.9697 58.9097 25.3304 59.4499 25.7854 59.9049C26.2403 60.3598 26.7805 60.7206 27.3751 60.9665C27.9696 61.2124 28.6068 61.3387 29.2502 61.338C30.537 61.3196 31.7649 60.7955 32.6683 59.8791C33.5718 58.9626 34.0783 57.7274 34.0783 56.4405C34.0783 55.1536 33.5718 53.9184 32.6683 53.0019C31.7649 52.0855 30.537 51.5614 29.2502 51.543Z" fill="white"/>
<path fill-rule="evenodd" clip-rule="evenodd" d="M7.95312 47.1261C7.95312 46.2243 8.31134 45.3595 8.94896 44.7219C9.58659 44.0843 10.4514 43.7261 11.3531 43.7261H47.1471C48.0489 43.7261 48.9137 44.0843 49.5513 44.7219C50.1889 45.3595 50.5471 46.2243 50.5471 47.1261V65.7561C50.5471 66.2026 50.4592 66.6447 50.2883 67.0572C50.1175 67.4697 49.867 67.8445 49.5513 68.1602C49.2356 68.476 48.8608 68.7264 48.4482 68.8973C48.0357 69.0681 47.5936 69.1561 47.1471 69.1561H11.3531C10.9066 69.1561 10.4645 69.0681 10.052 68.8973C9.63949 68.7264 9.26468 68.476 8.94896 68.1602C8.63324 67.8445 8.3828 67.4697 8.21193 67.0572C8.04107 66.6447 7.95312 66.2026 7.95312 65.7561V47.1261ZM11.3531 46.5261C11.194 46.5261 11.0414 46.5893 10.9289 46.7018C10.8163 46.8143 10.7531 46.9669 10.7531 47.1261V49.3971C11.7071 49.1121 12.3171 48.5791 12.7251 48.0071C13.0551 47.5441 13.2751 47.0241 13.4081 46.5261H11.3531ZM16.2711 46.5261C16.1011 47.5151 15.7201 48.6321 15.0031 49.6351C14.0991 50.9021 12.7111 51.9121 10.7531 52.2721V60.6521C12.7111 61.0121 14.0991 62.0221 15.0031 63.2891C15.7091 64.2781 16.0911 65.3771 16.2631 66.3561H42.0931C42.2661 65.3771 42.6471 64.2781 43.3531 63.2891C44.2791 61.9921 45.7131 60.9631 47.7471 60.6271V52.2971C45.7131 51.9611 44.2791 50.9321 43.3531 49.6351C42.6371 48.6321 42.2551 47.5151 42.0851 46.5251L16.2711 46.5261ZM13.3961 66.3561C13.2576 65.8408 13.0306 65.3535 12.7251 64.9161C12.3171 64.3461 11.7071 63.8121 10.7531 63.5261V65.7561C10.7531 65.9152 10.8163 66.0678 10.9289 66.1803C11.0414 66.2929 11.194 66.3561 11.3531 66.3561H13.3961ZM47.1461 66.3561H44.9601C45.0989 65.8407 45.3263 65.3535 45.6321 64.9161C46.0601 64.3171 46.7101 63.7601 47.7471 63.4861V65.7561C47.7471 65.9152 47.6839 66.0678 47.5714 66.1803C47.4589 66.2929 47.3053 66.3561 47.1461 66.3561ZM47.7461 47.1261V49.4371C46.7101 49.1641 46.0601 48.6071 45.6321 48.0071C45.3185 47.5578 45.0872 47.0563 44.9491 46.5261H47.1471C47.3063 46.5261 47.4589 46.5893 47.5714 46.7018C47.6839 46.8143 47.7471 46.9669 47.7471 47.1261H47.7461Z" fill="white"/>
</g>
</g>
<defs>
<clipPath id="clip0_2223_535">
<rect width="72" height="72" fill="white"/>
</clipPath>
</defs>
</svg>
