<svg width="72" height="72" viewBox="0 0 72 72" fill="none" xmlns="http://www.w3.org/2000/svg">
<path d="M61.0757 14.9993H49.6939C50.1816 14.3378 50.5187 13.5777 50.6815 12.7722C50.8443 11.9667 50.8288 11.1353 50.6362 10.3364C50.4436 9.53752 50.0786 8.79044 49.5666 8.1476C49.0547 7.50475 48.4083 6.98172 47.6727 6.61519C46.9372 6.24866 46.1304 6.04752 45.3089 6.02588C44.4874 6.00424 43.6711 6.16262 42.9173 6.48991C42.1635 6.8172 41.4904 7.30547 40.9454 7.92047C40.4003 8.53547 39.9964 9.26229 39.762 10.0499C38.7085 9.15736 37.3725 8.66748 35.9917 8.66748C34.6109 8.66748 33.2749 9.15736 32.2214 10.0499C31.8142 8.77351 30.9653 7.68404 29.8271 6.97711C28.689 6.27019 27.3362 5.99213 26.0115 6.19284C24.6868 6.39355 23.477 7.05989 22.5994 8.07223C21.7217 9.08457 21.2337 10.3766 21.2229 11.7164C21.2229 12.9412 21.6145 14.0744 22.2811 14.9993H10.9243C9.61975 14.9993 8.36849 15.5169 7.44524 16.4386C6.52199 17.3603 6.00221 18.6107 6 19.9152L6 29.2889C6 29.9388 6.52493 30.4638 7.1665 30.4638H9.16623V62.0427C9.16843 63.1138 9.59489 64.1404 10.3523 64.8978C11.1096 65.6552 12.1362 66.0816 13.2073 66.0838H58.7843C59.8554 66.0816 60.882 65.6552 61.6394 64.8978C62.3968 64.1404 62.8232 63.1138 62.8254 62.0427V50.3777C62.8254 50.2245 62.7953 50.0728 62.7366 49.9313C62.678 49.7897 62.5921 49.6612 62.4838 49.5528C62.3755 49.4445 62.2469 49.3586 62.1053 49.3C61.9638 49.2413 61.8121 49.2112 61.6589 49.2112C61.5057 49.2112 61.3541 49.2413 61.2125 49.3C61.071 49.3586 60.9424 49.4445 60.8341 49.5528C60.7258 49.6612 60.6398 49.7897 60.5812 49.9313C60.5226 50.0728 60.4924 50.2245 60.4924 50.3777V62.0427C60.4924 62.9759 59.7259 63.7425 58.7843 63.7425H41.8534V30.4638H60.4924V41.3623C60.4924 41.6727 60.6158 41.9705 60.8353 42.1901C61.0549 42.4096 61.3526 42.5329 61.6631 42.5329C61.9736 42.5329 62.2713 42.4096 62.4909 42.1901C62.7104 41.9705 62.8338 41.6727 62.8338 41.3623V30.4638H64.8335C65.4751 30.4638 66 29.9388 66 29.2973V19.9069C66 17.1989 63.792 14.9909 61.084 14.9909L61.0757 14.9993ZM30.1383 63.7425H13.2073C12.7565 63.7425 12.3242 63.5634 12.0054 63.2446C11.6866 62.9259 11.5076 62.4935 11.5076 62.0427V30.4638H30.1383V63.7425ZM30.1383 28.1224H8.33301V19.9152C8.33521 19.2316 8.60832 18.5768 9.09248 18.0942C9.57665 17.6116 10.2324 17.3406 10.916 17.3406H30.03C29.7515 18.9445 28.9161 20.3987 27.6709 21.4473C26.4257 22.4959 24.8505 23.0716 23.2226 23.0731C22.9121 23.0731 22.6144 23.1965 22.3948 23.416C22.1753 23.6356 22.0519 23.9333 22.0519 24.2438C22.0519 24.5543 22.1753 24.852 22.3948 25.0716C22.6144 25.2911 22.9121 25.4145 23.2226 25.4145C25.9722 25.4145 28.4302 24.2146 30.13 22.3149V28.1224H30.1383ZM30.1383 14.5243V14.9993H26.8554C26.2061 14.9993 25.5714 14.8067 25.0316 14.446C24.4917 14.0853 24.0709 13.5725 23.8225 12.9727C23.574 12.3728 23.509 11.7127 23.6356 11.0759C23.7623 10.4391 24.075 9.85415 24.5341 9.39503C24.9932 8.93591 25.5782 8.62325 26.215 8.49658C26.8518 8.36991 27.5119 8.43492 28.1117 8.68339C28.7116 8.93187 29.2243 9.35264 29.585 9.89251C29.9458 10.4324 30.1383 11.0671 30.1383 11.7164V14.5327V14.5243ZM39.512 63.7508H32.4797V17.3406H39.512V63.7425V63.7508ZM39.512 15.0076H32.4797V14.541C32.4797 13.6084 32.8501 12.7141 33.5095 12.0547C34.1689 11.3953 35.0633 11.0248 35.9958 11.0248C36.9284 11.0248 37.8227 11.3953 38.4821 12.0547C39.1416 12.7141 39.512 13.6084 39.512 14.541V15.0076ZM41.8534 14.541V11.7164C41.8534 11.0671 42.0459 10.4324 42.4066 9.89251C42.7673 9.35264 43.2801 8.93187 43.8799 8.68339C44.4798 8.43492 45.1399 8.36991 45.7767 8.49658C46.4135 8.62325 46.9985 8.93591 47.4576 9.39503C47.9167 9.85415 48.2294 10.4391 48.356 11.0759C48.4827 11.7127 48.4177 12.3728 48.1692 12.9727C47.9207 13.5725 47.5 14.0853 46.9601 14.446C46.4202 14.8067 45.7855 14.9993 45.1362 14.9993H41.8534V14.5327V14.541ZM63.6503 28.1224H41.8534V22.3232C43.5531 24.223 46.0194 25.4228 48.7607 25.4228C49.0712 25.4228 49.369 25.2995 49.5885 25.0799C49.8081 24.8604 49.9314 24.5626 49.9314 24.2521C49.9314 23.9417 49.8081 23.6439 49.5885 23.4243C49.369 23.2048 49.0712 23.0815 48.7607 23.0815C47.1328 23.08 45.5576 22.5043 44.3124 21.4557C43.0672 20.4071 42.2318 18.9528 41.9533 17.3489H61.0757C61.4149 17.3489 61.7508 17.4157 62.0641 17.5455C62.3775 17.6754 62.6623 17.8656 62.9021 18.1055C63.142 18.3453 63.3322 18.6301 63.462 18.9434C63.5918 19.2568 63.6587 19.5927 63.6587 19.9319V28.1308L63.6503 28.1224Z" fill="white"/>
<path d="M26.6221 40.1875C25.9722 40.1875 25.4556 40.7124 25.4556 41.354V52.2525C25.4556 52.5619 25.5785 52.8586 25.7972 53.0773C26.016 53.2961 26.3127 53.419 26.6221 53.419C26.9314 53.419 27.2282 53.2961 27.4469 53.0773C27.6657 52.8586 27.7886 52.5619 27.7886 52.2525V41.3623C27.7886 40.7124 27.272 40.1958 26.6221 40.1958V40.1875ZM26.6221 35.6548C25.9722 35.6548 25.4556 36.1797 25.4556 36.8296V36.8546C25.4556 37.164 25.5785 37.4607 25.7972 37.6795C26.016 37.8982 26.3127 38.0211 26.6221 38.0211C26.9314 38.0211 27.2282 37.8982 27.4469 37.6795C27.6657 37.4607 27.7886 37.164 27.7886 36.8546V36.8296C27.7886 36.1797 27.272 35.6631 26.6221 35.6631V35.6548ZM62.4921 44.8535C62.2705 44.6337 61.971 44.5104 61.6589 44.5104C61.3467 44.5104 61.0473 44.6337 60.8257 44.8535C60.6084 45.0748 60.4866 45.3725 60.4866 45.6826C60.4866 45.9927 60.6084 46.2904 60.8257 46.5116C61.0473 46.7314 61.3467 46.8548 61.6589 46.8548C61.971 46.8548 62.2705 46.7314 62.4921 46.5116C62.7094 46.2904 62.8311 45.9927 62.8311 45.6826C62.8311 45.3725 62.7094 45.0748 62.4921 44.8535Z" fill="white"/>
</svg>
