<svg width="72" height="72" viewBox="0 0 72 72" fill="none" xmlns="http://www.w3.org/2000/svg">
<path fill-rule="evenodd" clip-rule="evenodd" d="M17.0352 49.4551C17.7548 50.1159 18.5085 50.7391 19.293 51.3213L15.4942 60.501H23.3985C23.7506 60.5011 24.0901 60.634 24.3487 60.873L29.3448 65.4834L32.8213 56.6328C33.7987 56.7398 34.7815 56.7955 35.7647 56.7998L31.2032 68.4131C31.12 68.625 30.9859 68.8133 30.8135 68.9619C30.6411 69.1105 30.4348 69.2147 30.2129 69.2656C29.9911 69.3165 29.76 69.3133 29.5401 69.2549C29.32 69.1963 29.1175 69.0841 28.9502 68.9297L22.8516 63.3008H13.3994C13.1692 63.3008 12.9423 63.2442 12.7393 63.1357C12.5362 63.0272 12.3633 62.8701 12.2354 62.6787C12.1074 62.4872 12.0285 62.2673 12.0059 62.0381C11.9834 61.809 12.0174 61.5779 12.1055 61.3652L17.0352 49.4551ZM59.6924 61.3662C59.7801 61.5789 59.8148 61.8102 59.792 62.0391C59.7692 62.2678 59.6904 62.4876 59.5625 62.6787C59.4347 62.8698 59.2614 63.0264 59.0586 63.1348C58.8557 63.2432 58.6285 63.2998 58.3985 63.2998H48.9463L42.8487 68.9297C42.6814 69.0842 42.4789 69.1963 42.2588 69.2549C42.0388 69.3134 41.8078 69.3165 41.586 69.2656C41.364 69.2147 41.1579 69.1105 40.9854 68.9619C40.8129 68.8133 40.6789 68.625 40.5957 68.4131L36.0342 56.7998C37.028 56.7948 38.0098 56.7388 38.9766 56.6328L42.4541 65.4844L47.4483 60.8721C47.707 60.6334 48.0465 60.5009 48.3985 60.501H56.3047L52.5069 51.3223C53.2915 50.74 54.045 50.1169 54.7647 49.4561L59.6924 61.3662ZM35.9004 3C50.2043 3.00018 61.7998 14.5965 61.7998 28.9004C61.7996 43.2041 50.2041 54.7996 35.9004 54.7998C26.7785 54.7998 18.7595 50.0828 14.1465 42.9619C11.4331 38.7746 9.9924 33.89 10 28.9004C10 25.5214 10.6472 22.2901 11.8272 19.3262C15.6332 9.76317 24.9754 3 35.9004 3ZM35.9004 5.7998C26.1604 5.7998 17.8247 11.8283 14.4287 20.3623C13.3486 23.079 12.7954 25.9769 12.7989 28.9004C12.7989 33.5262 14.1582 37.8305 16.4961 41.4404C20.6142 47.7983 27.7666 52 35.9004 52C48.6581 51.9998 58.9998 41.6581 59 28.9004C59 16.1425 48.6573 5.79998 35.9004 5.7998ZM35.9004 9C46.8903 9.00019 55.7998 17.9105 55.7998 28.9004C55.7996 39.8901 46.8901 48.7996 35.9004 48.7998C28.8915 48.7998 22.7296 45.1749 19.1866 39.7051C17.1706 36.5932 16.0001 32.8802 16 28.9004C15.9971 26.3815 16.4739 23.8847 17.4043 21.5439C20.3284 14.197 27.5055 9 35.9004 9ZM35.9004 11.7998C28.6914 11.7998 22.5199 16.2621 20.0049 22.5801C19.2279 24.533 18.7998 26.6654 18.7998 28.9004C18.7941 32.1941 19.745 35.4185 21.5362 38.1826C24.5852 42.8896 29.8804 46 35.9004 46C45.3441 45.9998 52.9998 38.3441 53 28.9004C53 19.4565 45.3443 11.8 35.9004 11.7998Z" fill="white"/>
<path d="M32.79 24.2641L27.891 25.1261C26.743 25.3281 26.331 26.7631 27.196 27.5441L30.717 30.7211L29.587 35.5841C29.314 36.7611 30.56 37.7081 31.621 37.1301L35.9 34.8001L40.179 37.1301C41.239 37.7081 42.486 36.7611 42.212 35.5841L41.082 30.7211L44.604 27.5441C45.469 26.7641 45.057 25.3281 43.908 25.1261L39.01 24.2641L37.188 19.9841C36.705 18.8481 35.095 18.8481 34.612 19.9841L32.79 24.2641Z" fill="#FDD835"/>
</svg>
